<svg width="143" height="143" fill="none" xmlns="http://www.w3.org/2000/svg"><g stroke="#E7E7E7" stroke-width="5" stroke-linecap="round" stroke-linejoin="round"><path d="M54.622 37.113c14.342 5.353 28.258 3.553 31.085-4.02 2.826-7.572-6.51-18.05-20.85-23.402-14.341-5.352-28.258-3.552-31.084 4.02-2.827 7.573 6.508 18.05 20.85 23.402z"/><path d="M33.773 13.711l-7.165 19.196c-2.826 7.572 6.51 18.05 20.85 23.402 14.342 5.352 28.258 3.552 31.085-4.02l7.163-19.196"/><path d="M26.61 32.907l-7.165 19.195c-2.826 7.573 6.51 18.05 20.85 23.403 14.341 5.352 28.258 3.552 31.084-4.02l7.164-19.196"/><path d="M19.444 52.102s-4.337 11.624-7.164 19.196c-2.826 7.573 6.51 18.05 20.85 23.402 14.341 5.353 28.258 3.553 31.084-4.02l7.164-19.195"/><path d="M12.281 71.298L5.117 90.494c-2.826 7.572 6.509 18.05 20.85 23.402 14.341 5.352 28.258 3.553 31.084-4.02l7.164-19.195m28.015 4.207c14.342 5.352 28.259 3.552 31.085-4.02 2.826-7.573-6.509-18.05-20.85-23.403-14.341-5.352-28.258-3.552-31.084 4.02-2.826 7.573 6.509 18.05 20.85 23.403z"/><path d="M71.38 71.486L64.218 90.68c-2.826 7.573 6.509 18.05 20.85 23.402 14.34 5.353 28.258 3.553 31.084-4.02l7.164-19.195"/><path d="M64.218 90.681l-7.164 19.196c-2.826 7.572 6.509 18.05 20.85 23.402 14.34 5.352 28.258 3.553 31.084-4.02l7.164-19.195"/></g></svg>