<svg width="167" height="167" fill="none" xmlns="http://www.w3.org/2000/svg"><g fill="#E7E7E7"><path d="M155.737 53.712L71.29 6.319a12.832 12.832 0 00-17.486 4.776L28.983 55.323a12.832 12.832 0 00-1.086 9.75 12.823 12.823 0 006.119 7.663l36.068 20.242c-.278.21-.534.446-.766.706a11.07 11.07 0 00-2.037 4.904l-.126.62c-1.215 4.848-2.236 9.657-3.078 13.751l-.051.268a20.667 20.667 0 00-.357 10.266c.44 1.457.89 2.943 1.35 4.41a4.343 4.343 0 00-4.344 2.155l-2.57 4.58a4.319 4.319 0 001.646 5.861l35.299 19.81a4.316 4.316 0 005.86-1.648l2.571-4.581a4.321 4.321 0 00-1.647-5.861l-.469-.263c1.848-1.753 3.764-3.541 5.732-5.201 5.284-4.49 8.514-10.378 11.658-16.069a145.155 145.155 0 013.019-5.291 12.732 12.732 0 0014.175-6.042l24.821-44.228a12.83 12.83 0 00-5.033-17.413zm-56.01 98.262l-2.57 4.58-35.3-19.81 2.572-4.58 35.298 19.81zm19.238-34.279c-1.419 2.265-2.728 4.641-3.984 6.923-3.091 5.596-5.985 10.884-10.674 14.843-2.25 1.898-4.38 3.935-6.459 5.88l-.424.403-27.116-15.218c-.841-2.767-1.692-5.516-2.522-8.302a17.482 17.482 0 01.438-8.123l.061-.286c.83-4.027 1.848-8.788 3.042-13.598l.158-.677a7.89 7.89 0 011.121-3.097 2.715 2.715 0 012.565-.832l.018.01c.13.028.257.067.38.115.465.182.875.48 1.192.866.397.436.623 1.002.637 1.592 0 .753-.075 1.505-.223 2.244-.061.46-.15.928-.19 1.35-.076.575-.19 1.128-.303 1.682a20.248 20.248 0 00-.469 3.958 3.68 3.68 0 002.667 3.866c.858.185 2.489.138 3.88-2.167 1.69-2.878 3.369-5.737 5.04-8.626 2.12-3.648 4.264-7.291 6.43-10.93 3.113-5.24 5.755-9.508 8.251-13.34l.396-.618a2.727 2.727 0 013.65-.963c.631.354 1.108.93 1.339 1.615a2.406 2.406 0 01-.197 1.89L93.52 103.366a2.154 2.154 0 002.459 3.126 2.158 2.158 0 001.295-1.019l6.131-10.926c.548-.976 2.06-1.164 3.355-.438a3.193 3.193 0 011.456 1.583 1.936 1.936 0 01-.134 1.603l-6.079 10.832a2.15 2.15 0 002.458 3.125 2.155 2.155 0 001.295-1.019l4.994-8.898c.202-.356.496-.651.85-.856a3.011 3.011 0 014.086 1.602c.064.248.104.501.118.757a2.46 2.46 0 01-.307 1.161l-4.993 8.898a2.153 2.153 0 103.753 2.107l3.182-5.67a2.603 2.603 0 013.576-.831 2.893 2.893 0 011.347 1.644 2.375 2.375 0 01-.194 1.841l-3.203 5.707zm-18.863-45.49l-1.239-.696 3.593-6.401 15.034 8.388-3.603 6.42-1.896-1.064a6.549 6.549 0 00-.027-3.866 7.159 7.159 0 00-3.33-4.09 6.918 6.918 0 00-8.532 1.308zm27.684 31.31a2.11 2.11 0 01-2.888.749l-4.991-2.801c-.058-.205-.038-.417-.106-.603a7.071 7.071 0 00-3.358-4.13 7.276 7.276 0 00-3.859-.907 5.78 5.78 0 00-.801-2.573 4.115 4.115 0 00-.368-.576c-.072-.09-.126-.17-.199-.26a7.701 7.701 0 00-2.349-2.06 4.6 4.6 0 00-.509-.236c-.142-.054-.273-.128-.415-.183a5.795 5.795 0 00-.568-.22 5.887 5.887 0 00-1.115-.255l3.793-6.758 1.726.968a4.305 4.305 0 005.85-1.629l3.614-6.439a4.308 4.308 0 00-1.667-5.823l-15.013-8.426a4.304 4.304 0 00-5.84 1.611l-3.613 6.439a4.306 4.306 0 001.657 5.842l.9.506-.604.944c-.208.328-.416.655-.614.964a93.503 93.503 0 00-1.295 2.087l-.752 1.207c-.419.703-.857 1.395-1.287 2.117-.271.44-.543.88-.806 1.35-.24.383-.47.748-.701 1.161L44.205 58.978a2.113 2.113 0 01-.865-2.855l20.69-36.87a2.114 2.114 0 012.889-.748l80.694 45.285a2.114 2.114 0 01.865 2.856l-20.692 36.869zm4.41 9.732a8.354 8.354 0 01-8.14 4.17l1.865-3.322a6.731 6.731 0 00.55-5.246 6.46 6.46 0 005.069-3.228l20.691-36.869a6.432 6.432 0 00-2.511-8.716L69.026 14.75a6.429 6.429 0 00-8.748 2.397l-20.692 36.87a6.433 6.433 0 002.512 8.716l47.309 26.55a875.556 875.556 0 00-5.33 9.055c-.998 1.736-2.015 3.461-3.003 5.177.067-.382.114-.775.183-1.205.048-.393.106-.805.172-1.187.192-1.006.286-2.028.282-3.052a7.242 7.242 0 00-4.477-6.313 5.573 5.573 0 00-1.102-.323l-40.01-22.453a8.507 8.507 0 01-4.38-8.383 8.515 8.515 0 01.994-3.17l24.821-44.228a8.516 8.516 0 0111.626-3.127l84.447 47.392a8.502 8.502 0 014.086 5.074 8.522 8.522 0 01-.699 6.479l-24.821 44.228z"/><path d="M82.547 90.051c-.247.44-.68.752-1.205.866a2.283 2.283 0 01-1.592-.254l-3.731-2.094a2.282 2.282 0 01-1.047-1.226 1.801 1.801 0 01.112-1.48c.247-.44.68-.751 1.204-.866a2.283 2.283 0 011.592.255l3.732 2.094c.495.278.871.719 1.046 1.226.176.507.135 1.04-.111 1.48zm-2.409-52.052c-.309.55-.804.965-1.378 1.154a2.083 2.083 0 01-1.68-.145l-9.477-5.318a2.083 2.083 0 01-1-1.36 2.495 2.495 0 01.268-1.777 2.49 2.49 0 011.378-1.154 2.083 2.083 0 011.68.145l9.477 5.318c.503.282.862.771 1 1.36a2.494 2.494 0 01-.268 1.777zM74.09 48.778c-.31.55-.805.965-1.379 1.154a2.083 2.083 0 01-1.68-.145l-9.477-5.318a2.083 2.083 0 01-1-1.36 2.494 2.494 0 01.268-1.776c.308-.55.804-.965 1.378-1.155a2.083 2.083 0 011.68.145l9.477 5.319c.503.282.862.77 1 1.359a2.495 2.495 0 01-.268 1.777zm-6.284 11.194c-.247.44-.683.75-1.213.861a2.34 2.34 0 01-1.613-.266l-9.476-5.318a2.34 2.34 0 01-1.068-1.238c-.18-.51-.144-1.045.103-1.484.247-.44.683-.75 1.213-.862a2.34 2.34 0 011.613.267l9.476 5.318a2.34 2.34 0 011.068 1.238c.181.51.144 1.044-.103 1.484zm32.393-14.354l-9.01 2.722a2.092 2.092 0 01-1.654-.162 2.092 2.092 0 01-1-1.328l-1.581-6.072a2.398 2.398 0 01.235-1.741 2.402 2.402 0 011.35-1.127 2.115 2.115 0 011.667.153 2.11 2.11 0 011.018 1.328l1.02 3.959 6.914-2.1a2.111 2.111 0 011.664.178c.499.286.858.768.999 1.344.139.58.046 1.205-.258 1.739a2.398 2.398 0 01-1.364 1.107zM93.846 56.94l-8.73 2.23a2.188 2.188 0 01-1.627-.21 2.183 2.183 0 01-1.027-1.28l-1.763-5.743a2.088 2.088 0 01.159-1.618c.27-.493.728-.855 1.277-1.007a2.205 2.205 0 011.646.195c.506.277.884.739 1.052 1.283l1.14 3.743 6.7-1.72a2.203 2.203 0 011.635.225c.5.284.868.75 1.027 1.293.156.549.087 1.13-.192 1.62a2.103 2.103 0 01-1.297.988zm-6.211 11.067l-9.007 2.723a2.091 2.091 0 01-1.654-.162 2.092 2.092 0 01-1-1.328l-1.579-6.07a2.378 2.378 0 01.226-1.738 2.385 2.385 0 011.343-1.126 2.117 2.117 0 011.675.145 2.11 2.11 0 011.025 1.33l1.02 3.959 6.911-2.1a2.11 2.11 0 011.663.177c.5.285.858.768 1 1.343.137.58.044 1.206-.26 1.739a2.399 2.399 0 01-1.363 1.108z"/></g></svg>