<svg width="149" height="127" fill="none" xmlns="http://www.w3.org/2000/svg"><g stroke="#E7E7E7" stroke-width="5"><path d="M35.35 83.06L79.84 97.4a5.04 5.04 0 006.343-3.25l19.828-61.518a5.042 5.042 0 00-3.25-6.343L32.201 3.546a5.04 5.04 0 00-6.342 3.25L6.046 68.267a5.04 5.04 0 003.25 6.343l6.236 2.01m79.249 25.596l-9.929-3.2 16.002-49.646 23.528 7.584a2.518 2.518 0 011.552 1.427l9.273 22.978c.219.546.239 1.152.057 1.712l-9.4 29.164-10.289-3.316"/><path d="M21.225 93.862c5.881 1.896 12.206-1.4 14.128-7.36 1.92-5.96-1.29-12.329-7.17-14.224-5.881-1.896-12.206 1.4-14.128 7.36-1.92 5.96 1.29 12.329 7.17 14.224zm79.266 25.55c5.881 1.896 12.206-1.4 14.127-7.36 1.922-5.961-1.289-12.33-7.17-14.225-5.881-1.896-12.206 1.4-14.127 7.36-1.921 5.961 1.289 12.329 7.17 14.225z"/></g></svg>