<svg width="144" height="148" fill="none" xmlns="http://www.w3.org/2000/svg"><path d="M105.092 22.152l2.65-6.448 10.422 4.284 3.914-9.523-10.421-4.284.775-1.884-1.877-.772-.775 1.885-3.914 9.523-2.651 6.448-29.778 9.096 46.428 19.084-14.773-27.409zm-7.238 14.94c-2.667-1.096-3.943-4.172-2.843-6.85 1.102-2.678 4.172-3.967 6.839-2.87 2.667 1.095 3.943 4.171 2.842 6.85-1.101 2.678-4.171 3.967-6.838 2.87zm27.117 96.26l15.594-37.654-33.932-13.948 12.437-30.255-23.214-9.542-23.214-9.542-12.436 30.255-33.981-13.968-15.396 37.736-3.507-1.442L3 95.507l60.602 24.911 60.603 24.911 4.322-10.515-3.556-1.462zM23.314 87.102l-4.741-1.95 10.622-25.84 4.741 1.949L23.314 87.1zm8.545 3.512l-4.742-1.95 10.622-25.84 4.742 1.949-10.622 25.84zm8.495 3.492l-4.742-1.95 10.622-25.84 4.742 1.949-10.622 25.84zm16.868 13.601l-6.667-2.741 22.793-55.45 6.618 2.72-22.744 55.471zm13.237 5.441l-3.31-1.36-3.308-1.36 22.793-55.451 3.31 1.36 3.309 1.36-22.794 55.451zm13.286 5.462l-6.618-2.721L99.92 60.438l6.619 2.72-22.794 55.452zm19.632 1.402l-4.742-1.949 10.622-25.841 4.742 1.949-10.622 25.841zm8.495 3.492l-4.742-1.949 10.622-25.841 4.742 1.949-10.622 25.841zm8.544 3.512l-4.741-1.949 10.622-25.841 4.741 1.949-10.622 25.841z" stroke="#E7E7E7" stroke-width="4"/></svg>