<svg width="149" height="154" fill="none" xmlns="http://www.w3.org/2000/svg"><g stroke="#E7E7E7" stroke-width="5" stroke-linecap="round" stroke-linejoin="round"><path d="M66.689 22.785l-12.227-5.28c-6.752-2.915-14.59.195-17.505 6.947L5.28 97.81c-2.916 6.752.194 14.589 6.946 17.505l12.227 5.28m78.914-81.97l12.226 5.279c6.752 2.916 9.862 10.753 6.946 17.506l-5.279 12.226m-54.971 58.469l-14.522-3.099 8.445-12.212a6.658 6.658 0 013.021-2.402l35.658-14.151 17.506-6.946 6.901 17.391-17.505 6.946-35.658 14.15a6.661 6.661 0 01-3.846.323z"/><path d="M66.69 22.785c2.915-6.752 10.753-9.862 17.505-6.946l12.226 5.28c6.752 2.915 9.862 10.752 6.947 17.505l-5.28 12.226L61.41 35.01l5.28-12.226z"/></g></svg>