<svg width="153" height="144" fill="none" xmlns="http://www.w3.org/2000/svg"><g stroke="#E7E7E7" stroke-width="5"><path d="M3.367 94.577c4.303-13.12 17.5-21.17 31.135-18.988l1.228.196a104.572 104.572 0 0131.32 10.27l1.106.57c12.278 6.315 18.147 20.617 13.845 33.737-1.86 5.671-7.964 8.76-13.635 6.901L10.27 108.212c-5.671-1.859-8.761-7.964-6.902-13.635zm85.744-51.229c-4.153 12.667-17.789 19.568-30.455 15.414C45.989 54.61 39.088 40.974 43.24 28.307c4.154-12.666 17.79-19.568 30.456-15.414C86.363 17.046 93.264 30.68 89.11 43.348z"/><path d="M97.974 71.654c12.666 4.154 26.302-2.748 30.455-15.414 4.153-12.667-2.748-26.302-15.414-30.455m-18.72 109.98l13.389 4.39c5.671 1.859 11.776-1.23 13.635-6.901 4.302-13.12-1.567-27.422-13.845-33.738v0a15.672 15.672 0 00-2.289-.957l-6.344-2.08" stroke-linecap="round"/></g></svg>