<svg width="47" height="47" fill="none" xmlns="http://www.w3.org/2000/svg"><path d="M23.5 0C10.542 0 0 10.542 0 23.5S10.542 47 23.5 47 47 36.458 47 23.5 36.455 0 23.5 0zM2.834 24.882h8.12c.121 2.831.583 5.615 1.418 8.294H5.176a20.531 20.531 0 01-2.342-8.294zm8.12-2.764h-8.12a20.531 20.531 0 012.342-8.294h7.188c-.832 2.679-1.291 5.463-1.41 8.294zm4.338-8.294h16.3a29.802 29.802 0 011.573 8.294H13.718a29.703 29.703 0 011.574-8.294zm-1.573 11.058h19.45a29.914 29.914 0 01-1.582 8.294H15.3a29.812 29.812 0 01-1.582-8.294zm22.214 0h8.233a20.531 20.531 0 01-2.341 8.294h-7.31c.834-2.679 1.296-5.463 1.418-8.294zm0-2.764c-.119-2.831-.578-5.615-1.41-8.294h7.301a20.62 20.62 0 012.342 8.294h-8.233zm4.117-11.06h-6.51c-1.083-2.64-2.532-5.136-4.285-7.464C33.62 4.858 37.38 7.52 40.05 11.06zM25.043 2.843a31.314 31.314 0 015.452 8.217H16.389a31.241 31.241 0 015.447-8.211c.55-.042 1.1-.083 1.664-.083.52 0 1.031.041 1.543.077zm-7.44.788c-1.74 2.317-3.182 4.802-4.258 7.429H6.948c2.64-3.503 6.35-6.149 10.655-7.429zM6.948 35.941h6.405c1.082 2.63 2.53 5.118 4.278 7.434-4.316-1.274-8.037-3.923-10.683-7.434zm14.92 8.211a31.395 31.395 0 01-5.468-8.21h14.084a31.32 31.32 0 01-5.472 8.216c-.5.036-1.003.077-1.512.077-.553 0-1.092-.041-1.631-.083zm7.358-.738c1.758-2.328 3.218-4.83 4.304-7.473h6.52c-2.677 3.547-6.448 6.212-10.824 7.473z" fill="#fff"/></svg>