<svg width="21" height="15" fill="none" xmlns="http://www.w3.org/2000/svg"><path d="M12.54 14.596c-.27-.269-.4-.594-.389-.975.01-.381.152-.706.422-.975l3.809-3.8H1.348c-.382 0-.702-.13-.961-.388A1.295 1.295 0 010 7.5c0-.381.13-.7.388-.96a1.3 1.3 0 01.96-.385h15.034L12.539 2.32a1.309 1.309 0 01-.404-.96c0-.37.135-.69.404-.957.27-.27.59-.404.962-.404.37 0 .69.135.96.404l6.168 6.154c.135.135.23.28.287.438.057.156.085.325.084.504 0 .18-.028.348-.085.504a1.195 1.195 0 01-.286.438l-6.202 6.188c-.247.247-.556.37-.926.37s-.691-.134-.962-.404z" fill="#fff"/></svg>