<svg width="16" height="25" fill="none" xmlns="http://www.w3.org/2000/svg">
    <path fill-rule="evenodd" clip-rule="evenodd"
        d="M13.122 10.486l-.347 2.703H8.604v9.46H6.069v-9.46H2.267v-2.703H6.07V8.01c0-3.436 1.98-5.658 5.045-5.658 1.313 0 2.132.075 2.605.142l-.037 2.56-1.95.004c-.052-.006-1.322-.111-2.238.786-.591.577-.89 1.407-.89 2.464v2.18h4.518v0zm-2.778-3.641c.5-.496 1.277-.442 1.334-.44l3.252-.001.07-5.001-.49-.129C14.198 1.192 13.236 1 11.115 1 7.34 1 4.802 3.818 4.802 8.01v1.125H1v5.405h3.802V24h5.07v-9.46h4.006l.696-5.405H9.871v-.828c0-.658.16-1.15.473-1.462z"
        fill="#051a3c" stroke="#051a3c" />
</svg>