<svg width="34" height="21" fill="none" xmlns="http://www.w3.org/2000/svg"><path d="M18.686 13.798v-.002L11.608.444a.835.835 0 00-1.478 0L3.052 13.796v.002L.096 19.37a.834.834 0 00.985 1.19.836.836 0 00.493-.408L4.29 15.03h13.158l2.715 5.122a.836.836 0 001.478-.782l-2.954-5.572zm-13.51-.438l5.693-10.74 5.693 10.74H5.176zm23.529-6.833a5.606 5.606 0 00-3.934 1.562.834.834 0 00.587 1.424.836.836 0 00.59-.238 3.923 3.923 0 012.757-1.078c1.998 0 3.623 1.373 3.623 3.061v1.564a5.627 5.627 0 00-3.623-1.285c-2.92 0-5.295 2.122-5.295 4.731 0 2.61 2.375 4.732 5.295 4.732a5.626 5.626 0 003.623-1.286v.047a.834.834 0 001.427.59.834.834 0 00.245-.59v-8.503c0-2.609-2.375-4.731-5.295-4.731zm0 12.803c-1.998 0-3.623-1.373-3.623-3.062 0-1.688 1.625-3.061 3.623-3.061 1.998 0 3.623 1.373 3.623 3.061s-1.625 3.062-3.623 3.062z" fill="#fff"/></svg>