<svg width="24" height="24" fill="none" xmlns="http://www.w3.org/2000/svg">
    <path fill-rule="evenodd" clip-rule="evenodd"
        d="M11.666 18.03a6.364 6.364 0 100-12.727 6.364 6.364 0 000 12.727zm0-2.12a4.242 4.242 0 100-8.486 4.242 4.242 0 000 8.485z"
        fill="#051a3c" />
    <path d="M18.03 4.242a1.06 1.06 0 100 2.122 1.06 1.06 0 000-2.122z" fill="#051a3c" />
    <path fill-rule="evenodd" clip-rule="evenodd"
        d="M.694 3.475C0 4.835 0 6.618 0 10.182v2.97c0 3.563 0 5.345.694 6.707a6.364 6.364 0 002.78 2.78c1.362.694 3.144.694 6.708.694h2.97c3.563 0 5.345 0 6.707-.693a6.364 6.364 0 002.78-2.781c.694-1.362.694-3.144.694-6.708v-2.97c0-3.563 0-5.345-.693-6.706A6.364 6.364 0 0019.859.694C18.497 0 16.715 0 13.15 0h-2.97C6.619 0 4.837 0 3.476.694a6.364 6.364 0 00-2.781 2.78zM13.152 2.12h-2.97c-1.817 0-3.052.002-4.007.08-.93.076-1.406.214-1.737.383a4.243 4.243 0 00-1.854 1.854c-.17.331-.307.807-.383 1.737-.078.955-.08 2.19-.08 4.007v2.97c0 1.817.002 3.052.08 4.006.076.93.214 1.406.383 1.738a4.243 4.243 0 001.854 1.854c.331.169.807.306 1.737.383.955.077 2.19.08 4.007.08h2.97c1.817 0 3.052-.003 4.006-.08.93-.076 1.406-.214 1.738-.383a4.243 4.243 0 001.854-1.854c.169-.332.306-.808.383-1.738.077-.954.08-2.19.08-4.007v-2.97c0-1.816-.003-3.051-.08-4.006-.076-.93-.214-1.406-.383-1.737a4.243 4.243 0 00-1.854-1.854c-.332-.17-.808-.307-1.738-.383-.954-.078-2.19-.08-4.007-.08z"
        fill="#051a3c" />
</svg>