<svg width="155" height="151" fill="none" xmlns="http://www.w3.org/2000/svg"><path d="M135.208 31.239a2.182 2.182 0 00-2.734 1.432l-30.496 97.521a2.184 2.184 0 00-.071 1l2.103 12.981a2.184 2.184 0 003.727 1.166l9.124-9.471c.235-.244.41-.539.511-.863l30.495-97.52a2.182 2.182 0 00-1.432-2.735l-11.227-3.511zM113.359 133.21l-5.737 5.956-1.323-8.164 29.69-94.945 7.06 2.208-29.69 94.945zm32.663-82.26L135.63 84.185a2.182 2.182 0 104.167 1.303l10.392-33.233a2.182 2.182 0 10-4.167-1.303zM87.464 81.098L34.722 64.605a2.183 2.183 0 00-1.303 4.166l52.742 16.493a2.183 2.183 0 101.303-4.166zm-9.638 30.825L25.083 95.431a2.183 2.183 0 00-1.303 4.166l52.743 16.493a2.182 2.182 0 101.303-4.167zm13.822-44.206L38.906 51.224a2.183 2.183 0 00-1.303 4.167l52.742 16.493a2.183 2.183 0 001.303-4.167zm-49.86-25.705l31.31 9.79a2.183 2.183 0 001.304-4.166l-31.31-9.79a2.182 2.182 0 10-1.304 4.166zm4.184-13.38l31.31 9.79a2.182 2.182 0 101.303-4.166l-31.31-9.79a2.183 2.183 0 00-1.303 4.166z" fill="#E7E7E7"/><path d="M2.13 113.396l84.326 26.369a2.176 2.176 0 002.727-1.428l25.243-80.724.002-.008a2.133 2.133 0 00.077-.36l.008-.053c.007-.062.01-.125.011-.187l.001-.025a2.36 2.36 0 00-.008-.188l-.001-.025a2.029 2.029 0 00-.024-.174c-.003-.012-.003-.025-.006-.037a2.16 2.16 0 00-.037-.157l-.013-.05a1.838 1.838 0 00-.049-.14l-.021-.063a2.071 2.071 0 00-.075-.161l-.014-.031-19.04-36.363a2.204 2.204 0 00-.107-.183l-.032-.045a2.138 2.138 0 00-.094-.127l-.03-.035a2.233 2.233 0 00-.111-.125l-.022-.02a2.015 2.015 0 00-.135-.125l-.016-.012c-.05-.04-.1-.08-.153-.116l-.019-.011a2.085 2.085 0 00-.162-.1l-.048-.023c-.048-.025-.095-.05-.144-.07a2.055 2.055 0 00-.204-.076L37.333.816a2.177 2.177 0 00-2.727 1.428L.701 110.668a2.177 2.177 0 001.428 2.728zm105.853-60.078l-20.608-6.441 6.444-20.61 14.164 27.052zM38.111 5.621L90.582 22.03l-8.011 25.627a2.177 2.177 0 001.428 2.726l25.623 8.01-23.944 76.568-80.172-25.07L38.111 5.621z" fill="#E7E7E7"/></svg>