<svg width="121" height="140" fill="none" xmlns="http://www.w3.org/2000/svg"><path d="M59.226 71.962c-1.44-.55-2.61-1.22-3.505-2.006-.856-.811-1.474-1.542-1.854-2.193-.372-.684-.545-1.074-.52-1.17l2.45-2.045c-.017.064.165.422.545 1.073.38.652.898 1.305 1.553 1.96.696.63 1.528 1.072 2.495 1.327 1.193.313 2.192.248 2.998-.195s1.34-1.165 1.602-2.164c.254-.967.115-1.814-.418-2.54-.525-.758-1.384-1.621-2.577-2.59-1.096-.942-1.968-1.757-2.615-2.444-.606-.71-1.068-1.573-1.388-2.587-.31-1.047-.284-2.264.08-3.65.491-1.87 1.414-3.282 2.767-4.236 1.386-.946 2.992-1.42 4.82-1.422l2.254-6.025 3.144.826-.934 6.113c.804.35 1.58.743 2.326 1.18.747.437 1.349.837 1.805 1.198.465.329.754.542.866.64l-1.722 3.012c-.135-.139-.456-.43-.96-.872-.504-.443-1.14-.903-1.911-1.381-.739-.47-1.446-.794-2.123-.972-1-.262-1.837-.224-2.512.116s-1.119.913-1.33 1.718c-.254.968-.107 1.85.441 2.65.59.775 1.536 1.695 2.841 2.762 1.153.992 2.06 1.868 2.722 2.628.67.727 1.177 1.619 1.52 2.674.344 1.055.338 2.26-.018 3.614-.517 1.966-1.521 3.495-3.014 4.584-1.452 1.067-3.276 1.518-5.473 1.354l-1.907 5.29-3.143-.826.695-5.401z" fill="#E7E7E7" fill-opacity=".46"/><path d="M35.732 84.319l38.891 9.805" stroke="#E7E7E7" stroke-opacity=".55" stroke-width="6" stroke-linecap="round" stroke-linejoin="round"/><path d="M106.311 45.78c2.802 4.691 4.203 7.037 4.59 9.668.386 2.631-.282 5.28-1.618 10.58l-12 47.596c-3.082 12.222-4.623 18.334-9.377 21.173-4.755 2.84-10.866 1.299-23.088-1.782l-38.89-9.805c-12.223-3.082-18.334-4.623-21.174-9.377-2.84-4.754-1.298-10.865 1.783-23.088l16.342-64.818c3.082-12.222 4.622-18.333 9.377-21.173 4.754-2.84 10.865-1.299 23.087 1.783L77.013 12c5.298 1.336 7.948 2.004 10.082 3.592 2.133 1.587 3.534 3.933 6.337 8.624L106.31 45.78z" stroke="#E7E7E7" stroke-opacity=".55" stroke-width="6" stroke-linejoin="round"/></svg>