<svg width="134" height="142" fill="none" xmlns="http://www.w3.org/2000/svg"><path d="M6.382 118.523l112.329 21.749a6.359 6.359 0 007.449-5.033l6.444-33.282a6.357 6.357 0 00-5.032-7.45l-8.321-1.61.403-2.08a8.478 8.478 0 00-6.71-9.932l-12.481-2.417a8.475 8.475 0 00-9.931 6.71l-.403 2.08-8.321-1.61a6.293 6.293 0 00-3.309.27l-6.8-3.79.145-.75A92.447 92.447 0 0076.4 79.44c.748-.334 1.458-.654 2.123-.936A18.075 18.075 0 0088.33 68.21l1.823-4.89a8.488 8.488 0 008.096-6.862l2.819-14.56A33.897 33.897 0 0074.231 2.17a33.9 33.9 0 00-39.727 26.84l-2.82 14.56a8.488 8.488 0 004.955 9.39l-.133 5.213a18.072 18.072 0 005.256 13.214 131.99 131.99 0 011.621 1.66 93.805 93.805 0 003.505 3.5l-.145.749-20.322 2.57C13.842 81.463 5.08 91.808 1.752 108.993l-.402 2.08a6.358 6.358 0 005.032 7.449zm113.135 17.588l-45.764-8.86a2.122 2.122 0 01-1.677-2.483l3.296-17.024a6.282 6.282 0 002.006.785l14.561 2.819-.403 2.081a6.355 6.355 0 005.032 7.448l4.161.806a6.356 6.356 0 007.449-5.032l.402-2.081 14.562 2.82c.711.13 1.44.137 2.154.02L122 134.434a2.122 2.122 0 01-2.483 1.677zm-23.418-23.957l8.321 1.611-.403 2.08a2.118 2.118 0 01-2.483 1.677l-4.16-.805a2.118 2.118 0 01-1.677-2.483l.402-2.08zm-1.407-26.17a4.238 4.238 0 014.966-3.355l12.481 2.416a4.24 4.24 0 013.355 4.966l-.403 2.08-20.802-4.027.403-2.08zm-16.172 5.5a2.119 2.119 0 012.483-1.676l45.763 8.86a2.116 2.116 0 011.678 2.483l-2.014 10.401a2.118 2.118 0 01-2.483 1.677l-45.764-8.86a2.122 2.122 0 01-1.677-2.483l2.014-10.401zM73.425 6.332A29.695 29.695 0 0196.91 41.09l-1.43 7.383a8.354 8.354 0 00-2.044-1.345 9.664 9.664 0 00-5.897-9.794 44.031 44.031 0 01-15.397-8.808 5.51 5.51 0 00-5.808-1.125 44 44 0 01-17.575 2.424 9.664 9.664 0 00-9.123 6.878 8.398 8.398 0 00-2.398.485l1.427-7.374A29.695 29.695 0 0173.425 6.33zM44.758 68.389a13.81 13.81 0 01-4.016-10.105l.173-6.808a2.119 2.119 0 00-1.715-2.134 4.237 4.237 0 111.61-8.321 2.12 2.12 0 002.484-1.678 5.896 5.896 0 015.251-5.276 48.25 48.25 0 0019.32-2.7 1.259 1.259 0 011.376.267 48.26 48.26 0 0016.912 9.712 5.896 5.896 0 012.905 6.858 2.119 2.119 0 001.677 2.483 4.238 4.238 0 01-1.611 8.32 2.119 2.119 0 00-2.387 1.34l-2.382 6.383a13.81 13.81 0 01-7.496 7.874c-.686.299-1.416.624-2.198.973-4.52 2.032-10.144 4.564-15.332 3.56-5.188-1.005-9.461-5.453-12.896-9.025-.589-.615-1.15-1.196-1.675-1.723zm22.484 14.466A8.476 8.476 0 0150.6 79.633a20.189 20.189 0 007.923 3.664c2.904.49 5.88.34 8.719-.442zm-61.33 26.944c2.952-15.243 10.425-24.38 21.041-25.73l19.277-2.44a12.7 12.7 0 0024.321 4.709l4.502 2.51a6.266 6.266 0 00-.694 1.831l-6.444 33.283a6.283 6.283 0 00-.02 2.154L7.187 114.363a2.12 2.12 0 01-1.677-2.483l.403-2.081z" fill="#E3E3E3" fill-opacity=".55" stroke="#E3E3E3" stroke-opacity=".55" stroke-width="1.5"/></svg>