<svg width="25" height="24" fill="none" xmlns="http://www.w3.org/2000/svg"><path fill-rule="evenodd" clip-rule="evenodd" d="M5.675 23.188V7.541H.317v15.645h5.358zM2.997 5.407c1.868 0 3.031-1.203 3.031-2.704C5.993 1.168 4.865 0 3.032 0 1.198 0 0 1.168 0 2.703c0 1.502 1.163 2.704 2.961 2.704h.036zm5.644 17.78s.07-14.177 0-15.645h5.36v2.27h-.036c.705-1.069 1.974-2.637 4.865-2.637 3.527 0 6.17 2.236 6.17 7.042v8.97h-5.358v-8.37c0-2.102-.776-3.537-2.716-3.537-1.48 0-2.362.967-2.75 1.902-.141.333-.175.8-.175 1.268v8.738H8.64z" fill="#D3D3D3"/></svg>