<svg width="215" height="231" fill="none" xmlns="http://www.w3.org/2000/svg"><path d="M187.056 51.532l-55.182-26.508-4.274-2.053-4.473 1.57-61.844 21.708-4.473 1.57-2.053 4.273-41.373 86.127c-7.38 15.363-.886 33.866 14.479 41.247l79.411 38.147c15.363 7.38 33.865.884 41.245-14.479l53.012-110.357c7.381-15.364.887-33.866-14.475-41.245zm-48.853 146.646c-4.656 9.691-16.284 13.773-25.973 9.119l-79.411-38.148c-9.692-4.655-13.773-16.283-9.118-25.974l41.373-86.127L92.23 70.093c8.072 3.877 17.764.477 21.643-7.597l13.045-27.156L182.1 61.848c9.689 4.655 13.77 16.282 9.115 25.974l-53.012 110.356z" fill="#E7E7E7"/><path d="M168.777 79.948l-28.991-13.926-13.926 28.99 28.99 13.927 13.927-28.991zm-21.724 45.225L75.156 90.636l-3.9 8.118 71.897 34.537 3.9-8.118zm-11.141 23.193l-71.896-34.537-3.9 8.117 71.897 34.537 3.899-8.117zm-11.142 23.192l-71.896-34.537-3.9 8.117 71.897 34.537 3.899-8.117z" fill="#E7E7E7"/></svg>