<svg width="188" height="200" fill="none" xmlns="http://www.w3.org/2000/svg"><path d="M143.334 65.433c-6.837 13.349-23.2 18.627-36.548 11.79-13.35-6.837-18.627-23.2-11.79-36.548 6.837-13.348 23.2-18.627 36.548-11.79 13.349 6.837 18.627 23.2 11.79 36.548zM11.19 124.874c14.813-28.922 50.267-40.358 79.188-25.545l8.057 4.126c28.921 14.814 40.358 50.267 25.544 79.189l-2.063 4.028a9.051 9.051 0 01-12.183 3.93l-96.676-49.517a9.052 9.052 0 01-3.93-12.183l2.063-4.028z" stroke="#E3E3E3" stroke-opacity=".87" stroke-width="16"/></svg>