<svg width="195" height="196" fill="none" xmlns="http://www.w3.org/2000/svg"><path fill-rule="evenodd" clip-rule="evenodd" d="M111.303.726a8.351 8.351 0 016.357.081l61.212 26.065c12.678 5.399 18.614 19.969 13.259 32.543l-51.708 121.433c-5.355 12.575-19.972 18.393-32.65 12.994l-91.818-39.097c-12.677-5.399-18.614-19.968-13.26-32.543l38.782-91.075a8.216 8.216 0 014.526-4.412l65.3-25.989zm61.105 41.325l-53.56-22.807-16.159 37.948c-1.785 4.192-6.657 6.131-10.883 4.331l-38.258-16.29-35.55 83.485c-1.784 4.192.195 9.048 4.42 10.848l91.818 39.097c4.226 1.8 9.099-.139 10.884-4.331l51.708-121.433c1.785-4.191-.194-9.048-4.42-10.848zm-101.575-7.39l19.785 8.425 8.357-19.625-28.142 11.2zM55.924 82.107c1.785-4.191 6.658-6.13 10.884-4.331l61.211 26.065c4.226 1.8 6.205 6.656 4.42 10.848-1.785 4.191-6.657 6.131-10.883 4.331L60.344 92.955c-4.226-1.8-6.205-6.656-4.42-10.848zm-12.927 30.358c1.785-4.191 6.658-6.13 10.883-4.331l61.212 26.065c4.226 1.8 6.205 6.656 4.42 10.848-1.785 4.192-6.657 6.131-10.883 4.331l-61.212-26.065c-4.226-1.799-6.205-6.656-4.42-10.848z" fill="#E3E3E3" fill-opacity=".87"/></svg>