<svg width="46" height="41" fill="none" xmlns="http://www.w3.org/2000/svg"><path d="M28.188 20.162v3.68l3.087-2.002 12.499-8.101c.037-.024.055-.025.061-.025h0c.014 0 .039.004.07.021a.189.189 0 01.069.065c.011.02.026.051.026.113v24.89c0 .144-.105.197-.156.197H2.156C2.105 39 2 38.947 2 38.804V2.196C2 2.053 2.105 2 2.156 2H12.22c.051 0 .156.053.156.196v21.646l3.088-2.002 12.496-8.1s0 0 0 0c.038-.024.055-.025.062-.025h0c.013 0 .038.004.07.021a.188.188 0 01.068.065c.012.02.026.051.026.113v6.25z" stroke="#fff" stroke-width="4"/></svg>