<svg width="23" height="23" fill="none" xmlns="http://www.w3.org/2000/svg"><path d="M1.368 13.578l.974-.228-.974.228zm0-6.367l.974.229-.974-.229zm18.053 0l.973-.228-.973.228zm0 6.367l.974.228-.974-.228zm-5.843 5.843l-.228-.974.228.974zm-6.367 0l-.228.974.228-.974zm0-18.053L6.983.395l.228.973zm6.367 0l.228-.973-.228.973zm7.715 21.34a1 1 0 001.414-1.415l-1.414 1.414zM2.342 13.35a12.94 12.94 0 010-5.91L.395 6.983a14.94 14.94 0 000 6.823l1.947-.456zm16.105-5.91a12.939 12.939 0 010 5.91l1.948.456a14.94 14.94 0 000-6.823l-1.948.457zM13.35 18.447a12.939 12.939 0 01-5.91 0l-.457 1.948c2.244.526 4.58.526 6.823 0l-.456-1.948zM7.44 2.342a12.94 12.94 0 015.91 0l.456-1.947a14.94 14.94 0 00-6.823 0l.457 1.947zm0 16.105a6.84 6.84 0 01-5.098-5.097l-1.947.456a8.84 8.84 0 006.588 6.589l.457-1.948zm6.366 1.948a8.841 8.841 0 006.589-6.589l-1.948-.456a6.84 6.84 0 01-5.097 5.097l.456 1.948zM13.35 2.341a6.84 6.84 0 015.097 5.098l1.947-.457A8.84 8.84 0 0013.806.395l-.456 1.947zM6.983.395A8.84 8.84 0 00.395 6.983l1.947.457A6.84 6.84 0 017.44 2.342L6.983.395zM17.017 18.43l4.276 4.276 1.414-1.414-4.276-4.276-1.414 1.414z" fill="#153A76"/></svg>