<svg width="26" height="26" fill="none" xmlns="http://www.w3.org/2000/svg"><path d="M1.421 15.375l.974-.229-.974.229zm0-7.276l.974.228-.974-.228zm20.631 0l.974-.229-.974.229zm0 7.276l.974.228-.974-.228zm-6.677 6.677l-.229-.973.229.973zm-7.276 0l-.229.974.229-.974zm0-20.631L7.87.447l.229.974zm7.276 0l.228-.974-.228.974zm8.918 24.286a1 1 0 001.414-1.414l-1.414 1.414zM2.395 15.147a14.93 14.93 0 010-6.82L.447 7.87a16.93 16.93 0 000 7.733l1.948-.457zm18.684-6.82a14.932 14.932 0 010 6.82l1.947.456c.596-2.543.596-5.19 0-7.733l-1.947.457zm-5.933 12.752a14.932 14.932 0 01-6.819 0l-.457 1.947c2.543.596 5.19.596 7.733 0l-.457-1.947zM8.327 2.395a14.93 14.93 0 016.82 0l.456-1.948a16.93 16.93 0 00-7.733 0l.457 1.948zm0 18.684a7.96 7.96 0 01-5.932-5.933l-1.948.457a9.96 9.96 0 007.423 7.423l.457-1.947zm7.276 1.947a9.96 9.96 0 007.423-7.423l-1.947-.457a7.961 7.961 0 01-5.933 5.933l.457 1.947zm-.457-20.631a7.961 7.961 0 015.933 5.932l1.947-.457A9.96 9.96 0 0015.603.447l-.457 1.948zM7.87.447A9.96 9.96 0 00.447 7.87l1.948.457a7.96 7.96 0 015.932-5.932L7.87.447zm11.536 20.374l4.887 4.886 1.414-1.414-4.886-4.887-1.415 1.415z" fill="#153A76"/></svg>