<svg width="25" height="25" fill="none" xmlns="http://www.w3.org/2000/svg"><path d="M2.368 14.578l1.46-.343-1.46.343zm0-6.367l1.46.343-1.46-.343zm18.053 0l1.46-.342-1.46.342zm0 6.367l1.46.342-1.46-.342zm-5.843 5.843l-.343-1.46.343 1.46zm-6.367 0l-.342 1.46.342-1.46zm0-18.053L7.87.908l.342 1.46zm6.367 0l.342-1.46-.342 1.46zm7.361 21.693a1.5 1.5 0 002.122-2.122l-2.122 2.122zM3.83 14.235a12.439 12.439 0 010-5.681L.908 7.869a15.44 15.44 0 000 7.052l2.92-.686zm15.13-5.681a12.438 12.438 0 010 5.681l2.921.685a15.438 15.438 0 000-7.051l-2.92.685zM14.236 18.96a12.438 12.438 0 01-5.681 0l-.685 2.921c2.319.544 4.732.544 7.051 0l-.685-2.92zM8.554 3.83a12.439 12.439 0 015.681 0L14.92.908a15.439 15.439 0 00-7.051 0l.685 2.92zm0 15.131a6.34 6.34 0 01-4.725-4.725l-2.921.686a9.34 9.34 0 006.96 6.96l.686-2.92zm6.366 2.921a9.34 9.34 0 006.961-6.96l-2.92-.686a6.34 6.34 0 01-4.726 4.726l.685 2.92zM14.235 3.83a6.34 6.34 0 014.726 4.725l2.92-.685a9.34 9.34 0 00-6.96-6.961l-.686 2.92zM7.87.908a9.34 9.34 0 00-6.961 6.96l2.92.686a6.34 6.34 0 014.726-4.725L7.869.908zm9.795 18.877l4.275 4.276 2.122-2.122-4.276-4.275-2.121 2.121z" fill="#153A76"/></svg>