<svg width="27" height="23" fill="none" xmlns="http://www.w3.org/2000/svg">
    <path fill-rule="evenodd" clip-rule="evenodd"
        d="M23.052 1.537c.427-.101.726-.202.97-.307.342-.147.626-.323 1.075-.62.377-.25.86-.272 1.257-.057.398.215.646.631.646 1.085 0 1.332-.165 2.423-.548 3.384-.322.808-.774 1.465-1.316 2.062-.228 4.144-1.423 7.399-3.25 9.864-1.892 2.556-4.411 4.192-7.066 5.109-2.648.913-5.445 1.117-7.951.808-2.49-.307-4.791-1.135-6.395-2.387a1.235 1.235 0 01-.376-1.455 1.226 1.226 0 011.303-.738c1.578.227 3.097-.134 4.347-.649a7.6 7.6 0 01-.694-.43c-1.138-.79-2.056-1.865-2.47-2.695a1.237 1.237 0 01.363-1.538C1.285 11.596.614 9.691.614 8.415A1.234 1.234 0 011.5 7.231a9.094 9.094 0 01-.294-1.093C.88 4.553.909 2.763 1.264 1.34a1.226 1.226 0 012.254-.317c1.322 2.3 3.761 3.707 6.031 4.541a20.15 20.15 0 002.797.794c.16-1.504.578-2.744 1.22-3.73a5.629 5.629 0 013.297-2.41c2.188-.592 4.615.082 6.189 1.32zM11.964 8.795c-.84-.17-1.996-.454-3.258-.917-1.665-.611-3.6-1.565-5.22-3.041.03.271.07.54.125.803.271 1.32.776 2.06 1.233 2.29.56.28.82.94.603 1.529-.295.798-1.068.863-1.77.687.565.85 1.58 1.699 3.275 1.983a1.23 1.23 0 011.025 1.195 1.231 1.231 0 01-.986 1.228l-1.069.215c.164.142.34.282.53.413.855.595 1.714.851 2.455.665a1.226 1.226 0 011.392.638 1.235 1.235 0 01-.309 1.504c-.79.66-1.713 1.19-2.638 1.63a13.6 13.6 0 01-1.446.59c.405.087.827.158 1.262.212 2.173.268 4.592.087 6.853-.693 2.254-.778 4.338-2.145 5.896-4.249 1.557-2.1 2.643-5.008 2.788-8.956.012-.31.14-.606.359-.825.552-.555 1.008-1.19 1.232-1.946-.392.123-.834.23-1.361.33-.4.077-.81-.05-1.098-.338-.939-.942-2.794-1.562-4.336-1.145a3.175 3.175 0 00-1.881 1.381c-.506.776-.893 1.986-.893 3.821 0 .349-.147.681-.405.915-.61.554-1.64.226-2.358.081z"
        fill="#051a3c" />
</svg>