<svg width="494" height="322" fill="none" xmlns="http://www.w3.org/2000/svg"><path d="M378.26 169.159l.476-.346v.476l.217.476.692.822.476-.476v.13l-.129.346.346.692.909.216.909-1.168 1.472-1.384 1.039-.562-.346-.346.216-.346-.346-.476-.347-.216.477-.822-.13-.562-1.039-.692-.909-.13-.693-.476h-.909l-1.472 1.471-.216 1.254-.693 2.119zm60.605-35.207l-.346 1.471-1.039.822-2.424.692-4.026 3.114-1.169.216-1.385-.13-1.169.346-.476 1.384-.13 2.163-.346.692-1.039.346-2.857.346-.909.562-2.858 2.422-1.255 1.471-.822 1.817-.693 1.038-.909.562-.909.476-1.732 1.384-4.718 2.768-.563 1.038.563 1.254 1.039.563 4.026.475 1.038.692.477.476.476.562.692 1.384.477.476h.476l-.346.909-.217.475-1.385 1.817-.13.216v.216l.13.476v.563l.13.216.13.13.822.129.13.346-.13.563-.13.216-.563 1.168v.432l.13.216.217.346.562.822.563 1.038.13.822.13 2.855-.216.908-.347-.346-1.255-.562-1.039.346-.823 4.022-1.601 1.817-2.078 1.254-2.987 1.168-2.771 2.076-5.281 1.73-.693.346-.562.476-1.256 1.471-.692.562-.823.216-.909-.346-.346-.346-.347-.346-.562-.908-.347-.346-.692-.476-.347-.346-1.169-1.73-.692-.562-.909-.13-.476-.216-.347-.347-.346-.346-.563-.129-.909.346-.476.216-.476.346-.693.908-.476 1.038-.217 1.168v1.384l.217 2.076-.13.476-.476.216-1.732.13-1.039.692v.822l1.169 1.946.563 2.163.216.692.823 1.384.346.692.217.822-.217 1.816-.909.13-1.169-.476-.822.13.13 1.168 2.078 1.817v.908l-1.039.476h-1.386l-2.64-.822-1.039-.476.13-.476.476-1.47v-.563l-.217-.346-.476-1.038.563-3.46.13-.216.13-.346.13-.216.476-.563.13-.346v-.346l-.13-.346-.13-.346-.217-.216-.346-.346-.13-.346.563-.346-.216-.216-.217-.13h-.693l.347-1.384.216-.562.693-.346v-.217l-.217-.216-.216-.13-.217.13-.346.346-.216.216-.217-.129v-.217l.476-.475.13-.346-.173-.39-.563-.475-.346-.909h-.563l-1.255.216.476-.821.13-.346-.216-.13-.477.13-.346.216-.476.13-.476-.217.346-.475-.13-.476-.346-.476-.347-.346-.216-.13h-.433l-.216-.216v-.735l-.347-.562-.13-.217-.346-.216-.822-.346-.217-.13-.216-.346-.347-.692-.216-.346-.476-.346-.563-.216-.693-.13-.476.216-.13-.692-.129-.216h-.13l-.217.216-.13-.129-.13-.217v-.908l-.129-.346-.217-.346-1.472-1.384.217-.13.909-.346.346-.346.217-.346.562-1.47.563-1.471.346-.476.347-.476 1.039-.475 1.039-.476.346-.562.346-.563.217-.216.216-.216.346-.13.347-.13.563-.13.562-.129.477-.217.562-.216.476-.346.477-.346.216-.216.217-.216.129-.217.13-.216.217-1.816.216-1.817v-1.298h-.26l-.129-.129-.13-.13v-.26l.13-.129.129-.13.13-.13.13-.13.693-.346.692-.346.217-.129.216-.13.217.13.216.129.13-.346.13-.346.346-.346.347-.346.822-.476.823-.475h.432l.477.129.476.13h.433l.563-.346.562-.346.217-.13.216-.129.823.129.822.13.13-.13.13-.129v-.433l-.217-.476-.216-.475v-.433l.216-.476.217-.476.346-.216.347-.216.822-.216.823-.217 1.471-1.167 1.472-1.168.476-.476.477-.476.216-.216.217-.216 1.948-.563 1.948-.562 1.601-.13 1.602-.129.563-.217.563-.216.476-.562.476-.476.216-.346.217-.346.216-.216.217-.216.822-.346.823-.346 1.169-.909 1.168-.908.347-.476.346-.476 1.039-1.73.909-1.73.216-.216.217-.216.216-.13.217-.13.216-.13.217-.129.216-.13.217-.13.216-.216.216-.216.13-.346.13-.346.346-.822.347-.822.563-.562.562-.563 1.386-.562 1.385-.562h.433l.216.216.217.216.216.217.217.216.129.216.13.216.13.346.13.346.216.217.217.216.346.13.347.13h.692l.476-.217.477-.216.346-.562.346-.563.217-.692.216-.692.346-.562.347-.692.476-.476.346-.476.13-.216.13-.216.13-.346.13-.346.216-.216.217-.217h.692l.693.217.692.216.563-.13.563-.13.563-.216.563-.216.909-.822.909-.822.562-.562 1.256-.908.909-.13.909.346 4.026 2.855 1.558.432z" fill="#051A3C"/><path d="M381.25 171.582l-.823-.26-.346-.692.13-.346v-.086l-.476.432-.693-.778-.217-.476-.129-.433-.433.217h-.13l.822-1.86.217-1.255 1.472-1.47h1.039l.692.432.823.13 1.039.692.086.562-.346.822.346.216.347.476-.217.346.217.346-1.039.433-1.472 1.384-.909 1.168zm-7.574 41.522l-1.385-.908-6.753 1.254-1.256 1.6-.476.822-.13.476v.649l.13.346.13.216.13.13.216.692.13.346v.562l-.13 1.254-.13.217h-.129l-.13-.13-.13-.13-.13-.13h-.216l-.217.13v.13l.13.13.13.129.476.346.13.13.13.13v.216l-.13.216-.13.346v.563l-.13.346.346.129 1.039-.908.477.346.822 1.254.346.217.217-.217.13-.346v-.216l.216-.562.13-.13h.346l.13-.13.347-.692v-.605l-.693-1.384-.217-.822-.129-.692.216-.346.563.476.563 1.254.476 1.6.692 1.038 1.256-.475-.13-.822-2.511-3.547-.13-.346v-.259l.13-.822-.13-.216-.476-.476-.13-.346.346-.692.477.346.692 1.168.347-.13 1.039-.909.562-.216 2.078.346.693-.13.216-.475v-.563l-.13-.562-.346-.216zm4.113-13.106l-.13-.346-.13-.346-.217-.216-.346-.346-.13-.346.563-.346-.216-.216-.217-.13h-.693l.347-1.384.216-.562.693-.346v-.217l-.217-.216-.216-.13-.216.13-.347.346-.216.216-.217-.129v-.217l.477-.475.129-.346-.129-.346-.563-.476-.347-.908h-.562l-1.256.216.476-.822.13-.346-.216-.13-.476.13-.347.216-.476.13-.476-.216.346-.476-.13-.476-.346-.476-.346-.346-.217-.129h-.433l-.216-.217v-.735l-.346-.562-.13-.216-.346-.217-.823-.346-.216-.129-.217-.347-.346-.692-.217-.346-.476-.346-.563-.216-.692-.13-.476.217-.13-.692-.13-.217h-.13l-.216.217-.13-.13-.13-.216v-.909l-.13-.346-.216-.346-1.472-1.384-.563.216-.346.217-.347.216-.13.476-.129.476h-.736v1.816l-.13.216-.13.217-.13.129-.13.13-.13.13-.13.13v.692l.13 1.6.13 1.6.13.346.13.346.13.13.13.13.129.13.13.129.347.13.346.13v.865l.13.216.13.217.13.216.129.216v.26l-.346.562-.346.562.216.13.217.13-.13.216-.13.216-.346.216-.347.217h-.346l-.346-.13-.563-.216-.563-.217h-.26l-.129.13-.13.13-.13.346-.13.13-.13.129h-.476l-.217.217-.216.216-.13.216-3.333-1.816-2.165-1.168-.129 1.47-.347.476-1.602.216-.346.13-.13.13v.259l-.13.217v.908l-.216 1.384.13.216.13.13.476-.13.476-.129h.217l.129.475-3.463 7.786-.13.476-.129.562.129 1.038.13.346.13.346.13.13.822.129 6.537.13 8.615-2.162h.13v.129l-.13.217-.13.216-.13.216-.13.216-.346 1.471-.13.216-.13.346.346.692 1.602-.475.693-.13 1.731.346.693-.13 1.039-.562.563-.217 4.718-.692.693.13.909.476.13-.476.476-1.47v-.563l-.216-.346-.477-1.038.563-3.46.13-.216.13-.346.13-.216.476-.563.13-.346.563-1.514zm-37.405 55.882h.649l2.208-.821.433-.13.346-.087h.477l.476.087.216.13.476.475.433.087.477-.216.432-.346h.953l.433.562 1.039 2.206.476.778.346.476.346.692-.129.779-.217.605-.346.562-.476.346-.477.346-.692.087h-.433l-.346.259-.13.779.13.346.129.346.087.346v.346l-.087.216-.822.606-.216.432.086.692.346 1.384.13.822-.13 2.033.13.822.217.432.692 1.168.13.563.087 1.167.13.433.216.605 1.169 1.038 1.039 1.947.433.562 1.515.779 2.294 2.076.693 1.168.13 1.34-.476 2.206-.693 1.947-1.169 1.73-.303.692-.26.692-.086.432-.26.476-.216.216-.217.13-.346.216-1.385.13-.909.346-.477.433-1.255 3.806-.823 1.6-2.164 2.985-1.515 1.47-1.472 1.86-1.255 2.163-.823 2.162-.086 1.514.562 2.855.13 1.514-.13 1.384-.346 1.124-.563 1.168-.13.432-.13-.562-.346-.562-.433-.26-.692-.216-1.039.13-.347-.13-.216-.13-.693-.432-.346-.13h-.346l-.477.216h-.346l-.216.26-.13.346-.217.346-.346.086-.433-.432-.606-1.514-.563-.346-.692.26-.433.346-.953.908-.562.432-.563.346-.693.13-.692.13-.693.086-1.126.822-.606.087-.692-.303-.346-.476-.217-.692-.216-.692-.563-.432-1.299-.606-.563-.346-.346-.562-.433-1.471-.346-.346-.606-.259-1.126-.779-.562-.259h-1.386l-2.64.605-3.81.216-.216.13-.563.433-.346.129h-.823l-.346-.129-1.818-.779-.693-.13-.823.13-.562.087-.693-.433.13-.692.433-.692.476-.476.476-.778-.13-.606-.476-.432-.563-.563-.346-1.038.13-1.254.563-2.422.13-1.514-.26-2.725.13-1.514 1.039-1.686 1.601-2.206 1.039-2.076-.216-.649.779-.606.476-.908.087-.476.26-1.47.086-.563.26-.259 3.55-3.331.216-.302.13-.476.216-.476.13-.432.217-.693.476-.821.216-.217.217-.216 1.169-.13.216-.129 1.732-.909 3.116-2.638.433-.346v-.216l.217-.822.346-1.946.13-.563.216-.475.13-.217 1.169-.908.433-.562.346-.606.217-.432 1.169-.346.433-.26.259-.216.563-.433.216-.475 1.732-3.331.13-.13.216-.216.217-.216.476-.13.346-.13h.909l.347.13.216.13.13.086h.13l.563.606.13.086h.216l.13-.086v-.822l.086-.216.13-.346.347-.476.129-.216.087-.346v-.346l-.087-.476-.129-.087v-1.038l.129-.216v-.605l-.129-.217-.693-1.254-.13-1.254-.216-.952v-.562l.216-.216.26-.217.086-.129.26-.13.346-.087.304-.129 2.077-.13.563-.216.346-.346.607.562 3.679.605zm-34.456-56.79l.217.13 3.593.086 1.255.346.433.13.476.13h.563l.822-.26h.087l.26.13.086.216.26.476.087.433.129.346-.129.475-.087.563-.26.605-.086.217v2.292l.086.562.347 1.947.129.216.13.259.217.087.563.259.129.217.087.129v.217l-.087.216v.346l.087.259.823.995v.822l-.217.346v.13l-.26.086-.433.26-.259.086v.346l.13 1.73.129.13.087.216h.346l.26.13.217-.13h.129l.563-.346h.563l.216.217.13.259v.433l-.13.216v.346l.13.259.909 1.039.477-.13h.129l.087-.13.346.606 2.295.648h.822l.087-.086h.259l.433.346.26.086h.217l.346-.086.563.086 5.064.952.433.778.823 3.461-.13.346-.433.086h-.26l-.779.26-.563.216-.952.476-.433.346-.216.216v.086l-.13.26v1.125l.13.259v1.254l-.13.087-.347.13-.216.129h-.822l-.477.087-.086.346-.13.259v2.639l.216.562.477.433 1.168 1.167 2.165 1.817-.217.346-.346 1.514-.26 1.47v1.385l-.433 1.254-.129 1.168-.217.086-.216-.086-.347.086-.13.13-6.796-1.73-1.602-.087v.217l.13.346v.129l-.13.217v.216l-.086.13-.13.129-.217.087h-.346l-3.117.216-.433-.086-.259-.13-.087-.087-.26-.129-.086-.217v-.821l.216-1.038-.13-.563-.562-1.038-.563-.13-2.554-.562-2.165-.346h-.476l-.433.216-.476.26-.216.216-.217.13-.952 1.471-.217.259-2.164.908h-.26l-.346-.129-.433-.217-1.732-1.384-.692-.476h-.563l-4.156 1.039h-.087l-2.77 1.254-.693.476-.346.129h-1.039l-1.948-.475-.216-.217-.13-.129v-.476l-.087-.303v-.259l.087-.563v-.562l-.087-.26-.13-.086-.692-.606-.909-.562-1.472-1.47-.26-.476-.216-.216v-.13l-.13-.087-.217-1.297-.13-.087v-.259l-.216-.087h-.13l-.087-.13h-.346l-.909-.129-.26.129-.346.13v1.125l-.087.259v.087l-.129.129-.693.433-.563.346-.346.13-12.294-.346-1.472-2.985-.347-1.124v-.26l.78-1.946.13-.216v-.346l.129-.563-.129-.346-.823-3.114-.216-.346-.217-.216-.606-.562-.909-.952-.087-.432v-.217l.087-.129.26-.13h.216l1.385-.216 1.689-.476.259-.087.217-.259.13-.692.086-.217.13-.216.217-.13h.259l.91.563.779.346.822.129h.909l.347-.129.216-.087.26-.476.433-1.946.13-.216.476-1.038.086-.216v-.26l-.086-.216-.13-.13-.13-.087h-.346l-.087-.259v-.216l.693-1.038.086-.217.13-.129v-.346l.13-.779v-.562l.087-.346.13-.346.216-.13.13-.13h.433l2.64 1.168.606.087.087.129h.26l.779 1.038.476.476 1.126.433.476.475.563.217.692-.13 1.169.822 1.255.216 6.191-1.341.346-.13 1.818-1.73.26-.346.087-.346.13-.216-.13-.216-.217-.26-.13-.086-.346-.13h-.216l-.563.13h-.346v-.606l.779-1.687.259-.821.087-.563.346-.475.693-1.039.13-.216v-.346l-.476-.476v-.086l-.087-.346v-.26l.433-.778.13-.822v-1.341l-.346-.951v-.217l.129-.216.563-.346.217-.13.216-.432v-.346l-.087-.26-.216-.346-.26-.692v-.562l.13-.692.346-.908.217-.563.216-.346.347-.475.346-.217.476-.129h.347l.476.259.562.433.433.346.606.129.433.087.563-.087.693-.259 2.078-1.471.216-.129.26.129.346.13.779.692 1.039 1.125.13.216v.476l-.26.562v.259l.13.087v.13l.13.216.346.476.563.562zm115.581-16.739v-.692l-.347-.908-.346-.692-.693-.562-.822-.346-.476.13.346.821.476.476.823 1.168.476.476.563.129zm29.869-18.598l.13-.346.13-.476.13-.216.346.13.13.562.217.13.216-.217v-.821l.216-.13.217.13.216.216 2.641 4.022.476 1.168.13 1.255-.13 1.6.13 1.6.823.346 2.294-.346.693.563.476.562.476.216.822-.562.563-.563.693-.475.692-.13.693.476.346.692.13 1.038v1.038l.217 1.946v.822l-.217.692-.346.908.909-.216-.13.562-.693 3.201-.216.216-.13.13-.216.13-.476.13-1.732.129-.476.13h-.476l-3.81-.908-.822.13h-1.256l-.346.129-1.169.563-.909-.476-2.987.822-.346.562-.347.216-.909.908-.13.217v.216l.347.476.476.908-.823.822-2.424.822-2.511 1.384-.562.475-.909 1.385-1.819 1.73-.692.129-.476-.129-1.256-.692-.563-.476-.346-.13-.563-.13-.346-.129-.216-.13-.823-.822-.216-.13-1.169-.13-.13-.129 1.818-2.509-3.203.216-.909-.129-.217-.13-.216-.13-.476-.216h-.606l-1.386 1.254h-.346l-.823-.13h-.346l-.476.217-.346.346-.217.346-.346.346-.693.475.13-.346.217-1.254-1.169-.692-2.641-.562-.476-.562-.13-.693.216-.475.563-.13 1.039.908.563.217v-.693l-.217-.346-5.281-5.968-.909-.822-.13-.13-.13-.13-.562-.562.216-.908-.13-2.855-.13-.822-.562-1.038-.563-.822-.217-.346-.13-.216v-.432l.563-1.168.13-.216.13-.563-.13-.346-.822-.129-.13-.13-.13-.216v-.563l-.13-.476v-.216l.13-.216 1.385-1.817.217-.475.346-.909h.216l1.039-.346 3.55-2.076 1.039-.13.563.346.476.692 1.602 2.769.216.821v.822l-.476 2.293v.692l.346.562.476-.13.563-.216.693-.13.563.216.562.346.477.476.346.562.563.476.562.13 1.256-.216 1.385.216.693.346.562.476.563.346 1.039.13.476.346.693 1.254.476.346.217-.692-.13-.822-.13-.692.13-.562.562-.346h.693l.346.476.347 1.47.216.562.346.346h.347l.346-.692.693-.908 1.948 1.73.692-.562.13-1.384-.216-6.531.216-.476.347.13 1.385 1.254 1.255.562 1.039-.216.823-.822.909-2.076.476-1.254.13-.822-.13-.692-.823-1.038-.346-.692.563-1.471.346-.475.693-.217.563.13.346.476.13.692v.822l-.563 2.162v.476l1.385.173zm-297.921 5.277l.693-.087.476-.346 1.125-2.292.476-.476.477-.346.562-.346.563-.13h1.515l5.498 1.385 1.385.562 1.256.822 1.731 1.254 4.935 5.406 3.42 5.493.13.13.346.217.477.129 1.471-.476 4.719 5.277.909 1.514.346 1.254-1.515 3.201-5.93 7.439v-.086l-.26-.822-.217-.346-1.039-1.47-.476-.822-.563-2.293-.346-.432-.909-1.168-.346-.476-.217-.778-.259-1.73-.909-3.201-.347-.692.26-.346-.13-.562-.13-2.639-.086-.822-.26-.562-2.035-3.546-.606-.693-6.407-4.714-2.554-1.125-2.727-.692-1.169-.129-.563.346-.476.778-.216 1.298-.693.432-.563 1.168-.822.908-.996.563h-1.039l-1.168-.433-2.987-2.206h-.563l-1.602.346-.216-.346-.13-.346-.13-.086-.087.346-.346.562-.26.216-.216.13-1.385-1.384-1.949-.476-5.844.346-3.463 1.168h-1.688l-.952-.216-.909-.606-1.472-1.6-1.732-1.254-2.77-1.471-3.204-1.644-.822-.778-.217-.908.476-2.985.087-.692.476-.562.476-.476 1.126-.562.476-.476-.26-.692-1.948-2.725-.909-1.73-.216-1.384.692-1.038.78-.562h.952l.996.346 1.039.562.562.216h.477l.346-.432-.13-.606-.216-.562-.347-.433-.433-.346-1.385-.821-.346-.476-.347-.433.347-.346.346-.908-.13-.476-.346-.562v-.562l.216-.13.476-.13h.823l.563-.216 1.472-1.168.476-.433.216-.129h.476l.563.475.346.087 1.516.476 1.342.13.346.346.13.778v1.73l.216.562.823 1.255.346.951.779 1.471.347.476.606.346.562.216h1.386l.433.216.346.692.476 1.514.693 1.254.909 1.125 6.883 6.099.692.216.347.13.346.216 1.039 1.168.909.778.563.26 1.731.302.563.346 1.515 1.731.347.562.346 1.038.433.259.26.087.649.346z" fill="#051A3C"/><path d="M289.609 243.034h1.039l.346-.129.693-.476 2.77-1.255h.087l4.156-1.038h.562l.693.476 1.732 1.384.433.217.346.129h.26l2.164-.908.217-.26.952-1.47.216-.13.217-.216.476-.26.433-.216h.476l2.165.346 2.554.562.562.13.563 1.038.13.562-.216 1.039v.821l.086.217.26.129.087.087.259.13.433.086 3.117-.216h.346l.217-.087.13-.129.086-.13v-.216l.13-.217v-.129l-.13-.346v-.217l1.602.087 6.796 1.73-.13.13-.216.216v.216l-.13.606.26 1.34.779.822 3.55 1.255 2.294.129 1.169.433.13.13.216.346.13.216h.217l.433-.087.259.087.217.476.13.475-.347 2.855.087.908-.346.346-.563.217-2.078.129-.303.13-.346.087-.26.129-.087.13-.26.217-.216.216v.562l.216.952.13 1.254.693 1.254.13.216v.606l-.13.216v1.038l.13.087.086.476v.346l-.086.346-.13.216-.346.476-.13.346-.087.216v.822l-.13.086h-.216l-.13-.086-.563-.606h-.13l-.129-.086-.217-.13-.346-.13h-.909l-.347.13-.476.13-.216.216-.217.216-.13.13-1.731 3.33-.217.476-.562.433-.26.216-.433.259-1.169.346-.216.433-.347.606-.432.562-1.169.908-.13.216-.217.476-.129.562-.347 1.947-.216.822v.216l-.433.346-3.117 2.638-1.732.909-.216.129-1.169.13-.216.216-.217.217-.476.821-.216.692-.13.433-.217.476-.13.475-.216.303-3.55 3.331-.259.259-.087.562-.26 1.471-.086.476-.477.908-.779.606-.346-1.038-1.039-.692-1.039-.476-1.039-.346h-2.294l-.823-.216-2.943-1.385-1.299-1.73-.909-.778-.909-.476-1.862-.562-1.818-1.384-.822-.476-1.819-.216-2.857-1.471h-1.039l-.822.346-1.342.995-.823.476-1.948.129-1.948-.605-4.718-3.201-2.857-1.946-3.896-2.639-2.641-2.508-3.809-3.46-1.949-1.255-4.242-1.47-3.679-2.076-6.061-5.147-1.645-2.076.476-.563 2.641-2.898 1.255-.908 4.026-1.6 1.472-.476 4.848-1.817h.087l.13-.216.13-.259v-.217l-.13-.216-.13-.13-.909-1.168-.217-.302-.129-.26v-.778l.129-.346.347-.346 2.164-2.422.13-.13.217-.087h.692l.347-.13.346-.346 2.857-2.854 1.385-1.038 2.771-.692.563-.346 12.294.346.346-.13.563-.346.692-.433.13-.129v-.087l.087-.259v-1.125l.346-.13.26-.129.909.129h.346l.087.13h.13l.216.087v.259l.13.087.217 1.297.129.087v.129l.217.217.26.476 1.471 1.47.91.562.692.606.13.086.087.26v.562l-.087.562v.26l.087.303v.476l.129.129.217.217 1.948.475zm148.568-27.551l-.692.216-.13.13-.347.216h-.346l-.13-.13-.13-.13-1.601-.692-.823-.475-.476-.563-.346-1.038-.477-.908-.692-.476-.909.476-.476 1.168-.13.692v.562l.13.562.692 1.601.347.476.346.216.822.13.347.216.13 1.168-1.256 1.946v.908l.346.217.477-.217.346-.346.346-.216h.563l.13.346.13.476.346.346h.476l1.386-.346h.909l.346-.13.346-.476v-1.168l-1.255-1.384-.13-.908.476-.476 1.385-.908.217-.562-.217-.346-.476-.173zm28.788-15.139v-.216l-.217-.908-.13-.562.13-.692.13-.693v-.908l-.476-.346-1.472-.476h-.346l-.217-.129-.562-.822-.477-.346-.216.216-.346.346h-.476l-1.732-.346-1.385-.476h-.823l-.563.13-.692-.13-.217-.129-.216-.13-1.169-1.601-.216-.475-.217-.217-.346-.216-1.472-.476h-.822l-.13.13h-.217l-.346-.13-.823-.346h-.346l-.216.13v.692l-.13-.13-.217-.475-.562-1.255-.823-1.254-2.424.822-2.511 1.384-.563.476-.909 1.384-1.818 1.73-.693.13-.476-.13-1.255-.692-.563-.476-.346-.13-.563-.13-.346-.129-.217-.13-.822-.822-.217-.13-1.169-.129-.129-.13 1.818-2.509-3.204.217-.909-.13-.216-.13-.217-.13-.476-.216h-.563l-1.385 1.254h-.346l-.823-.129h-.346l-.476.216-.347.346-.216.346-.346.346-.693.476-.476.216-.13.13v.216l-.13.13-.476.129-.216.13-.477.346-.476.346-1.731 1.471-1.039 1.254-.347.346-.476.216-.476.13-.346.216-.347.346-.692 1.168-.347.346-.216.13-1.948.476-.823.562-.476.692v1.168l.347.562.129.13.217.346.13.13-.347 1.254 1.386.692.562.216h.563l.563-.129.563-.13.692.216.823 1.254.346 1.731.476 1.6 1.169.822 1.256.129 1.255-.129 4.112-1.255 2.511-.216.563.13 1.039-1.038 1.732-.346 3.333.476.909-.13.476-.692.217-.822.476-.692.476-.13.346.216.217.346.346.346.346.217h.477l.909-.13h.562l.909.822 1.256.346.216.476.217.562.562.476.563.346.693.216 1.385.216.693-.13.216-.475.13-.692.217-.692.562-.476.476.476.477.821.216.822v1.471l.217.562.562.216.347-.13 1.471-.908.477-.476.346-.475.563-1.168.909-.908 1.039-.13 1.169.216 1.168.13.347-.13h.346l.346.13.477.13.476-.13.216-.476-.13-.346-.216-.13-.217-.13-.822-.346-.563-.346-.216-.562.13-.562 2.51-1.254.823-.822.476-1.038.13-.692.216-.346 1.948-1.038.477-.13.779.951zm-13.42 17.907l-1.039.822-.476.216h-.693l-.476.562.217.562.562.476.563.216.693.217.476-.13.216-.476.693-2.422-.13-.346-.606.303z" fill="#051A3C"/><path d="M222.94 190.267l3.42-1.168 2.078-3.071 1.732-3.59.563-.649.476-.476.692-.216.433.087.563.475.606.909.216 1.254v2.552l.347.778 1.255.476 7.792.909.606-.563.909-3.46.563-.216.909-.476 3.81-.086 1.255-.26.909-.432.953-1.255h.303l.346.909.606 3.762.216 1.039.477 1.167.909.779 1.039.605 2.857.649 8.744.606 1.342-.346-.692 2.292-.217 1.038v1.946l.13.693v.908h-.346l-1.515-.346h-.347l-.216.13-.217.086-.346.562v.476l-.822 2.422-.563.692-.563.433-.693 2.076-.216.692h-3.463l-.563-.216-.693-.476-.562-.476-.606-.216h-.563l-1.039.216-.433.26-.346.346v.346l-.13.346v.302l.216.692.693.822-.433 1.384-.346.217-.13.129v.217l.346.475.909.909.476.562.087.216-.087.13-.822.13h-.217l-.216.086-.13.26h-.346l-.347.346-1.385 2.725-.433.605-.476.433-.563.476-1.731.778-.217.476-.259.216-.087.13-.952 1.254-.433 1.038-.476.909.476.908 2.164 2.898.693.562 1.385.779.13.259.087.216.129.346.347.217h.562l1.256-.563.476.13.217.433 3.463 1.6.433.951.346.779v1.384l.26.822.562.346.693.216.433.216.476.476.476.692.087.216.26.347.346 1.038v.216l.086 1.038-1.385 1.038-2.857 2.855-.346.346-.346.129h-.693l-.217.087-.129.13-2.165 2.422-.346.346-.13.346v.778l.13.26.216.303.909 1.167.13.13.13.216v.217l-.13.259-.13.216h-.086l-4.849 1.817-1.472.476-4.025 1.6-1.256.908-2.641 2.898-.476.563-.909-1.168-.692-.433-.78.087-2.294 1.168-.693.086-.909-.086-.822-.476-4.589-3.331-4.026-2.854-3.203-2.293-1.732-1.816-3.117-4.369-1.818-1.73-4.026-2.854-9.394-6.791-4.718-3.33-3.896-2.725-3.333-2.422-1.732-1.731-.346-.086-1.948-2.638-.347-1.038-.562-2.077v-.908l.129-.822.217-.692.13-.692-.13-.778-.823-1.86-.086-.779-.13-1.038-.13-.692-.216-.692-.693-1.47-.216-.692v-1.601l-.347-.346-2.424-1.384-1.255-.476-.693-.432-.087-.26 5.931-7.439 1.515-3.201-.346-1.254-.909-1.514-4.719-5.277 6.537-3.071-.13-.605-8.138-11.332 10.216-3.806h2.424l.909 2.076.693 1.254 4.805 5.753 3.939 6.877.65.346 2.554.692 3.766 1.384 4.502 2.508 8.615 5.407.692 1.125.996 1.038-.087.692zm257.7-5.191l3.68-.302 1.125.302.13 1.038-.13.692h.347l1.385-1.038 2.078-.908.433.346.476.476.563.432 1.731-.086.563.086.26.13.216.692-.909 1.255-1.385.692-2.641 1.038-2.51 1.6-2.078.476-1.039.432-.693 1.038-.216 2.509-.909.476-1.039-.563h-.477l-.216.692-.13.563-.086.476-.26.432-.433.476h-1.169l-2.078-1.384-.995-.13-.953-.433-.909-1.167-.909-.779-.909.346-.13.649.693 1.038v.692l-.217.562v.476l.217.346 1.255.908.13.346.216.346v.909l-.346.951-.563.779-.692.216-.823-.303-1.688-1.038-.346-.13h-1.386l-.346-.129.087-.346h.346l.606-.087.346-.13.087-.346-.217-.216-.562-.13h-.26v-.086l-.217-.952-.129-.432.129-.692.13-.822v-.779l-.476-.346-1.472-.475h-.346l-.13-.217-.563-.821-.476-.217-.216.217-.347.346-.476.129-1.688-.475-1.385-.433-.823.087-.563.129-.692-.129-.347-.087-.216-.13-1.169-1.6-.216-.476-.217-.216-.346-.216-1.515-.476-.433-.13-.346.13-.13.13h-.217l-.476-.26-.693-.346h-.346l-.216.13v.692l-.13-.13-.217-.432-.692-1.168-.779-1.254.779-.909-.476-.908-.303-.476v-.216l.086-.26.909-.908.346-.216.347-.562 2.987-.822.909.476 1.299-.606h1.601l.779-.086 3.81.908.433.13.476-.13 1.732-.13h.433l.259-.086.087-.13.26-.13.692-3.201.087-.562 1.731-.562 1.039-.13.217-.216.346-.952.13-.346.433-.303.476.217.823 1.254.562.346.779.346 1.646.13.086.086.13.13v.216l-.13.217v.951l.563.216h.692l.607.217 1.255 1.946.779 1.038 1.169.476 1.255.086z" fill="#051A3C"/><path d="M88.527 9.602l1.818 1.254 4.935 3.33 5.411 3.677 5.628 3.806 5.844 3.763 5.714 3.893 5.541 3.806 5.282 3.417 4.805 3.244 4.242 2.725 3.333 2.292 2.511 1.73 1.862 1.168.692.908.563 1.039.217.908.129 2.076.347 1.038 1.601 2.638 3.334 3.547 1.601 1.73 1.516 1.687 2.034 2.292 1.602 1.947 1.731 1.946 1.602 1.86 1.732 1.946 1.601 1.817 1.602 1.99 1.602 1.816 1.645 1.817 2.164 2.552.563.216.563.216 3.117 5.277 1.515 1.254 7.662 2.206.476.216v.476l-.13.433-7.792 14.792-7.489 14.143-1.472 3.634-.692 8.174v.433l.13.346 3.203 6.098.563 1.125-.087.259-.346.346-6.234 3.547-.563.433v.605l.217.433 12.294 16.998 8.139 11.332.129.605-6.536 3.071-1.472.476-.476-.13-.347-.216-.129-.13-3.42-5.493-4.935-5.406-1.732-1.254-1.255-.822-1.386-.563-5.497-1.384h-1.515l-.563.13-.563.346-.476.346-.476.476-1.126 2.292-.476.346-.693.087-.649-.346-.26-.087-.433-.259-.346-1.038-.346-.563-1.515-1.73-.563-.346-1.732-.302-.563-.26-.909-.778-1.039-1.168-.346-.217-.346-.129-.693-.217-6.883-6.098-.909-1.125-.693-1.254-.476-1.514-.346-.692-.433-.216h-1.385l-.563-.216-.606-.346-.346-.476-.78-1.471-.346-.951-.822-1.255-.217-.562v-1.73l-.13-.779-.346-.346-1.342-.129-1.515-.476-.346-.087-.563-.475h-.476l-.217.129-.476.433-1.472 1.168-.563.216h-.822l-.476.13-.217.129v.563l.347.562.129.476-.346.908-.346.346-.693-1.038-.822-.692-3.074-1.125h-1.515l-.346-.129-.347-.563.13-.605.217-.346.606-.087 1.688-.692-.087-1.513-.606-1.947.26-1.816.563-.346.563-.217.476-.346.13-.605-.347-.563-.692-.346-1.299-.562-.996-.908-.822-1.168-.909-1.038-1.256-.086-1.298.086-2.511-.216-6.061.908h-1.515l-.692-.346-1.126-1.125-.693-.259-1.515-.216-.779-.433-.346-.692-.347-2.984-.346-.692-.346-.692-1.818-1.947-.693-.346h-.822l-.823.433-.78.259h-.822l-1.342-.259-1.99-.908-1.949-1.731-6.19-7.309-.693-.476-.563.908-.346 3.331-.563 1.168-1.255.346-1.386-.13-1.515-.346-3.073-1.255h-.693l-.563.217-1.515.908-1.125.476-.476.346-.347.562.217.822.476.432 3.68 1.731 1.038.821.78 1.384.822 1.687 2.165 3.59 1.168 1.341.217.26.216.346-.086.346-.347.216-1.861.216-.563-.086-.216-.476v-.562l.086-.693.13-.692-.346-1.384-.693-1.038-1.039-.692-2.857-1.384-.563-.086-.606.086-.995.476h-.476l-.477-.216-.562-1.038-.477-.476-.562-.087h-.563l-.693.087-.563.259-.26.346-.216.433-.779.822-.822.346-.477.432.13 1.038.693 1.384v.563l-.216.908-1.17 2.638-.432.476-1.04.346-.259.562.26.606.346.432.087.347-.693.475-.563.087-1.948-.087-.563.087-1.601.822-1.256.346-4.155-.822-2.77.13-2.642 1.384-2.294 2.292-1.602 2.984-1.039 1.601-1.255.908-2.727 1.254-.823 1.168v1.471l.693 2.984-.13 1.514-.216 1.125v1.254l.476 1.384.692 1.038.303 1.038.13 1.125-.13 1.297.26 1.125.347 1.038.562.908.563.692.476.346.433.216 1.385.346.26.13-.13.346-.216.346-.693.433-1.255.692-.606.605-.91 1.687-.562.26-3.463-.692-2.728-.563-6.45-.346-1.039-.129-5.973-.217-5.282-.346-4.675-.259V78.33L0 69.247V23.054h.13v-.13l2.64-.822 2.728-.908 2.64-.779 2.771-.951 2.64-.779 2.771-.908 2.64-.952 2.035-.562.693-.216 2.64-.909 2.771-.822 2.64-.908 2.641-.822 2.728-.908 2.64-.822 2.771-.908 2.64-.908 3.68-1.038 3.55-1.125 3.55-1.038 3.68-1.168 1.601-.432 1.602-.606 1.731-.432 1.602-.476 1.732-.562 1.861-.476 1.688-.562 1.732-.476L73.462 0l.693.087.822.346 2.165 1.513.563.433 1.861 1.168 2.727 1.946 3.68 2.379 2.554 1.73zm258.049 168.727l.087-.216.26-.13.086-.13h.606l.087.26.259.216.087-.476.217-.432h.606l.086.346v.778l.13.13h.13l.086.13-.346.216-.346.216-.087.13h-.13l.13.13h.087l.13.086v.13l.13.216.086.217v1.038l-.086.692-.13.562-.217.692-.259.605-.217.563-.216.476-.13.216-.217.216-.13.216-.216.26-.216.216-.26.216-.563.26-.433.216-.13.13-.13.086-.086.13v.13l.086.086v.13l.563.13.606.086.433.217.476.259 1.256 1.254 1.385 1.385.909.692 1.039.778 1.169.562-.13 1.644-.346.346-1.602.346h-.346l-.217.087-.13.129v.217l-.13.821-.086 1.471v.13l.216.216.433-.13.476-.086h.347v.432l-3.334 7.829-.129.432-.087.606.087.995.129.346.217.259v.217l.822.129 6.537.087 8.615-2.163.13.13h.086l-.216.346-.13.086-.087.26-.13.216-.346 1.471-.13.259-.086.346.346.649-1.169.346-.693.346.823.822 1.255.822 1.039.432.217-.129-1.126 1.73-.476.821-.13.346v.779l.13.346.13.259v.087l.216.692.13.346.087.216v.346l-.087 1.298-.13.086-.13.13-.086-.216-.13-.13-.13-.13h-.086l-.217.13-.13.216.13.13.087.087.476.346.216.129v.346l-.13.217-.086.346v.605l-.13.433v-.087h-.346l-.347.779-.216 6.098-.217.779-.346.822-.692.692-1.256.778-.346.563.086.259.13.433h.13l-.606.259-1.818.433-1.385.259-1.386-.13-2.381-.908-4.285-.13-9.87-2.508h-1.342l-1.039.346-2.641 1.816-2.294.476-.606.433.26 1.73-.13.129-.13.087-.217.13h-.129l-.65-.13h-.476l-2.164-1.817-1.169-1.167-.476-.433-.217-.562v-2.639l.13-.259.087-.346.476-.087h.822l.217-.129.346-.13.13-.087v-1.254l-.13-.26v-1.124l.13-.26v-.086l.216-.216.433-.346.953-.476.562-.216.78-.26h.259l.433-.086.13-.346-.822-3.461-.433-.778-5.065-.952-.563-.086-.346.086h-.217l-.26-.086-.432-.346h-.26l-.087.086h-.822l-2.295-.649-.346-.605-.086.13h-.13l-.477.129-.909-1.038-.129-.259v-.346l.129-.216v-.433l-.129-.259-.217-.217h-.563l-.562.346h-.13l-.217.13-.259-.13h-.347l-.086-.216-.13-.13-.13-1.73v-.346l.26-.086.433-.26.259-.086v-.13l.217-.346v-.822l-.823-.995-.086-.259v-.346l.086-.216v-.217l-.086-.129-.13-.217-.563-.259-.216-.087-.13-.259-.13-.217-.347-1.946-.086-.562v-2.293l.086-.216.26-.605.087-.563.13-.475-.13-.346-.087-.433-.26-.476-.086-.216-.26-.13h-.086l-.823.26h-.563l-.476-.13-.433-.13-1.255-.346-3.593-.086-.217-.13 4.373-8.607.779-2.076-.693-1.125-.216-.562v-2.422l-.13-.13-.087-.087-2.64-.692-.477-.259-.086-.087-.26-.346-.216-.346v-.129l-.13-.217-.433-5.276.346-.476.217-.562 3.549-1.471v-.13l.477.13 1.125.346 3.463-.26 2.728-.216 4.155-.216 3.117-.13 3.637-.216 2.424-.13 3.679-.216 3.68-.26h.346l.347.13.562.346.563.346.346.13.347.086.216-.086h.346l.823-.606.822-.562.303-.216.347-.26.26.606.086.562h.13l.13.216.086.26.607.778.692.822.087.346.13.346.086.779.13.692.216.346.26.346z" fill="#051A3C"/><path d="M282.722 107.568l4.156-2.292 4.112-2.292-.692 9.731-.563 9.775-.13.995v1.038l-.216.26-.13.346-.303.216-.346.13v.216l-.13.216v1.255l-.13 6.314-.087 7.57v.259l.087.216.13.087h3.549l3.117.13h7.316l.13.129.476 4.801.433 4.931.952 4.715.91 4.714 1.255 5.709 1.255 5.623.563.692.693.822.692.216v.13l-3.549 1.471-.217.562-.346.476.433 5.276.13.217v.129l.216.346.26.346.086.087.477.26 2.64.692.087.086.13.13v2.422l.216.562.693 1.125-.779 2.076-4.373 8.607-.562-.562-.347-.476-.13-.216v-.13l-.129-.086v-.26l.259-.562v-.476l-.13-.216-1.039-1.125-.779-.692-.346-.13-.26-.129-.216.129-2.078 1.471-.693.259-.563.087-.432-.087-.607-.129-.432-.346-.563-.433-.476-.259h-.347l-.476.129-.346.217-.346.475-.217.346-.216.563-.347.908-.13.692v.562l.26.692.217.346.086.26v.346l-.216.432-.217.13-.562.346-.13.216v.217l.346.951v1.341l-.13.822-.433.778v.26l.087.346v.086l.476.476v.346l-.13.217-.693 1.038-.346.475-.086.563-.26.821-.779 1.687v.606h.346l.563-.13h.216l.346.13.13.086.217.26.13.216-.13.216-.087.346-.26.346-1.818 1.73-.346.13-6.19 1.341-1.256-.216-1.169-.822-.692.13-.563-.217-.476-.475-1.126-.433-.476-.476-.779-1.038h-.26l-.086-.129-.606-.087-2.641-1.168h-.433l-.13.13-.216.13-.13.346-.087.346v.562l-.13.779v.346l-.13.129-.086.217-.693 1.038v.216l.087.259h.346l.13.087.13.13.086.216v.26l-.086.216-.476 1.038-.13.216-.433 1.946-.26.476-.216.087-.347.129h-.909l-.822-.129-.779-.346-.909-.563h-.26l-.217.13-.129.216-.087.217-.13.692-.216.259-.26.087-1.688.476-1.386.216h-.216l-.26.13-.086.129v.217l.086.432.909.952.606.562.217.216.216.346.823 3.114.13.346-.13.563v.346l-.13.216-.779 1.946v.26l.346 1.124 1.472 2.985-.563.346-2.771.692-.086-1.038v-.216l-.346-1.039-.26-.346-.087-.216-.476-.692-.476-.476-.433-.216-.693-.216-.562-.346-.26-.822v-1.384l-.346-.779-.433-.951-3.464-1.6-.216-.433-.476-.13-1.256.563h-.562l-.347-.217-.13-.346-.086-.216-.13-.259-1.385-.779-.693-.562-2.164-2.898-.476-.909.476-.908.433-1.038.952-1.254.087-.13.259-.216.217-.476 1.731-.779.563-.475.476-.433.433-.605 1.385-2.725.347-.346h.346l.13-.26.216-.086h.217l.822-.13.087-.13-.087-.216-.476-.562-.909-.909-.346-.475v-.217l.13-.129.346-.217.433-1.384-.693-.822-.216-.692v-.302l.13-.346v-.346l.346-.346.433-.26 1.039-.216h.563l.606.216.562.476.693.476.563.216h3.463l.216-.692.693-2.076.563-.433.562-.692.823-2.422v-.476l.346-.562.217-.086.216-.13h.347l1.515.346h.346v-.909l-.13-.692v-1.946l.217-1.038.692-2.292-1.342.346-8.744-.606-2.857-.649-1.039-.605-.909-.779-.477-1.168-.216-1.038-.606-3.763-.346-.908h-.303l-.953 1.254-.909.433-1.255.26-3.81.086-.909.476-.563.216-.909 3.46-.606.563-7.792-.909-1.255-.476-.347-.778v-2.552l-.216-1.254-.606-.909-.563-.475-.433-.087-.692.216-.477.476-.562.649-1.732 3.59-2.078 3.071-3.42 1.168.087-.692-.996-1.038-.692-1.125-8.615-5.407-4.502-2.508-3.766-1.384-2.554-.692-.65-.346-3.939-6.877-4.805-5.753-.693-1.254-.909-2.076h-2.424l-10.216 3.806-12.295-16.998-.216-.433v-.605l.563-.433 6.233-3.547.347-.346.086-.259-.563-1.125-3.203-6.098-.13-.346v-.433l.693-8.174 1.472-3.634 7.489-14.143 7.792-14.792.13-.433v-.476l-.476-.216-7.663-2.206-1.515-1.254-3.117-5.277 2.425-.433 1.039-.259 1.038-.087.91-.259 1.038-.216 1.602-.216 1.732-.347 1.601-.216 1.602-.346 2.641-.476 2.511-.346 2.64-.475 2.641-.433 2.641-.476 2.64-.346 2.641-.432 2.641-.476 4.372.476 4.372.346 4.372.432 4.329.346 4.026.346 3.896.346 4.026.476 4.026.346 1.602.087.476-.087.433-.26 2.9-1.6 2.857-1.47 2.771-1.6 2.857-1.514.476-.217.563-.216.433.087h.476l.476.475.433.433 3.117 4.022 3.074 4.023 1.515 1.6 1.385 1.514 2.987 1.816 2.987 1.86.563.563.433.432 2.554 5.06 1.471 3.201 2.208 4.499 1.818 3.763h.217l.346.129z" fill="#051A3C" stroke="#051A3C" stroke-width=".5" stroke-linecap="round" stroke-linejoin="round"/></svg>