<svg width="157" height="157" fill="none" xmlns="http://www.w3.org/2000/svg"><path d="M39.41 47.239l4.05-19.95 13.675 2.775L54.7 42.066m40.133 72.164l-45.565-9.25 6.166-30.377L101 83.853l-6.167 30.377zm-16.81-34.05l-5.751 28.332" stroke="#E7E7E7" stroke-opacity=".55" stroke-width="6" stroke-miterlimit="10" stroke-linecap="round" stroke-linejoin="round"/><mask id="a" style="mask-type:luminance" maskUnits="userSpaceOnUse" x="0" y="0" width="157" height="157"><path d="M26.67.782l129.609 26.312-26.312 129.609L.357 130.391 26.67.782z" fill="#fff"/></mask><g mask="url(#a)" stroke="#E7E7E7" stroke-opacity=".55" stroke-width="6" stroke-miterlimit="10" stroke-linecap="round" stroke-linejoin="round"><path d="M122.915 28.792h.002a18.161 18.161 0 013.422 9.925 8.644 8.644 0 013.37-1.728 8.642 8.642 0 006.145-6.608 8.6 8.6 0 00-.425-4.883h.001c5.921 4.317 9.12 11.834 7.566 19.485a10.282 10.282 0 004.962-5.784c1.347 4.574 1.477 8.6.529 13.27-1.853 9.13-10.757 15.028-19.886 13.174-9.13-1.853-15.011-10.963-13.157-20.092 1.372-6.76 5.327-6.196 7.471-16.759zM13.597 96.94l.002-.001a17.041 17.041 0 013.212 9.316 8.12 8.12 0 013.163-1.622 8.112 8.112 0 005.768-6.202 8.078 8.078 0 00-.4-4.582h.001c5.557 4.051 8.56 11.106 7.102 18.287a9.654 9.654 0 004.657-5.429c1.264 4.294 1.387 8.071.497 12.455-1.74 8.569-10.096 14.105-18.665 12.366-8.57-1.74-14.089-10.29-12.35-18.859 1.289-6.345 5-5.815 7.013-15.729zm15.665.3l6.78-33.4m20.708 62.692l-19.83-4.025m86.196-40.989l-11.403 56.172"/><path d="M79.537 131.157l37.212 7.555-2.471 12.171-94.766-19.238m107.164-66.392l11.216 9.597-9.405 10.99-43.975-37.629-55.167 17.503-4.375-13.788 59.001-18.72a7.232 7.232 0 016.89 1.4l26.116 22.347"/><path d="M15.023 128.894a6.154 6.154 0 011.181-8.118l5.91-4.945 3.515 6.859a6.152 6.152 0 01-10.606 6.204zM124.66 62.746a6.153 6.153 0 011.181-8.117l5.91-4.946 3.515 6.859a6.154 6.154 0 01-10.606 6.204z"/></g></svg>