<svg width="161" height="161" fill="none" xmlns="http://www.w3.org/2000/svg"><path d="M35.857 103.888c-.672 5.875-1.196 11.784-1.418 17.711-6.772-7.439-11.628-16.499-14.137-26.275 5.069 3.087 10.3 5.93 15.555 8.564zm68.171 20.455c5.879.704 11.764 1.193 17.675 1.398-7.505 6.822-16.649 11.705-26.52 14.231 3.184-5.089 6.17-10.289 8.845-15.629zm20.438-68.1a179.658 179.658 0 001.227-17.78 62.174 62.174 0 0114.296 26.582 201.384 201.384 0 00-15.523-8.802zM56.348 35.832c-5.923-.744-11.907-1.124-17.905-1.27 7.53-6.837 16.621-11.777 26.428-14.29-3.077 5.062-5.88 10.263-8.523 15.56zm53.148 13.8a204.052 204.052 0 00-37.111-11.135c3.624-6.876 7.584-13.58 12.063-19.852l.06-.085.044-.075c4.475.345 8.91 1.073 13.343 2.403 4.398 1.32 8.558 3.176 12.46 5.351l-.003.072.003.102c.27 7.76-.103 15.498-.859 23.219zM49.64 50.75a212.068 212.068 0 00-11.138 37.12c-6.913-3.636-13.58-7.586-19.863-12.072l-.085-.06-.074-.045c.345-4.475 1.072-8.91 2.402-13.342 1.32-4.398 3.177-8.558 5.351-12.46l.064.002.093-.002c7.774-.218 15.496.104 23.25.859zm84.19 59.604c-7.76.217-15.519-.117-23.235-.861a203.975 203.975 0 0011.134-37.109c6.876 3.625 13.58 7.585 19.852 12.063l.085.06.062.037c-.343 4.499-1.069 8.95-2.39 13.35-1.33 4.433-3.164 8.536-5.34 12.461l-.075-.003-.093.002zm-83.082.255c5.954 2.461 12.007 4.723 18.246 6.595 6.232 1.87 12.569 3.327 18.865 4.542-3.633 6.905-7.58 13.565-12.06 19.84l-.062.086-.038.064c-4.455-.333-8.95-1.073-13.348-2.392-4.433-1.331-8.536-3.165-12.461-5.34l.003-.076-.002-.093c-.218-7.765.104-15.48.857-23.226zm56.715-45.223a190.679 190.679 0 01-12.625 42.077A190.724 190.724 0 0152.76 94.838 190.726 190.726 0 0165.386 52.76a190.719 190.719 0 0142.077 12.626z" stroke="#E7E7E7" stroke-width="5"/></svg>