<svg width="134" height="139" fill="none" xmlns="http://www.w3.org/2000/svg"><path d="M49.47 113.443l58.088 22.067 22.981-60.494c2.538-6.682-.605-14.074-7.022-16.512l-23.235-8.826m-41.62 39.568l.059.022m34.794 13.218l.058.022M35.428 80.419l.058.022m32.369-15.393l.058.022m34.794 13.218l.059.022M44.62 56.222l.058.022m32.37-15.393l.057.022m-23.293-8.849l.058.022m18.835 90.224l32.173-84.691c2.539-6.682-.605-14.075-7.02-16.512L51.386 3.413C44.971.976 37.712 4.417 35.173 11.1L3 95.789l69.705 26.481z" stroke="#E7E7E7" stroke-width="5" stroke-linecap="round" stroke-linejoin="round"/></svg>