<svg width="145" height="153" fill="none" xmlns="http://www.w3.org/2000/svg"><path d="M47.156 68.106l-.663 1.887 1.887.663 10.347 3.635 1.887.663.663-1.887 7.201-20.497.663-1.887-1.887-.663-10.347-3.635-1.887-.663-.663 1.887-7.2 20.497zM98.891 86.28l-.663 1.887 1.887.663 10.347 3.635 1.887.663.663-1.887 7.201-20.497.663-1.886-1.887-.663-10.347-3.635-1.887-.664-.663 1.887-7.2 20.497zM2.787 107.965l39.177-79.86 100.118 35.173-19.38 86.816L2.787 107.965zm71.662-84.2l-6.591-2.316A30.45 30.45 0 0182.832 5.912c7.368-3.494 15.855-3.933 23.593-1.214 7.738 2.718 14.086 8.369 17.65 15.703a30.45 30.45 0 011.966 21.489l-6.591-2.316a23.633 23.633 0 00-1.64-16.245 24.042 24.042 0 00-13.66-12.157 24.04 24.04 0 00-18.262.943 23.637 23.637 0 00-11.44 11.65z" stroke="#E7E7E7" stroke-width="4"/></svg>