<svg width="19" height="13" fill="none" xmlns="http://www.w3.org/2000/svg"><path d="M11.345 12.65a1.079 1.079 0 01-.351-.845c.01-.33.137-.612.382-.845l3.446-3.294H1.22a1.21 1.21 0 01-.87-.336C.116 7.106 0 6.83 0 6.5c0-.33.117-.607.351-.831.235-.224.524-.336.869-.335h13.602l-3.477-3.323a1.111 1.111 0 01-.366-.831c0-.321.122-.598.366-.83.244-.233.534-.35.87-.35.336 0 .625.117.869.35l5.58 5.334c.122.116.21.243.26.379.052.136.077.282.076.437 0 .155-.026.301-.077.437a1.032 1.032 0 01-.258.38l-5.612 5.362a1.165 1.165 0 01-.838.321 1.22 1.22 0 01-.87-.35z" fill="#051A3C"/></svg>