<svg width="427" height="434" fill="none" xmlns="http://www.w3.org/2000/svg"><g clip-path="url(#clip0_405_183)" fill="#DCDCDC" fill-opacity=".42"><path d="M352.02 216.535c.099-4.105.201-8.21.307-12.315 8.009-4.464 15.653-9.394 23.969-13.186 12.832-5.809 26.02-7.751 37.823-15.494 3.593-2.415 4.208-6.639 5.029-12.829 3.387 6.564 6.258 12.879 2.723 19.551-2.49 4.772-8.931 7.386-13.861 9.643-9.08 4.149-18.832 6.564-28.327 10.108a126.488 126.488 0 00-27.663 14.522zm-1.694 30.016c.1-4.107 1.229-8.721 1.336-12.829 8.516-4.465 14.06-8.008 23.149-11.286 12.109-4.415 29.198-7.336 41.001-15.187 3.593-2.415 5.693-3.95 7.237-8.298 1.851 5.236 3.029 8.464.515 14.987-1.951 5.029-8.931 7.386-13.853 9.643-9.13 4.149-22.409 6.058-31.539 10.108-10.856 4.804-20.144 7.626-27.846 12.862zM79.156 207.49a64.869 64.869 0 011.129-11.743c-7.951-4.415-17.247-9.875-25.555-13.668-12.832-5.9-25.97-7.75-37.773-15.493-3.594-2.415-4.208-6.639-5.08-12.83-3.32 6.565-6.207 12.88-2.672 19.552 2.49 4.772 8.93 7.386 13.803 9.593 9.13 4.207 18.832 6.639 28.377 10.158a129.529 129.529 0 0127.771 14.431zm1.592 30.115c-.158-4.107-1.228-8.721-1.386-12.829-8.466-4.465-14.01-8.008-23.09-11.336-12.16-4.365-29.199-7.286-41.001-15.137-3.594-2.415-5.752-3.95-7.237-8.298-1.851 5.186-3.03 8.464-.515 14.987 1.95 5.029 8.93 7.386 13.803 9.593 9.13 4.207 22.409 6.108 31.539 10.158 10.856 4.804 20.193 7.626 27.887 12.862zm31.664 66.962c-3.079-3.593-9.13-8.855-12.184-12.498-11.802-3.801-16.716-4.539-27.647-6.489-16.882-3.079-31.456-2-48.653-6.88-3.544-1.029-6.723-5.187-12.01-10.572 1.436 6.464 3.129 14.008 9.752 19.601 5.13 4.415 11.139 4.058 17.861 4.979 11.803 1.66 23.24 2.158 35.15 3.693a242.541 242.541 0 0137.731 8.166zm24.394 26.472c-3.029-3.643-7.47-7.543-10.524-11.186-11.62-2.49-19.604-4.722-30.892-6.108-15.139-1.851-37.208.83-54.505-4.307-4.307-1.286-8.723-3.743-13.346-7.336 1.95 4.979 2.922 9.543 10.06 14.879 5.544 4.15 17.554 6.058 23.97 7.187 12.01 2.158 26.683.871 38.851 1.66 13.528.904 25.082 1.875 36.386 5.211zm181.708-21.908c3.436-3.543 9.827-8.473 13.213-12.016 12.159-3.494 17.322-4.199 28.402-5.892 17.139-2.565 31.614-1.129 49.268-5.544 3.643-.921 7.187-4.979 12.98-10.207-2 6.415-4.465 13.908-11.545 19.294-5.594 4.257-11.545 3.743-18.317 4.515-11.96 1.278-23.505 1.535-35.515 2.722a254.61 254.61 0 00-38.486 7.128zm-25.672 25.809c3.386-3.544 8.159-7.336 11.62-10.88 11.802-2.207 20.01-4.207 31.456-5.286 15.296-1.436 37.108 1.851 54.861-2.871 4.416-1.129 9.031-3.494 14.011-6.93-2.416 4.872-3.802 9.444-11.496 14.623-5.901 3.95-18.06 5.493-24.584 6.514-12.217 1.792-26.733.099-39.009.614-13.62.523-25.298 1.187-36.859 4.216zm-141.014 31.526c19.247-5.643 40.13-7.543 60.456-7.543 19.604 0 42.238 3.95 59.377 7.543l-2.108 12.157c-18.011-3.543-38.13-6.721-57.377-6.721s-39.839 1.485-58.248 6.721l-2.1-12.157zm5.039 37.203c17.554-5.643 36.843-7.602 55.368-7.602 17.911 0 38.544 3.95 54.14 7.544l-1.901 14.721c-16.425-3.543-34.793-6.722-52.347-6.722-17.554 0-36.336 1.486-53.118 6.722l-2.142-14.663zM217.313 0l9.703 9.593 13.703.1.041 13.626 9.645 9.75-9.645 9.719-.049 13.65-13.703.1-9.695 9.602v-2l9.13-9.029 12.832-.05.05-12.83 9.08-9.128-9.08-9.128-.05-12.88-12.832-.066L217.313 2V0zm0 66.14l-9.652-9.627-13.703-.1-.05-13.65-9.644-9.668 9.644-9.776.05-13.651 13.703-.1L217.313 0v2l-9.088 9.029-12.881.05-.05 12.879-9.03 9.129 9.03 9.128.05 12.83 12.881.05 9.088 9.045v2z"/><path d="M227.107 28.43l2.108 4.773 5.129.506-3.9 3.386 1.178 5.087-4.515-2.623-4.465 2.623 1.187-5.087-3.901-3.386 5.129-.506 2.05-4.772z"/><path d="M217.463 16.979a18.478 18.478 0 0115.77 8.88 13.423 13.423 0 00-20.584 2.136 13.415 13.415 0 000 14.863 13.416 13.416 0 0013.709 5.746 13.424 13.424 0 006.875-3.609 18.451 18.451 0 01-34.225-9.721 18.445 18.445 0 019.272-15.85 18.452 18.452 0 019.183-2.445zm-13.702 190.984l-23.796-8.93-28.551 10.93-9.802-1.66-11.188 4.772 1.386 4.149 10.673-3.319 55.377 11.186-45.284-11.792 26.842-8.415 23.239 6.722s1.104-4.158 1.104-3.643zm8.672.871l35.357-9.801 30.112 10.93 10.316-1.66 11.753 4.772-1.436 4.149-11.238-3.319-72.349 11.402 61.734-12.008-28.328-8.415-34.743 7.593s-1.743-3.485-1.178-3.643z"/><path d="M113.217 46.995c4.407-6.207 8.209-9.593 13.13-12.622a8.8 8.8 0 00-.332-2.365c-5.27 1.485-11.619 7.294-13.578 12.165.172.963.433 1.907.78 2.822zm309.931 176.519a12.668 12.668 0 01.357-4.257c4.15-7.543 3.694-15.551 1.179-20.572.116-1.925.166-4.041.108-6.224a14.528 14.528 0 01-4.026 7.195c-3.743 3.85-5.693 5.187-10.623 7.469-9.13 4.149-20.169 5.9-29.357 9.236-11.138 4.108-19.297 7.95-26.991 13.186.1-4.107-.257-4.672-.158-8.771 7.802-4.979 16.061-9.751 24.941-12.83 12.06-4.149 24.991-6.929 37.349-14.008 3.744-2.157 6.931-3.236 8.417-7.593-.092-.647-.183-1.295-.299-1.934 2.108-5.493 2.49-13.277-5.387-24.273-2.564-8.108-4.415-11.958-6.208-18.423-2.258-8.108-5.594-18.166-8.981-24.472-7.851-14.523-17.429-25.81-29.248-41.253-1.544 1.287-1.486 1.66-2.357 2.722-6.466-9.444-14.674-19.601-24.734-28.273-.406 2.157-.564 3.029-1.029 3.593-10.931-9.394-17.57-14.522-24.31-19.095-.407 2.564-1.129 2.307-1.535 4.93-3.544-2.872-23.605-9.395-31.257-10.365.464 3.029 1.128 3.742 1.535 6.721-12.881.872-25.04.465-39.98 2.614 5.594 14.266 14.782 28.274 21.654 40.738-17.039-3.8-40.237-9.493-57.833-9.444-17.596.05-30.228 4.108-46.479 8.83 1.486-3.32-1.286-4.622-4.05-5.286 2.49-2.722 2.921-4.257 3.643-7.751 3.744-3.32 4.416-8.722 4.98-9.958 5.188-3.03 9.802-11.187 11.396-16.058-7.188-2.564-19.397-1.593-22.584 2.257.658-2.105.834-4.332.515-6.514-2.208-.465-6.516.307-9.902 1.742a6.478 6.478 0 00-.979-5.327 24.974 24.974 0 00-5.901 3.178v.257c-5.594 4.465-13.703 8.208-15.911 16.598-5.799-3.591-10.522-2.822-14.168 2.307-7.542-2.462-12.245 1.197-14.11 10.979-2.05-8.93 1.536-17.652 10.79-23.967.302.874.532 1.77.689 2.68.133-1.94.047-3.888-.257-5.808-4.773 2-9.852 6.514-12.832 10.979-2.98 4.464-3.486 11.286-3.486 13.7-.157-3.236.307-5.642-.92-10.207-9.014-.298-18.908 7.843-21.946 16.34.508 1.082.957 2.19 1.345 3.32a28.77 28.77 0 0120.633-17.137 57.911 57.911 0 01-.514 15.187c.772-2.49 1.66-4.822 3.693-6.058a20.04 20.04 0 011.743 8.464l1.436.307c-1.179 3.486-2.415 6.93-3.644 10.415a4.448 4.448 0 014.15.772 42.878 42.878 0 00-11.703 17.087c-2.257-2.357-5.386-4.565-8.108-5.237 2.05-3.643 5.187-5.742 8.108-7.693-3.593.664-6.515 3.693-9.237 7.336-.722-.464-1.336-1.178-2.565-.722-.407-3.593-.871-7.186-1.286-10.788-.05 3.693.05 7.079 0 10.788-1.486-.564-3.13.258-4.615 1.85-.158-3.177-.307-6.364-.515-9.592-.207 3.435-.406 6.821-.614 10.265-.722.407-1.386.83-2.1 1.286A31.536 31.536 0 0059.011 87.41c-.158-.772-.921-1.743-1.129-2.49a16.959 16.959 0 014.822-.207c.83-6.315 4.258-12.058 8.931-17.552.322.422.613.865.871 1.328-.307-2.116-.605-3.784-2.14-4.92-4.11 3.95-10.01 11.617-11.803 19.7a24.965 24.965 0 00-4.15.15c-.05 1.9.05 3.319 1.228 4.564-3.079 1.9-5.287 7.286-5.129 10.315-1.95-.971-7.188-.871-8.723-.664-1.03 2.158-1.386 6.821-.971 10.788-5.13 1.228-9.337 9.494-11.138 15.294-1.66-.356-2.723-.921-5.18-.871-.871 3.9-.83 8.299-.257 15.087a5.263 5.263 0 00-4.465-.091c-.614 4.722 1.66 7.336 1.386 11.087-6.159-1.66-12.674-.05-14.267 7.643a16.512 16.512 0 00-2.723 17.551c-2.357 4.747-2.656 11.933-1.826 16.83-4.673 7.593-2.49 19.443 8.209 24.68a12.086 12.086 0 001.485 7.078c-.871.515-1.485.407-2.664.971-1.029 6.365-.514 13.344 3.851 20.066a15.434 15.434 0 00-8.366.465c.1 2.772 1.436 8.158 4.109 9.336a56.47 56.47 0 003.079 8.572c-2.258.772-4.723 2-5.901 4a31.177 31.177 0 006.258 17.602c.207 8.622 1.792 12.315 7.801 18.066 3.486 11.958 9.08 18.423 22.684 24.58.307 3.237 4.258 10.108 7.644 12.573.664.257-2.05.871-4.98 1.593a19.452 19.452 0 0010.267 9.8c-2.98.158-4.15.872-5.495 2.93 2.922 3.743 11.852 4.979 14.675 5.435-.308 1.594-1.287 3.129-3.387 4.93a42.335 42.335 0 0018.168 10.365c-2.772.614-4.365.979-6.465 2.672 3.179 4.257 15.04 9.029 15.77 9.543a11.894 11.894 0 00-2.358 2.772c5.901 4.979 26.103 11.228 29.008 10.473-2.598 1.942-4.648 3.66-6.117 6.307 5.387 3.742 14.782 4.871 23.812 4.207-1.743 2.614-2.614 4.415-2.49 7.851a30.16 30.16 0 0015.961-3.32c-.465 2.49.407 3.237.515 4.772a23.496 23.496 0 006.639-4.058c1.079 3.029 1.66 4.722 1.536 8.058a166.656 166.656 0 0043.009 10.672l2.49-.05a10.882 10.882 0 01-.099-1.386 12.468 12.468 0 0112.47-12.468 12.466 12.466 0 0112.471 12.468c.009.394-.008.787-.05 1.179 11.62-1.436 34.859-5.809 43.317-10.515 0-2.672-.05-4-.1-5.742 16.425 5.286 33.564-4.822 41.499-10.979a32.169 32.169 0 00-5.901-1.851c8.009-1.129 32.128-13.701 35.872-16.373-1.287-1.129-3.802-1.286-5.644-1.544 6.258-2.307 24.634-16.165 27.613-18.779a6.856 6.856 0 00-4.515-.565c9.752-7.8 17.297-12.979 24.841-24.016-1.66.108-3.129-1.079-4.307-1.029 6.158-2.929 11.702-11.444 12.981-14.215 7.801-6.208 9.445-10.315 12.624-17.295a39.174 39.174 0 007.071-11.311c-2.955 4.299-9.13 7.992-14.558 10.108-6.772 2.672-9.702 2.722-15.861 2.93-12.317.356-24.277.663-35.822 1.792a232.78 232.78 0 00-32.502 5.054 141.66 141.66 0 006.765-7.577 223.178 223.178 0 0130.568-4.771c14.989-1.229 30.228-1.079 48.039-4.05 5.138-.896 9.072-1.461 13.861-4.706.323-.829.647-1.759.971-2.713 4.307-6.515 5.752-12.058 6.465-20.63 1.179-5.029 6.881-37.344 7.852-52.34-2.067.888-3.245 1.096-3.868.946zm-15.935 6.44c4.465-2.05 8.109-4.622 14.01-7.95-1.179 5.494-2.98 10.788-6.159 14.315-4.98 5.477-11.395 1.577-7.851-6.365zm-37.623 16.763a33.127 33.127 0 014.208-6.771c3.228-1.129 7.079-2.108 9.802-1.179-1.179 5.494-2.98 10.722-6.159 14.216-4.971 5.485-11.387 1.585-7.851-6.266zm15.67 5.643c-3.694 7.693-8.466 17.187-15.297 20.987-6.416 3.644-11.288-2.107-5.386-8.464 5.237-5.71 12.624-8.788 20.683-12.523zm-30.793-56.546c-.971-4-.099-5.287-1.128-13.602 5.693 4.108 7.337 6.465 10.159 10.788-2.598 3.162-5.03 4.241-9.031 2.805v.009zm-.564-18.971c-5.594-6.207-8.109-14.415-11.288-23.452 7.852 4.772 17.496 10.788 20.891 18.523 3.204 7.211-3.395 11.833-9.603 4.929zm-70.806 196.038c-7.469-.631-8.299-8.216.258-10.266 7.694-1.834 15.711-.207 24.658 1.204-7.536 4.398-16.964 9.701-24.916 9.062zm20.161-.83c-3.129 8-7.13 17.809-13.654 22.116-6.108 4.108-11.395-1.228-6-8.058 4.764-6.149 11.902-9.743 19.645-14.1l.009.042zm-47.351-8.88a16.208 16.208 0 01-.921-2.257c-.465-1.386-2.98-2.564-4.465-2.564-1.851 0-3.694.971-5.387 2.49-.514-.15-1.129.307-1.079 1.435-1.593-2.415 1.594-4.307 2.308-5.079a53.788 53.788 0 01-5.545-4.307c-3.594-3.178-4.98-6.464-7.644-10.464.564-2.49 1.129-4.979 1.66-7.469 2.357 7.593 5.237 14.473 9.495 18.373a45.625 45.625 0 003.544 2.872 14.025 14.025 0 014.258-.357c2.307.157 3.901 2.489 4.673 4.929.415 1.286.514 3.179-.357 3.544.274-.756.066-1.237-.548-1.187l.008.041zm-31.539-15.858c-.465 0-.921-1.66-.971-3.801-.05-2.141.307-3.85.83-3.9.523-.05.921 1.659.971 3.742.05 2.083-.349 3.868-.855 3.926l.025.033zm.83 6.639c0 1.9-.158 3.485-.415 3.543-.257.058-.465-1.485-.515-3.386-.049-1.9.158-3.485.415-3.543.258-.058.424 1.485.482 3.377l.033.009zm-6.466-9.544c-.099-2.107.515-3.9 1.387-3.9.871 0 1.593 1.66 1.659 3.743.067 2.083-.514 3.85-1.336 3.9-.821.05-1.643-1.643-1.751-3.751l.041.008zm.839 14.174c-.258 0-.515-1.485-.515-3.385 0-1.901.158-3.486.415-3.486s.465 1.436.465 3.32c0 1.883-.133 3.485-.365 3.551zm-5.694-12.672c-.05-2.307.564-4.307 1.386-4.307s1.536 1.793 1.66 4.15c.125 2.356-.514 4.307-1.336 4.365-.822.058-1.594-1.867-1.718-4.224l.008.016zm1.287 9.851c0 1.9-.158 3.485-.415 3.543-.258.058-.465-1.485-.515-3.386-.05-1.9.158-3.493.407-3.493.249 0 .464 1.419.514 3.319l.009.017zm-5.81-5.129c-1.229.05-2.416-1.95-2.49-4.514-.075-2.564.772-4.622 2.05-4.672 1.278-.05 2.415 2 2.49 4.514.074 2.515-.822 4.598-2.1 4.647l.05.025zm-.158 8.672c-.257 0-.465-1.485-.465-3.386 0-1.9.158-3.493.357-3.493.199 0 .515 1.435.515 3.319s-.2 3.486-.457 3.535l.05.025zm-5.486-10.68c-.872.05-1.594-1.851-1.66-4.207-.067-2.357.514-4.316 1.386-4.316.871 0 1.593 1.793 1.66 4.15.066 2.356-.565 4.373-1.386 4.373zm1.029 6c0 1.9-.158 3.494-.407 3.543-.249.05-.464-1.485-.514-3.385-.05-1.901.157-3.494.415-3.494.257 0 .448 1.485.506 3.377v-.041zm-3.029-4.257c.257-.05.464 1.485.464 3.386 0 1.9-.157 3.435-.357 3.493-.199.058-.514-1.485-.514-3.386 0-1.9.149-3.402.407-3.452v-.041zm-.996-17.153c-.1-2.722.722-5.029 1.792-5.029 1.071 0 2.05 2.107 2.208 4.821.158 2.714-.722 5.029-1.793 5.079-1.07.05-2.033-2.15-2.207-4.871zm2.257-8.465c-1.486.05-2.872-2.415-3.029-5.494-.158-3.079.921-5.593 2.49-5.643 1.568-.05 2.921 2.357 3.079 5.436.158 3.079-.98 5.651-2.523 5.701h-.017zm-12.931-3.801c-1.029.05-1.95-2.357-2.05-5.435-.1-3.079.614-5.643 1.66-5.693 1.046-.05 1.95 2.415 2.05 5.493.1 3.079-.564 5.585-1.643 5.644l-.017-.009zm.208 30.431c-.208 0-.465-1.485-.465-3.386 0-1.9.157-3.493.406-3.543.249-.05.465 1.485.465 3.386 0 1.9-.133 3.493-.39 3.543h-.016zm-12.317 10.88c.099-1.129-.565-1.594-1.079-1.436a8.105 8.105 0 00-5.387-2.49c-1.486 0-4 1.179-4.465 2.565-.25.774-.558 1.529-.921 2.257-.565-.05-.83.406-.515 1.178-.872-.357-.83-2.257-.407-3.543.83-2.415 2.357-4.772 4.673-4.93a13.683 13.683 0 014.258.357 42.92 42.92 0 003.594-2.871c4.208-3.9 7.079-10.788 9.495-18.373a299.363 299.363 0 001.66 7.469c-2.615 3.999-4.001 7.286-7.595 10.464a53.668 53.668 0 01-5.544 4.307c.705.739 3.843 2.631 2.249 5.046h-.016zm-29.423.971c-.05 1.659-.158 3.319-.208 5.029a14.93 14.93 0 00-15.139-.258 20.862 20.862 0 006.64 10.515 13.444 13.444 0 00-3.693 10.315 14.935 14.935 0 005.494 2.049c-2.257.922-4.365 3.436-6.822 2.772-2.457-.664-2.772-4.257-5.287-6.207-2.515-1.95-7.852-1.336-9.595-5.237-1.743-3.9.83-10.464.664-14.671-.166-4.208-4.257-5.287-1.593-10.266 2.664-4.979 9.445-3.178 11.445-3.9s3.129-3.386 5.951-3.643c2.822-.258 3.486 1.85 5.237 2.722 3.08-.208 6.258-2.614 9.188-.664 2.93 1.95 4.773 6.307 5.495 10.514l-7.777.93zm2.979 21.958c-3.593 3.029-8.059 3.95-13.495 2.722-.564-3.32 2.158-6.565 5.287-9.851a14.357 14.357 0 01-7.304-9.336c3.03-1.742 6.93-1.029 11.188.921 1.461 5.187 2.922 10.365 4.341 15.552l-.017-.008zm-35-15.768l-1.851 7.079a47.841 47.841 0 01-16.218-6.639c1.13-1.128 3.486-2.307 7.08-3.436-5.187-4.149-9.752-8.622-10.06-14.622 1.23-1.593 3.644-2 7.338-1.128a38.7 38.7 0 01-1.851-12.158c5.594-.83 10.524.772 14.882 4.822a11.566 11.566 0 013.643-5.029c2.158 1.228 4.051 2.489 5.03 4.365a41.776 41.776 0 016.64-2.979c3.129 2.672 2.614 6.639-1.594 10.522-4.05-.257-9.445-.514-12.109 3.436-2.664 3.95-2.457 10.971-.913 15.717l-.017.05zm-51.002-23.286c.158-3.319 4.108-5.9 8.93-6.207.664-4.257 3.594-7.593 9.595-8.207 4.723-.465 10.01.157 13.753 3.435 1.535 1.336 1.029 4.108.871 6.158-2.564-2-5.287-3.743-9.13-3.9-1.128 3.128-.663 5.742 0 8.298-4.872.307-9.445.872-11.901 3.643a35.576 35.576 0 0010.109 8.672c-1.229 3.386-1.229 6.415 0 9.187 1.485.307 3.03.564 4.565.871-2.615.465-4.98 2.307-7.802 1.386-2.822-.921-5.495-3.801-7.545-6.415-2.415-.614-5.494-1.435-6.64-3.178-1.145-1.743.922-3.32 1.386-5.029-4.133-1.154-6.34-5.394-6.191-8.714zm23.812 20.573c-1.03-2.921-.772-6.108.664-9.643a23.433 23.433 0 01-9.794-7.61c2.49-1.336 5.901-2.05 11.396-1.593a12.762 12.762 0 01-.465-9.386c2.922.149 5.495 2.157 7.802 5.95l.465 3.693c-2.308 0-4.565.207-6.88 2.05-.208 3.029 1.078 6.107 3.9 9.128-.822 3.377-3.187 5.834-7.088 7.377v.034zm52.812-17.253c-1.743-2.208-3.951-2.357-5.951-2.49a15.28 15.28 0 00-3.179-8.207c-3.594-.564-6.881-.772-8.009 1.129-.772-1.278-1.851-2.49-5.03-3.179-2.49-.099-3.951.772-4.565 2.49a20.27 20.27 0 00-7.08-3.436c-2.979-.772-5.029-.921-6.64-.465-1.336-1.385-2.722-2.722-4.108-4.107 12.43.49 24.777 2.244 36.851 5.236a115.096 115.096 0 0011.221 6.183 131.38 131.38 0 009.96 5.427c.49 1.087.996 2.166 1.469 3.269-5.303-3.103-10.283-4.182-14.939-1.85zm-82.932-81.791c5.18 3.543 7.03 6.365 7.03 10.464 1.436-2.564 3.594-2.979 8.3-2.771.514 3.643-1.486 5.493-4.673 8.107-7.337-.207-10.367-.207-17.704-.464-2.257-1.029-4.15-2.158-5.287-3.801 2.258-2.871 8.416-2.158 12.575 1.286-1.834-4.63-2.399-7.56-.241-12.796v-.025zm17.297 5.336c-4.109-.614-7.13-.158-8.98 1.485-1.851-4.257-4.615-7.692-9.338-9.128-2.872 3.743-3.03 7.469-1.95 11.286-4.723-1.743-8.881-1.9-11.902 1.485a6.496 6.496 0 003.179 4.465l-5.13-.614c-1.029-1.286-2.822-2.158-3.178-3.851a6.511 6.511 0 01.406-4.721c-1.66-2.05-3.85-5.693-3.179-8.515.614-2.357 3.08-4.365 5.951-4.672-.307-4.257 1.536-8.83 5.752-10.216 4.216-1.385 12.525-3.319 14.317 4.465 3.03.257 6.88-1.029 9.13.83 2.25 1.859 2.664 5.643 1.743 8.108 4.822 1.742 8.623 7.128 8.723 11.543.1 4.415-5.544 5.643-8.3 8.514a11.61 11.61 0 002.756-10.439v-.025zm-19.729-38.223a10.385 10.385 0 00-3.801-1.901c-1.66.589-2.656 1.394-2.955 2.448-2.448-.763-4.39-.589-5.91.506-1.518-3.377-4.05-6.414-8.822-8.862-.764-1.013-1.519-2.067-2.282-3.121 6.756 1.436 12.914 2.739 18.782 5.104 7.047 2.788 13.678 6.714 20.26 8.946l-8.483 1.394c-.88-1.917-3.087-3.436-6.789-4.49v-.024zm4.225 8.929c-1.03.357-2.108.664-3.13 1.029-.721-1.95-1.435-3.9-2.107-5.9 2.88.531 4.623 2.124 5.237 4.896v-.025zm-10.11-7.187c2.872 3.079 4.15 6.515 4.209 9.087a6.726 6.726 0 00-2.94-.226 6.73 6.73 0 00-2.754 1.056c.208-3.203-2.722-7.734 1.486-9.892v-.025zm33.565 37.045c-.614-4.929-4.822-8.722-8.466-12.448.415-2.921-.357-7.286-3.129-8.672-4.515-2.157-8.623.614-9.08-1.659-.456-2.274-1.66-3.386-6.108-4.772 2.672-.357 5.336-.664 8.009-1.079 2.672-.415 5.594-2.158 8.208-1.228 1.467.477 2.968.84 4.49 1.087a148.216 148.216 0 0016.8 45.8c-5.23-2.141-11.936-4.149-17.696-5.809 3.743-2.315 7.437-7.087 6.972-11.187v-.033zm-23.43-101.79c-.556-.83-2.274-.415-2.74-1.303-.605-1.112.092-2.49.142-3.76 1.859-3.112 4.324-4.921 7.387-5.344a4.261 4.261 0 011.162 4.042 15.772 15.772 0 019.802-4.648c.942 2.1 1.155 4.454.606 6.689 1.535-.232 5.137-.88 6.64-1.07a121.968 121.968 0 00-7.387 28.298c-6.507-3.668-14.334-8.183-20.841-11.9a17.819 17.819 0 004.78-4.507c1.187-1.8 2.075-4.124.449-6.497zm8.4-35.493a4.408 4.408 0 013.643-1.901c1.336 1.486 2.564 3.32 1.743 4.772 1.228.664 3.95.257 2.722 1.792-1.228 1.536-4.772 1.594-7.188 2.357.565-2.091.2-4.456-.93-7.02h.01zm8.614 6.539c.98 2.357.565 4.058.615 6.207a40.616 40.616 0 0114.508-2.572 147.606 147.606 0 00-6.698 14.398c-1.71.34-3.968.788-4.781 1.004.772-2.05.722-4.307-1.08-7.237-4.821.1-8.299 1.386-10.573 4 .564-3.236-1.287-4.514-3.694-3.485 3.18-2.979 5.545-6.514 6.11-10.058 1.31.49 3.8-.597 5.593-2.257zm34.312 33.46a142.476 142.476 0 007.544 30.937c-1.66.664-.514 4.365-.664 6.979-5.029-11.444-11.03-22.406-14.168-34.53-2.722-10.672-4.614-22.73-3.029-32.531 2.208-13.8 7.752-12.929 9.445.357 1.187 9.626-.307 19.219.88 28.813l-.008-.025zm40.088-84.795c-31 31.817-43.417 69.011-28.585 114.172l-1.793.722c-19.255-50.19 1.635-103.6 30.378-114.894zm-12.765 3.12a20.382 20.382 0 001.178-6.556c3.179.357 6.366-.664 9.545-1.593a27.528 27.528 0 00-10.4 7.917l-.323.232zm202.075 8.738c5.461 7.145 12.101 16.133 12.45 24.348.357 7.76-7.354 9.594-10.566 1.071-2.855-7.66-2.241-16.083-1.884-25.419zm-.091-9.65c9.395 2.09 20.932 4.846 26.858 11.335 5.569 6.124.564 12.863-7.91 8.066-7.561-4.24-12.823-11.543-18.948-19.402zm11.619 48.289c5.188 6.464-.307 12.929-8.465 7.543-7.288-4.772-12.06-12.448-17.704-20.746 9.271 2.73 20.667 6.273 26.161 13.211l.008-.008zM252.928 329.828c-1.951.05-2.308-1.386-2.49-3.237-.183-1.85.357-2.564 1.178-2.821.822-.258 2.05.871 2.723 2.356.672 1.486.481 3.702-1.411 3.702zm.83 21.576c.207.971.564 2.207.149 3.029a2.844 2.844 0 01-1.286-1.792 47.655 47.655 0 01-1.279-7.336c-.307-2.158-.771-4.722-.514-6.639.158-1.029.465-.407.514.157.258 2 .772 4 1.03 6 .348 2.249.962 4.091 1.377 6.606l.009-.025zm-5.188-19.502c-1.9.05-2.257-1.386-2.49-3.178-.232-1.793.357-2.564 1.179-2.822.822-.257 2.05.872 2.664 2.307.614 1.436.54 3.727-1.361 3.727l.008-.034zm1.021 23.361a2.366 2.366 0 01-1.029-1.593 44.491 44.491 0 01-.83-6.515c-.158-1.9-.465-4.149-.1-5.809.15-.921.407-.307.407.158.158 1.743.515 3.543.664 5.286.208 2 .614 3.643.872 5.9.107.797.423 1.926.016 2.573zm-14.782-37.153c-.664.05-1.286-2.05-1.386-4.722-.099-2.672.465-4.772 1.129-4.821.664-.05 1.336 2.049 1.386 4.672.05 2.622-.407 4.838-1.129 4.888v-.017zm.971 7.469c0 1.543-.157 2.772-.415 2.821-.257.05-.465-1.178-.514-2.722-.05-1.543.157-2.771.406-2.771.249 0 .473 1.178.523 2.664v.008zm-70.407-144.147a51.4 51.4 0 00-2.922 17.137c0 .722.05 1.485.05 2.207h-32.792a106.718 106.718 0 01-4.466-30.572c0-.465.05-.921.05-1.386l40.08 12.614zm-39.466-22.846a101.451 101.451 0 012.822-15.444l38.337 25.145 3.544 2.357a49.903 49.903 0 00-3.544 6.514 6.41 6.41 0 00-.357.872l-40.802-19.444zm1.387 55.211c2.564 3.543 3.95 7.593 3.029 8.979-.921 1.386-3.743-.415-6.316-4s-4.466-6.722-3.03-8.979c1.436-2.257 3.752.423 6.317 4.016v-.016zm47.574 68.189l-.257 7.693c-5.594-4.929-12.674-13.908-13.604-33.045-12.159-10.722-20.749-21.037-28.941-32.273 8.931 10.788 18.475 21.294 30.942 30.481-.664 13.161 4.623 21.061 11.86 27.169v-.025zm5.644-38.48c-3.851-4.872-10.109-7.187-6.98-10.93 3.71-4.365 10.864-4.514 17.869-4.755a281.497 281.497 0 00-1.751 20.149c-.407 8.058-1.536 13.652-5.237 20.888-2.772 5.336-3.544 2.871-6.366 6.722-.531.738-1.17 1.568-1.826 2.489-5.603-3.585-10.616-9.178-12.392-15.435a24.678 24.678 0 01-.431-3.842c13.188-5.535 20.077-11.544 17.114-15.27v-.016zm19.446 19.244c-.614-.099-.871-1.95-.564-4.058.307-2.108 1.029-3.743 1.66-3.643.631.1.871 1.9.564 4.058-.307 2.158-1.037 3.759-1.651 3.66l-.009-.017zm.307 9.751c-.207 2.49-1.128 4.465-2 4.365-.871-.1-1.436-2.207-1.178-4.672.257-2.465 1.178-4.465 2.05-4.365.871.099 1.394 2.224 1.137 4.689l-.009-.017zm-.157-25.145c-.357 2.415-1.66 4.257-2.822 4.05-1.162-.207-1.901-2.307-1.486-4.722.415-2.415 1.66-4.357 2.822-4.149 1.162.207 1.909 2.357 1.494 4.846l-.008-.025zm-2.822 8.008c.722.1 1.029 1.743.664 3.594-.365 1.85-1.179 3.319-1.951 3.236-.772-.083-.971-1.66-.664-3.593.307-1.934 1.229-3.328 1.959-3.228l-.008-.009zm-1.743 11.751c.871.158 1.228 2.307.772 4.772-.457 2.465-1.486 4.307-2.357 4.149-.872-.157-1.229-2.257-.772-4.722.456-2.464 1.494-4.34 2.365-4.19l-.008-.009zm-6.2 3.502c.407-2.257 1.386-4 2.158-3.85.772.149 1.129 2.107.722 4.356-.407 2.249-1.386 3.951-2.158 3.851-.772-.1-1.137-2.1-.722-4.357zm-.05-12.448c.307-1.336.872-2.356 1.287-2.257.415.1.464 1.286.157 2.614-.307 1.328-.921 2.357-1.286 2.257-.365-.099-.473-1.303-.166-2.614h.008zm2.922 3.029c-.615-.099-.872-1.435-.565-2.979.307-1.543.971-2.722 1.594-2.664.622.058.83 1.436.564 2.979-.265 1.544-1.029 2.689-1.593 2.639v.025zm2.772-14.365c-.357 1.901-1.486 3.32-2.416 3.129-.929-.191-1.435-1.851-1.029-3.851.407-2 1.486-3.385 2.49-3.178 1.005.208 1.361 1.959.955 3.876v.024zm-10.981 40.025c-.971-.258-1.286-2.822-.664-5.743.623-2.921 1.793-5.029 2.772-4.772.98.257 1.229 2.822.664 5.693-.564 2.871-1.834 5.054-2.772 4.797v.025zm.664 17.651c-.83.049-1.535-2.49-1.66-5.743-.124-3.253.515-5.9 1.336-5.95.822-.05 1.536 2.49 1.66 5.743.125 3.253-.514 5.875-1.336 5.925v.025zm1.336-31.709c-.664-.208-.722-2-.049-3.95.672-1.951 1.743-3.32 2.415-3.079.672.24.722 2 .099 3.9-.622 1.901-1.751 3.303-2.465 3.104v.025zm-59.891-26.481c.614-2 3.129-.722 5.81 1.436 2.681 2.157 5.029 5.95 3.901 6.157-1.129.208-2.872.614-5.545-1.543-2.672-2.158-4.78-4.158-4.166-6.075v.025zm.515 6.722c-.98 1.128-5.337-.722-7.952-2.357-2.614-1.635-4.565-3.178-3.179-6.058 1.387-2.88 4.823-1.544 6.64.465 1.818 2.008 5.536 6.846 4.491 7.925v.025zm.971-15.651c.771-1.951 2.871-.258 5.386 2.107 2.515 2.366 4.109 5.237 3.594 6.415-.515 1.179-2.872.258-5.387-2.108-2.514-2.365-4.415-4.539-3.593-6.439v.025zm0 18.987c1.128-2.49 4.108-1.386 5.693.307 1.586 1.693 4.822 5.809 4.001 6.771-.822.963-4.615-.564-6.881-1.9-2.266-1.336-3.942-2.689-2.813-5.203v.025zm4.98 11.958c.564-2.108 3.029-1.66 4.465-.564 1.436 1.095 4.614 3.801 4.108 4.672-.506.871-3.643.207-5.594-.515-1.95-.722-3.494-1.518-2.979-3.618v.025zm10.789-17.858c2.772 1.999 4.822 4.672 4.515 5.9-.307 1.228-2.871.614-5.693-1.386-2.822-2-5.03-3.851-4.515-5.9.514-2.05 2.913-.639 5.768 1.361l-.075.025zm-4.772-10.208c.722-1.66 2.565-.157 4.722 1.901 2.158 2.058 3.594 4.564 3.179 5.593-.415 1.029-2.49.207-4.722-1.851-2.233-2.058-3.81-3.983-3.138-5.676l-.041.033zm40.536 61.883c-.664.05-1.336-2.49-1.386-5.751-.05-3.261.407-5.809 1.129-5.95.722-.141 1.336 2.489 1.386 5.742.05 3.254-.415 5.876-1.129 5.959zm1.336 9.8c.615-.049.922.922.664 2.108-.257 1.187-.564 2.208-1.593 2.258-1.029.049-.921-.872-.664-2.05.257-1.179.971-2.291 1.585-2.349l.008.033zm-4.208.83c.258-1.029.872-1.95 1.436-2 .565-.049.83.772.565 1.851-.266 1.079-.515 1.95-1.386 2-.872.05-.83-.813-.623-1.892l.008.041zm-.257-2.049c-.515 1.128-1.029 2-2 1.9-.971-.1-.772-1.079-.257-2.207.514-1.129 1.386-1.951 2-1.901.614.05.714 1.038.249 2.166l.008.042zm1.793-5.287c-.722 1.337-1.436 2.415-2.673 2.158-1.236-.257-.772-1.386-.05-2.722.723-1.336 1.901-2.257 2.615-2.108.714.15.822 1.353.1 2.631l.008.041zm-3.03-2.564c-.921 1.179-1.85 2.108-2.979 1.66-1.129-.448-.565-1.436.357-2.664.921-1.228 2.257-1.9 2.979-1.66.722.241.515 1.444-.357 2.623v.041zm-30.327-37.095c1.851.83 5.901 2.872 5.594 3.901-.307 1.029-3.851 1.228-6.109.979-2.257-.249-4.108-.664-4.108-3.079s2.797-2.614 4.615-1.842l.008.041zm-6.515-6.257c-.158-2.871 2.415-3.386 4.257-2.614 1.843.772 5.902 2.872 5.694 4.149-.207 1.278-3.594 1.851-5.81 1.743-2.216-.108-3.992-.489-4.15-3.328l.009.05zm8.366 13.344c1.544.258 4.98 1.079 4.872 2.05-.108.971-2.673 1.901-4.466 2.208-1.792.307-3.178.356-3.593-1.66-.415-2.017 1.635-2.905 3.178-2.647l.009.049zm2.257 6.515c1.66-.664 3.594-.614 4.15.157.556.772-.357 1.851-2.1 2.49-1.743.639-3.178 1.079-4.108-.1-.93-1.178.357-1.933 2.05-2.597l.008.05zm20.833 18.066c-1.129 1.029-2.158 1.792-3.237 1.128-1.079-.663-.257-1.535.83-2.564 1.087-1.029 2.565-1.543 3.237-1.128.672.415.24 1.452-.838 2.514l.008.05zm3.079.465c.664.406.257 1.535-.83 2.564-1.087 1.029-2.158 1.792-3.237 1.128-1.079-.663-.257-1.535.83-2.564 1.087-1.029 2.565-1.593 3.27-1.187l-.033.059zm-5.544-3.32c-1.129 1.029-2.158 1.793-3.179 1.129-1.021-.664-.307-1.544.772-2.564 1.079-1.021 2.564-1.544 3.237-1.129.672.415.24 1.519-.83 2.539v.025zm-2.258-3.95c-1.129.971-2.158 1.743-3.237 1.129-1.079-.614-.257-1.544.83-2.565 1.088-1.02 2.565-1.535 3.237-1.128.672.406.241 1.518-.838 2.539l.008.025zm-2.772-3.319c-1.544.921-2.98 1.593-4.108.564-1.129-1.029.05-1.901 1.593-2.871 1.544-.971 3.436-1.229 4.109-.565.672.664-.009 1.859-1.594 2.83v.042zm-4.415 5.385c-1.337 1.229-2.615 2.158-3.901 1.386-1.287-.772-.357-1.9.979-3.128 1.336-1.229 3.129-1.901 3.901-1.386.772.514.357 1.859-.979 3.095v.033zm2-10.058c-1.851.722-3.486 1.129-4.465-.157-.98-1.287.356-2.05 2.207-2.772s3.901-.614 4.515.149c.615.764-.406 2.025-2.257 2.747v.033zm-2.307-4.821c-1.901.257-3.594.257-4.208-1.129-.615-1.385.829-1.742 2.772-1.95 1.942-.207 3.851.257 4.257 1.129.407.871-.871 1.709-2.821 1.917v.033zm-5.81 7.593c1.336-1.228 3.129-1.85 3.901-1.386.771.465.356 1.901-.972 3.129-1.327 1.228-2.614 2.207-3.9 1.386-1.287-.822-.407-1.884.929-3.162l.042.033zm.514 6.208c.515.771-.83 2.721-1.9 3.742-1.071 1.021-2.109 1.793-3.544.465-1.436-1.328-.515-2.921.722-3.436 1.236-.514 4.166-1.576 4.681-.805l.041.034zm-1.336 5.999c1.079-.722 3.544-2.157 4.208-1.543.664.614-.257 2.614-1.029 3.801-.772 1.186-1.66 2.049-3.237 1.078-1.577-.97-1.013-2.597.016-3.369l.042.033zm4.465 4.208c1.029-.722 3.544-2.208 4.15-1.594.606.615-.207 2.664-1.029 3.851-.822 1.187-1.594 2.05-3.237 1.079-1.643-.971-1.004-2.647.075-3.369l.041.033zm2.415-3.801c-1.228-.722-.356-1.66.872-2.871 1.228-1.212 2.872-1.66 3.594-1.287.722.374.357 1.743-.872 2.872-1.228 1.128-2.456 1.975-3.643 1.245l.049.041zm4.209 1.079c1.029-1.129 2.489-1.743 3.178-1.386.689.357.407 1.593-.664 2.722-1.07 1.129-2.05 1.95-3.237 1.336-1.186-.614-.398-1.568.681-2.697l.042.025zm3.643 4c.872-.872 2-1.386 2.565-1.079.564.307.307 1.228-.515 2.108-.822.879-1.66 1.593-2.564 1.079-.905-.515-.349-1.262.473-2.133l.041.025zm2.664 2.489c.83-.871 2.001-1.385 2.49-1.078.49.307.357 1.228-.514 2.107-.872.88-1.66 1.594-2.565 1.079-.905-.514-.324-1.236.548-2.108h.041zm2.358 2.565c.564-1.079 1.535-1.901 2.157-1.793.623.108.664 1.129.1 2.208-.564 1.078-1.129 1.95-2.1 1.792-.971-.158-.705-1.079-.199-2.207h.042zm4.979-9.901c-9.287-9.593-14.939-23.086-16.367-41.152 1.129.921 2.05 4.049 2.308 5.493 2.489 15.137 5.693 23.709 14.217 31.759l-.158 3.9zm-15.238-27.866c.465.971-1.029 2-3.32 2.257-2.291.257-4.208.307-4.98-1.336-.772-1.643 1.029-2 3.32-2.257 2.291-.258 4.474.365 4.938 1.336h.042zm-5.594-3.436c-2.615-.05-4.773-.257-5.387-2-.614-1.743 1.436-1.85 4.051-1.801 2.614.05 5.029.971 5.386 2 .357 1.029-1.477 1.851-4.092 1.801h.042zm-.208-5.079c-2.614-.356-4.772-.871-5.129-2.672-.357-1.801 1.66-1.659 4.258-1.286s4.872 1.593 5.079 2.672c.208 1.079-1.709 1.643-4.249 1.286h.041zm2.49-5.286c-.257 1.079-2.49.515-4.872-1.228-2.382-1.743-4.365-3.386-3.901-5.187.465-1.8 2.49-.514 4.931 1.229 2.44 1.742 4.133 4.107 3.851 5.186h-.009zm-20.135 16.83c1.793.464 5.694 1.659 5.594 2.664-.1 1.004-3.32 1.659-5.337 1.792s-3.801 0-4.15-2.158c-.348-2.157 2.1-2.713 3.893-2.298zm3.179 6.058c1.436-.1 4.772-.158 5.079.83.307.987-1.743 2.489-3.237 3.228-1.494.738-2.772 1.128-3.801-.722-1.029-1.851.473-3.187 1.967-3.336h-.008zm3.743 7.751c1.386-.415 4.673-1.129 5.129-.208.457.921-1.178 2.822-2.49 3.801-1.311.979-2.49 1.66-3.901.05-1.411-1.61-.166-3.187 1.27-3.677l-.008.034zm.407 6.257c0 1.079-3.079 2.207-5.237 2.614-2.158.406-3.852.564-4.516-1.594-.664-2.157 1.743-3.078 3.644-2.921 1.901.158 6.117.872 6.117 1.901h-.008zm-3.129 3.95c1.66-.357 5.544-.871 5.81.05.265.921-2.109 2.722-3.852 3.643-1.743.921-3.236 1.485-4.365-.15s.722-3.186 2.415-3.543h-.008zm4 4.672c1.544-.772 3.951-1.485 4.465-.722.515.763-.157 2.49-1.659 3.801-1.503 1.311-2.773 2.257-4.258.871-1.486-1.386-.125-3.236 1.469-3.925l-.017-.025zm4.308 4.614c1.436-.971 3.693-2.05 4.307-1.336.615.714.208 2.489-1.079 4-1.286 1.51-2.415 2.614-4.108 1.485-1.693-1.128-.539-3.178.896-4.149h-.016zm4.98 4.614c1.286-1.129 3.386-2.49 4.108-1.851.722.639.465 2.415-.564 4.05-1.029 1.635-2.05 2.921-3.901 2-1.851-.921-.963-3.07.373-4.199h-.016zm5.287-6.315c1.029-.722 3.544-2.158 4.208-1.594.664.565-.258 2.664-1.079 3.851-.822 1.187-1.594 2.05-3.179 1.079-1.585-.971-1.013-2.564.066-3.328l-.016-.008zm3.32 4.108c.83-.772 2.822-2.307 3.436-1.901.614.407.099 2.307-.465 3.436-.564 1.128-1.129 1.95-2.615 1.286-1.485-.664-1.095-2.099-.323-2.821h-.033zm3.436 3.319c.664-.871 2.415-2.722 3.079-2.357.664.365.465 2.257.1 3.436-.366 1.178-.872 2.108-2.416 1.66-1.543-.449-1.452-1.851-.73-2.722l-.033-.017zm3.851 2.614c.664-.871 2.415-2.664 3.079-2.307.664.357.465 2.257.05 3.436-.415 1.178-.83 2.049-2.415 1.659-1.586-.39-1.403-1.892-.673-2.763l-.041-.025zm1.701 8.647c.614-1.435 1.743-2.489 2.49-2.257.747.232 1.386.979 1.179 2.672-.208 1.693-.565 3.129-2.357 3.079-1.793-.05-1.959-2.116-1.312-3.494zm3.387-2.979c-1.594-.158-1.743-1.66-1.229-2.614.515-.954 1.901-3.079 2.615-2.822.713.258.871 2.108.664 3.32-.208 1.211-.457 2.216-2.117 2.116h.067zm1.029 5.386c.664-1.486 1.851-2.614 2.722-2.357.872.257 1.436.971 1.228 2.822-.207 1.85-.614 3.319-2.489 3.236-1.876-.083-2.109-2.216-1.494-3.701h.033zm3.801-3.386c-1.593.257-2.108-1.178-1.793-2.207.316-1.029 1.179-3.436 1.901-3.386.722.05 1.336 1.9 1.436 3.128.099 1.229.008 2.258-1.577 2.465h.033zm-.257-38.796c-.772-.307-.83-2.49-.1-4.979.731-2.49 2.05-4.149 2.822-3.9.772.248.83 2.564.1 4.979-.731 2.415-2.034 4.215-2.855 3.9h.033zm-44.08-52.182c2.489 2.357 4.108 5.237 3.643 6.415-.465 1.179-2.921.258-5.386-2.108-2.465-2.365-4.466-4.514-3.644-6.414.822-1.901 2.83-.249 5.345 2.107h.042zm-9.753-8.157c3.079 3.9 4.258 8.108 2.673 9.394-1.585 1.286-5.387-.921-8.466-4.822-3.079-3.9-5.237-7.335-2.614-9.335 2.622-2 5.311.863 8.374 4.763h.033zm-3.594 9.9c2.49 2.772 5.13 7.9 4.001 8.83-1.129.929-5.594-.564-8.3-2.822-2.706-2.257-3.901-5.435-2.158-8.107 1.743-2.673 3.909-.631 6.424 2.099h.033zm-9.304-6.05c-6.258-3.692-11.03-10.979-15.039-17.037-4.515-6.721-9.188-13.277-12.01-20.887a11.907 11.907 0 01.515-9.236c3.386 1.9 5.08 4.464 6.515 7.468 3.32 6.93 6.209 14.166 10.267 20.747 3.436 5.643 8.059 10.722 11.346 16.672.813 1.502 1.427 4.016-1.594 2.273zm-24.55-24.48c3.643 5.236 6.93 10.721 11.03 15.601 3.594 4.207 7.644 8.108 11.445 12.216.971 1.029 1.66 3.128-.979 2.049-4.872-2-10.466-7.543-14.525-11.958-4.515-4.929-9.237-9.701-12.45-15.543a10.164 10.164 0 01-.83-7.643 13.225 13.225 0 016.308 5.278zm-1.793 12.215c4 4.307 7.702 8.929 12.06 12.83 3.743 3.319 7.951 6.415 11.901 9.593 1.03.871 1.951 2.664-.614 2.05-4.631-1.228-10.441-5.569-14.732-9.079-4.723-3.9-9.595-7.643-13.28-12.523a9.285 9.285 0 01-1.66-6.821 11.9 11.9 0 016.325 3.95zm.664 11.701c3.9 3.386 7.594 7.079 11.802 10.058 3.644 2.564 7.594 4.822 11.446 7.286.979.614 1.9 2.158-.407 1.851-4.208-.614-9.703-3.851-13.753-6.515-4.565-2.979-9.188-5.809-12.931-9.701a8.063 8.063 0 01-2.158-5.809 10.673 10.673 0 016 2.83zm.614 10.929c4.05 2.357 7.951 4.98 12.217 6.93 3.694 1.66 7.595 2.979 11.396 4.415.971.406 2.1 1.593 0 1.659-3.851.208-9.288-1.742-13.396-3.319-4.515-1.851-9.13-3.544-13.139-6.415a7.051 7.051 0 01-2.871-4.772 9.449 9.449 0 015.801 1.502h-.008zm.357 8.208c4.05 1.742 7.951 3.693 12.217 5.128 3.694 1.228 7.594 2.258 11.396 3.386.971.257 2.108 1.179 0 1.237-3.851.149-9.288-1.287-13.396-2.49-4.515-1.386-9.13-2.672-13.139-4.821a5.38 5.38 0 01-2.871-3.544 11.511 11.511 0 015.801 1.104h-.008zm2.05 8.365c3.743 1.278 7.47 2.771 11.346 3.693 3.436.871 7.03 1.435 10.524 2.157.921.208 1.95.921.099 1.129-3.485.465-8.465-.415-12.217-1.228-4.208-.872-8.416-1.66-12.16-3.32a4.97 4.97 0 01-2.92-3.029 11.233 11.233 0 015.336.598h-.008zm.971 5.809c3.851.921 7.594 2 11.62 2.614 3.436.564 7.079.871 10.623 1.336.922.099 2.05.664.158.971-3.386.614-8.466.099-12.267-.415-4.208-.515-8.466-.971-12.367-2.208a4.925 4.925 0 01-3.08-2.489 11.467 11.467 0 015.321.232l-.008-.041zm1.336 5.178c3.851.83 7.644 1.801 11.62 2.307 3.436.465 7.08.722 10.624 1.029.921.1 2.05.664.207 1.029-3.386.664-8.416.307-12.267-.099-4.258-.415-8.516-.772-12.45-1.901a4.621 4.621 0 01-3.129-2.415 11.623 11.623 0 015.404.092l-.009-.042zm2.258 5.9c4.465.357 7.802 1.129 11.802 1.386 3.486.208 7.08.83 10.674.921.921.05 2.05.415.257.83-3.32.664-7.852.208-11.703.05a88.518 88.518 0 01-12.98-1.178 4.902 4.902 0 01-3.32-1.851c1.327-.73 3.585-.266 5.278-.116l-.008-.042zm21.961-15.908c.83-2.614 3.901-1.95 5.694-.465 1.792 1.486 5.594 5.029 4.872 6.108-.722 1.079-4.615.1-7.03-.921-2.415-1.021-4.291-2.058-3.519-4.672l-.017-.05zm8.773 8.058c1.901.465 6.001 1.792 5.901 2.821-.099 1.029-3.436 1.743-5.644 1.851-2.207.108-3.95 0-4.307-2.257-.357-2.257 2.166-2.83 4.067-2.374l-.017-.041zm1.901 6.821c1.792.158 5.901.83 5.901 1.851s-2.98 2.108-5.03 2.489c-2.05.382-3.743.515-4.366-1.543-.622-2.058 1.66-2.954 3.511-2.747l-.016-.05zm2.871 8.009c1.851.157 5.902.829 5.902 1.85 0 1.021-2.98 2.108-5.03 2.49-2.05.381-3.743.514-4.366-1.544-.622-2.058 1.693-2.979 3.511-2.755l-.017-.041zm5.437 6.207c2 .207 6.415.921 6.465 2.05.05 1.128-3.32 2.307-5.494 2.722-2.175.414-4.109.564-4.773-1.66-.664-2.224 1.818-3.22 3.818-3.071l-.016-.041zm-3.179 18.257c.614-.307 1.544-.465.465.464-1.901 1.66-5.03 2.98-7.595 4.208a67.141 67.141 0 01-8.98 3.801 3.92 3.92 0 01-2.872-.1c.614-1.079 2.258-1.535 3.387-2.05 3.079-1.286 5.544-1.95 8.299-3.178 2.333-1.087 4.955-1.959 7.313-3.137l-.017-.008zm-12.525 9.958c2.922-1.436 5.287-2.207 7.902-3.593 2.257-1.179 4.772-2.158 7.03-3.436.614-.307 1.486-.514.514.465-1.792 1.743-4.822 3.128-7.287 4.514a69.869 69.869 0 01-8.623 4.15c-.9.374-1.909.392-2.822.049.589-1.07 2.174-1.585 3.303-2.149h-.017zm2.565 3.129c2.822-1.536 5.188-2.49 7.752-3.95 2.158-1.278 4.615-2.415 6.823-3.801.564-.357 1.435-.614.514.415-1.743 1.792-4.673 3.386-7.03 4.871a70.867 70.867 0 01-8.366 4.622 3.679 3.679 0 01-2.822.208c.481-1.096 2.075-1.751 3.146-2.365h-.017zm3.129 2.489c2.673-1.659 4.872-2.664 7.238-4.257 2.05-1.336 4.307-2.564 6.366-4 .564-.357 1.386-.614.564.357-1.594 1.851-4.308 3.543-6.515 5.079a61.61 61.61 0 01-7.852 4.871 3.48 3.48 0 01-2.722.307c.431-.996 1.917-1.718 2.946-2.332l-.025-.025zm2.208 3.32c2.565-1.793 4.722-2.872 7.03-4.565 1.95-1.485 4.15-2.771 6.158-4.365.515-.415 1.337-.722.565.357-1.486 1.95-4.109 3.743-6.258 5.386a65.118 65.118 0 01-7.595 5.286 3.373 3.373 0 01-2.672.465c.382-1.087 1.817-1.851 2.789-2.573l-.017.009zm3.179 2.356c2.307-1.9 4.258-3.078 6.316-4.821 1.793-1.544 3.801-2.929 5.594-4.514.465-.415 1.179-.772.515.307-1.229 1.9-3.644 3.8-5.545 5.493a60.417 60.417 0 01-6.822 5.494 3.372 3.372 0 01-2.49.614c.249-1.037 1.585-1.859 2.457-2.581l-.025.008zm3.079 2.258c2.158-2.05 4.05-3.386 5.951-5.286 1.66-1.66 3.594-3.129 5.237-4.872.465-.464 1.179-.83.564.257-1.128 2-3.386 4.05-5.129 5.901a63.536 63.536 0 01-6.465 5.95 3.253 3.253 0 01-2.416.772c.175-1.038 1.411-1.917 2.283-2.747l-.025.025zm2.722 2.564c2.108-2.108 3.951-3.436 5.81-5.386 1.66-1.66 3.486-3.236 5.129-5.029.407-.415 1.129-.871.565.257-1.079 2.05-3.32 4.108-5.03 6.009a58.855 58.855 0 01-6.316 6.107 3.225 3.225 0 01-2.415.83c.224-1.095 1.461-2.058 2.282-2.788h-.025zm3.387 2.664c2-2.208 3.801-3.643 5.594-5.643 1.543-1.743 3.32-3.436 4.872-5.237.406-.514 1.079-.921.564.208-.971 2.05-3.079 4.257-4.723 6.207a59.773 59.773 0 01-6 6.415 3.33 3.33 0 01-2.357.971c.124-1.071 1.303-2.1 2.075-2.921h-.025zm3.901 2.257c1.792-2.207 3.436-3.643 5.029-5.643 1.386-1.793 3.03-3.436 4.416-5.286.307-.465.971-.921.514.207-.83 2-2.722 4.208-4.15 6.158a55.991 55.991 0 01-5.436 6.415 3.154 3.154 0 01-2.208 1.029c.058-1.029 1.137-2.092 1.859-2.88h-.024zm3.319 2.257c1.66-2.207 3.129-3.643 4.565-5.643 1.229-1.742 2.665-3.435 3.901-5.236.307-.465.872-.921.515.157-.664 1.951-2.357 4.15-3.694 6.108a54.881 54.881 0 01-4.772 6.307c-.26.313-.581.57-.944.755a2.998 2.998 0 01-1.164.324c0-.971.963-1.95 1.577-2.772h.016zm3.08 1.486c1.485-2.258 2.871-3.801 4.208-5.809 1.128-1.801 2.49-3.544 3.643-5.386.258-.515.83-1.029.515.099-.565 2-2.158 4.258-3.32 6.258a50.91 50.91 0 01-4.465 6.564 3.272 3.272 0 01-2.001 1.228c-.083-1.004.789-2.075 1.403-2.946l.017-.008zm3.029 1.9c1.386-2.307 2.722-3.95 3.951-6.108 1.029-1.85 2.307-3.643 3.32-5.543.257-.515.772-1.029.514.05-.464 2.049-1.9 4.415-3.029 6.464a55.977 55.977 0 01-4.109 6.822 3.004 3.004 0 01-1.95 1.286c-.1-.963.772-2.091 1.287-2.971h.016zm5.337-20.423c-1.951-.664-1.386-2.979-.257-4.257 1.128-1.278 3.079-2.921 3.851-2.357.772.565.83 2.307 0 4.108-.83 1.801-1.693 3.137-3.611 2.506h.017zm4.39-1.029c1.129-1.286 2.723-2.05 3.486-1.543.764.506 1.179 1.485.357 3.319-.821 1.834-1.66 3.129-3.594 2.49-1.933-.639-1.369-2.98-.249-4.266zm4.051 3.494c.83-1.286 2.108-2.158 2.822-1.793.714.366 1.228 1.129.772 2.822-.457 1.693-1.03 2.979-2.822 2.664-1.793-.316-1.586-2.357-.764-3.693h-.008zm.83 18.257c.614-1.901 1.436-3.801 1.95-5.751.158-.515.565-1.129.515-.05 0 1.95-.872 4.415-1.486 6.514a51.429 51.429 0 01-2.49 7.029 2.92 2.92 0 01-1.535 1.594c-.258-.872.307-2.05.614-2.979.871-2.382 1.701-4.141 2.432-6.349v-.008zm.357 7.9c.971-2.357 1.95-4.058 2.722-6.207.722-1.851 1.66-3.693 2.258-5.643.207-.515.614-1.079.514 0-.099 1.95-1.129 4.307-1.793 6.414a51.9 51.9 0 01-2.822 6.88 3.078 3.078 0 01-1.593 1.544c-.257-.922.357-2.05.722-2.971l-.008-.017zm3.593 1.9c.922-2.356 1.901-4.049 2.723-6.207.722-1.85 1.66-3.743 2.307-5.643.158-.514.614-1.079.515 0-.158 1.95-1.129 4.307-1.851 6.415a58.762 58.762 0 01-2.872 6.879 2.778 2.778 0 01-1.593 1.486c-.249-.863.415-2.042.771-2.946v.016zm3.486-.514c.872-2 1.851-3.436 2.615-5.236.664-1.594 1.544-3.129 2.158-4.772.157-.415.564-.871.514 0-.099 1.66-1.029 3.643-1.743 5.386a39.515 39.515 0 01-2.672 5.809 2.684 2.684 0 01-1.594 1.228c-.249-.706.374-1.685.731-2.398l-.009-.017zm4.723-20.747c.664-1.435 1.851-2.564 2.673-2.307.821.258 1.435.98 1.228 2.822-.208 1.842-.614 3.236-2.49 3.178-1.876-.058-2.075-2.174-1.403-3.659l-.008-.034zm3.32-15.7c-.1-2.357.465-4.307 1.286-4.307.822 0 1.486 1.792 1.594 4.149.108 2.357-.515 4.257-1.287 4.307-.771.05-1.568-1.809-1.618-4.116l.025-.033zm2.722 9.8c.258 0 .465 1.179.515 2.722.05 1.544-.158 2.772-.407 2.772-.249 0-.465-1.179-.514-2.664-.05-1.485.116-2.747.373-2.797l.033-.033zm.722-39.003c.565-2.921 1.901-5.129 3.03-4.872 1.129.258 1.485 2.772.921 5.693-.564 2.921-1.901 5.079-3.029 4.872-1.129-.208-1.486-2.789-.955-5.66l.033-.033zm3.32 12.315c.83-.05 1.594 2.489 1.66 5.742.067 3.254-.514 5.901-1.336 5.951-.822.049-1.536-2.49-1.66-5.743-.125-3.253.498-5.867 1.32-5.917l.016-.033zm1.179-11.394c.664-3.32 2.208-5.809 3.436-5.544 1.228.266 1.743 3.179 1.079 6.515-.664 3.336-2.158 5.809-3.436 5.543-1.278-.265-1.768-3.145-1.096-6.473l.017-.041zm3.594 27.385c1.029-.05 2 2.415 2.108 5.494.108 3.079-.664 5.593-1.66 5.643-.996.05-2-2.357-2.108-5.436-.108-3.078.614-5.651 1.643-5.701h.017zm1.435-3.543c-.971.05-1.85-2.49-1.95-5.743-.1-3.253.614-5.9 1.594-5.95.979-.05 1.792 2.49 1.9 5.751.108 3.261-.589 5.892-1.56 5.95l.016-.008zm1.436-14.83c-1.286-.257-1.792-3.319-1.128-6.771.664-3.453 2.307-6.108 3.593-5.809 1.287.298 1.851 3.319 1.129 6.821s-2.324 6.025-3.61 5.767l.016-.008zm3.644-20.879c.257-2.722 1.228-4.822 2.208-4.722.979.1 1.543 2.357 1.286 5.079-.257 2.722-1.286 4.821-2.257 4.722-.971-.1-1.469-2.357-1.254-5.079h.017zm2.415-7.958c-.772-.05-1.286-2.208-1.228-4.822.058-2.614.83-4.672 1.544-4.614.713.058 1.336 2.207 1.228 4.822-.108 2.614-.797 4.672-1.56 4.622l.016-.008zm-.157-12.614c-1.387 0-2.49-2.365-2.49-5.187 0-2.821 1.178-5.187 2.564-5.187 1.386 0 2.49 2.415 2.49 5.237 0 2.821-1.195 5.137-2.564 5.137zm2.307-13.444c-1.436.207.415-4.108-1.029-4.207-1.444-.1.357 3.999-1.029 4.107-1.387.108.464-4.149-.872-3.95-1.336.199.407 4.108-1.029 4.208-1.436.099.772-4.108-.614-4.108-1.386 0-.415 4.307-1.901 4.108-1.486-.2 1.336-4.258-.158-4.357-1.494-.1-.514 3.85-2.05 4.207-1.178.307.922-3.435-.257-3.643-1.179-.207-.208 3.851-1.336 3.386-1.287-.564.921-4.207-.465-4.108-1.594.108-1.851 5.809-2.158 4.257-.921-3.95.257-8.008.415-12.008a72.933 72.933 0 0022.409-1.178c1.03 3.494 2.98 6.879 3.08 10.523 0 1.535-1.486-3.901-2.922-3.494-1.436.406.564 4.05-.83 4.514-1.394.465-.099-4.257-1.336-3.801-1.544.615.257 4.366-1.336 4.822-1.337.407.356-4.365-1.03-4.108-1.386.257.515 4.465-1.029 4.564-1.544.1.307-4.107-1.178-4.414-1.337-.258.357 3.85-1.029 3.95-1.387.099.099-4.208-1.129-3.801-1.561.473.34 4.323-1.204 4.531h.017zm-10.881-51.103c5.129.564 11.852-1.66 18.633-1.435-6.466 1.286-12.832 4.821-19.347 3.8-4.308-.664-7.901-4.771-10.109-8.514 3.469 3.369 6.706 5.709 10.806 6.141l.017.008zm-11.097-12.273c2.1 3.85 5.951 5.336 9.337 5.809 6.98.971 14.168-1.129 21.09-.158 2.93.407 6.059 1.593 8.009 3.95a47.99 47.99 0 00-8.88-.564c-7.288 0-14.475 1.593-21.505.257-4.515-.78-7.337-5.494-8.051-9.294zm29.564 17.136c-.05-.614-.1-1.178-.158-1.792-.722.564-1.436 1.079-2.208 1.659.05-.514.1-.971.158-1.485-.664.564-1.336 1.079-2.05 1.66.05-.614.1-1.179.158-1.793-.614.614-1.851 1.66-2.49 2.208.05-.565.664-1.594.722-2.208-.722.614-2.615 1.793-3.386 2.357.257-.614 1.66-1.851 1.9-2.49 5.694-2.489 10.79-3.85 15.347-3.643-.415 1.594-3.237 1.66-3.486 3.544-.258 1.386 1.228 3.079 1.743 4.365a51.787 51.787 0 018.465 0c-3.494 1.228-9.187 1.485-11.702 4.108-2.258 2.415-2.565 6.365-3.03 9.543-.357-.921-.664-1.9-1.029-2.821a75.197 75.197 0 01-1.029 3.385 42.989 42.989 0 00-1.179-2.049 30.522 30.522 0 01-1.029 1.9 48.752 48.752 0 00-1.029-2.614c-.357.83-.772 1.66-1.129 2.49 0 0-1.485-3.801-1.66-2.615a25.959 25.959 0 01-.722 3.079c-.357-.921-.664-1.85-1.029-2.772-.465.772-.871 1.536-1.336 2.308-.258-.772-.565-1.536-.872-2.308-.307.872-.564 1.743-.871 2.615-.407-.772-.772-1.544-1.179-2.357-.357.722-.664 1.386-1.029 2.05a21.927 21.927 0 01-.407-2.05c-.406.514-.83.971-1.178 1.485l2.921-11.701a33.362 33.362 0 0113.795-1.062c1.029-1.593 2-3.178 3.029-4.822l-3.021 1.826zm9.337-1.66c0 .515-.772.922-1.66.922-.888 0-1.66-.407-1.66-.922 0-.514.772-.97 1.66-.97.888 0 1.66.373 1.66.937v.033zm6.881-3.029l-3.951-1.336.307-4.514 3.644 1.9v3.95zm8.623 7.336a18.7 18.7 0 00-9.188-2.356l.1-3.486c4.407.789 8.258 2.639 9.08 5.818l.008.024zm-11.238-3.236l-2.822-.307c.386-.698.73-1.419 1.029-2.158l1.793 2.465zm-13.753 19.917l1.876 10.846-1.9-2.357v2.49l-1.743-1.594-.307 2.614-1.287-2.771-.772 2.365-1.129-2.365-.771 2.771-1.179-2.489-1.029 2.05-1.129-2.05-1.336 1.9-1.029-2.614-.723 2.49-.871-2.614-1.029 2.307-.772-2.307-1.029 2.207-.872-2.357-1.336 1.743-.257-2.05-.839 2.008 2.051-11.136a64 64 0 0017.404.879l.008.034zm51.783 45.642c.066.265.108.539.149.83a24.88 24.88 0 01-1.369 8.083c-2.93 6.555-9.678 13.012-16.558 16.248a11.728 11.728 0 00-2.656-3.319c-2.772-2.307-5.495-2.415-8.723-6.88-5.545-7.643-8.3-15.543-10.79-24.63-1.917-6.821-4.308-13.186-6.283-19.543 8.939.689 23.397-1.66 28.302 3.892 3.32 3.693-3.029 6.315-5.129 11.751-1.793 4.531 8.98 8.024 23.049 13.56l.008.008zm-1.768-75.642l40.03-12.622c0 .465.05.921.05 1.386a106.702 106.702 0 01-4.465 30.58h-32.834c.049-.722.049-1.485.049-2.207a52.664 52.664 0 00-2.83-17.137zm-1.336-3.386c-.158-.307-.257-.564-.415-.871a49.903 49.903 0 00-3.544-6.514l41.814-27.502a101.306 101.306 0 012.822 15.444l-40.677 19.443zm40.669 35.767c2.614-3.593 4.872-6.257 6.316-4 1.444 2.258-.465 5.436-3.029 8.979-2.565 3.544-5.387 5.386-6.317 4-.929-1.385.399-5.435 2.972-8.979h.058zm16.06-37.509c1.179-9.594-.307-19.195.921-28.788 1.66-13.278 7.188-14.166 9.445-.357 1.536 9.801-.356 21.858-3.079 32.53-3.079 12.108-9.13 23.087-14.109 34.531-.158-2.614.921-6.307-.723-6.979a139.487 139.487 0 007.487-30.937h.058zm-11.163-69.999c8.831 1.942 19.703 4.44 25.322 10.465 5.263 5.717.615 12.099-7.403 7.659-7.096-4.016-12.093-10.78-17.919-18.124zm5.046 112.546c2.565 2 .357 5.435-2.664 9.335-3.021 3.901-6.823 6.058-8.466 4.822-1.643-1.237-.357-5.494 2.664-9.394 3.021-3.9 5.852-6.822 8.466-4.772v.009zm-13.91 24.937c-2.49 2.357-4.931 3.319-5.387 2.108-.457-1.212 1.129-4.05 3.644-6.415 2.514-2.365 4.564-4.05 5.386-2.108.822 1.942-1.17 4.05-3.635 6.407l-.008.008zm1.128-14.108c.772 1.901-1.178 4.05-3.643 6.415s-4.93 3.319-5.387 2.108c-.456-1.212 1.129-4.05 3.644-6.415s4.581-4.066 5.411-2.116l-.025.008zm-12.723 93.774c1.9 1.951 3.743 3.32 5.901 5.386.83.772 2 1.66 2.208 2.772a3.32 3.32 0 01-2.49-.83 63.942 63.942 0 01-6.308-6.108c-1.743-1.9-3.951-3.95-4.98-6.008-.614-1.129.1-.664.515-.257 1.668 1.776 3.51 3.311 5.154 5.004v.041zm-2.615-7.336c1.66 1.743 3.544 3.237 5.237 4.872 1.951 1.9 3.802 3.236 6.01 5.286.83.772 2.05 1.66 2.257 2.722a3.33 3.33 0 01-2.49-.772 62.912 62.912 0 01-6.416-5.95c-1.792-1.851-4.05-3.9-5.187-5.9-.539-1.121.183-.764.589-.299v.041zm7.188 18.315a3.398 3.398 0 01-2.415-.971 59.55 59.55 0 01-6.009-6.414c-1.66-1.951-3.744-4.15-4.723-6.208-.515-1.128.208-.722.564-.207 1.544 1.792 3.32 3.494 4.872 5.236 1.793 2 3.594 3.436 5.594 5.643.83.78 1.992 1.809 2.117 2.888v.033zm-9.96-23.501c-1.66 1.128-2.872 0-4.15-1.486-1.278-1.485-1.66-3.236-1.079-4 .581-.763 2.872.357 4.366 1.336 1.494.98 2.556 2.988.863 4.117v.033zm-2.257-9.959c-1.594.971-2.416.1-3.179-1.078-.764-1.179-1.66-3.237-1.029-3.801.63-.564 3.129.83 4.15 1.543 1.02.714 1.651 2.332.058 3.303v.033zm-30.486 7.079c-.514-1.228-.356-2.207.415-2.257.772-.05 1.743.971 2.258 2.207.515 1.237.83 2.208-.415 2.258-1.245.049-1.743-1.005-2.258-2.241v.033zm1.386 8.299c-1.029-.05-1.336-1.079-1.593-2.257-.257-1.179.05-2.158.664-2.108.614.05 1.336 1.079 1.593 2.307.258 1.228.366 2.091-.664 1.966v.092zm-8.573-12.448c.83 0 1.544 1.85 1.593 4.207.05 2.357-.464 4.257-1.286 4.307-.822.05-1.486-1.85-1.594-4.149-.108-2.299.523-4.349 1.254-4.398l.033.033zm-1.536-2.822c-.772.05-1.535-2.489-1.66-5.751-.124-3.261.515-5.809 1.337-5.95.821-.141 1.593 2.49 1.66 5.743.066 3.253-.515 5.867-1.337 5.917v.041zm4.258-16.008c.722-.049 1.336 2.49 1.386 5.743.05 3.253-.415 5.9-1.129 5.95-.713.05-1.286-2.49-1.386-5.751-.099-3.261.465-5.933 1.129-5.983v.041zm-1.851 30.531c.158-1.228.772-2 1.337-1.743.564.257.871 1.436.722 2.664-.15 1.228-.407 2.158-1.337 1.743-.929-.415-.921-1.519-.713-2.706l-.009.042zm1.66 6.415c.1-1.229.664-3.079 1.386-3.129.722-.05 1.66 2.257 1.951 3.32.29 1.062-.208 2.489-1.793 2.257-1.585-.233-1.618-1.253-1.502-2.49l-.042.042zm2.258-4.722c-.971-.357-.971-1.386-.872-2.614.1-1.228.664-2 1.229-1.793.564.208.971 1.436.871 2.614-.099 1.179-.241 2.166-1.187 1.751l-.041.042zm1.129-5.237c-1.03-.049-1.387-1.029-1.743-2.257-.357-1.228-.05-2.207.614-2.207s1.436 1.079 1.743 2.257c.307 1.178.506 2.257-.573 2.174l-.041.033zm-2.565-5.999l.564-4.565c14.732-10.107 19.862-19.501 23.041-38.845.207-1.436 1.128-4.565 2.257-5.494-1.859 23.518-10.839 39.368-25.821 48.862l-.041.042zm31.473-48.116c2.564-.357 4.614-.464 4.258 1.287-.357 1.751-2.565 2.307-5.13 2.672-2.564.365-4.515-.208-4.257-1.287.257-1.078 2.539-2.315 5.129-2.672zm.465-6.514c2.415-1.743 4.415-2.979 4.872-1.228.456 1.751-1.436 3.385-3.852 5.186-2.415 1.801-4.623 2.307-4.93 1.228-.307-1.078 1.519-3.427 3.934-5.194l-.024.008zm-.233 11.717c2.615-.049 4.673.1 4.05 1.801-.622 1.701-2.772 1.95-5.386 2-2.615.05-4.416-.722-4.05-1.792.365-1.071 2.763-1.934 5.386-2.009zm-1.95 5.901c2.307.257 4.058.664 3.32 2.257-.739 1.593-2.723 1.593-4.98 1.336-2.258-.257-3.802-1.286-3.32-2.257.481-.971 2.722-1.569 4.98-1.311v-.025zm-7.238 20.116c1.129 1.029 1.901 1.9.83 2.564-1.07.664-2.108-.158-3.179-1.129-1.07-.971-1.485-2.207-.83-2.564.656-.357 2.051.133 3.179 1.153v-.024zm-1.228-4.772c.722-.664 2.49-.357 4.108.564 1.619.921 2.723 1.851 1.594 2.871-1.129 1.021-2.49.357-4.109-.564-1.618-.921-2.265-2.232-1.601-2.846l.008-.025zm-1.029 8.722c1.129 1.029 1.9 1.95.83 2.564-1.071.614-2.108-.1-3.237-1.129s-1.436-2.157-.772-2.564c.664-.407 2.05.133 3.179 1.154v-.025zm-2.49 2.821c1.129 1.029 1.9 1.95.83 2.564-1.071.615-2.108-.099-3.179-1.128-1.071-1.029-1.486-2.158-.83-2.564.656-.407 2.125.132 3.204 1.153l-.025-.025zm-2.258 3.029c1.129 1.029 1.901 1.95.83 2.564-1.07.615-2.108-.099-3.237-1.128-1.128-1.029-1.436-2.158-.772-2.564.664-.407 2.075.166 3.204 1.153l-.025-.025zm1.436 3.029c.565-.307 1.66.208 2.565 1.079.904.871 1.436 1.66.514 2.108-.921.448-1.66-.208-2.49-1.079-.83-.871-1.128-1.776-.564-2.083l-.025-.025zm3.03-4.307c.722-.357 2.157.257 3.236 1.386 1.079 1.129 1.793 2.108.664 2.672-1.128.565-2.157-.257-3.236-1.336-1.079-1.079-1.304-2.29-.64-2.697l-.024-.025zm3.851-.971c-1.229-1.128-1.66-2.415-.922-2.871.739-.456 2.358.158 3.594 1.286 1.237 1.129 2.108 2.158.921 2.872-1.186.713-2.34-.092-3.568-1.27l-.025-.017zm3.436-4.058c-1.337-1.228-1.793-2.664-.971-3.128.821-.465 2.564.157 3.901 1.386 1.336 1.228 2.307 2.356 1.029 3.128-1.278.772-2.548-.133-3.901-1.361l-.058-.025zm-2-10.058c-1.851-.722-2.822-1.95-2.208-2.771.614-.822 2.614-.83 4.465-.15 1.851.681 3.237 1.486 2.208 2.772-1.029 1.286-2.598.888-4.441.174l-.024-.025zm2.307-4.821c-1.951-.208-3.237-1.079-2.822-1.95.415-.872 2.307-1.386 4.258-1.129 1.95.257 3.436.564 2.822 1.95-.615 1.386-2.283 1.436-4.233 1.154l-.025-.025zm-17.861 27.045c.722 1.336 1.128 2.49-.1 2.722-1.228.232-1.901-.83-2.614-2.158-.714-1.327-.722-2.489.049-2.664.772-.174 1.976.781 2.69 2.117l-.025-.017zm-2.615 5.9c.515.05 1.179.98 1.386 2 .208 1.021.307 1.95-.564 1.851-.872-.1-1.228-.921-1.436-2-.207-1.079.091-1.884.639-1.834l-.025-.017zm1.901-2.257c.664-.05 1.535.83 2 1.9.465 1.071.772 2.108-.207 2.208-.98.099-1.536-.772-2.001-1.9-.464-1.129-.381-2.092.233-2.191l-.025-.017zm1.029-5.643c-.921-1.178-1.079-2.415-.357-2.672.722-.257 2 .465 2.93 1.66.93 1.195 1.535 2.257.407 2.663-1.129.407-2.034-.456-2.963-1.634l-.017-.017zm2.357 3.56c.614-.099 1.544.722 2.108 1.793.565 1.07.872 2-.099 2.207-.971.208-1.594-.722-2.158-1.792-.565-1.071-.44-2.058.149-2.208zm2.49.257c-.83-.871-1.079-1.792-.514-2.107.564-.316 1.66.207 2.49 1.078.829.872 1.485 1.66.564 2.108-.921.448-1.71-.157-2.54-1.087v.008zm.664 3.494c.664-.357 2.415 1.486 3.079 2.357.664.871.83 2.357-.722 2.772-1.552.415-2.05-.515-2.415-1.66-.365-1.145-.606-3.154.058-3.477v.008zm3.544.564c-.564-1.128-1.029-2.979-.415-3.435.614-.457 2.565 1.128 3.386 1.9.822.772 1.129 2.208-.356 2.822-1.486.614-2.05-.216-2.615-1.295v.008zm3.179-3.385c-.83-1.179-1.66-3.229-1.029-3.851.631-.622 3.129.871 4.15 1.593 1.021.722 1.66 2.357.099 3.32-1.56.962-2.398.108-3.22-1.071v.009zm3.386-7.079c.614-.614 3.129.871 4.208 1.593 1.079.722 1.66 2.357.05 3.32-1.61.962-2.415.099-3.237-1.079-.821-1.179-1.635-3.228-1.004-3.842l-.017.008zm9.147-4.888c-1.079-1.029-2.416-2.979-1.901-3.743.515-.763 3.494.208 4.723.772 1.228.564 2.207 2.1.772 3.436-1.436 1.336-2.474.614-3.594-.465zm-.357-6.821c-1.336.829-2.565-.1-3.951-1.386-1.386-1.287-1.793-2.614-.971-3.129.822-.514 2.565.158 3.901 1.386 1.336 1.228 2.34 2.357 1.062 3.129h-.041zm-.307-6.515c-1.66-.664-2.615-1.792-2.05-2.489.564-.697 2.415-.83 4.108-.158 1.693.672 3.029 1.336 2.108 2.564-.921 1.228-2.432.747-4.125.083h-.041zm3.901-4.929c-1.743-.307-4.416-1.228-4.466-2.208-.049-.979 3.32-1.792 4.872-2.049 1.552-.258 3.594.514 3.179 2.564-.415 2.05-1.842 2-3.552 1.693h-.033zm2.822-6.465c-2.308.257-5.81.1-6.109-.979-.299-1.079 3.693-3.079 5.544-3.9 1.851-.822 4.623-.565 4.623 1.792s-1.759 2.83-4.025 3.087h-.033zm1.85-7.85c-2.207.099-5.594-.415-5.809-1.743-.216-1.328 3.801-3.386 5.643-4.149 1.843-.764 4.466-.258 4.258 2.614-.207 2.871-1.851 3.228-4.058 3.278h-.034zm-.207-7.801c-2.822 2-5.337 2.614-5.644 1.386-.307-1.228 1.66-3.9 4.515-5.9 2.855-2 5.129-3.386 5.644-1.386.515 2-1.66 3.9-4.482 5.9h-.033zm-1.062-12.83c2.207-2.049 4.05-3.593 4.722-1.9.672 1.693-1.029 3.593-3.179 5.643-2.149 2.05-4.257 2.822-4.722 1.851-.465-.971.996-3.544 3.179-5.594zm-17.961 15.394c-4.208 25.602-12.01 33.452-20.75 36.381l.158-7.701c12.317-5.029 17.139-16.78 18.882-31.352 12.45-9.186 22.019-19.701 30.942-30.481-8.176 11.245-17.081 22.432-29.265 33.153h.033zm-37.158 13.801c-.664.207-1.743-1.179-2.416-3.129-.672-1.95-.614-3.693.108-3.95.722-.257 1.743 1.179 2.415 3.129.673 1.95.581 3.701-.141 3.95h.034zm-5.81-5.809c.83-.158 1.792 1.593 2.207 3.85.415 2.258.05 4.208-.722 4.365-.772.158-1.792-1.593-2.207-3.85-.415-2.257-.067-4.249.705-4.398l.017.033zm-1.743-7.237c-.515-2.049-.465-3.9.157-4.058.623-.157 1.486 1.386 2.001 3.436.514 2.05.464 3.9-.15 4.108-.614.207-1.519-1.419-2.025-3.519l.017.033zm-5.669-12.564c-.415-2.356.158-4.414 1.286-4.614 1.129-.199 2.416 1.536 2.822 3.901.407 2.365-.207 4.307-1.336 4.514-1.129.208-2.357-1.485-2.772-3.801zm.257 30.274c-.871.049-1.793-1.901-2-4.357-.208-2.456.257-4.622 1.129-4.672.871-.05 1.793 1.85 2.05 4.365.257 2.514-.249 4.572-1.154 4.672l-.025-.008zm.772-16.929c.357 2.821.05 5.286-.772 5.385-.821.1-1.851-2.049-2.208-4.871-.356-2.821-.049-5.236.772-5.386.822-.149 1.801 2.058 2.208 4.88v-.008zm-1.95 21.344c1.286-.258 2.93 2.307 3.593 5.809.664 3.502.15 6.514-1.128 6.771-1.278.257-2.922-2.307-3.594-5.809-.672-3.502-.208-6.506 1.129-6.763v-.008zm3.436-26.274c.722-.157 1.535 1.743 1.9 4.149.366 2.407.05 4.515-.664 4.673-.713.157-1.535-1.801-1.9-4.208-.365-2.406-.05-4.506.664-4.606v-.008zm-12.624 11.394c-1.029 0-1.851-2.307-1.851-5.186 0-2.88.83-5.187 1.851-5.187s1.851 2.307 1.851 5.187c0 2.879-.822 5.194-1.851 5.194v-.008zm1.851 8.465c0 2.871-.83 5.236-1.851 5.236s-1.851-2.357-1.851-5.236c0-2.88.83-5.187 1.851-5.187s1.851 2.374 1.851 5.195v-.008zm-.615-22.406c-1.386 0-2.564-2.307-2.564-5.129 0-2.822 1.178-5.187 2.564-5.187 1.387 0 2.49 2.307 2.49 5.187 0 2.88-1.103 5.17-2.465 5.17l-.025-.041zm4.673 13.601c-1.029.1-2.05-2.158-2.307-5.029-.257-2.871.415-5.236 1.386-5.336.971-.1 2.05 2.207 2.258 5.029.207 2.821-.316 5.319-1.345 5.377l.008-.041zm-.498 12.556c-.971.099-1.95-2.05-2.207-4.722-.258-2.672.257-5.029 1.228-5.129.971-.099 1.95 2.05 2.208 4.772.257 2.722-.224 4.979-1.229 5.079zm-.722-31.452c-.257-2.564.515-4.821 1.793-4.929 1.278-.108 2.49 1.85 2.722 4.464.233 2.614-.564 4.772-1.792 4.93-1.229.157-2.432-1.901-2.69-4.465h-.033zm5.437 49.36c1.535-.05 2.921 3.178 3.079 7.236.157 4.058-.971 7.469-2.49 7.469-1.519 0-2.872-3.128-3.03-7.236-.157-4.108.938-7.361 2.482-7.469h-.041zm2.415-24.838c-.465-2.489-.1-4.622.772-4.771.871-.15 1.95 1.742 2.357 4.207.407 2.465.099 4.564-.772 4.722-.872.158-1.909-1.693-2.324-4.149l-.033-.009zm2.108 7.643c1.228-.257 2.772 2.258 3.436 5.594.664 3.336.149 6.207-1.079 6.464-1.228.258-2.822-2.207-3.436-5.543-.614-3.336-.174-6.249 1.112-6.506l-.033-.009zm2.565 16.83c1.386-.05 2.614 2.821 2.772 6.465.157 3.643-.872 6.564-2.258 6.638-1.386.075-2.564-2.821-2.722-6.464-.158-3.643.905-6.581 2.241-6.631l-.033-.008zm1.477-11.394c-.614-2.929-.158-5.494.921-5.693 1.079-.199 2.49 1.95 3.03 4.871.539 2.921.157 5.494-.922 5.693-1.079.199-2.473-1.933-3.029-4.871zm4.98-7.851c.971-.257 2.208 1.901 2.772 4.822.564 2.921.307 5.436-.664 5.693-.971.257-2.208-1.901-2.772-4.772-.565-2.871-.266-5.477.664-5.734v-.009zm3.643 27.145c-.83.05-1.543-2.489-1.66-5.742-.116-3.253.515-5.809 1.337-5.951.821-.141 1.544 2.49 1.66 5.751.116 3.262-.523 5.901-1.345 5.95l.008-.008zm.05-23.344c-.722-2.489-.722-4.672.1-4.979.822-.307 2.05 1.436 2.772 3.851s.722 4.672-.05 4.979c-.772.307-2.058-1.461-2.83-3.842l.008-.009zm2.565 26.556c.722-.05 1.336 2.05 1.386 4.672.05 2.622-.415 4.821-1.129 4.871-.714.05-1.286-2.05-1.386-4.722-.099-2.672.457-4.788 1.121-4.788l.008-.033zm-.921 26.016c.207-1.743.83-2.307 1.485-2.357.656-.05 1.337 1.228 1.486 2.722.149 1.494-.407 3.494-1.851 3.129-1.444-.366-1.386-1.718-1.129-3.461l.009-.033zm2.871-9.386c.158-1.228.664-3.079 1.436-3.128.772-.05 1.66 2.257 1.951 3.319.29 1.062-.208 2.49-1.793 2.257-1.585-.232-1.702-1.195-1.602-2.423l.008-.025zm.971 18.622c.308-.514.565-.157.565.1.05 1.079.415 2.207.514 3.236.1 1.228.565 2.257.772 3.594.05.514.357 1.228-.207 1.535a1.896 1.896 0 01-.738-.399 1.905 1.905 0 01-.491-.68 13.01 13.01 0 01-.614-3.95c-.058-1.096-.315-2.481.199-3.403v-.033zm.1-11.9c-.05-2.158.614-2.921 1.436-3.129.822-.207 1.851 1.229 2.307 3.029.457 1.801.1 4.307-1.66 4.15-1.759-.158-2.033-1.917-2.083-4.025v-.025zm3.386 11.618c.307-.514.565-.158.565.158.05 1.029.357 2.157.465 3.178.157 1.228.614 2.257.829 3.593.05.515.308 1.229-.257 1.594a2.117 2.117 0 01-1.178-1.129 12.98 12.98 0 01-.615-3.95c-.024-1.079-.323-2.465.191-3.386v-.058zm4.059-21.136c.158-1.229.664-3.079 1.436-3.129.772-.05 1.66 2.307 1.9 3.386.241 1.079-.157 2.489-1.792 2.207-1.635-.282-1.669-1.178-1.544-2.415v-.049zm4.308-1.66c-.15-1.228-.05-3.129.664-3.32.713-.19 2.108 1.851 2.614 2.822.506.971.407 2.489-1.228 2.614-1.635.124-1.901-.813-2.05-2.05v-.066zm2.929 2.821c.83-.257 1.951.83 2.565 2.258.614 1.427.465 3.493-1.336 3.493-1.801 0-2.158-1.336-2.357-3.079-.2-1.742.298-2.348 1.12-2.605l.008-.067zm1.021-5.137c-.357-1.178-.614-3.128.05-3.435.664-.307 2.415 1.436 3.129 2.307s.772 2.357-.772 2.772c-1.544.415-2-.49-2.407-1.644zm2.872 3.386c.772-.357 2 .515 2.822 1.793.822 1.278 1.029 3.386-.772 3.693-1.801.307-2.307-1.029-2.822-2.664-.514-1.635.008-2.49.772-2.888v.066zm3.079.05c-.83-1.801-.465-2.722.307-3.319.772-.598 2.357.257 3.486 1.543s1.66 3.593-.207 4.257c-1.868.664-2.764-.713-3.586-2.506v.025zm4.673-3.236c-.83-1.793-.83-3.594-.05-4.108.78-.515 2.723 1.079 3.851 2.357 1.129 1.278 1.66 3.593-.207 4.257-1.868.664-2.772-.73-3.594-2.531v.025zm4.308-6.93c.722-.614 2.822.722 4.149 1.851 1.328 1.128 2.158 3.319.308 4.207-1.851.888-2.822-.307-3.901-2-1.079-1.693-1.27-3.41-.556-4.074v.016zm4.564 13.278c1.337 1.851 2.98 3.494 4.366 5.286 1.66 2 3.229 3.436 5.08 5.643.664.83 1.743 1.851 1.792 2.872a3.256 3.256 0 01-2.207-1.029 55.742 55.742 0 01-5.387-6.415c-1.486-1.95-3.386-4.15-4.208-6.158-.456-1.128.208-.664.573-.207l-.009.008zm12.45 16.937c3.237-1.128 7.138-2.157 9.802-1.228-1.128 5.544-2.979 10.788-6.158 14.315-4.93 5.494-11.338 1.594-7.802-6.315a31.603 31.603 0 014.166-6.78l-.008.008zm3.212-19.335c-1.95-1.66-4.307-3.594-5.594-5.494-.664-1.079.108-.722.565-.307 1.743 1.593 3.743 2.979 5.544 4.514 2.05 1.743 4 2.922 6.316 4.822.921.722 2.208 1.544 2.49 2.564a3.367 3.367 0 01-2.49-.614 55.747 55.747 0 01-6.831-5.485zm-5.361-14.34c-1.536 1.386-2.872.465-4.308-.872-1.436-1.336-2.158-2.979-1.66-3.8.498-.822 2.922-.05 4.515.722 1.594.771 2.963 2.622 1.453 3.95zm.514-4.93c-1.743-.921-4.15-2.771-3.851-3.643.299-.871 4.15-.406 5.81-.049 1.66.356 3.544 1.85 2.357 3.543-1.187 1.693-2.548 1.079-4.299.158l-.017-.009zm-3.32-10.315c-1.336-.971-2.979-2.921-2.49-3.8.49-.88 3.743-.208 5.13.207 1.386.415 2.664 2 1.286 3.643-1.378 1.643-2.639.988-3.926-.041v-.009zm1.287-10.514c.307-.979 3.643-.921 5.129-.83 1.486.091 2.98 1.436 1.95 3.32-1.029 1.883-2.357 1.435-3.851.721-1.494-.713-3.486-2.282-3.228-3.203v-.008zm2.664-4.207c-.1-.971 3.851-2.208 5.644-2.664 1.793-.457 4.208.207 3.851 2.307-.357 2.099-2.05 2.257-4.109 2.157-2.058-.099-5.228-.771-5.386-1.8zm6.64-4.208c-2.001.722-5.129 1.386-5.644.515-.515-.872 2.614-3.594 4.108-4.672 1.494-1.079 3.951-1.544 4.466.564.514 2.108-.947 2.88-2.897 3.593h-.033zm-1.743-8.464c-.872-.971 2.415-5.029 4-6.772 1.586-1.743 4.515-2.772 5.644-.307 1.129 2.465-.514 3.801-2.772 5.178-2.258 1.378-6.017 2.88-6.839 1.901h-.033zm7.013-11.071c-2.672 2.158-4.415 1.743-5.544 1.544-1.129-.199 1.228-4.108 3.901-6.158 2.672-2.049 5.179-3.435 5.81-1.435.63 2-1.494 3.883-4.167 6.049zm8.159-7.286c1.793-2 5.237-3.319 6.64-.465 1.402 2.855-.515 4.415-3.129 6.058-2.615 1.644-6.98 3.486-8.01 2.357-1.029-1.128 2.706-5.908 4.499-7.958v.008zm4.258-5.543c-2.723 2.257-7.188 3.8-8.3 2.821-1.112-.979 1.593-6.058 4.05-8.83 2.457-2.771 4.673-4.721 6.416-2.107 1.743 2.614.581 5.85-2.166 8.107v.009zm2.747-23.361c2.415-7.186 6.465-13.701 9.13-20.63 3.079-8.058 4.822-16.597 7.129-24.896.971-3.544 2.308-6.722 5.694-9.494a13.618 13.618 0 012.357 10.058c-1.544 8.93-5.387 17.087-8.98 25.402-3.179 7.469-6.981 16.473-13.139 21.759-3.021 2.523-2.83-.348-2.191-2.199zm10.64-110.695c-5.262-6.946-7.245-15.668-9.802-25.369 7.81 5.668 17.363 12.764 20.218 21.029 2.756 7.817-4.457 12.058-10.416 4.34zm-17.662-28.896c4.291 6.282.922 11.228-6.175 5.81-6.333-4.897-12.715-12.913-17.255-20.88 8.266 3.137 18.882 8.39 23.43 15.079v-.009zm-12.2-13.319c9.445-1.784 22.309-3.012 30.327.506 7.553 3.37 7.254 9.9-2.49 8.88-8.615-.855-19.056-4.581-27.837-9.377v-.009zM311.4 92.305c6.333 6.996 2.963 13.627-6.64 8.066-8.632-4.979-17.77-13.734-24.709-22.82 10.666 2.564 24.659 7.31 31.34 14.763l.009-.009zm-1.959 114.073l-1.793-.722c14.782-45.153 2.357-82.355-28.634-114.172 28.767 11.294 49.707 64.704 30.427 114.894zm-25.978-97.293l.415-.564a102.452 102.452 0 0112.624 22.779l-40.337 36.025a50.711 50.711 0 00-9.388-9.643l36.686-48.597zm-20.327 89.492a37.663 37.663 0 01-.83 8.423l14.899 5.071 10.358-1.204 12.117 5.062a100.128 100.128 0 01-25.447 31.842c-5.337-1.552-23.239-2.274-24.235-6.215-.921-3.693 5.386-6.93 3.237-10.108-1.469-2.116-4.075-3.245-7.37-3.851l-26.684-.074c-2.366-7.677-4.092-15.361-3.561-23.884.257-4.464 8.881-7.643 13.28-8.207 4.258-.564 7.594.772 12.217 1.436-.158-5.029-4.98-8.208-9.545-10.158l.357-4.772-6.88-2.564-.83 3.643c-1.129-2.357-6.516-4.365-9.645-4.722-7.337-.921-15.089 2.1-22.169 0-4.208-1.286-4.871-2.722-8.723-7.128-3.593 5.693-2.357 12.672 2.1 17.651 3.802 4.207 7.13 6 12.159 7.701a185.971 185.971 0 00-6.49 30.945h-9.055c-6.939.664-12.807 1.917-15.33 5.727-2.05 3.178 3.951 6.414 3.079 10.057-.871 3.644-8.806 4.656-13.669 5.901a100.087 100.087 0 01-27.589-34.207l13.039-3.56 7.238.722 17.744-5.469a30.73 30.73 0 01-.962-8.033 48.598 48.598 0 0114.234-34.36 48.61 48.61 0 0134.365-14.232 48.603 48.603 0 0144.9 29.996 48.58 48.58 0 013.7 18.596l-.009-.025zm-90.218-31.252L132.581 131.3a102.408 102.408 0 0112.623-22.779l.407.564 36.694 48.597a52.206 52.206 0 00-9.387 9.643zm-65.826 28.215c2.672 6.929 6.723 13.444 9.13 20.63.614 1.851.771 4.722-2.158 2.208-6.209-5.287-9.96-14.316-13.189-21.759-3.594-8.299-7.387-16.473-8.98-25.402a13.427 13.427 0 012.415-10.058c3.32 2.771 4.673 5.95 5.644 9.493 2.316 8.324 4.059 16.838 7.138 24.896v-.008zm-14.998 82.098c1.179-.872 3.32-.564 4.93-.564 4.15.099 7.287.564 11.089.564 3.32-.05 6.64.257 9.959.099.872 0 2.001.307.308.83-3.03.921-7.288.772-10.79.921a79.744 79.744 0 01-12.218-.257 4.47 4.47 0 01-3.286-1.585l.008-.008zm8.059 5.286c4.15-.415 7.337-.207 11.089-.664 3.237-.357 6.64-.415 9.959-.871.83-.1 1.951.05.357.772-2.921 1.228-7.187 1.535-10.723 2.049a90.932 90.932 0 01-12.209 1.029 4.6 4.6 0 01-3.386-1.286c1.162-.971 3.311-.888 4.905-1.021l.008-.008zm1.486 4.979c4.108-.614 7.337-.614 11.03-1.228 3.237-.515 6.64-.772 9.902-1.386.83-.158 2-.05.407.722-2.872 1.386-7.08 1.95-10.624 2.614a77.417 77.417 0 01-12.06 1.66 4.688 4.688 0 01-3.436-1.029c1.08-1.087 3.187-1.145 4.781-1.345v-.008zm4.465 4.415c3.743-.722 6.64-.871 10.059-1.66 2.922-.614 6.001-1.029 8.981-1.742.772-.208 1.851-.15.407.614-2.565 1.435-6.366 2.157-9.545 2.921a80.116 80.116 0 01-11.031 2.108 4.333 4.333 0 01-3.178-.83c.913-.996 2.863-1.104 4.299-1.411h.008zm2.565 4.672c3.544-.921 6.366-1.228 9.594-2.108 2.772-.771 5.752-1.286 8.574-2.157.722-.208 1.743-.208.407.614-2.357 1.485-6.059 2.357-9.08 3.319a73.976 73.976 0 01-10.466 2.564 3.944 3.944 0 01-3.129-.614c.813-1.054 2.714-1.311 4.1-1.618zm2.772 4.415c3.32-1.029 5.951-1.436 8.93-2.415 2.565-.871 5.287-1.485 7.902-2.415.664-.257 1.66-.307.415.515-2.158 1.535-5.544 2.489-8.3 3.543a71.773 71.773 0 01-9.702 2.921 3.853 3.853 0 01-2.98-.464c.755-.938 2.54-1.278 3.735-1.685zm2.872 3.95c3.129-1.128 5.644-1.66 8.465-2.772 2.49-.971 5.08-1.659 7.545-2.771.664-.258 1.594-.357.465.514-2.001 1.593-5.237 2.722-7.902 3.851a76.99 76.99 0 01-9.237 3.319 3.86 3.86 0 01-2.872-.257c.664-1.013 2.299-1.427 3.536-1.884zm41.059 38.539c-.1-.872.614-1.95 1.079-2.822 1.178-2.257 2.357-3.85 3.386-5.9.872-1.743 2-3.544 2.822-5.386.257-.465.722-.971.515.05-.308 1.95-1.594 4.207-2.49 6.207a49.885 49.885 0 01-3.486 6.573 2.73 2.73 0 01-1.835 1.27l.009.008zm4.15-1.535c1.079-2.307 2.108-3.951 3.029-6.058.83-1.793 1.793-3.643 2.565-5.544.207-.465.664-1.029.514.05-.207 1.95-1.336 4.257-2.158 6.315a50.866 50.866 0 01-3.178 6.722 3.007 3.007 0 01-1.66 1.436c-.249-.93.481-2.058.888-2.93v.009zm3.029 2.049c.971-2.356 1.951-4.049 2.772-6.207.664-1.9 1.594-3.743 2.258-5.693.157-.465.614-1.029.514 0-.157 1.95-1.128 4.365-1.85 6.415a55.975 55.975 0 01-2.822 6.929 2.793 2.793 0 01-1.594 1.486c-.249-.88.365-2.033.706-2.938l.016.008zm25.812-17.294c-.049-2.108.208-3.851.565-3.9.357-.05.614 1.659.664 3.8.05 2.142-.208 3.851-.565 3.901-.356.05-.664-1.652-.664-3.801zm3.08 7.469c.307-.05.664 1.66.664 3.742 0 2.083-.208 3.901-.565 3.901s-.664-1.66-.664-3.743.208-3.884.565-3.967v.067zm.564 11.344c.208 0 .465 1.485.465 3.386 0 1.9-.158 3.494-.415 3.543-.257.05-.473-1.527-.473-3.402 0-1.876.166-3.51.423-3.56v.033zm-.257-16.987c-.05-2.108.415-3.851 1.079-3.901.664-.049 1.178 1.66 1.286 3.801.108 2.141-.406 3.851-1.079 3.9-.672.05-1.178-1.676-1.286-3.833v.033zm2.324 11.875c-.05-2.108.307-3.9.772-3.9.464 0 .971 1.659 1.029 3.742.058 2.083-.307 3.851-.83 3.901-.523.05-.88-1.643-.971-3.743zm.722 9.543c0 1.901-.158 3.486-.407 3.544-.249.058-.465-1.486-.514-3.386-.05-1.9.157-3.485.406-3.543.249-.059.498 1.485.548 3.385h-.033zm.514-19.443c-.049-2.108.565-3.851 1.386-3.901.822-.049 1.594 1.66 1.66 3.743.067 2.083-.514 3.901-1.386 3.901-.871 0-1.527-1.644-1.626-3.752l-.034.009zm1.66 11.85c-.099-2.108.515-3.85 1.386-3.9.872-.05 1.594 1.66 1.66 3.743.067 2.082-.514 3.9-1.336 3.95-.822.049-1.593-1.693-1.693-3.801l-.017.008zm.722 9.751c0 1.9-.157 3.485-.406 3.544-.249.058-.465-1.486-.515-3.386-.05-1.901.158-3.486.407-3.544.249-.058.473 1.477.531 3.378l-.017.008zm1.851-2.664c.258 0 .465 1.486.465 3.386 0 1.9-.158 3.494-.357 3.544-.199.049-.514-1.486-.514-3.386 0-1.901.157-3.502.415-3.552l-.009.008zm4.001-39.974c-1.336.05-2.565-2.822-2.723-6.465-.157-3.643.872-6.639 2.208-6.639 1.337 0 2.615 2.822 2.772 6.465.158 3.643-.863 6.531-2.249 6.631l-.008.008zm2.158-15.294c-1.66-.05-3.03-2.98-2.98-6.515.05-3.535 1.536-6.365 3.237-6.315 1.702.05 3.079 2.921 2.98 6.465-.1 3.543-1.486 6.356-3.246 6.356l.009.009zm.83 57.11c.257-.049.514 1.436.514 3.32s-.157 3.485-.415 3.543c-.257.059-.464-1.485-.464-3.385 0-1.901.157-3.486.356-3.486l.009.008zm5.237.722c.257-.049.465 1.436.515 3.32.049 1.884-.158 3.485-.415 3.543-.258.058-.465-1.485-.515-3.385-.05-1.901.149-3.486.415-3.486v.008zm-1.386-11.85c-1.536.05-2.922-2.357-3.079-5.436-.158-3.078.971-5.643 2.49-5.692 1.518-.05 2.871 2.415 3.079 5.493.207 3.079-.955 5.569-2.49 5.627v.008zm.722-14.73c-1.544.05-2.93-2.415-3.079-5.494-.15-3.078.979-5.593 2.49-5.643 1.51-.049 2.871 2.357 3.079 5.436.207 3.079-.955 5.643-2.498 5.693l.008.008zm.207-14.73c-1.543.1-2.921-3.129-3.079-7.236-.157-4.108.921-7.386 2.49-7.469 1.569-.083 2.922 3.178 3.079 7.236.158 4.058-1.012 7.411-2.498 7.461l.008.008zm1.387-16.78c-1.743.05-3.179-2.821-3.229-6.365-.05-3.543 1.228-6.415 2.98-6.464 1.751-.05 3.129 2.821 3.228 6.365.1 3.543-1.295 6.406-2.988 6.456l.009.008zm4.415 57.725c.257-.049.465 1.436.515 3.32.049 1.884-.158 3.485-.415 3.543-.258.058-.465-1.485-.515-3.386-.05-1.9.149-3.477.407-3.477h.008zm-.564-14.165c-1.03.049-2.001-2.108-2.109-4.822-.107-2.714.664-5.029 1.66-5.079.996-.049 2.109 2.158 2.208 4.872.1 2.713-.639 4.979-1.768 5.029h.009zm-.772-17.701c-.158-3.079.921-5.643 2.415-5.693 1.494-.05 2.921 2.415 3.079 5.494.158 3.078-.921 5.593-2.49 5.643-1.568.049-2.913-2.365-3.013-5.444h.009zm6.208 30.705c.257 0 .465 1.485.465 3.385 0 1.901-.158 3.494-.357 3.544-.199.05-.515-1.486-.515-3.386 0-1.9.141-3.46.399-3.51l.008-.033zm-.979-18.573c-.05-2.108.564-3.85 1.386-3.9.821-.05 1.593 1.66 1.66 3.743.066 2.083-.515 3.9-1.386 3.9-.872 0-1.561-1.61-1.66-3.718v-.025zm4.15-9.394c-1.229.05-2.308-2.157-2.416-4.871-.108-2.714.722-5.029 1.951-5.079 1.228-.05 2.307 2.158 2.49 4.872.182 2.713-.789 5.053-2.017 5.111l-.008-.033zm1.435 7.029c-.049-2.108.407-3.85 1.03-3.9.622-.05 1.228 1.66 1.336 3.801.108 2.141-.415 3.85-1.079 3.9-.664.05-1.229-1.61-1.278-3.768l-.009-.033zm.922 23.095c0 1.901-.158 3.436-.415 3.486-.258.049-.465-1.486-.515-3.386-.05-1.901.158-3.436.407-3.486.249-.049.481 1.519.531 3.411l-.008-.025zm1.079-15.651c.357-.05.664 1.66.722 3.743.058 2.083-.258 3.9-.565 3.95-.307.05-.664-1.66-.722-3.801-.058-2.141.208-3.809.573-3.867l-.008-.025zm.357 11.336c.257 0 .514 1.485.514 3.386 0 1.9-.149 3.485-.407 3.543-.257.058-.464-1.485-.464-3.386 0-1.9.157-3.46.34-3.51l.017-.033zm0-33.194c-.1-2.615.514-4.772 1.435-4.822.922-.05 1.66 2.05 1.801 4.672.142 2.622-.564 4.822-1.485 4.871-.922.05-1.693-2.024-1.768-4.697l.017-.024zm2.157 31.401c.258 0 .515 1.486.515 3.386 0 1.901-.158 3.486-.415 3.544-.257.058-.465-1.486-.465-3.386 0-1.901.166-3.461.374-3.519l-.009-.025zm.158-19.294c-.05-2.108.208-3.85.565-3.9.356-.05.664 1.66.722 3.742.058 2.083-.258 3.851-.565 3.901-.307.05-.664-1.61-.722-3.71v-.033zm.415-21.958c-.979.05-1.851-2.49-1.95-5.751-.1-3.261.614-5.809 1.593-5.95.98-.141 1.851 2.49 1.951 5.743.099 3.253-.623 5.933-1.594 5.983v-.025zm24.642 45.427a46.465 46.465 0 01-1.66-7.237c-.415-2.157-1.029-4.722-.83-6.639.05-1.078.407-.464.465.05.357 2 .971 4 1.386 5.95.465 2.257 1.179 4.05 1.743 6.573.208.921.664 2.157.257 3.029a2.791 2.791 0 01-1.361-1.726zm.664-15.652c0-1.078.357-.464.515.05.415 2 1.129 3.95 1.66 5.809.564 2.257 1.386 4 2.108 6.465.257.921.772 2.157.407 3.029a3.004 3.004 0 01-1.436-1.66 44.21 44.21 0 01-2.05-7.137c-.49-2.132-1.262-4.597-1.162-6.547l-.042-.009zm4.109 4.93c-.565-2.108-1.436-4.564-1.486-6.515 0-1.078.357-.464.515.05.564 1.95 1.386 3.851 1.95 5.751.722 2.208 1.594 3.95 2.415 6.365.307.921.922 2.108.614 2.979a2.918 2.918 0 01-1.535-1.593 59.74 59.74 0 01-2.432-7.029l-.041-.008zm2.979-1.486c-.722-2.049-1.66-4.464-1.851-6.414-.049-1.03.357-.465.515 0 .664 1.95 1.594 3.8 2.307 5.692.772 2.158 1.743 3.851 2.723 6.208.357.871.971 2.049.772 2.921a2.729 2.729 0 01-1.66-1.486 55.603 55.603 0 01-2.764-6.912l-.042-.009zm2.822-1.792c-.83-2.05-1.95-4.357-2.208-6.315-.099-1.079.308-.515.515-.05.772 1.9 1.793 3.742 2.565 5.543.921 2.108 2 3.743 3.079 6.058.415.872 1.079 2 .871 2.921a2.77 2.77 0 01-1.66-1.435 50.894 50.894 0 01-3.12-6.722h-.042zm2.772-1.079c-.921-2-2.158-4.257-2.49-6.207-.157-1.029.308-.515.515-.05.871 1.851 1.95 3.643 2.872 5.386 1.029 2.049 2.158 3.643 3.32 5.9.464.871 1.228 1.95 1.079 2.822a2.497 2.497 0 01-1.743-1.287 49.873 49.873 0 01-3.511-6.564h-.042zm2.258-1.792c-1.129-2.05-2.565-4.415-3.03-6.465-.257-1.079.258-.564.565-.05.971 1.901 2.257 3.693 3.32 5.544 1.178 2.157 2.49 3.8 3.901 6.107.514.872 1.386 2 1.286 2.98a3.139 3.139 0 01-1.95-1.287 56.074 56.074 0 01-4.051-6.829h-.041zm2.772-1.66c-1.179-2-2.772-4.257-3.32-6.257-.307-1.129.257-.614.515-.1 1.128 1.851 2.49 3.593 3.643 5.386 1.337 2.05 2.723 3.593 4.258 5.809.565.871 1.486 1.95 1.436 2.921a3.014 3.014 0 01-2-1.228 57.051 57.051 0 01-4.499-6.515l-.033-.016zm2.822-1.228c-1.336-1.951-3.029-4.15-3.693-6.108-.357-1.079.207-.614.564-.158 1.179 1.793 2.664 3.486 3.901 5.237 1.436 2 2.872 3.435 4.515 5.643.614.829 1.594 1.792 1.594 2.771a2.826 2.826 0 01-2.051-1.078 49.998 49.998 0 01-4.789-6.291l-.041-.016zm30.261 38.397c4.565-6.257 11.545-10.207 19.139-14.829-2.822 8.107-6.465 18.057-12.831 22.63-5.959 4.307-11.454-.822-6.308-7.801zm-2.789-11.842c-6.64.523-8.955-6.016-1.934-9.054 6.234-2.672 13.504-2.406 21.58-2.406-5.627 4.913-12.707 10.879-19.662 11.46h.016zm-2.49-34.182a69.87 69.87 0 01-7.594-5.286c-2.1-1.66-4.772-3.436-6.208-5.386-.83-1.079 0-.772.514-.357 2.001 1.594 4.208 2.872 6.209 4.365 2.257 1.66 4.415 2.772 6.98 4.565 1.029.722 2.415 1.485 2.772 2.564a3.451 3.451 0 01-2.673-.465zm2.357-3.319a58.305 58.305 0 01-7.868-4.896c-2.257-1.544-4.98-3.237-6.515-5.079-.872-.971 0-.722.515-.357 2.05 1.436 4.307 2.664 6.366 4 2.415 1.593 4.614 2.564 7.287 4.257 1.029.614 2.49 1.336 2.871 2.357-.438.139-.9.186-1.357.138a3.342 3.342 0 01-1.299-.42zm-5.187-7.029c-2.357-1.486-5.287-3.079-6.98-4.871-.971-1.029-.05-.772.515-.415 2.207 1.386 4.623 2.489 6.822 3.8 2.49 1.486 4.872 2.415 7.694 3.951 1.129.614 2.673 1.286 3.129 2.356a3.537 3.537 0 01-2.772-.207 71.51 71.51 0 01-8.4-4.639l-.008.025zm-8.009-17.236c-2.108-.415-5.237-1.544-5.237-2.614 0-1.071 4.257-1.66 6.158-1.901 1.901-.24 4.258.83 3.594 2.921-.664 2.092-2.407 1.975-4.507 1.569l-.008.025zm1.95-6.822c-2.207-.415-5.494-1.659-5.436-2.722.058-1.062 4.415-1.85 6.416-2.049 2-.2 4.515.871 3.801 3.128-.714 2.257-2.515 2.075-4.772 1.618l-.009.025zm.515-9.128c0-1.029 4.108-1.66 5.901-1.851 1.793-.191 4.15.772 3.486 2.822-.664 2.049-2.307 1.95-4.366 1.543-2.058-.406-5.063-1.518-5.013-2.547l-.008.033zm7.901-5.494c-2-.415-5.029-1.543-5.029-2.489s4.108-1.66 5.951-1.851c1.842-.191 4.108.772 3.485 2.821-.622 2.05-2.348 1.901-4.398 1.486l-.009.033zm2.49-6.514c-2.158-.1-5.494-.772-5.594-1.851-.099-1.079 4.001-2.357 5.81-2.821 1.809-.465 4.416.157 4.108 2.415-.307 2.257-2.083 2.381-4.291 2.199l-.033.058zm-1.544-7.079c-.664-1.079 3.13-4.672 4.931-6.108 1.801-1.435 4.872-2.157 5.643.465.772 2.622-1.079 3.693-3.485 4.722-2.407 1.029-6.383 1.967-7.055.888l-.034.033zm10.11 12.572c3.544-.099 7.129-.722 10.623-.921 4.051-.257 7.387-1.029 11.803-1.386 1.66-.157 3.95-.614 5.337.158a4.983 4.983 0 01-3.32 1.851 89.317 89.317 0 01-13.039 1.178c-3.852.158-8.367.614-11.703-.05-1.768-.456-.589-.813.34-.863l-.041.033zm26.891-5.809c-3.901 1.129-8.159 1.486-12.45 1.901-3.801.415-8.822.772-12.267.099-1.851-.356-.722-.921.208-1.029 3.544-.307 7.187-.564 10.623-1.029 4.001-.514 7.802-1.485 11.703-2.307a11.422 11.422 0 015.287-.05 4.52 4.52 0 01-3.062 2.341l-.042.074zm1.386-5.236c-3.851 1.228-8.109 1.66-12.367 2.207-3.801.515-8.831 1.029-12.267.415-1.851-.307-.722-.871.158-.971 3.544-.464 7.188-.771 10.624-1.336 4-.614 7.752-1.659 11.619-2.614a11.47 11.47 0 015.337-.207 4.803 4.803 0 01-3.071 2.431l-.033.075zm1.179-5.693c-3.802 1.593-8.01 2.415-12.218 3.32-3.743.829-8.723 1.659-12.159 1.228-1.901-.208-.83-.921.05-1.129 3.544-.722 7.129-1.286 10.516-2.157 3.95-.922 7.594-2.415 11.395-3.693a10.947 10.947 0 015.287-.565 5.054 5.054 0 01-1.11 1.756 5.06 5.06 0 01-1.72 1.165l-.041.075zm-25.614-31.709c3.32-5.95 7.902-11.029 11.396-16.672 4.001-6.564 6.881-13.8 10.267-20.746 1.436-2.979 3.129-5.544 6.515-7.469a11.884 11.884 0 01.465 9.236c-2.822 7.594-7.47 14.158-11.96 20.888-4.05 6.058-8.823 13.344-15.089 17.037-2.988 1.701-2.374-.813-1.552-2.357l-.042.083zm31.357-27.452a9.713 9.713 0 01-.83 7.643c-3.237 5.809-7.901 10.623-12.45 15.544-4.05 4.415-9.644 9.958-14.524 11.958-2.615 1.079-1.951-1.029-.98-2.05 3.802-4.108 7.852-8.008 11.446-12.215 4.108-4.872 7.47-10.365 11.088-15.602a12.855 12.855 0 016.292-5.352l-.042.074zm-29.406 51.452c3.851-1.436 7.752-2.772 11.445-4.415 4.208-1.95 8.159-4.564 12.218-6.929a9.347 9.347 0 015.809-1.486 7.115 7.115 0 01-2.921 4.772c-4.001 2.871-8.574 4.564-13.139 6.415-4.05 1.593-9.495 3.543-13.346 3.319-2.075-.149-.996-1.328-.025-1.743l-.041.067zm28.07-19.295c-3.743 3.901-8.366 6.722-12.881 9.702-4.109 2.672-9.595 5.9-13.803 6.514-2.307.307-1.336-1.228-.357-1.851 3.801-2.489 7.752-4.722 11.396-7.286 4.208-2.979 7.901-6.639 11.802-10.058a10.67 10.67 0 016.001-2.871 8.067 8.067 0 01-2.117 5.784l-.041.066zm1.502-11.867c-3.693 4.872-8.515 8.623-13.28 12.523-4.257 3.544-10.009 7.851-14.674 9.079-2.564.614-1.66-1.179-.664-2.05 4.001-3.178 8.159-6.257 11.96-9.593 4.366-3.901 8.06-8.515 12.01-12.83a12.103 12.103 0 016.366-3.95 9.057 9.057 0 01-1.718 6.821zm9.221-62.961c-1.743-8.672 1.029-17.427 3.694-27.294 5.129 8.672 11.287 19.444 9.802 28.215-1.403 8.315-11.462 8.73-13.463-.921h-.033zm19.09 28.273c-2.822 6.108-9.495 4.465-8.516-3.385.83-7.029 4.623-13.278 8.624-20.324 1.361 7.701 2.896 17.245-.075 23.709h-.033zm7.096-.664c-2.772-6.257-2.357-9.75-3.951-17.7 7.288 4.307 10.367 8.721 12.981 14.879-2.581 3.178-4.988 4.257-8.997 2.821h-.033zm2.05-18.256c-6.465-5.901-9.902-14.216-14.168-23.295 8.723 4.15 19.397 9.544 23.713 17.187 4.142 7.278-2.324 12.771-9.503 6.149l-.042-.041zm23.298 6.821c-3.32 7.079-11.031 5.187-9.902-3.95.971-8.158 5.387-15.394 10.01-23.651 1.626 9.02 3.419 20.099-.067 27.642l-.041-.041zm-14.268-60.447c4.673 10.465 10.267 23.452 8.3 33.767-1.851 9.643-11.852 9.701-13.346-1.801-1.278-10.215 1.959-20.423 5.088-31.916l-.042-.05zm-18.583-21.942c5.511 8.631 12.201 19.394 11.844 28.739-.357 8.829-9.188 10.157-12.051.207-2.457-8.838-.98-18.332.249-28.896l-.042-.05zm6.64 43.983c4.772 6.979.971 12.448-6.881 6.365-7.03-5.435-14.109-14.265-19.139-23.145 9.213 3.56 21.065 9.411 26.095 16.846l-.075-.066zM370.86 86.778c1.784 8.299-6.176 11.743-11.23 3.112-4.54-7.759-5.412-16.945-6.789-27.161 7.229 6.739 16.068 15.211 18.019 24.05zm-28.593 1.942c-8.375-2.249-15.313-8.016-23.24-14.107 9.595-.307 21.497-.507 28.842 4.29 6.947 4.506 3.785 12.315-5.611 9.809l.009.008zm8.432-23.418c2.656 8.73-5.361 13.734-11.794 4.846-5.718-7.909-8.299-17.253-10.565-28.024 9.32 6.09 19.546 13.883 22.351 23.17l.008.008zm-23.181-16.083c4.847 7.76-1.66 14.647-10.109 7.76-7.611-6.175-10.674-14.291-19.961-22.872 12.2 1.834 24.908 6.838 30.07 15.112zm-24.202-3.494c7.86 6.64 3.826 15.004-7.711 12.506-10.516-2.299-17.662-10.979-30.02-17.427 13.329-2.614 29.406-2.1 37.731 4.921zm-32.162 22c-6.026-7.046-9.395-15.767-12.657-25.883 8.989 4.904 19.089 11.277 22.667 19.916 3.378 8.133-3.262 13.8-10.01 5.934v.033zm-9.13 19.477a92.056 92.056 0 0115.28 13.294l-33 55.318a52.653 52.653 0 00-12.782-6.514 65.135 65.135 0 00-3.129-.979l16.525-70.397a84.61 84.61 0 0117.09 9.253l.016.025zm-64.456-13.344a81.233 81.233 0 0133.971 0c1.029.257 2.05.464 3.079.721l-11.238 72.655a51.007 51.007 0 00-17.653 0l-11.238-72.655c1.012-.282 2.075-.49 3.062-.746l.017.025zm-13.396 4.107l16.542 70.372a48.48 48.48 0 00-3.129.98 52.653 52.653 0 00-12.782 6.514l-33.058-55.335a92.04 92.04 0 0115.296-13.344 84.63 84.63 0 0117.114-9.212l.017.025zm-16.558-.705c-.407 1.228-1.436 2.05-3.129 2.49a20.379 20.379 0 00-10.674 5.593c-1.543-.05-3.386-.772-4.93-.83a14.88 14.88 0 001.345-7.651c-.332-.058-.473-.141-.374-.25.1-.107.291-.057.374.25 2.266.398 13.28-.399 13.28-1.378 2.008-.108 3.386.456 4.108 1.776zm-17.43-42.82a6.27 6.27 0 01.971 4.928 24.525 24.525 0 019.545-2 17.502 17.502 0 01-1.336 6.93c9.13-3.544 17.43-4.257 21.712-2.49-2.49 6.64-6.772 11.8-13.653 14.938 2.722-.05 3.951.307 3.644 1.128-2.357 8.299-5.644 8.008-8.881 8.208 2.108 1.178 3.179 2.307 3.129 3.435-7.238 7.187-14.218 6.772-19.554 2.672.257-.721 1.85-3.078 2.108-3.8a29.163 29.163 0 007.237-1.95l-7.08.464c.922-2.664.565-5.809-.307-8.514 3.486-2.158 7.337-4.108 10.79-6.415-3.801 1.593-7.644 3.178-11.495 4.772a27.693 27.693 0 00-3.951-3.643c1.901-1.229 4.258-2.664 6.109-3.9l-7.545 2.771c-3.179-2.207-6.772-2-10.366-1.95a35.189 35.189 0 0118.923-15.626v.041zM103.88 64.313c.921-5.079 2.672-6.639 5.079-8.058 2.407-1.419 4.723.664 7.08.971 2-1.436 1.95-4 6.059-4.415 4.108-.415 5.544.258 7.387 2.49 3.95-5.187 12.673-3.32 15.446 1.66 2.772 4.979 3.178 10.315-2.308 13.958 2.416 2.307 4.308 4.05 4.93 6.93 1.229 5.592-2.49 8.206-8.515 8.206 0 10.98-5.81 8.208-10.524 7.544a13.897 13.897 0 002.772-6.257c.357-2.921-1.287-5.594-3.743-8.208 4.149-3.485 5.693-7.236 4.564-11.186a10.257 10.257 0 00-10.009 1.029 12.318 12.318 0 00-6.416-8.058c-4.93 4.564-6.109 10.058-3.594 16.423a11.438 11.438 0 01-8.217-13.104l.009.075zm-3.486 17.909a69.015 69.015 0 002.564-8.465c1.079 1.593 2.358 4.307 3.486 5.9a17.906 17.906 0 019.595 0c-.409 1.593-1.693 2.977-3.851 4.15a3.712 3.712 0 013.179 1.435c-.208.921-.258 1.436-.465 2.415-2.208-.1-4.15 1.9-6.366 2.672-.398-3.203-4.407-6.747-8.15-8.182l.008.075zm-6.565 14.829a29.046 29.046 0 019.777-11.261c2.05 2.415 3.743 4.871 3.179 7.693 7.03-5.693 14.732-6.93 21.09-8.008-.05 4.306-.407 6.721-2.051 9.9 3.309.673 6.703.83 10.06.464-.307.631-.648 1.386-.996 2.133a144.473 144.473 0 00-40.67 46.555c-6.216-.29-10.947.83-14.267 2.623.05-1.66-.207-2.614-.157-4.307a24.91 24.91 0 0011.337-1.901c1.9-.871 1.229-4.722 3.18-5.286 4.514-1.228 7.237-4.05 9.129-7.469 1.386-2.614.772-6.058-.158-8.821-.614-1.9-2.772-2.871-4.15-4.307l12.624-.614c-4.258-.257-8.515-.407-12.781-.664 1.22-1.162 2.357-2.207 3.477-3.129l-4.606 2.49a30.012 30.012 0 00-.664-1.95c2.158-5.809 5.337-9.9 9.594-12.266-4.257 1.03-7.644 4.872-10.208 11.494-.258.158-.515.307-.83.465-3.204-3.801-3.818-8.415-1.918-13.909l.009.075zM71.61 99.616c3.03-2.05 7.752-2.257 11.495-.464 6.209 2.871 10.79 10.365 12.01 16.265 4.673 1.535 6.516 5.593 7.337 10.108-1.593 5.493-5.81 7.028-10.366 9.078-.98 1.336-.921 4.05-2.415 4.979-3.694 2.158-8.11 1.079-10.525-.664 5.387-.771 10.466-3.435 12.931-7.643-3.693-3.493-7.694-3.9-11.337-3.543-.614-3.544-2.158-7.593-5.287-9.9-4.05 1.435-5.337 6.058-6.416 10.058-2.208-1.229-4.722-2.49-7.802-1.129a7.228 7.228 0 00-.157-5.079c-1.901-.83-3.744-.514-5.594 0-1.486-4.307-1.08-8.829 2.49-12.315 2.564-2.489 5.9-2.207 8.83-1.593 1.71-2.481 2.383-6.539 4.79-8.232l.016.074zm-26.56-.157c3.13.05 6.259-.158 8.981 3.319a16.372 16.372 0 014.15-12.78c4.15 2.614 7.03 5.81 8.624 9.751-1.03 1.336-1.901 3.801-1.594 5.129-1.793-.722-2.722-1.386-4.515-.664-1.179.564-2.258 2.564-3.486 3.079-1.793.663-3.743 2.107-4.15 3.643-1.129 4.207-1.386 7.9-1.9 12.157-6.1-4.772-7.636-13.029-6.1-23.709l-.01.075zm-16.599 41.136c-.415-4.423-.93-9.676 0-14.108 1.851-.307 2.988.872 4.324 1.959 2.416-9.062 5.66-14.465 9.778-16.216 1.593 5.768 2.166 11.734 9.96 15.701 1.593-3.319 3.71-4.016 6.125-3.502a18.959 18.959 0 010 8.299 14.26 14.26 0 011.909 5.61c2.78-.158 5.56-.673 7.876.464.464 1.732.518 3.547.158 5.303 1.029.83 2.49 1.444 1.751 3.195-4.681 5.253-9.42 10.498-14.11 15.701-.871-1.801-1.544-1.751-2.938-2.166.158-3.245-1.444-7.875-3.32-9.676-2.108-2.058-5.71-.979-8.3-2.266-2.938-1.385-4.374-4.481-7.569-5.302-2.49-.615-6.175.464-7.976 1.958a8.022 8.022 0 01-1.801-4.979c1.386-.614 2.772.058 4.166-.05l-.033.075zm-6.382 18.788c-.357-5.353 1.286-10.498 7.669-12.041 6.175-1.494 8.39 2.107 9.32 4.979 2.938.514 6.54-.357 8.806 1.593 3.968 3.452 1.802 7.054 2.731 10.548 1.85-.05 3.602.049 4.631 1.286.83.979-.307 2.489-.465 3.709 2.424.565 4.424 1.751 4.79 3.859.365 2.108-1.851 3.552-3.038 5.403.564-1.494.415-3.245.415-4.98a28.23 28.23 0 00-15.13 1.287c.099-3.137-2.88-6.382-7.056-8.647-2.622.829-3.32 3.651-3.394 6.223-4.15-2.107-8.698-3.809-12.815-7.203-3.021-2.539-2.664-6.763 3.569-6.091l-.033.075zm33.639 15.51a20.686 20.686 0 01-1.594 6.315L32.66 173.1c.208-1.659.614-4.149 2.208-4.979 3.693 1.851 5.13 5.494 6.565 7.9 4.3-1.153 9.885-2.282 14.309-1.203l-.033.075zm-36.86-23.842c-1.187 2.108-2.058 4.274-.672 6.382-2.573-.722-4.274.871-5.61 3.551-2.383-6.821-.258-10.116 6.315-10.016l-.033.083zm-6.996 39.734c-3.32-3.486-5.387-8.108-3.544-13.344 1.543 4.307 4.722 5.435 8.465 7.593 12.317 7.078 25.248 9.85 37.258 14.008 7.736 2.664 14.94 6.639 21.812 10.846a160.76 160.76 0 00-.166 6.929v1.478c-6.773-4.15-14.433-7.395-23.879-10.83-9.13-3.32-20.218-5.079-29.356-9.286a28.813 28.813 0 01-10.557-7.477l-.034.083zm14.3 37.426c-2.158.05-3.237.664-3.129 1.901-2.415-1.793-4.822-3.544-7.188-5.286a9.03 9.03 0 01-.871-6.565c3.179 2.108 4.673 4.258 8.673 5.494.59 1.145 1.95 3.145 2.54 4.373l-.025.083zm-15.189 23.344c-.464-1.742-1.792-3.128-1.9-5.236 3.32-.564 6.416-.515 9.702-1.079-5.494-4.871-5.693-11.137-5.03-17.701 4.209-.514 6.93 2.49 9.496 5.9.664-2.257 2.49-3.643 5.436-4.207 5.13 4.257 7.901 8.158 9.08 11.801 1.284-1.538 3.953-1.948 8.01-1.228a9.503 9.503 0 011.66 7.593c-6.06 2.049-7.08 6.514-7.595 10.879-.614-2.564-1.594-5.336-5.03-7.386-3.03.565-4.673 1.436-4.872 2.565-1.029-2.1-3.237-3.643-6.515-4.672-1.793.722-2.664 1.659-2.772 2.979-3.18-1.419-6.416-1.212-9.645-.291l-.024.083zm.407 15.768c.515-1.66 2.415-3.079 5.694-4.208-1.95-3.079-3.644-6.257-3.32-9.9 2.672-.871 5.337-.207 8.01.614.771-.614 1.543-1.286 2.307-1.9 3.9 2.157 4.772 4.365 5.287 6.514a6.402 6.402 0 014.415-4.821c2.258 2.049 3.386 4.049 3.386 6.107-2.564 1.287-3.593 3.544-4.415 5.901a14.009 14.009 0 003.129 8.008c-.614 2.257-.158 4.821 1.486 7.593-10.143.108-18.609-5.07-25.954-13.933l-.025.025zm23.016 35.684c-5.81-2.49-12.367-6.98-14.318-11.959 4.615 3.594 8.574 4.258 13.753 5.287 17.43 3.485 32.693 3.742 47.525 5.385 7.94.865 15.82 2.195 23.604 3.984a146.273 146.273 0 006.225 7.784 253.554 253.554 0 00-25.68-4.382c-11.445-1.436-23.347-2.05-35.564-2.772-6.133-.332-9.055-.539-15.52-3.352l-.026.025zm21.48 50.405c1.386-.921 2.772-1.792 4.108-2.722a68.723 68.723 0 01-9.595-8.008c1.66-1.029 3.32-2 5.03-2.979-4.872-4.05-7.594-8.108-8.209-12.108 7.47 1.66 18.26 2.672 30.635 3.179-2.921 2.207-3.95 4.871-5.03 7.336-3.32 1.593-8.208 2.415-9.395 6.157-1.187 3.743 2.614 7.751 3.9 11.618-4.49-.141-8.747-.498-11.42-2.506l-.025.033zm9.353 10.523c.465-1.079.922-2.1 1.386-3.178.515 1.593 3.594 3.178 7.752 4.771.615 2.357 3.387 4.208 6.416 5.95-6.084-1.369-11.877-3.161-15.52-7.576l-.034.033zm85.123 52.389a249.607 249.607 0 00-1.386-3.436c-4.565 1.129-9.13 2.49-13.703 2.98-.564-2.158.515-4.258 1.793-6.415l8.466-6.639c-3.179 1.743-6.416 3.494-9.595 5.236-7.188.357-14.832-.257-20.832-2.979 1.85-2.49 4.365-4.772 5.743-7.079a104.384 104.384 0 01-29.763-9.394 9.332 9.332 0 015.752-1.336c1.436-.871 2.871-1.659 4.365-2.489-7.594-.465-14.94-2-21.297-7.336 1.85-1.594 3.644-3.179 5.494-4.772 5.03-2.672 9.852-5.494 13.04-9.394.83 1.079 1.659 2.108 2.489 3.178a13.793 13.793 0 00-6.415 3.693 56.675 56.675 0 0019.919 8.415c2.49 5.029 6.258 9.236 12.574 11.444 2.665 2.05 2.416 6.108 7.337 5.95 4.922-.158 12.01-4.564 18.061-6.88 1.129 7.693 2.257 15.394 3.436 23.145a17.208 17.208 0 01-5.453 4.075l-.025.033zm79.047 11.967a14.384 14.384 0 00-28.327.157c-16.01-.921-30.709-3.435-38.486-7.85 16.317-5.643 34.079-7.544 51.318-7.544 16.674 0 35.871 4 50.446 7.544-5.644 4.033-19.247 6.655-34.951 7.693zm39.3-31.867c-17.297-3.593-36.32-6.68-54.779-6.68-18.459 0-38.287 1.435-56.04 6.721l-1.76-14.837c18.476-5.644 38.354-7.469 57.858-7.469 18.882 0 40.155 3.892 56.68 7.469l-1.959 14.796zm-.332-43.352a34.063 34.063 0 011.826-3.386c3.287-1.51 6.504-3.15 9.653-4.921a7.7 7.7 0 012.49.357c-1.179 5.494-2.98 10.788-6.159 14.265-4.905 5.486-11.304 1.585-7.81-6.315zm9.238 62.771c-7.902-1.951-8.466-12.316.722-13.801 8.208-1.336 16.599 2 26.02 5.236-8.217 4.805-18.384 10.606-26.742 8.565zm27.389-15.701c-8.009-.565-9.545-8.88-.614-11.187 8.009-2.108 16.674-.415 26.327 1.079-7.636 4.863-17.181 10.763-25.696 10.091l-.017.017zm25.298-16.266c-8.01.615-10.79-7.336-2.308-10.979 7.595-3.319 16.368-2.979 26.17-2.979-6.806 5.992-15.33 13.278-23.846 13.942l-.016.016zm34.436-43.459c1.079-.872 3.544-3.901 5.179-4.614 3.237-.407 14.267-4 16.989-3.643-1.178 1.95-11.188 9.236-14.366 10.514-4.914 1.884-11.33.548-7.786-2.274l-.016.017zm-14.168-3.851c4.93-.099 7.129-.149 11.545-.149-.1 3.643.307 4.614-2.872 8.157-4.963 5.419-11.171-2.323-8.656-8.024l-.017.016zm1.129 17.294c6.98-4.464 15.703-5.593 25.356-7.186-5.752 7.029-12.931 15.601-21.248 17.651-7.785 1.934-11.835-5.452-4.092-10.481l-.016.016zm-4.15-15.651c-1.179 5.494-5.08 17.701-8.3 21.195-4.98 5.494-11.396 1.593-7.852-6.307 1.129-2.415 6.366-12.979 8.01-15.087 3.253-1.153 5.436-.738 8.15.183l-.008.016zm-29.365 2.598c1.096-.83 6.441-4.656 8.167-5.444a30.556 30.556 0 018.217.108c-1.154 1.933-5.129 6.39-8.433 7.643-5.013 1.966-11.553.531-7.943-2.324l-.008.017zm-2.706-5.212c-.307 7.9-16.06 10.365-11.619.158 4.955-.125 7.212-.174 11.628-.174l-.009.016zm-4.706-20.746a73.624 73.624 0 01-8.623-4.15c-2.49-1.385-5.436-2.771-7.238-4.514-.971-.971-.099-.772.465-.465 2.308 1.287 4.773 2.257 7.03 3.436 2.615 1.386 5.03 2.158 7.951 3.593 1.129.564 2.665 1.079 3.229 2.158a3.835 3.835 0 01-2.805-.108l-.009.05zm3.179-3.594a67.06 67.06 0 01-8.98-3.8c-2.615-1.229-5.744-2.49-7.644-4.208-1.029-.921-.158-.772.464-.464 2.416 1.178 4.98 2.049 7.338 3.128 2.722 1.228 5.187 1.9 8.299 3.178 1.179.515 2.822.971 3.387 2.05a3.79 3.79 0 01-2.856.067l-.008.049zm2.772-3.692a76.995 76.995 0 01-9.237-3.32c-2.665-1.128-5.81-2.257-7.902-3.85-1.129-.872-.157-.772.465-.515 2.49 1.079 5.08 1.793 7.545 2.772 2.822 1.128 5.336 1.659 8.465 2.772 1.229.464 2.922.871 3.594 1.9a3.995 3.995 0 01-2.921.191l-.009.05zm3.03-3.951a69.532 69.532 0 01-9.703-2.921c-2.822-1.029-6.208-2-8.366-3.543-1.178-.83-.207-.772.465-.515 2.565.921 5.337 1.544 7.901 2.415 2.98.971 5.594 1.386 8.881 2.415 1.287.415 3.03.722 3.743 1.66a3.761 3.761 0 01-2.913.431l-.008.058zm2.979-4.365a72.932 72.932 0 01-10.524-2.564c-3.029-.921-6.64-1.792-9.08-3.319-1.336-.83-.307-.83.415-.614 2.822.871 5.81 1.385 8.624 2.157 3.179.872 6.001 1.179 9.594 2.108 1.386.307 3.237.564 4.109 1.593a4.041 4.041 0 01-3.129.59l-.009.049zm2.673-4.614a78.01 78.01 0 01-10.964-2.157c-3.237-.772-7.03-1.486-9.595-2.921-1.386-.772-.357-.83.407-.615 2.98.722 6.059 1.129 8.98 1.743 3.387.772 6.317.921 10.06 1.66 1.436.307 3.386.415 4.307 1.436a4.274 4.274 0 01-3.195.796v.058zm4.723-4.307a77.21 77.21 0 01-12.11-1.659c-3.544-.664-7.752-1.229-10.624-2.614-1.535-.772-.406-.872.465-.722 3.237.614 6.64.871 9.852 1.385 3.743.615 6.93.615 11.03 1.229 1.594.207 3.744.257 4.823 1.336a4.765 4.765 0 01-3.436.987v.058zm1.593-5.029a90.85 90.85 0 01-12.159-1.029c-3.544-.514-7.752-.829-10.723-2.049-1.594-.722-.465-.872.406-.772 3.32.465 6.64.514 9.96.871 3.743.465 6.93.257 11.03.664 1.66.1 3.744.05 4.872 1.029a4.598 4.598 0 01-3.386 1.228v.058zm-8.823-5.742c-3.593-.158-7.851 0-10.881-.921-1.66-.515-.564-.83.307-.83 3.32.157 6.723-.15 9.96-.1 3.802 0 6.931-.465 11.089-.564 1.66 0 3.743-.307 4.98.564a4.662 4.662 0 01-3.237 1.594 80.232 80.232 0 01-12.226.199l.008.058zm14.044 11.236c1.95-4.365 2.49-6.465 7.187-13.651 1.951 6.307 1.901 8.207 2.05 12.83-3.137.763-6.059 1.477-9.246.763l.009.058zm8.208-42.339c-4 2.157-8.574 3.435-13.138 4.821-4.109 1.228-9.495 2.664-13.346 2.49-2.109-.05-1.03-.98-.05-1.237 3.801-1.128 7.752-2.157 11.395-3.386 4.258-1.435 8.209-3.385 12.218-5.128a11.718 11.718 0 015.809-1.129 5.302 5.302 0 01-2.888 3.569zm9.454 31.426c-1.411 5.245-6.989 4.872-7.321-1.535-.29-5.742 1.917-11.269 4.15-17.468 2.092 5.983 4.631 13.385 3.137 19.003h.034zm.448-23.626c-.921-2.108.05-5.692-.208-7.8a49.69 49.69 0 019.645-2.772 38.087 38.087 0 01-.83 11.236c-1.353 6.93-5.403 6.614-8.64-.664h.033zm13.545 31.792c-3.129.83-7.544 1.386-10.723.614-.258-4.672 7.337-9.493 20.168-17.501-.772 8.182-6.05 12.954-9.445 16.887zm11.861-.83c-.258-4.722.257-10.008 2.307-18.373 4.465 4.772 6.64 12.929 8.466 17.701-3.129.805-7.595 1.369-10.773.672zm17.089-20.215c-1.029 7.286-8.466 7.701-10.01-.83-1.386-7.643.614-15.394 2.49-24.016 3.926 7.577 8.599 17.07 7.52 24.821v.025zm-7.661-25.51c-1.66-1.95-2.565-3.319-2.921-5.386 3.237-1.128 11.852-3.9 14.574-4.149 1.66 4 3.079 7.129 1.386 10.622-3.137 6.556-6.988 5.992-13.039-1.087zm18.185 40.522c-5.951 4.357-11.445-.772-6.366-7.801 4.565-6.257 11.545-10.157 19.139-14.829-2.822 8.108-6.415 18.058-12.781 22.63h.008zm4.565-22.323c-5.495 4.979-11.495.465-7.238-7.029 3.852-6.722 10.317-11.394 17.347-16.83-1.901 8.307-4.366 18.573-10.109 23.859zM144.781 31.551a10.336 10.336 0 00.175 3.03 31.65 31.65 0 00-.208-5.03c-7.901-.1-12.45 1.776-18.002 6.166.257.98.514 2.05.83 2.913 6.581-5.079 12.682-7.643 17.205-7.079z"/></g><defs><clipPath id="clip0_405_183"><path fill="#fff" d="M0 0h427v434H0z"/></clipPath></defs></svg>