<svg width="129" height="150" fill="none" xmlns="http://www.w3.org/2000/svg"><path d="M63.511 73.683c-1.44-.55-2.61-1.22-3.505-2.006-.856-.81-1.474-1.542-1.854-2.193-.372-.683-.545-1.074-.52-1.17l2.45-2.045c-.017.064.165.422.545 1.074.38.651.898 1.304 1.554 1.959a5.878 5.878 0 002.494 1.327c1.193.313 2.192.248 2.998-.195s1.34-1.164 1.602-2.164c.254-.967.115-1.813-.418-2.54-.525-.758-1.384-1.62-2.577-2.589-1.096-.943-1.968-1.758-2.614-2.444-.606-.711-1.07-1.574-1.389-2.588-.31-1.047-.284-2.263.08-3.65.492-1.87 1.414-3.282 2.767-4.236 1.386-.945 2.993-1.42 4.82-1.422l2.254-6.025 3.144.826-.934 6.114c.804.349 1.58.742 2.327 1.18.746.437 1.348.836 1.805 1.197.464.33.753.543.865.641l-1.722 3.011a22.38 22.38 0 00-.96-.872c-.504-.443-1.14-.903-1.911-1.381-.739-.47-1.446-.793-2.123-.971-1-.263-1.837-.224-2.512.115-.675.34-1.119.913-1.33 1.719-.254.967-.107 1.85.441 2.649.59.775 1.536 1.696 2.842 2.762 1.152.992 2.06 1.868 2.721 2.628.67.728 1.178 1.619 1.52 2.674.344 1.055.338 2.26-.018 3.614-.517 1.967-1.521 3.495-3.014 4.585-1.451 1.066-3.276 1.517-5.473 1.354l-1.907 5.289-3.143-.826.695-5.4z" fill="#E7E7E7"/><path d="M38.164 90.06l41.54 10.473" stroke="#E7E7E7" stroke-width="5" stroke-linecap="round" stroke-linejoin="round"/><path d="M113.549 48.897c2.993 5.01 4.49 7.516 4.902 10.327.413 2.81-.301 5.64-1.728 11.3l-12.817 50.838c-3.292 13.054-4.937 19.581-10.015 22.614-5.079 3.033-11.606 1.388-24.66-1.904l-41.54-10.473c-13.054-3.291-19.58-4.937-22.614-10.015-3.033-5.078-1.387-11.605 1.904-24.66l17.455-69.231C27.727 14.638 29.373 8.11 34.451 5.078c5.078-3.033 11.605-1.387 24.66 1.904l23.145 5.835c5.66 1.427 8.49 2.14 10.768 3.836 2.28 1.696 3.776 4.201 6.769 9.213l13.756 23.03z" stroke="#E7E7E7" stroke-width="5" stroke-linejoin="round"/></svg>