<svg width="131" height="144" fill="none" xmlns="http://www.w3.org/2000/svg"><path d="M124.251 49.353a2.988 2.988 0 00-.463-1.337l-19.2-29.966a3.173 3.173 0 00-.38-.482 3.286 3.286 0 00-1.595-.894L49.349 5.011a7.349 7.349 0 00-8.74 5.6l-2.018 9.218-8.543-1.87a7.349 7.349 0 00-8.74 5.6L1.57 113.697a7.35 7.35 0 005.6 8.74l73.073 16.001a7.348 7.348 0 008.74-5.6l2.019-9.219 9.219 2.019a7.351 7.351 0 008.74-5.6l15.252-69.652c.077-.339.09-.69.038-1.033zm-20.863-21.515l11.007 17.178-13.068-2.862a1.052 1.052 0 01-.8-1.248l2.861-13.068zm-20.55 103.654a1.05 1.05 0 01-1.25.8L8.517 116.291a1.05 1.05 0 01-.8-1.249l19.738-90.138a1.05 1.05 0 011.248-.8l8.543 1.871-16.374 74.774a7.35 7.35 0 005.6 8.74l58.385 12.785-2.018 9.218zm18.728-12l-73.749-16.149a1.05 1.05 0 01-.8-1.249l19.738-90.137a1.05 1.05 0 011.249-.8l50.19 10.99-3.813 17.413a7.35 7.35 0 005.6 8.74l17.413 3.813-14.579 66.579a1.05 1.05 0 01-1.249.8z" fill="#E7E7E7" fill-opacity=".55"/><path d="M102.511 59.588L53.345 48.822a3.146 3.146 0 00-1.346 6.146l49.166 10.766a3.147 3.147 0 001.346-6.146zm-4.037 18.437L49.308 67.26a3.147 3.147 0 00-1.346 6.146l49.166 10.766a3.146 3.146 0 001.346-6.146zm-4.037 18.438L45.27 85.697a3.146 3.146 0 00-1.345 6.145L93.09 102.61a3.15 3.15 0 003.701-2.41 3.146 3.146 0 00-2.355-3.736z" fill="#E7E7E7" fill-opacity=".55"/></svg>