<svg width="154" height="161" fill="none" xmlns="http://www.w3.org/2000/svg"><path d="M29.072 44.53l106.695 40.36m-35.62 13.25l.055.02M73.585 88.092l.055.021M46.963 78.022l.056.02m44.327 43.362l.056.021m-26.618-10.068l.055.021m-26.676-10.092l.055.021m85.147-71.772l-7.452 19.699M75.01 11.243l-7.453 19.699" stroke="#E7E7E7" stroke-width="5" stroke-linecap="round" stroke-linejoin="round"/><path clip-rule="evenodd" d="M120.956 39.43L70.27 20.257c-17.579-6.65-32.263-1.01-39.073 16.99L10.706 91.418c-6.917 18.284.273 32.456 17.852 39.106l50.63 19.152c17.635 6.671 32.285.954 39.095-17.046l20.663-54.625c6.864-17.98-.356-31.904-17.99-38.575z" stroke="#E7E7E7" stroke-width="5" stroke-linecap="round" stroke-linejoin="round"/></svg>