<svg width="42" height="50" fill="none" xmlns="http://www.w3.org/2000/svg"><path d="M21 25c1.444 0 2.68-.49 3.71-1.47 1.028-.98 1.542-2.157 1.54-3.53 0-1.375-.515-2.552-1.544-3.532S22.442 14.998 21 15c-1.444 0-2.68.49-3.71 1.47-1.028.98-1.542 2.157-1.54 3.53 0 1.375.515 2.552 1.544 3.532S19.558 25.002 21 25zm0 25C13.956 44.292 8.696 38.99 5.218 34.095 1.741 29.2.002 24.668 0 20.5 0 14.25 2.111 9.27 6.334 5.562 10.557 1.854 15.445 0 21 0c5.556 0 10.446 1.854 14.669 5.563C39.89 9.27 42.002 14.25 42 20.5c0 4.167-1.74 8.698-5.218 13.595C33.302 38.992 28.041 44.293 21 50z" fill="#051A3C"/></svg>