<svg width="22" height="21" fill="none" xmlns="http://www.w3.org/2000/svg"><path fill-rule="evenodd" clip-rule="evenodd" d="M21.958 2.505c.316-1.614-1.2-2.955-2.67-2.362L1.275 7.422c-1.641.663-1.714 3.063-.117 3.833L5.08 13.15l1.867 6.83c.096.355.366.63.707.722a.967.967 0 00.954-.271l2.875-3.007 4.027 3.159c1.17.916 2.853.249 3.146-1.248l3.302-16.83zM1.992 9.365l18.014-7.279-3.3 16.83-4.719-3.7a.964.964 0 00-1.302.096l-1.23 1.287.37-2.127 7.248-7.58c.353-.37.39-.954.087-1.369a.968.968 0 00-1.285-.272L5.864 11.233 1.992 9.364zm5.092 3.537l.604 2.21.232-1.333c.036-.208.133-.4.276-.55l2.21-2.311-3.322 1.985z" fill="#D3D3D3"/></svg>