<svg width="25" height="24" fill="none" xmlns="http://www.w3.org/2000/svg">
    <path
        d="M.842 0H3.26l1.557 4.278h.151L6.452 0H8.89L6.097 6.262v4.443h-2.4V6.462L.842 0zm8.302 4.61c0-.628.289-1.127.867-1.5.578-.373 1.355-.559 2.33-.559.889 0 1.617.197 2.184.59.568.392.851.897.851 1.516v4.19c0 .693-.279 1.238-.834 1.633-.557.395-1.323.593-2.298.593-.94 0-1.69-.204-2.255-.612-.563-.408-.845-.956-.845-1.646V4.61zm2.21 4.357c0 .224.075.395.229.518.152.122.37.182.655.182.29 0 .522-.061.693-.185a.603.603 0 00.257-.515V4.55c0-.177-.088-.32-.263-.429-.174-.109-.403-.164-.688-.164-.261 0-.474.055-.638.164a.495.495 0 00-.245.43v4.417zm11.875-6.286v8.112h-2.15v-.895a4.67 4.67 0 01-1.238.754 3.36 3.36 0 01-1.248.258c-.497 0-.873-.12-1.125-.362s-.378-.604-.378-1.086v-6.78h2.151v6.217c0 .194.045.332.135.419.09.085.236.128.438.128.159 0 .359-.057.6-.17.242-.114.463-.26.665-.437V2.681h2.15zm-2.015 14.357c-.105-.105-.273-.158-.504-.158-.242 0-.415.053-.52.158-.105.105-.158.28-.158.524v.505h1.34v-.505c0-.244-.052-.419-.158-.524zM14.86 20.84c.116.043.238.063.366.063.187 0 .322-.04.41-.122.088-.081.131-.216.131-.401v-2.92c0-.197-.054-.346-.161-.448-.109-.102-.267-.152-.472-.152a.95.95 0 00-.32.056c-.106.038-.21.098-.313.178v3.541c.123.096.243.164.36.205zm9.975-6.182c0-1.406-1.618-2.547-3.611-2.547a276.046 276.046 0 00-8.723-.118c-2.968-.005-5.878.033-8.723.118-1.992 0-3.61 1.14-3.61 2.547A29.99 29.99 0 000 17.996a30.037 30.037 0 00.167 3.34c0 1.405 1.618 2.545 3.61 2.545 2.845.085 5.755.122 8.723.119 2.969.003 5.879-.034 8.723-.119 1.993 0 3.61-1.14 3.61-2.545.12-1.113.172-2.226.167-3.34a29.914 29.914 0 00-.166-3.338zM5.413 21.744v.084H3.705v-6.744H1.938v-1.229H7.18v1.228H5.413v6.661zm6.075-5.736v5.82H9.972v-.643a3.27 3.27 0 01-.873.541 2.334 2.334 0 01-.88.186c-.351 0-.615-.087-.793-.26-.178-.173-.267-.433-.267-.78v-4.947h1.517v4.461c0 .137.032.238.095.299.064.062.167.092.309.092.112 0 .253-.04.423-.122.17-.082.326-.186.469-.313v-4.417h1.516v.083zm5.84 1.386v3.228c0 .414-.12.73-.357.95-.238.219-.582.329-1.03.329a2.31 2.31 0 01-.793-.127 2.024 2.024 0 01-.648-.393v.447h-1.531v-7.973h1.53v2.539c.205-.178.422-.313.652-.404.23-.092.463-.14.698-.14.479 0 .846.125 1.099.373.252.249.38.61.38 1.087v.084zm5.605.178v1.483h-2.9v1.013c0 .306.05.518.15.636.1.119.27.179.512.179.25 0 .427-.05.528-.151.1-.1.15-.322.15-.664v-.404h1.56v.521c0 .597-.19 1.046-.57 1.348-.38.302-.947.452-1.703.452-.679 0-1.213-.16-1.603-.48-.39-.32-.585-.76-.585-1.32V17.49c0-.505.214-.916.642-1.235.428-.318.983-.477 1.661-.477.695 0 1.227.148 1.6.442.372.294.558.718.558 1.27v.083z"
        fill="#051a3c" />
</svg>