<svg width="134" height="134" fill="none" xmlns="http://www.w3.org/2000/svg"><path d="M56.298 71.579C40.6 68.848 25.58 79.417 22.848 95.116l-2.202 12.664c-.906 5.208 2.637 10.244 7.845 11.15l56.987 9.912c5.208.906 10.244-2.637 11.15-7.845l2.203-12.664c2.731-15.7-7.838-30.72-23.537-33.45l-18.996-3.304zm-1.101 6.332l18.995 3.304A22.446 22.446 0 0192.5 107.23l-2.203 12.664c-.31 1.786-1.93 2.926-3.716 2.615l-56.987-9.912c-1.786-.311-2.926-1.931-2.616-3.717l2.203-12.664A22.446 22.446 0 0155.198 77.91zm19.412-55.335c-10.796-1.878-20.778 6.94-22.85 18.858-2.074 11.917 4.344 23.588 15.14 25.466 10.796 1.877 20.778-6.941 22.85-18.858 2.074-11.917-4.344-23.588-15.14-25.466zm-1.101 6.332c6.689 1.164 11.487 8.968 9.91 18.033C81.84 56.006 74.69 61.73 68 60.568c-6.69-1.164-11.488-8.968-9.91-18.033 1.576-9.065 8.727-14.79 15.417-13.627z" fill="#E7E7E7" fill-opacity=".55"/><path d="M39.507 55.611c-15.699-2.73-30.719 7.838-33.45 23.537L3.855 91.812c-.906 5.208 2.637 10.244 7.845 11.15l12.664 2.203a3.216 3.216 0 003.717-2.615 3.213 3.213 0 00-2.616-3.717L12.802 96.63c-1.786-.31-2.926-1.93-2.615-3.717l2.202-12.663a22.446 22.446 0 0126.017-18.307l6.332 1.101a3.214 3.214 0 001.101-6.332l-6.332-1.101zM57.81 6.608c-10.796-1.878-20.778 6.94-22.85 18.857-2.073 11.917 4.345 23.588 15.14 25.466l.025.005a16.8 16.8 0 004.983.064 3.214 3.214 0 002.77-3.468 19.63 19.63 0 01.209-5.01c1.317-7.477 6.67-12.941 12.363-13.648a3.214 3.214 0 002.806-3.462c-.804-9.455-6.893-17.319-15.446-18.804zm-1.1 6.332c4.775.83 8.37 5.309 9.516 11.364-7.186 2.575-12.994 8.707-14.473 17.13l-.002.012c-.177 1.044-.077 2.098-.127 3.15-.139-.016-.283.026-.421.003-6.69-1.163-11.487-8.967-9.91-18.032 1.576-9.065 8.727-14.79 15.417-13.627zm33.448 51.482a3.214 3.214 0 00-1.101 6.332l6.332 1.101a22.445 22.445 0 0118.306 26.017l-2.202 12.664c-.311 1.786-1.931 2.926-3.717 2.615l-12.664-2.203a3.216 3.216 0 00-3.716 2.615 3.213 3.213 0 002.615 3.717l12.664 2.203c5.208.906 10.244-2.638 11.149-7.846l2.203-12.664c2.731-15.699-7.838-30.719-23.537-33.45l-6.332-1.101zm5.634-51.208c-8.532-1.466-16.886 3.869-20.835 12.468a3.214 3.214 0 001.473 4.206c5.116 2.604 8.287 9.57 6.985 17.053a19.617 19.617 0 01-1.493 4.773 3.214 3.214 0 001.436 4.2 16.8 16.8 0 004.712 1.621l.025.005c10.795 1.878 20.777-6.94 22.85-18.858 2.073-11.917-4.345-23.588-15.14-25.466-.005 0-.009 0-.013-.002zm-1.089 6.334l.013.003c6.683 1.17 11.473 8.97 9.897 18.03-1.577 9.065-8.728 14.79-15.417 13.627-.137-.026-.26-.114-.395-.145.308-1.008.758-1.966.944-3.009 0-.004 0-.008.002-.012 1.465-8.419-1.922-16.151-7.799-21.016 3.116-5.294 7.994-8.29 12.755-7.478z" fill="#E7E7E7" fill-opacity=".55"/></svg>