<svg width="102" height="141" fill="none" xmlns="http://www.w3.org/2000/svg"><g stroke="#E7E7E7" stroke-opacity=".55" stroke-width="6" stroke-miterlimit="10" stroke-linecap="round" stroke-linejoin="round"><path d="M72.418 137.587L9.94 127.242a7.916 7.916 0 01-6.517-9.103l14.224-85.908a7.916 7.916 0 019.103-6.517l62.48 10.345a7.916 7.916 0 016.516 9.103L81.521 131.07a7.916 7.916 0 01-9.103 6.517z"/><path d="M46.35 101.175c12.94 2.142 25.167-6.61 27.31-19.55 2.142-12.94-6.61-25.167-19.55-27.31-12.94-2.142-25.167 6.611-27.31 19.55-2.142 12.94 6.611 25.167 19.55 27.31z"/><path d="M46.352 101.175c4.313.714 9.547-9.196 11.69-22.136 2.142-12.94.382-24.009-3.931-24.723-4.314-.714-9.547 9.197-11.69 22.137-2.142 12.94-.382 24.008 3.931 24.722zM26.8 73.866l46.86 7.759m-45.514 32.584l31.24 5.172M23.125 25.957L73.95 9.765a7.916 7.916 0 0110.14 8.86l-2.672 16.14"/></g></svg>