<svg width="167" height="167" viewBox="0 0 167 167" fill="none" xmlns="http://www.w3.org/2000/svg">
<g id="Group 1261153124">
<path id="Vector" d="M155.737 53.7116L71.2897 6.31924C68.3378 4.63631 64.8385 4.19398 61.5601 5.08935C58.2816 5.98472 55.492 8.14462 53.8038 11.0948L28.9826 55.3229C27.3439 58.3009 26.9535 61.8073 27.8972 65.0721C28.8409 68.337 31.0415 71.0935 34.0158 72.7364L70.084 92.9782C69.8062 93.1878 69.5496 93.4241 69.3179 93.6838C68.251 95.1292 67.5519 96.8126 67.281 98.5885L67.1549 99.2089C65.9397 104.056 64.9191 108.865 64.0773 112.959L64.0259 113.227C63.0448 116.564 62.9219 120.095 63.6687 123.493C64.1095 124.95 64.5586 126.436 65.0182 127.903C64.1623 127.79 63.2921 127.934 62.5185 128.318C61.745 128.702 61.1033 129.307 60.6753 130.058L58.1047 134.638C57.5494 135.635 57.4108 136.81 57.7192 137.908C58.0276 139.006 58.758 139.938 59.7509 140.499L95.0497 160.309C96.0458 160.864 97.2213 161.002 98.3193 160.693C99.4173 160.385 100.349 159.654 100.91 158.661L103.481 154.08C104.036 153.084 104.174 151.908 103.866 150.81C103.558 149.712 102.827 148.78 101.834 148.219L101.365 147.956C103.213 146.203 105.129 144.415 107.097 142.755C112.381 138.265 115.611 132.377 118.755 126.686C119.716 124.93 120.728 123.128 121.774 121.395C124.472 122.075 127.318 121.852 129.878 120.761C132.438 119.67 134.57 117.77 135.949 115.353L160.77 71.1251C162.409 68.1471 162.799 64.6407 161.855 61.3759C160.912 58.111 158.711 55.3545 155.737 53.7116ZM99.7273 151.974L97.1567 156.554L61.8579 136.744L64.4285 132.164L99.7273 151.974ZM118.965 117.695C117.546 119.96 116.237 122.336 114.981 124.618C111.89 130.214 108.996 135.502 104.307 139.461C102.057 141.359 99.9265 143.396 97.8485 145.341L97.4244 145.744L70.3076 130.526C69.467 127.759 68.616 125.01 67.786 122.224C67.2911 119.52 67.441 116.737 68.2236 114.101L68.2854 113.815C69.1144 109.788 70.1328 105.027 71.3269 100.217L71.4846 99.5405C71.6363 98.4405 72.0185 97.3848 72.6062 96.4426C72.9243 96.0925 73.3282 95.8316 73.778 95.6857C74.2277 95.5398 74.7078 95.5139 75.1706 95.6107L75.1894 95.6212C75.3188 95.6493 75.4459 95.6875 75.5693 95.7357C76.0341 95.9179 76.4444 96.2162 76.7611 96.602C77.1583 97.0384 77.3844 97.6036 77.3978 98.1936C77.3973 98.9473 77.3225 99.6991 77.1746 100.438C77.114 100.898 77.0242 101.366 76.9846 101.788C76.9089 102.363 76.7957 102.916 76.6824 103.47C76.3963 104.77 76.2392 106.096 76.2133 107.428C76.1381 108.282 76.3633 109.136 76.8501 109.841C77.337 110.547 78.0549 111.061 78.88 111.294C79.7383 111.479 81.369 111.432 82.7609 109.127C84.4502 106.249 86.1289 103.39 87.7995 100.501C89.9207 96.8533 92.0642 93.2098 94.2299 89.5705C97.3428 84.3316 99.9852 80.0629 102.481 76.2306L102.877 75.6134C103.244 75.0126 103.828 74.5768 104.508 74.3973C105.189 74.2177 105.912 74.3083 106.527 74.6501C107.158 75.0044 107.635 75.5799 107.866 76.2655C107.964 76.5772 107.996 76.9055 107.963 77.2304C107.929 77.5552 107.829 77.8698 107.669 78.1547L93.5204 103.366C93.241 103.864 93.1708 104.453 93.3251 105.002C93.4795 105.552 93.8458 106.017 94.3435 106.297C94.8412 106.576 95.4295 106.646 95.979 106.492C96.5285 106.337 96.9942 105.97 97.2736 105.473L103.405 94.5469C103.953 93.5708 105.465 93.3826 106.76 94.1093C107.414 94.4527 107.928 95.0118 108.216 95.6918C108.31 95.953 108.346 96.2313 108.323 96.5079C108.3 96.7844 108.217 97.0528 108.082 97.2948L102.003 108.127C101.723 108.624 101.653 109.213 101.807 109.762C101.962 110.312 102.328 110.778 102.826 111.057C103.323 111.336 103.912 111.406 104.461 111.252C105.011 111.097 105.476 110.731 105.756 110.233L110.75 101.335C110.952 100.979 111.246 100.684 111.6 100.479C111.972 100.303 112.375 100.205 112.786 100.191C113.197 100.177 113.606 100.247 113.989 100.397C114.372 100.547 114.72 100.774 115.012 101.063C115.303 101.353 115.533 101.699 115.686 102.081C115.75 102.329 115.79 102.582 115.804 102.838C115.799 103.244 115.694 103.643 115.497 103.999L110.504 112.897C110.224 113.395 110.154 113.984 110.308 114.533C110.463 115.083 110.829 115.548 111.327 115.828C111.824 116.107 112.413 116.177 112.962 116.023C113.512 115.868 113.977 115.502 114.257 115.004L117.439 109.334C117.804 108.751 118.385 108.336 119.055 108.18C119.725 108.024 120.43 108.14 121.015 108.503C121.656 108.86 122.138 109.448 122.362 110.147C122.455 110.451 122.485 110.771 122.452 111.088C122.419 111.404 122.322 111.71 122.168 111.988L118.965 117.695ZM100.102 72.2044L98.8632 71.5094L102.456 65.1079L117.49 73.4957L113.887 79.9159L111.991 78.8522C112.371 77.5901 112.362 76.2429 111.964 74.9864C111.415 73.2484 110.224 71.7854 108.634 70.8956C107.274 70.1144 105.689 69.8184 104.139 70.0562C102.589 70.294 101.165 71.0515 100.102 72.2044ZM127.786 103.515C127.502 103.997 127.038 104.346 126.497 104.486C125.956 104.627 125.381 104.547 124.898 104.264L119.907 101.463C119.849 101.258 119.869 101.046 119.801 100.86C119.262 99.0983 118.058 97.6163 116.443 96.7295C115.266 96.0761 113.93 95.7622 112.584 95.8228C112.548 95.2774 112.434 94.7398 112.247 94.2262C112.122 93.8875 111.966 93.5608 111.783 93.25C111.676 93.048 111.554 92.8552 111.415 92.6736C111.343 92.5834 111.289 92.5037 111.216 92.4135C110.582 91.5739 109.782 90.8733 108.867 90.3548C108.702 90.2656 108.532 90.1867 108.358 90.1185C108.216 90.0636 108.085 89.9899 107.943 89.9349C107.758 89.8518 107.568 89.7784 107.375 89.7151C107.013 89.594 106.639 89.5084 106.26 89.4596L110.053 82.7015L111.779 83.6704C112.772 84.2272 113.944 84.3684 115.04 84.0631C116.136 83.7577 117.067 83.0307 117.629 82.041L121.243 75.602C121.788 74.6072 121.919 73.4375 121.607 72.3471C121.294 71.2567 120.565 70.3337 119.576 69.7787L104.563 61.3534C103.574 60.7984 102.406 60.6562 101.312 60.9578C100.219 61.2594 99.2886 61.9804 98.7236 62.964L95.11 69.403C94.5579 70.3983 94.4223 71.5716 94.7328 72.6664C95.0432 73.7611 95.7745 74.6883 96.7667 75.2451L97.6674 75.7506C97.4696 76.0592 97.2717 76.3678 97.0633 76.6952C96.8549 77.0226 96.6465 77.3499 96.4486 77.6585C96.0107 78.3508 95.5729 79.0431 95.1538 79.7459L94.4021 80.9533C93.983 81.6562 93.5451 82.3484 93.1155 83.07C92.8439 83.5101 92.5723 83.9501 92.3089 84.4194C92.0689 84.8031 91.8394 85.168 91.6076 85.581L44.2048 58.9781C43.7122 58.7135 43.3446 58.2645 43.1824 57.7293C43.0202 57.1942 43.0767 56.6165 43.3396 56.1227L64.0309 19.2535C64.3154 18.772 64.7791 18.4228 65.3204 18.2824C65.8617 18.142 66.4365 18.2219 66.9189 18.5045L147.613 63.7905C148.105 64.0551 148.473 64.5041 148.635 65.0393C148.797 65.5744 148.741 66.1522 148.478 66.6459L127.786 103.515ZM132.196 113.247C131.391 114.658 130.193 115.805 128.747 116.545C127.301 117.286 125.671 117.589 124.056 117.417L125.921 114.095C126.361 113.302 126.637 112.429 126.731 111.528C126.826 110.627 126.737 109.715 126.471 108.849C127.514 108.762 128.52 108.423 129.403 107.861C130.286 107.299 131.02 106.53 131.54 105.621L152.231 68.7522C153.049 67.262 153.244 65.5086 152.774 63.8753C152.303 62.242 151.205 60.8617 149.72 60.036L69.0259 14.75C67.5473 13.9123 65.7971 13.6942 64.1578 14.1434C62.5186 14.5926 61.1235 15.6725 60.2777 17.1472L39.5864 54.0164C38.7683 55.5066 38.5732 57.26 39.0438 58.8933C39.5144 60.5266 40.6123 61.9069 42.0977 62.7326L89.4068 89.2828C87.6144 92.3006 85.8327 95.2996 84.0779 98.3385C83.0793 100.074 82.062 101.799 81.074 103.515C81.1405 103.133 81.1882 102.74 81.257 102.31C81.3048 101.917 81.363 101.505 81.4295 101.123C81.6209 100.117 81.7151 99.0952 81.7107 98.0715C81.6382 96.7032 81.1791 95.3836 80.3867 94.266C79.5943 93.1484 78.5012 92.2787 77.2342 91.7577C76.8789 91.6126 76.5095 91.5046 76.132 91.4354L36.1229 68.9819C35.1419 68.4461 34.2762 67.7222 33.5751 66.8516C32.874 65.981 32.3512 64.9808 32.0367 63.908C31.7222 62.8352 31.622 61.7109 31.742 60.5992C31.8619 59.4876 32.1996 58.4104 32.7358 57.4292L57.557 13.2011C58.1152 12.2323 58.8587 11.3829 59.7451 10.7014C60.6315 10.0199 61.6433 9.51963 62.7229 9.22922C63.8024 8.93881 64.9286 8.86391 66.0369 9.00882C67.1453 9.15372 68.2142 9.51559 69.1827 10.0737L153.63 57.4661C154.611 58.0019 155.476 58.7258 156.177 59.5964C156.879 60.467 157.401 61.4673 157.716 62.5401C158.03 63.6128 158.13 64.7372 158.01 65.8488C157.891 66.9604 157.553 68.0376 157.017 69.0188L132.196 113.247Z" fill="#E7E7E7"/>
<path id="Vector_2" d="M82.5467 90.0514C82.2999 90.4912 81.8666 90.8027 81.3421 90.9174C80.8177 91.032 80.2451 90.9404 79.7503 90.6627L76.0189 88.5687C75.5241 88.291 75.1476 87.8499 74.9723 87.3426C74.7969 86.8352 74.8371 86.3031 75.0839 85.8632C75.3308 85.4234 75.7641 85.1119 76.2885 84.9972C76.8129 84.8826 77.3855 84.9742 77.8803 85.2519L81.6117 87.346C82.1065 87.6236 82.483 88.0647 82.6584 88.5721C82.8337 89.0794 82.7935 89.6116 82.5467 90.0514Z" fill="#E7E7E7"/>
<path id="Vector_3" d="M80.1379 37.9986C79.8294 38.5484 79.3338 38.9636 78.7602 39.1529C78.1865 39.3422 77.5819 39.29 77.0792 39.0079L67.6027 33.6896C67.1001 33.4075 66.7406 32.9186 66.6033 32.3303C66.466 31.7421 66.5623 31.1028 66.8708 30.553C67.1793 30.0032 67.6749 29.588 68.2486 29.3987C68.8222 29.2094 69.4268 29.2615 69.9295 29.5436L79.406 34.8619C79.9087 35.144 80.2682 35.633 80.4054 36.2212C80.5427 36.8095 80.4465 37.4488 80.1379 37.9986Z" fill="#E7E7E7"/>
<path id="Vector_4" d="M74.0891 48.7781C73.7805 49.3279 73.2849 49.7431 72.7113 49.9324C72.1377 50.1217 71.5331 50.0696 71.0304 49.7875L61.5539 44.4692C61.0512 44.1871 60.6917 43.6981 60.5545 43.1099C60.4172 42.5216 60.5134 41.8823 60.822 41.3325C61.1305 40.7827 61.6261 40.3675 62.1997 40.1782C62.7733 39.9889 63.378 40.0411 63.8807 40.3232L73.3572 45.6415C73.8598 45.9236 74.2193 46.4125 74.3566 47.0008C74.4939 47.589 74.3976 48.2283 74.0891 48.7781Z" fill="#E7E7E7"/>
<path id="Vector_5" d="M67.8061 59.9722C67.5593 60.412 67.1229 60.7218 66.5929 60.8333C66.0629 60.9448 65.4828 60.849 64.9801 60.5669L55.5036 55.2486C55.001 54.9665 54.6169 54.5212 54.436 54.0107C54.2551 53.5003 54.2922 52.9664 54.539 52.5266C54.7859 52.0867 55.2223 51.777 55.7523 51.6654C56.2822 51.5539 56.8624 51.6497 57.365 51.9318L66.8415 57.2501C67.3442 57.5322 67.7282 57.9775 67.9091 58.488C68.09 58.9985 68.053 59.5323 67.8061 59.9722Z" fill="#E7E7E7"/>
<path id="Vector_6" d="M100.199 45.6181L91.1896 48.3398C90.6279 48.5157 90.0326 48.4575 89.5346 48.178C89.0367 47.8986 88.6768 47.4208 88.5343 46.8497L86.954 40.7775C86.8079 40.1995 86.8924 39.5737 87.1891 39.0366C87.4859 38.4994 87.9709 38.0945 88.5384 37.91C89.103 37.7306 89.7024 37.7856 90.2056 38.0631C90.7088 38.3405 91.0749 38.8178 91.224 39.3907L92.2444 43.3496L99.1584 41.2509C99.725 41.0797 100.323 41.1435 100.822 41.4285C101.321 41.7135 101.68 42.1964 101.821 42.7719C101.96 43.3524 101.867 43.9773 101.563 44.5105C101.259 45.0436 100.769 45.4418 100.199 45.6181Z" fill="#E7E7E7"/>
<path id="Vector_7" d="M93.8461 56.9392L85.1158 59.1694C84.5717 59.3143 83.9864 59.2387 83.4887 58.9594C82.9909 58.68 82.6215 58.2198 82.4617 57.6799L80.6987 51.9373C80.5313 51.3932 80.5886 50.8109 80.8579 50.3185C81.1272 49.8261 81.5865 49.464 82.1348 49.3118C82.683 49.1596 83.2752 49.2298 83.7812 49.5069C84.2872 49.7841 84.6655 50.2455 84.8328 50.7896L85.9726 54.5333L92.6721 52.8124C93.2212 52.6721 93.8094 52.7531 94.3083 53.0376C94.8072 53.3222 95.1763 53.7872 95.3348 54.331C95.4907 54.8796 95.4217 55.4616 95.1428 55.9501C94.864 56.4387 94.3979 56.7942 93.8461 56.9392Z" fill="#E7E7E7"/>
<path id="Vector_8" d="M87.6349 68.0067L78.6279 70.7298C78.0664 70.9058 77.4712 70.8477 76.9735 70.5684C76.4758 70.289 76.1162 69.8113 75.9738 69.2403L74.3952 63.1691C74.2453 62.5938 74.3264 61.969 74.6207 61.4322C74.915 60.8953 75.3984 60.4903 75.9644 60.3063C76.5305 60.1223 77.1329 60.1744 77.6392 60.451C78.1454 60.7277 78.5141 61.2063 78.6639 61.7816L79.6833 65.74L86.5954 63.6401C87.1619 63.4688 87.7598 63.5326 88.2585 63.8174C88.7572 64.1023 89.1163 64.5851 89.2572 65.1604C89.3952 65.7409 89.3021 66.3657 88.9982 66.8989C88.6943 67.432 88.2043 67.8302 87.6349 68.0067Z" fill="#E7E7E7"/>
</g>
</svg>
