<svg width="144" height="148" viewBox="0 0 144 148" fill="none" xmlns="http://www.w3.org/2000/svg">
<path id="Vector" d="M105.092 22.1522L107.742 15.7044L118.164 19.9882L122.078 10.4652L111.657 6.18142L112.432 4.29667L110.555 3.52518L109.78 5.40993L105.866 14.9329L103.215 21.3807L73.4372 30.4767L119.865 49.5609L105.092 22.1522ZM97.8538 37.0924C95.1867 35.9961 93.9106 32.9205 95.0115 30.2422C96.1125 27.5638 99.1827 26.2748 101.85 27.3711C104.517 28.4674 105.793 31.5431 104.692 34.2214C103.591 36.8997 100.521 38.1888 97.8538 37.0924ZM124.971 133.352L140.565 95.6981L106.633 81.7504L119.07 51.4952L95.8558 41.9531L72.6421 32.411L60.2056 62.6662L26.2247 48.6982L10.8288 86.4339L7.32205 84.9924L2.99985 95.5073L63.6024 120.418L124.205 145.329L128.527 134.814L124.971 133.352ZM23.314 87.1016L18.5725 85.1525L29.1945 59.3116L33.936 61.2606L23.314 87.1016ZM31.8587 90.6139L27.1171 88.6648L37.7391 62.8239L42.4807 64.7729L31.8587 90.6139ZM40.3539 94.1059L35.6124 92.1568L46.2344 66.3159L50.9759 68.2649L40.3539 94.1059ZM57.2223 107.707L50.5546 104.966L73.3481 49.5152L79.9664 52.2357L57.2223 107.707ZM70.4591 113.148L67.1499 111.788L63.8407 110.428L86.6342 54.9765L89.9434 56.3367L93.2526 57.697L70.4591 113.148ZM83.7452 118.61L77.1269 115.889L99.9203 60.4378L106.539 63.1583L83.7452 118.61ZM103.377 120.012L98.6351 118.063L109.257 92.2217L113.999 94.1707L103.377 120.012ZM111.872 123.504L107.13 121.555L117.752 95.7137L122.494 97.6627L111.872 123.504ZM120.416 127.016L115.675 125.067L126.297 99.226L131.038 101.175L120.416 127.016Z" stroke="#E7E7E7" stroke-width="4"/>
</svg>
