<svg width="161" height="161" viewBox="0 0 161 161" fill="none" xmlns="http://www.w3.org/2000/svg">
<g id="Group 1261153125">
<path id="Vector" d="M35.8572 103.888C35.1854 109.763 34.6613 115.672 34.4387 121.599C27.667 114.16 22.8114 105.1 20.3022 95.3242C25.3709 98.4109 30.6014 101.254 35.8572 103.888Z" stroke="#E7E7E7" stroke-width="5"/>
<path id="Vector_2" d="M104.028 124.343C109.907 125.047 115.792 125.536 121.703 125.741C114.198 132.563 105.054 137.446 95.1828 139.972C98.3673 134.883 101.353 129.683 104.028 124.343Z" stroke="#E7E7E7" stroke-width="5"/>
<path id="Vector_3" d="M124.466 56.2432C125.174 50.3482 125.573 44.403 125.693 38.4621C132.568 46.0121 137.481 55.1466 139.989 65.0454C134.938 61.8874 129.774 58.9407 124.466 56.2432Z" stroke="#E7E7E7" stroke-width="5"/>
<path id="Vector_4" d="M56.3479 35.8318C50.4248 35.0877 44.4415 34.7082 38.4432 34.5627C45.9725 27.7249 55.0641 22.7851 64.8712 20.2715C61.7942 25.3344 58.9908 30.5349 56.3479 35.8318Z" stroke="#E7E7E7" stroke-width="5"/>
<path id="Vector_5" d="M109.496 49.632C97.5044 44.7508 85.0826 41.0235 72.3848 38.4966C76.0094 31.621 79.9694 24.9167 84.4475 18.6449L84.5082 18.5599L84.5525 18.4853C89.0272 18.8302 93.4621 19.5577 97.8948 20.8878C102.293 22.2075 106.453 24.0644 110.355 26.239L110.352 26.3115L110.355 26.4131C110.625 34.1723 110.252 41.9109 109.496 49.632Z" stroke="#E7E7E7" stroke-width="5"/>
<path id="Vector_6" d="M49.6402 50.75C44.8023 62.7578 41.0741 75.1829 38.5022 87.8707C31.5894 84.2344 24.9215 80.2836 18.6391 75.798L18.554 75.7373L18.4795 75.693C18.8245 71.2182 19.5519 66.7834 20.882 62.3506C22.2017 57.9525 24.0586 53.7926 26.2332 49.8903L26.2972 49.8932L26.3904 49.8906C34.1636 49.673 41.8865 49.9952 49.6402 50.75Z" stroke="#E7E7E7" stroke-width="5"/>
<path id="Vector_7" d="M133.83 110.354C126.07 110.571 118.311 110.237 110.595 109.493C115.476 97.5021 119.203 85.081 121.729 72.3842C128.605 76.0088 135.309 79.9688 141.581 84.4468L141.666 84.5076L141.728 84.5441C141.385 89.0427 140.659 93.4942 139.338 97.8942C138.008 102.327 136.174 106.43 133.998 110.355L133.923 110.352L133.83 110.354Z" stroke="#E7E7E7" stroke-width="5"/>
<path id="Vector_8" d="M50.7479 110.609C56.7016 113.07 62.7551 115.332 68.9939 117.204C75.2257 119.074 81.5625 120.531 87.8588 121.746C84.2258 128.651 80.2788 135.311 75.7982 141.586L75.7375 141.672L75.6989 141.736C71.244 141.403 66.7489 140.663 62.3508 139.344C57.918 138.013 53.8153 136.179 49.8899 134.004L49.8934 133.928L49.8908 133.835C49.6734 126.07 49.9947 118.355 50.7479 110.609Z" stroke="#E7E7E7" stroke-width="5"/>
<path id="Vector_9" d="M107.463 65.3859C104.887 79.8616 100.656 93.9603 94.8379 107.463C80.3624 104.886 66.2636 100.656 52.7607 94.8376C55.3375 80.3621 59.568 66.2634 65.3862 52.7604C79.8618 55.3373 93.9605 59.5677 107.463 65.3859Z" stroke="#E7E7E7" stroke-width="5"/>
</g>
</svg>
