<svg width="134" height="139" viewBox="0 0 134 139" fill="none" xmlns="http://www.w3.org/2000/svg">
<path id="Vector" d="M49.4703 113.443L107.558 135.51L130.539 75.0162C133.077 68.3343 129.934 60.9416 123.517 58.5042L100.282 49.6775M58.6626 89.2458L58.7207 89.2678M93.5152 102.486L93.5732 102.508M35.4276 80.4191L35.4857 80.4412M67.8549 65.0483L67.913 65.0704M102.707 78.2883L102.766 78.3104M44.6199 56.2216L44.678 56.2437M77.0472 40.8508L77.1053 40.8729M53.8122 32.0242L53.8703 32.0462M72.7054 122.27L104.878 37.5788C107.417 30.8968 104.273 23.5042 97.8571 21.0667L51.387 3.41334C44.9709 0.975916 37.7118 4.41679 35.1734 11.0987L3.00033 95.7899L72.7054 122.27Z" stroke="#E7E7E7" stroke-width="5" stroke-linecap="round" stroke-linejoin="round"/>
</svg>
