<svg width="145" height="153" viewBox="0 0 145 153" fill="none" xmlns="http://www.w3.org/2000/svg">
<path id="Vector" d="M47.1563 68.1059L46.4934 69.9928L48.3803 70.6557L58.7273 74.2908L60.6142 74.9538L61.2772 73.0668L68.4781 52.5699L69.141 50.6829L67.2541 50.02L56.9071 46.3849L55.0202 45.722L54.3572 47.6089L47.1563 68.1059ZM98.8913 86.2814L98.2284 88.1683L100.115 88.8313L110.462 92.4664L112.349 93.1293L113.012 91.2424L120.213 70.7454L120.876 68.8585L118.989 68.1956L108.642 64.5605L106.755 63.8975L106.092 65.7845L98.8913 86.2814ZM2.78701 107.965L41.9641 28.1047L142.082 63.2781L122.702 150.094L2.78701 107.965ZM74.4487 23.7642L67.8576 21.4486C70.7631 14.6509 76.0727 9.11657 82.8318 5.91168C90.1999 2.41799 98.687 1.97909 106.425 4.69758C114.163 7.41607 120.511 13.0667 124.075 20.4011C127.344 27.1292 128.026 34.7683 126.041 41.8896L119.45 39.574C120.847 34.1662 120.279 28.4091 117.81 23.3292C115.048 17.6452 110.133 13.2741 104.15 11.1722C98.1673 9.07021 91.5987 9.40702 85.8885 12.1146C80.7852 14.5344 76.7412 18.671 74.4487 23.7642Z" stroke="#E7E7E7" stroke-width="4"/>
</svg>
