<svg width="149" height="127" viewBox="0 0 149 127" fill="none" xmlns="http://www.w3.org/2000/svg">
<g id="Group 1261153126">
<path id="Vector" d="M35.3507 83.0598L79.8398 97.4C81.1119 97.81 82.4949 97.6979 83.6844 97.0883C84.8739 96.4787 85.7725 95.4216 86.1825 94.1494L106.011 32.6322C106.421 31.36 106.309 29.9771 105.7 28.7876C105.09 27.5981 104.033 26.6994 102.761 26.2894L32.2019 3.54611C30.9298 3.13606 29.5468 3.24816 28.3573 3.85776C27.1678 4.46735 26.2692 5.52451 25.8592 6.79667L6.04576 68.2659C5.6357 69.5381 5.7478 70.921 6.3574 72.1105C6.967 73.3 8.02416 74.1986 9.29631 74.6087L15.532 76.6186" stroke="#E7E7E7" stroke-width="5"/>
<path id="Vector_2" d="M94.7814 102.216L84.8523 99.0158L100.854 49.3704L124.382 56.954C124.729 57.0657 125.047 57.251 125.315 57.4974C125.583 57.7437 125.794 58.0451 125.934 58.381L135.207 81.3586C135.426 81.9054 135.446 82.5113 135.264 83.0714L125.864 112.235L115.575 108.919" stroke="#E7E7E7" stroke-width="5"/>
<path id="Vector_3" d="M21.2253 93.8624C27.1063 95.7581 33.4314 92.4628 35.3526 86.5023C37.2739 80.5418 34.0638 74.1731 28.1828 72.2775C22.3017 70.3818 15.9767 73.6771 14.0554 79.6376C12.1342 85.5981 15.3442 91.9668 21.2253 93.8624Z" stroke="#E7E7E7" stroke-width="5"/>
<path id="Vector_4" d="M100.491 119.412C106.372 121.308 112.697 118.012 114.618 112.052C116.54 106.091 113.329 99.7225 107.448 97.8269C101.567 95.9313 95.2423 99.2265 93.3211 105.187C91.3998 111.148 94.6099 117.516 100.491 119.412Z" stroke="#E7E7E7" stroke-width="5"/>
</g>
</svg>
