<svg width="143" height="143" viewBox="0 0 143 143" fill="none" xmlns="http://www.w3.org/2000/svg">
<g id="Group 1261153108">
<path id="Vector" d="M54.6224 37.1134C68.9636 42.4656 82.8805 40.6658 85.7066 33.0934C88.5327 25.5209 79.1978 15.0434 64.8567 9.69111C50.5155 4.33886 36.5986 6.13869 33.7725 13.7111C30.9464 21.2836 40.2812 31.7611 54.6224 37.1134Z" stroke="#E7E7E7" stroke-width="5" stroke-linecap="round" stroke-linejoin="round"/>
<path id="Vector_2" d="M33.7725 13.7112C33.7725 13.7112 29.4346 25.3344 26.6085 32.9068C23.7824 40.4792 33.1172 50.9568 47.4584 56.309C61.7995 61.6612 75.7164 59.8614 78.5425 52.289C80.2164 47.8038 85.7065 33.0934 85.7065 33.0934" stroke="#E7E7E7" stroke-width="5" stroke-linecap="round" stroke-linejoin="round"/>
<path id="Vector_3" d="M26.6094 32.9067C26.6094 32.9067 22.2715 44.5299 19.4454 52.1023C16.6193 59.6747 25.9541 70.1523 40.2953 75.5046C54.6364 80.8568 68.5534 79.0569 71.3794 71.4846C73.0533 66.9994 78.5434 52.289 78.5434 52.289" stroke="#E7E7E7" stroke-width="5" stroke-linecap="round" stroke-linejoin="round"/>
<path id="Vector_4" d="M19.4443 52.1025C19.4443 52.1025 15.1065 63.7257 12.2804 71.2981C9.4543 78.8705 18.7891 89.3481 33.1303 94.7004C47.4713 100.053 61.3883 98.2527 64.2144 90.6804C65.8883 86.1952 71.3784 71.4848 71.3784 71.4848" stroke="#E7E7E7" stroke-width="5" stroke-linecap="round" stroke-linejoin="round"/>
<path id="Vector_5" d="M12.2812 71.2983C12.2812 71.2983 7.94337 82.9215 5.11729 90.4939C2.29121 98.0663 11.626 108.544 25.9672 113.896C40.3082 119.248 54.2252 117.449 57.0513 109.876C58.7252 105.391 64.2153 90.6806 64.2153 90.6806" stroke="#E7E7E7" stroke-width="5" stroke-linecap="round" stroke-linejoin="round"/>
<path id="Vector_6" d="M92.2308 94.8876C106.572 100.24 120.489 98.44 123.315 90.8675C126.141 83.2951 116.806 72.8175 102.465 67.4653C88.1239 62.113 74.207 63.9129 71.3809 71.4853C68.5548 79.0578 77.8896 89.5353 92.2308 94.8876Z" stroke="#E7E7E7" stroke-width="5" stroke-linecap="round" stroke-linejoin="round"/>
<path id="Vector_7" d="M71.3809 71.4856C71.3809 71.4856 67.043 83.1088 64.2169 90.6812C61.3908 98.2536 70.7257 108.731 85.0668 114.083C99.4079 119.436 113.325 117.636 116.151 110.063C117.825 105.578 123.315 90.8678 123.315 90.8678" stroke="#E7E7E7" stroke-width="5" stroke-linecap="round" stroke-linejoin="round"/>
<path id="Vector_8" d="M64.2178 90.6814C64.2178 90.6814 59.8799 102.305 57.0538 109.877C54.2277 117.449 63.5626 127.927 77.9037 133.279C92.2448 138.631 106.162 136.832 108.988 129.259C110.662 124.774 116.152 110.064 116.152 110.064" stroke="#E7E7E7" stroke-width="5" stroke-linecap="round" stroke-linejoin="round"/>
</g>
</svg>
