<svg width="149" height="154" viewBox="0 0 149 154" fill="none" xmlns="http://www.w3.org/2000/svg">
<g id="Group 1261153104">
<path id="Vector" d="M66.6885 22.7851L54.4624 17.5056C47.7101 14.5898 39.8726 17.6999 36.9568 24.4522L5.2799 97.8087C2.36403 104.561 5.47421 112.398 12.2265 115.314L24.4526 120.594M103.367 38.6235L115.593 43.903C122.345 46.8189 125.455 54.6563 122.539 61.4086L117.26 73.6347" stroke="#E7E7E7" stroke-width="5" stroke-linecap="round" stroke-linejoin="round"/>
<path id="Vector_2" d="M62.2888 132.105L47.7671 129.006L56.2124 116.794C56.9606 115.712 58.0113 114.877 59.2332 114.392L94.8915 100.241L112.397 93.2946L119.298 110.686L101.793 117.632L66.1346 131.782C64.9127 132.267 63.5745 132.379 62.2888 132.105Z" stroke="#E7E7E7" stroke-width="5" stroke-linecap="round" stroke-linejoin="round"/>
<path id="Vector_3" d="M66.6893 22.7852C69.605 16.0329 77.4426 12.9228 84.1948 15.8386L96.4209 21.1181C103.173 24.0339 106.283 31.8714 103.368 38.6236L98.088 50.8497L61.4098 35.0113L66.6893 22.7852Z" stroke="#E7E7E7" stroke-width="5" stroke-linecap="round" stroke-linejoin="round"/>
</g>
</svg>
