<svg width="153" height="144" viewBox="0 0 153 144" fill="none" xmlns="http://www.w3.org/2000/svg">
<g id="Group 1261153116">
<g id="Vector">
<path d="M3.36746 94.5774C7.66963 81.4573 20.8675 73.4079 34.5016 75.5886L35.7297 75.785C46.6472 77.5312 57.2188 80.9976 67.0504 86.0553L68.1564 86.6242C80.4345 92.9403 86.3033 107.242 82.0011 120.362C80.1416 126.033 74.037 129.122 68.3661 127.263L10.2685 108.212C4.59766 106.353 1.50794 100.248 3.36746 94.5774Z" stroke="#E7E7E7" stroke-width="5"/>
<path d="M89.1111 43.3481C84.9576 56.0146 71.3223 62.9159 58.6557 58.7624C45.9892 54.6089 39.088 40.9736 43.2414 28.3071C47.3949 15.6405 61.0302 8.7393 73.6967 12.8928C86.3633 17.0462 93.2645 30.6815 89.1111 43.3481Z" stroke="#E7E7E7" stroke-width="5"/>
</g>
<path id="Vector_2" d="M97.9737 71.6543C110.64 75.8078 124.276 68.9065 128.429 56.24C132.582 43.5734 125.681 29.9381 113.015 25.7847M94.2956 135.765L107.684 140.155C113.355 142.014 119.46 138.925 121.319 133.254C125.621 120.134 119.752 105.832 107.474 99.5161V99.5161C106.738 99.1374 105.972 98.8171 105.185 98.5592C103.09 97.8721 102.439 97.6587 98.8411 96.4789" stroke="#E7E7E7" stroke-width="5" stroke-linecap="round"/>
</g>
</svg>
