<svg width="16" height="25" viewBox="0 0 16 25" fill="none" xmlns="http://www.w3.org/2000/svg">
<path fill-rule="evenodd" clip-rule="evenodd" d="M13.1218 10.4865L12.7746 13.1892H8.60388V22.6487H6.06925V13.1892H2.26731V10.4865H6.06925V8.00945C6.06925 4.57298 8.0488 2.35135 11.1144 2.35135C12.4274 2.35135 13.246 2.42568 13.7188 2.49324L13.682 5.05271L11.7329 5.05676C11.6796 5.05135 10.4098 4.94595 9.49353 5.84325C8.90297 6.42027 8.60388 7.25 8.60388 8.30676V10.4865H13.1218V10.4865ZM10.3439 6.8446C10.8432 6.34865 11.6213 6.4027 11.6784 6.40541L14.9303 6.40405L15 1.4027L14.5108 1.27432C14.1965 1.19191 13.2346 1 11.1144 1C7.3391 1 4.80193 3.81757 4.80193 8.00945V9.13514H1V14.5405H4.80193V24H9.87119V14.5405H13.8784L14.5742 9.13514H9.8712V8.30675C9.8712 7.64865 10.0309 7.15675 10.3439 6.8446Z" fill="#D3D3D3" stroke="#D3D3D3"/>
</svg>
