<svg width="34" height="21" viewBox="0 0 34 21" fill="none" xmlns="http://www.w3.org/2000/svg">
<path d="M18.6865 13.7979L18.6855 13.7961L11.6078 0.444374C11.5368 0.310224 11.4304 0.197965 11.3002 0.119669C11.17 0.0413727 11.0209 0 10.8689 0C10.7169 0 10.5678 0.0413727 10.4376 0.119669C10.3074 0.197965 10.2011 0.310224 10.13 0.444374L3.05227 13.7961L3.05129 13.7979L0.0972014 19.3705C-0.00657187 19.5662 -0.0282424 19.7951 0.0369571 20.0068C0.102157 20.2185 0.248885 20.3956 0.444865 20.4993C0.640844 20.6029 0.87002 20.6245 1.08198 20.5594C1.29393 20.4943 1.47131 20.3478 1.57508 20.1521L4.29034 15.0298H17.4475L20.1627 20.1521C20.2665 20.3478 20.4439 20.4943 20.6558 20.5594C20.8678 20.6245 21.097 20.6029 21.2929 20.4993C21.4889 20.3956 21.6357 20.2185 21.7009 20.0068C21.7661 19.7951 21.7444 19.5662 21.6406 19.3705L18.6865 13.7979ZM5.17573 13.3598L10.8689 2.61963L16.5622 13.3598H5.17573ZM28.7049 6.5269C27.2396 6.51382 25.8275 7.07459 24.7713 8.08901C24.6156 8.24533 24.5282 8.45676 24.5281 8.6772C24.528 8.89763 24.6151 9.10918 24.7705 9.26569C24.926 9.4222 25.1371 9.51098 25.3578 9.51266C25.5785 9.51435 25.7909 9.4288 25.9487 9.27467C26.6911 8.56947 27.6805 8.18258 28.7049 8.19686C30.7027 8.19686 32.3279 9.57039 32.3279 11.2584V12.8224C31.309 11.9819 30.0263 11.5268 28.7049 11.5368C25.7853 11.5368 23.4099 13.6593 23.4099 16.2683C23.4099 18.8773 25.7853 20.9998 28.7049 20.9998C30.0263 21.0099 31.309 20.5548 32.3279 19.7144V19.7613C32.3279 19.9827 32.416 20.1951 32.5728 20.3517C32.7295 20.5083 32.9422 20.5963 33.1639 20.5963C33.3857 20.5963 33.5983 20.5083 33.7551 20.3517C33.9119 20.1951 34 19.9827 34 19.7613V11.2584C34 8.64941 31.6246 6.5269 28.7049 6.5269ZM28.7049 19.3299C26.7072 19.3299 25.082 17.9565 25.082 16.2683C25.082 14.5801 26.7072 13.2067 28.7049 13.2067C30.7027 13.2067 32.3279 14.5803 32.3279 16.2683C32.3279 17.9563 30.7027 19.3299 28.7049 19.3299Z" fill="white"/>
</svg>
