<svg width="24" height="24" viewBox="0 0 24 24" fill="none" xmlns="http://www.w3.org/2000/svg">
<path fill-rule="evenodd" clip-rule="evenodd" d="M11.6664 18.0303C15.1809 18.0303 18.03 15.1812 18.03 11.6667C18.03 8.15213 15.1809 5.30304 11.6664 5.30304C8.15183 5.30304 5.30273 8.15213 5.30273 11.6667C5.30273 15.1812 8.15183 18.0303 11.6664 18.0303ZM11.6664 15.9091C14.0093 15.9091 15.9088 14.0097 15.9088 11.6667C15.9088 9.32365 14.0093 7.42425 11.6664 7.42425C9.32334 7.42425 7.42394 9.32365 7.42394 11.6667C7.42394 14.0097 9.32334 15.9091 11.6664 15.9091Z" fill="#D3D3D3"/>
<path d="M18.0303 4.24243C17.4446 4.24243 16.9697 4.71729 16.9697 5.30304C16.9697 5.88879 17.4446 6.36364 18.0303 6.36364C18.6161 6.36364 19.0909 5.88879 19.0909 5.30304C19.0909 4.71729 18.6161 4.24243 18.0303 4.24243Z" fill="#D3D3D3"/>
<path fill-rule="evenodd" clip-rule="evenodd" d="M0.693593 3.47461C0 4.83586 0 6.61785 0 10.1818V13.1515C0 16.7155 0 18.4975 0.693593 19.8587C1.3037 21.0561 2.2772 22.0296 3.47461 22.6397C4.83586 23.3333 6.61785 23.3333 10.1818 23.3333H13.1515C16.7155 23.3333 18.4975 23.3333 19.8587 22.6397C21.0561 22.0296 22.0296 21.0561 22.6397 19.8587C23.3333 18.4975 23.3333 16.7155 23.3333 13.1515V10.1818C23.3333 6.61785 23.3333 4.83586 22.6397 3.47461C22.0296 2.2772 21.0561 1.3037 19.8587 0.693593C18.4975 0 16.7155 0 13.1515 0H10.1818C6.61785 0 4.83586 0 3.47461 0.693593C2.2772 1.3037 1.3037 2.2772 0.693593 3.47461ZM13.1515 2.12121H10.1818C8.36482 2.12121 7.12965 2.12286 6.17493 2.20086C5.24495 2.27684 4.76937 2.41456 4.43761 2.5836C3.63935 2.99034 2.99034 3.63935 2.5836 4.43761C2.41456 4.76937 2.27684 5.24495 2.20086 6.17493C2.12286 7.12965 2.12121 8.36482 2.12121 10.1818V13.1515C2.12121 14.9685 2.12286 16.2036 2.20086 17.1584C2.27684 18.0884 2.41456 18.564 2.5836 18.8957C2.99034 19.694 3.63935 20.3429 4.43761 20.7497C4.76937 20.9187 5.24495 21.0565 6.17493 21.1325C7.12965 21.2104 8.36482 21.2121 10.1818 21.2121H13.1515C14.9685 21.2121 16.2036 21.2104 17.1584 21.1325C18.0884 21.0565 18.564 20.9187 18.8957 20.7497C19.694 20.3429 20.3429 19.694 20.7497 18.8957C20.9187 18.564 21.0565 18.0884 21.1325 17.1584C21.2104 16.2036 21.2121 14.9685 21.2121 13.1515V10.1818C21.2121 8.36482 21.2104 7.12965 21.1325 6.17493C21.0565 5.24495 20.9187 4.76937 20.7497 4.43761C20.3429 3.63935 19.694 2.99034 18.8957 2.5836C18.564 2.41456 18.0884 2.27684 17.1584 2.20086C16.2036 2.12286 14.9685 2.12121 13.1515 2.12121Z" fill="#D3D3D3"/>
</svg>
