<svg width="157" height="157" viewBox="0 0 157 157" fill="none" xmlns="http://www.w3.org/2000/svg">
<path d="M39.4102 47.2388L43.4604 27.2881L57.1354 30.0643L54.699 42.0655" stroke="#E7E7E7" stroke-opacity="0.55" stroke-width="6" stroke-miterlimit="10" stroke-linecap="round" stroke-linejoin="round"/>
<path d="M94.8333 114.23L49.2676 104.98L55.4345 74.6026L101 83.8529L94.8333 114.23Z" stroke="#E7E7E7" stroke-opacity="0.55" stroke-width="6" stroke-miterlimit="10" stroke-linecap="round" stroke-linejoin="round"/>
<path d="M78.0232 80.1796L72.2715 108.512" stroke="#E7E7E7" stroke-opacity="0.55" stroke-width="6" stroke-miterlimit="10" stroke-linecap="round" stroke-linejoin="round"/>
<mask id="mask0_796_375" style="mask-type:luminance" maskUnits="userSpaceOnUse" x="0" y="0" width="157" height="157">
<path d="M26.6695 0.782233L156.279 27.0943L129.967 156.703L0.357422 130.391L26.6695 0.782233Z" fill="white"/>
</mask>
<g mask="url(#mask0_796_375)">
<path d="M122.915 28.7924L122.917 28.7911C124.975 31.6403 126.199 35.0885 126.339 38.7169C127.317 37.9028 128.464 37.3107 129.709 36.9889C132.733 36.1419 135.187 33.6706 135.854 30.3812C136.199 28.6826 136.021 26.999 135.429 25.4983L135.43 25.4984C141.351 29.8151 144.55 37.3318 142.996 44.9825C145.272 43.7855 147.088 41.7546 147.958 39.1985C149.305 43.7732 149.435 47.7981 148.487 52.4686C146.634 61.5982 137.73 67.4969 128.601 65.6434C119.471 63.79 113.59 54.6802 115.444 45.5506C116.816 38.7902 120.771 39.3547 122.915 28.7924Z" stroke="#E7E7E7" stroke-opacity="0.55" stroke-width="6" stroke-miterlimit="10" stroke-linecap="round" stroke-linejoin="round"/>
<path d="M13.5973 96.9402L13.5988 96.939C15.5312 99.6133 16.6794 102.85 16.8109 106.255C17.7291 105.491 18.8058 104.935 19.9736 104.633C22.8119 103.838 25.1151 101.519 25.7419 98.4313C26.0655 96.8373 25.8977 95.257 25.3428 93.8487L25.3433 93.8488C30.9004 97.9 33.903 104.955 32.4453 112.136C34.5809 111.012 36.2855 109.106 37.102 106.707C38.3663 111.001 38.4887 114.778 37.5988 119.162C35.8592 127.731 27.5025 133.267 18.9336 131.528C10.3647 129.788 4.84509 121.238 6.58467 112.669C7.87283 106.324 11.5847 106.854 13.5973 96.9402Z" stroke="#E7E7E7" stroke-opacity="0.55" stroke-width="6" stroke-miterlimit="10" stroke-linecap="round" stroke-linejoin="round"/>
<path d="M29.2617 97.2397L36.0422 63.8401" stroke="#E7E7E7" stroke-opacity="0.55" stroke-width="6" stroke-miterlimit="10" stroke-linecap="round" stroke-linejoin="round"/>
<path d="M56.7491 126.532L36.9199 122.507" stroke="#E7E7E7" stroke-opacity="0.55" stroke-width="6" stroke-miterlimit="10" stroke-linecap="round" stroke-linejoin="round"/>
<path d="M123.116 81.5182L111.713 137.69" stroke="#E7E7E7" stroke-opacity="0.55" stroke-width="6" stroke-miterlimit="10" stroke-linecap="round" stroke-linejoin="round"/>
<path d="M79.5372 131.157L116.749 138.712L114.278 150.883L19.5117 131.645" stroke="#E7E7E7" stroke-opacity="0.55" stroke-width="6" stroke-miterlimit="10" stroke-linecap="round" stroke-linejoin="round"/>
<path d="M126.676 65.2529L137.892 74.85L128.487 85.8407L84.5121 48.211L29.3449 65.7138L24.9702 51.9257L83.9713 33.2068C86.3555 32.4504 88.9606 32.9793 90.8611 34.6055L116.977 56.953" stroke="#E7E7E7" stroke-opacity="0.55" stroke-width="6" stroke-miterlimit="10" stroke-linecap="round" stroke-linejoin="round"/>
<path d="M15.0233 128.894C13.2929 126.282 13.8013 122.787 16.2044 120.776L22.1149 115.831L25.6289 122.69C27.0576 125.478 26.1632 128.895 23.5512 130.625C20.7181 132.502 16.9002 131.727 15.0233 128.894Z" stroke="#E7E7E7" stroke-opacity="0.55" stroke-width="6" stroke-miterlimit="10" stroke-linecap="round" stroke-linejoin="round"/>
<path d="M124.66 62.746C122.93 60.1341 123.438 56.6392 125.841 54.6286L131.751 49.6829L135.266 56.5419C136.694 59.3303 135.8 62.7468 133.188 64.4772C130.355 66.3541 126.537 65.5791 124.66 62.746Z" stroke="#E7E7E7" stroke-opacity="0.55" stroke-width="6" stroke-miterlimit="10" stroke-linecap="round" stroke-linejoin="round"/>
</g>
</svg>
