<svg width="121" height="140" viewBox="0 0 121 140" fill="none" xmlns="http://www.w3.org/2000/svg">
<path d="M59.2258 71.962C57.7851 71.4113 56.6167 70.7425 55.7206 69.9556C54.8651 69.145 54.2472 68.4141 53.8669 67.7627C53.495 67.0792 53.3218 66.689 53.3472 66.5923L55.7971 64.5476C55.7801 64.6121 55.9618 64.97 56.3422 65.6213C56.7225 66.2727 57.2402 66.9257 57.8954 67.5803C58.5913 68.2111 59.4229 68.6535 60.39 68.9076C61.5829 69.221 62.5822 69.156 63.3879 68.7129C64.1936 68.2697 64.7277 67.5484 64.9902 66.549C65.2443 65.5818 65.1048 64.7352 64.5718 64.0093C64.0472 63.2512 63.1883 62.388 61.9951 61.4197C60.8987 60.4769 60.0271 59.662 59.3804 58.9752C58.7744 58.2646 58.3117 57.402 57.9923 56.3876C57.6813 55.3409 57.7079 54.1244 58.0721 52.7381C58.5633 50.8682 59.4856 49.4562 60.8391 48.5021C62.2249 47.5565 63.8313 47.0824 65.6586 47.0799L67.9133 41.0551L71.0567 41.8808L70.1228 47.9941C70.9272 48.3433 71.7027 48.7366 72.4494 49.174C73.1961 49.6114 73.7977 50.0107 74.2543 50.3718C74.7193 50.7008 75.0078 50.9144 75.1199 51.0128L73.3983 54.0242C73.2625 53.8851 72.9425 53.5943 72.4384 53.1517C71.9343 52.7091 71.2971 52.2488 70.5266 51.7706C69.7883 51.301 69.0807 50.9773 68.4037 50.7994C67.4043 50.5369 66.567 50.5754 65.8919 50.915C65.2168 51.2547 64.7734 51.8275 64.5616 52.6335C64.3076 53.6007 64.4547 54.4837 65.0031 55.2825C65.5922 56.0576 66.5393 56.9785 67.8445 58.0451C68.9969 59.0371 69.9041 59.913 70.5661 60.6728C71.2366 61.4004 71.7435 62.2917 72.0867 63.3469C72.4298 64.402 72.4236 65.6066 72.0679 66.9607C71.5513 68.9273 70.5467 70.4555 69.0542 71.5454C67.6023 72.6115 65.7778 73.0628 63.5806 72.8992L61.6742 78.1884L58.5309 77.3627L59.2258 71.962Z" fill="#E7E7E7" fill-opacity="0.46"/>
<path d="M35.7324 84.3188L74.6233 94.1241" stroke="#E7E7E7" stroke-opacity="0.55" stroke-width="6" stroke-linecap="round" stroke-linejoin="round"/>
<path d="M106.311 45.7795C109.113 50.4711 110.514 52.8168 110.901 55.4481C111.287 58.0791 110.619 60.7286 109.283 66.0274L97.2825 113.624C94.201 125.846 92.6603 131.958 87.9059 134.797C83.1515 137.637 77.0405 136.096 64.8184 133.015L25.9275 123.21C13.7052 120.128 7.5941 118.587 4.7545 113.833C1.91484 109.079 3.45557 102.968 6.53704 90.7454L22.8792 25.9273C25.9607 13.705 27.5014 7.5939 32.2557 4.75429C37.0099 1.91459 43.121 3.45535 55.3433 6.53685L77.0126 12.0002C82.3115 13.3362 84.9613 14.0042 87.0946 15.5916C89.2285 17.1791 90.6294 19.5248 93.4319 24.2165L106.311 45.7795Z" stroke="#E7E7E7" stroke-opacity="0.55" stroke-width="6" stroke-linejoin="round"/>
</svg>
