<svg width="156" height="156" viewBox="0 0 156 156" fill="none" xmlns="http://www.w3.org/2000/svg">
<path d="M20.6691 44.422L142.767 67.2546M12.5146 88.0285L134.613 110.861M12.2312 65.4098C10.6249 73.9996 10.7262 82.8216 12.5293 91.3721C14.3325 99.9227 17.8021 108.034 22.7401 115.244C27.6782 122.454 33.9879 128.62 41.3091 133.391C48.6302 138.163 56.8195 141.445 65.4092 143.051C73.9989 144.658 82.8209 144.556 91.3715 142.753C99.922 140.95 108.034 137.48 115.243 132.542C122.453 127.604 128.62 121.295 133.391 113.973C138.162 106.652 141.444 98.463 143.051 89.8732C146.295 72.5255 142.514 54.5996 132.542 40.039C122.569 25.4784 107.22 15.4759 89.8726 12.2318C72.5249 8.98778 54.599 12.768 40.0384 22.7408C25.4778 32.7136 15.4752 48.0621 12.2312 65.4098Z" stroke="#E7E7E7" stroke-width="5" stroke-linecap="round" stroke-linejoin="round"/>
<path d="M86.2367 11.5519C70.324 28.8824 59.595 50.3312 55.2702 73.4582C50.9455 96.5851 53.1986 120.462 61.7733 142.371M93.5045 12.911C102.079 34.8206 104.332 58.6972 100.008 81.8241C95.6827 104.951 84.9537 126.4 69.041 143.73" stroke="#E7E7E7" stroke-width="5" stroke-linecap="round" stroke-linejoin="round"/>
</svg>
