<svg width="134" height="142" viewBox="0 0 134 142" fill="none" xmlns="http://www.w3.org/2000/svg">
<path d="M6.38196 118.523L118.711 140.272C120.366 140.592 122.081 140.242 123.478 139.298C124.875 138.354 125.84 136.894 126.16 135.239L132.604 101.957C132.925 100.301 132.574 98.5869 131.631 97.1899C130.687 95.793 129.227 94.8282 127.572 94.5078L119.251 92.8967L119.654 90.8166C120.081 88.6098 119.614 86.3237 118.356 84.4611C117.098 82.5985 115.151 81.3121 112.944 80.8849L100.463 78.4684C98.2564 78.0411 95.9703 78.508 94.1077 79.7663C92.2452 81.0246 90.9587 82.9712 90.5315 85.178L90.1287 87.2582L81.808 85.6472C80.7008 85.4394 79.558 85.5327 78.4991 85.9173L71.6988 82.1274L71.8438 81.3785C73.4775 80.7431 75.0183 80.0638 76.3995 79.4399C77.1483 79.1057 77.8577 78.7856 78.5229 78.5043C80.7688 77.5405 82.7959 76.1313 84.4816 74.3619C86.1674 72.5925 87.4768 70.4996 88.3308 68.2097L90.1536 63.3205C92.0821 63.2671 93.935 62.5583 95.4067 61.311C96.8785 60.0636 97.8814 58.352 98.2502 56.4584L101.069 41.8972C102.779 33.07 100.911 23.9255 95.8778 16.4753C90.8446 9.02506 83.0579 3.87942 74.2308 2.17035C65.4036 0.461284 56.2591 2.32878 48.8089 7.36201C41.3587 12.3952 36.213 20.1819 34.504 29.0091L31.6847 43.5703C31.3201 45.4654 31.6123 47.4281 32.5129 49.1349C33.4136 50.8417 34.869 52.1906 36.6391 52.9593L36.5058 58.1734C36.4429 60.6169 36.8763 63.0477 37.7798 65.3188C38.6833 67.59 40.038 69.6543 41.7621 71.3869C42.2701 71.8953 42.8096 72.4529 43.383 73.0474C44.4335 74.1421 45.6094 75.3474 46.8879 76.5467L46.7429 77.2955L26.4206 79.8655C13.8421 81.4637 5.08 91.8075 1.75245 108.994L1.3497 111.074C1.02925 112.729 1.3794 114.444 2.32314 115.841C3.26687 117.238 4.72687 118.202 6.38196 118.523ZM119.517 136.111L73.753 127.251C73.2013 127.144 72.7146 126.822 72.4 126.357C72.0855 125.891 71.9687 125.319 72.0756 124.768L75.3717 107.744C75.9902 108.119 76.6688 108.385 77.3778 108.529L91.939 111.348L91.5362 113.429C91.2158 115.084 91.5659 116.798 92.5096 118.195C93.4534 119.592 94.9134 120.557 96.5685 120.877L100.729 121.683C102.384 122.003 104.098 121.653 105.495 120.709C106.892 119.766 107.857 118.306 108.178 116.651L108.58 114.57L123.142 117.39C123.853 117.52 124.582 117.527 125.296 117.41L122 134.434C121.893 134.985 121.571 135.472 121.106 135.787C120.64 136.101 120.068 136.218 119.517 136.111ZM96.0993 112.154L104.42 113.765L104.017 115.845C103.91 116.397 103.589 116.883 103.123 117.198C102.658 117.513 102.086 117.629 101.534 117.522L97.374 116.717C96.8223 116.61 96.3356 116.289 96.021 115.823C95.7064 115.357 95.5897 114.786 95.6965 114.234L96.0993 112.154ZM94.6918 85.9835C94.9055 84.8801 95.5487 83.9068 96.4799 83.2776C97.4112 82.6485 98.5543 82.4151 99.6577 82.6287L112.139 85.0452C113.242 85.2588 114.215 85.902 114.845 86.8333C115.474 87.7646 115.707 88.9077 115.494 90.0111L115.091 92.0912L94.2891 88.0637L94.6918 85.9835ZM78.5196 91.4849C78.6264 90.9333 78.948 90.4466 79.4137 90.132C79.8793 89.8174 80.4508 89.7007 81.0025 89.8075L126.766 98.6681C127.318 98.7749 127.805 99.0965 128.119 99.5622C128.434 100.028 128.551 100.599 128.444 101.151L126.43 111.552C126.323 112.104 126.002 112.59 125.536 112.905C125.07 113.219 124.499 113.336 123.947 113.229L78.1833 104.369C77.6316 104.262 77.1449 103.94 76.8303 103.475C76.5157 103.009 76.399 102.438 76.5058 101.886L78.5196 91.4849ZM73.4253 6.3307C81.1449 7.8339 87.9529 12.3381 92.3555 18.8549C96.7582 25.3717 98.3958 33.3688 96.9091 41.0917L95.4798 48.4742C94.8677 47.9283 94.1789 47.475 93.4353 47.1288C93.622 45.0813 93.1509 43.0277 92.0904 41.2664C91.0299 39.5051 89.4354 38.1279 87.5385 37.335C81.8614 35.4739 76.6225 32.477 72.1406 28.5267C71.3796 27.8064 70.4291 27.318 69.4004 27.1188C68.3717 26.9196 67.3075 27.0179 66.3327 27.4022C60.6998 29.3952 54.72 30.2201 48.7578 29.8265C46.7037 29.8544 44.712 30.5361 43.0716 31.7727C41.4312 33.0094 40.2276 34.7366 39.6354 36.7036C38.8164 36.7473 38.0082 36.9108 37.2365 37.1888L38.6643 29.8146C40.1675 22.095 44.6717 15.2869 51.1885 10.8843C57.7053 6.48165 65.7025 4.84401 73.4253 6.3307ZM44.7576 68.3886C43.4394 67.0636 42.4039 65.4849 41.7137 63.7479C41.0235 62.011 40.6931 60.1521 40.7425 58.2837L40.9146 51.4757C40.9274 50.9746 40.7621 50.4852 40.4482 50.0945C40.1342 49.7038 39.6919 49.437 39.1999 49.3416C38.0965 49.128 37.1231 48.4848 36.494 47.5535C35.8648 46.6222 35.6314 45.4792 35.845 44.3758C36.0587 43.2724 36.7019 42.299 37.6332 41.6699C38.5644 41.0407 39.7075 40.8073 40.8109 41.0209C41.3626 41.1277 41.9341 41.011 42.3998 40.6965C42.8654 40.3819 43.187 39.8952 43.2938 39.3435C43.429 37.9943 44.0251 36.7329 44.9817 35.7718C45.9382 34.8107 47.1968 34.2087 48.5454 34.0671C55.102 34.4922 61.6764 33.5737 67.8655 31.3679C68.0953 31.2711 68.3486 31.2447 68.5934 31.2921C68.8382 31.3395 69.0634 31.4585 69.2405 31.6341C74.1584 35.9888 79.9134 39.2937 86.1532 41.3464C87.3523 41.9809 88.296 43.0095 88.825 44.2587C89.3541 45.5079 89.4362 46.9014 89.0576 48.2041C88.9508 48.7558 89.0675 49.3273 89.3821 49.793C89.6967 50.2586 90.1833 50.5802 90.735 50.687C91.8384 50.9006 92.8117 51.5439 93.4409 52.4751C94.0701 53.4064 94.3035 54.5495 94.0899 55.6529C93.8762 56.7563 93.233 57.7296 92.3017 58.3587C91.3705 58.9879 90.2274 59.2213 89.124 59.0077C88.6319 58.9126 88.122 58.995 87.6849 59.2403C87.2478 59.4856 86.9118 59.8779 86.7367 60.3475L84.355 66.7299C83.7032 68.4812 82.7028 70.0821 81.4143 71.4355C80.1258 72.789 78.576 73.8669 76.8588 74.6039C76.1729 74.9027 75.4432 75.2276 74.6612 75.5769C70.1414 77.6088 64.5169 80.1412 59.3289 79.1367C54.1409 78.1323 49.868 73.6836 46.4333 70.1115C45.8444 69.4968 45.2836 68.9156 44.7576 68.3886ZM67.2416 82.855C66.8143 85.0617 65.5279 87.0084 63.6654 88.2667C61.8028 89.525 59.5167 89.9919 57.3099 89.5646C55.1031 89.1374 53.1564 87.851 51.8981 85.9884C50.6398 84.1258 50.173 81.8397 50.6002 79.6329C52.9424 81.4175 55.6467 82.6681 58.5234 83.2971C61.4269 83.7873 64.4026 83.6364 67.2416 82.855ZM5.9128 109.799C8.86417 94.5559 16.3372 85.4192 26.9534 84.0691L46.2298 81.629C46.3203 84.5085 47.3872 87.2716 49.2551 89.4647C51.1231 91.6579 53.6812 93.1508 56.5095 93.6984C59.3379 94.2461 62.2683 93.8158 64.8199 92.4783C67.3714 91.1408 69.3925 88.9756 70.5512 86.338L75.0528 88.8476C74.727 89.4181 74.493 90.0363 74.3593 90.6794L67.9152 123.962C67.7846 124.674 67.7778 125.403 67.8952 126.116L7.18746 114.363C6.63577 114.256 6.1491 113.934 5.83452 113.468C5.51994 113.003 5.40323 112.431 5.51004 111.88L5.9128 109.799Z" fill="#E3E3E3" fill-opacity="0.55" stroke="#E3E3E3" stroke-opacity="0.55" stroke-width="1.5"/>
</svg>
