<svg width="137" height="137" viewBox="0 0 137 137" fill="none" xmlns="http://www.w3.org/2000/svg">
<path d="M18.1131 38.9256L125.104 58.933M10.9676 77.1366L117.958 97.144M10.7192 57.3165C9.31169 64.8434 9.40046 72.5739 10.9805 80.0665C12.5605 87.5591 15.6008 94.6671 19.9279 100.985C24.2549 107.302 29.784 112.706 36.1993 116.887C42.6146 121.067 49.7906 123.944 57.3175 125.351C64.8444 126.759 72.5748 126.67 80.0674 125.09C87.56 123.51 94.668 120.47 100.986 116.143C107.303 111.816 112.707 106.287 116.888 99.8712C121.068 93.4559 123.945 86.2799 125.352 78.753C128.195 63.5518 124.882 47.8438 116.144 35.0848C107.405 22.3258 93.9553 13.5609 78.754 10.7183C63.5527 7.87561 47.8448 11.1881 35.0858 19.9269C22.3268 28.6658 13.5619 42.1152 10.7192 57.3165Z" stroke="#E7E7E7" stroke-opacity="0.55" stroke-width="6" stroke-linecap="round" stroke-linejoin="round"/>
<path d="M75.5671 10.1226C61.6233 25.3087 52.2218 44.1037 48.4321 64.3691C44.6425 84.6345 46.6168 105.557 54.1305 124.756M81.9356 11.3135C89.4493 30.5122 91.4237 51.4345 87.634 71.6999C83.8443 91.9653 74.4428 110.76 60.499 125.946" stroke="#E7E7E7" stroke-opacity="0.55" stroke-width="6" stroke-linecap="round" stroke-linejoin="round"/>
</svg>
