<svg width="129" height="150" viewBox="0 0 129 150" fill="none" xmlns="http://www.w3.org/2000/svg">
<path d="M63.511 73.6834C62.0703 73.1326 60.9019 72.4638 60.0057 71.677C59.1503 70.8663 58.5324 70.1354 58.152 69.484C57.7802 68.8005 57.6069 68.4103 57.6324 68.3136L60.0822 66.2689C60.0653 66.3334 60.247 66.6913 60.6273 67.3427C61.0076 67.994 61.5254 68.647 62.1806 69.3016C62.8765 69.9324 63.708 70.3749 64.6752 70.6289C65.8681 70.9423 66.8674 70.8774 67.6731 70.4342C68.4788 69.991 69.0129 69.2697 69.2754 68.2703C69.5295 67.3031 69.39 66.4565 68.8569 65.7306C68.3323 64.9725 67.4734 64.1093 66.2803 63.141C65.1839 62.1982 64.3123 61.3833 63.6656 60.6965C63.0596 59.9859 62.5969 59.1234 62.2774 58.1089C61.9665 57.0622 61.9931 55.8457 62.3573 54.4594C62.8485 52.5895 63.7708 51.1775 65.1243 50.2235C66.51 49.2778 68.1165 48.8038 69.9438 48.8013L72.1985 42.7764L75.3418 43.6021L74.408 49.7155C75.2123 50.0646 75.9879 50.4579 76.7346 50.8953C77.4813 51.3327 78.0829 51.732 78.5395 52.0931C79.0045 52.4221 79.293 52.6357 79.405 52.7341L77.6834 55.7455C77.5476 55.6064 77.2277 55.3156 76.7236 54.873C76.2195 54.4304 75.5822 53.9701 74.8117 53.492C74.0735 53.0223 73.3659 52.6986 72.6888 52.5207C71.6894 52.2582 70.8521 52.2967 70.177 52.6364C69.5019 52.976 69.0585 53.5488 68.8468 54.3548C68.5927 55.322 68.7399 56.205 69.2882 57.0039C69.8773 57.779 70.8244 58.6998 72.1296 59.7664C73.2821 60.7584 74.1893 61.6343 74.8513 62.3941C75.5218 63.1217 76.0286 64.013 76.3718 65.0682C76.715 66.1233 76.7087 67.3279 76.353 68.682C75.8364 70.6486 74.8319 72.1769 73.3393 73.2667C71.8875 74.3329 70.063 74.7841 67.8658 74.6205L65.9594 79.9097L62.816 79.084L63.511 73.6834Z" fill="#E7E7E7"/>
<path d="M38.1641 90.0604L79.7032 100.533" stroke="#E7E7E7" stroke-width="5" stroke-linecap="round" stroke-linejoin="round"/>
<path d="M113.549 48.8968C116.542 53.9079 118.039 56.4134 118.451 59.2238C118.864 62.034 118.15 64.8638 116.723 70.5235L103.906 121.362C100.614 134.416 98.9688 140.943 93.8907 143.976C88.8125 147.009 82.2854 145.364 69.231 142.072L27.6919 131.599C14.6374 128.308 8.11011 126.662 5.07715 121.584C2.04412 116.506 3.68977 109.979 6.98107 96.9246L24.436 27.6928C27.7273 14.6383 29.373 8.111 34.451 5.07803C39.529 2.04497 46.0562 3.69063 59.1107 6.98197L82.2556 12.8173C87.9153 14.2443 90.7455 14.9578 93.0241 16.6533C95.3033 18.3489 96.7996 20.8544 99.7929 25.8655L113.549 48.8968Z" stroke="#E7E7E7" stroke-width="5" stroke-linejoin="round"/>
</svg>
