<svg width="134" height="134" viewBox="0 0 134 134" fill="none" xmlns="http://www.w3.org/2000/svg">
<path d="M56.2982 71.5787C40.5992 68.848 25.5791 79.4169 22.8484 95.116L20.6456 107.78C19.7397 112.988 23.2833 118.024 28.4913 118.93L85.4784 128.842C90.6864 129.748 95.7224 126.205 96.6283 120.997L98.8311 108.333C101.562 92.6338 90.993 77.6137 75.2939 74.883L56.2982 71.5787ZM55.1968 77.9106L74.1925 81.2149C86.4695 83.3504 94.6348 94.9544 92.4992 107.231L90.2964 119.895C89.9858 121.681 88.3658 122.821 86.5798 122.51L29.5927 112.598C27.8067 112.287 26.6668 110.667 26.9775 108.881L29.1803 96.2174C31.3158 83.9404 42.9198 75.7751 55.1968 77.9106Z" fill="#E7E7E7" fill-opacity="0.55"/>
<path d="M74.609 22.5763C63.8133 20.6984 53.8313 29.5169 51.7584 41.4337C49.6855 53.3506 56.1034 65.0217 66.8992 66.8996C77.6949 68.7775 87.6769 59.959 89.7498 48.0422C91.8226 36.1253 85.4047 24.4542 74.609 22.5763ZM73.5076 28.9082C80.1969 30.0718 84.9947 37.8756 83.4179 46.9408C81.841 56.0059 74.6899 61.7313 68.0006 60.5677C61.3112 59.4041 56.5134 51.6003 58.0903 42.5351C59.6671 33.47 66.8183 27.7446 73.5076 28.9082Z" fill="#E7E7E7" fill-opacity="0.55"/>
<path d="M39.5072 55.611C23.8082 52.8802 8.78813 63.4492 6.05736 79.1482L3.85455 91.812C2.94865 97.02 6.49229 102.056 11.7003 102.962L24.3641 105.165C25.2038 105.311 26.067 105.117 26.7641 104.627C27.4611 104.136 27.9347 103.389 28.0807 102.55C28.2268 101.71 28.0333 100.847 27.5429 100.15C27.0524 99.4525 26.3052 98.9789 25.4655 98.8329L12.8017 96.6301C11.0157 96.3194 9.87578 94.6994 10.1865 92.9134L12.3893 80.2496C14.5248 67.9726 26.1288 59.8073 38.4058 61.9429L44.7377 63.0443C45.5774 63.1903 46.4407 62.9969 47.1377 62.5064C47.8347 62.0159 48.3083 61.2687 48.4544 60.429C48.6004 59.5894 48.4069 58.7261 47.9165 58.0291C47.426 57.3321 46.6788 56.8584 45.8391 56.7124L39.5072 55.611Z" fill="#E7E7E7" fill-opacity="0.55"/>
<path d="M57.8101 6.60792C47.0144 4.73006 37.0324 13.5485 34.9595 25.4654C32.8867 37.3822 39.3046 49.0533 50.1003 50.9312C50.1086 50.9327 50.1168 50.9341 50.1251 50.9355C51.7691 51.2052 53.4476 51.2254 55.1085 50.9997C55.9274 50.8885 56.6721 50.4662 57.1878 49.8204C57.7035 49.1745 57.9506 48.3548 57.8777 47.5316C57.7311 45.8825 57.8034 44.1902 58.0865 42.5224C59.4037 35.0452 64.7564 29.5807 70.4497 28.8739C71.2742 28.7715 72.027 28.3538 72.5502 27.7084C73.0735 27.063 73.3264 26.2401 73.256 25.4122C72.4524 15.9566 66.3629 8.09337 57.8101 6.60792ZM56.7087 12.9398C61.4837 13.7691 65.0789 18.2489 66.2246 24.3038C59.0394 26.8787 53.2305 33.0107 51.7524 41.4334C51.7517 41.4375 51.751 41.4416 51.7503 41.4457C51.5731 42.4898 51.6728 43.5435 51.6228 44.5961C51.4841 44.5795 51.3396 44.6216 51.2017 44.5993C44.5124 43.4357 39.7146 35.6319 41.2914 26.5668C42.8683 17.5016 50.0194 11.7762 56.7087 12.9398Z" fill="#E7E7E7" fill-opacity="0.55"/>
<path d="M90.1581 64.422C89.3185 64.276 88.4552 64.4695 87.7582 64.9599C87.0612 65.4504 86.5875 66.1976 86.4415 67.0373C86.2954 67.8769 86.4889 68.7402 86.9794 69.4372C87.4698 70.1343 88.2171 70.6079 89.0567 70.7539L95.3886 71.8553C107.666 73.9909 115.831 85.5949 113.695 97.8719L111.493 110.536C111.182 112.322 109.562 113.462 107.776 113.151L95.1121 110.948C94.2724 110.802 93.4092 110.996 92.7121 111.486C92.0151 111.976 91.5415 112.724 91.3955 113.563C91.2494 114.403 91.4429 115.266 91.9333 115.963C92.4238 116.66 93.171 117.134 94.0107 117.28L106.675 119.483C111.883 120.389 116.919 116.845 117.824 111.637L120.027 98.9733C122.758 83.2743 112.189 68.2542 96.49 65.5234L90.1581 64.422Z" fill="#E7E7E7" fill-opacity="0.55"/>
<path d="M95.792 13.2144C87.2603 11.7485 78.9056 17.0828 74.9574 25.6824C74.6116 26.4379 74.5718 27.2979 74.8464 28.082C75.1209 28.8662 75.6885 29.5136 76.43 29.8883C81.546 32.4922 84.717 39.458 83.4147 46.9406C83.118 48.6017 82.615 50.2147 81.9219 51.7137C81.5753 52.4639 81.5311 53.3189 81.7984 54.101C82.0658 54.883 82.6241 55.532 83.3575 55.9131C84.8446 56.6864 86.4313 57.2342 88.0698 57.5355C88.078 57.537 88.0863 57.5384 88.0945 57.5398C98.8903 59.4177 108.872 50.5992 110.945 38.6824C113.018 26.7655 106.6 15.0944 95.8044 13.2165C95.8001 13.2158 95.7962 13.2151 95.792 13.2144ZM94.703 19.5484L94.7156 19.5506C101.399 20.7209 106.189 28.5208 104.613 37.581C103.036 46.6462 95.8853 52.3715 89.1959 51.2079C89.0586 51.1823 88.9369 51.0939 88.8007 51.0627C89.1091 50.0551 89.5587 49.097 89.7445 48.0543C89.7452 48.0502 89.7459 48.0461 89.7466 48.042C91.2118 39.623 87.8247 31.8906 81.948 27.0258C85.0643 21.7323 89.9416 18.736 94.703 19.5484Z" fill="#E7E7E7" fill-opacity="0.55"/>
</svg>
