<svg width="102" height="141" viewBox="0 0 102 141" fill="none" xmlns="http://www.w3.org/2000/svg">
<g id="Passport">
<path id="Vector" d="M72.4182 137.587L9.93915 127.242C5.62575 126.528 2.70819 122.453 3.42236 118.139L17.6464 32.2307C18.3605 27.9173 22.4359 24.9997 26.7493 25.7139L89.2284 36.0586C93.5418 36.7728 96.4594 40.8482 95.7452 45.1616L81.5212 131.07C80.807 135.384 76.7316 138.301 72.4182 137.587Z" stroke="#E7E7E7" stroke-opacity="0.55" stroke-width="6" stroke-miterlimit="10" stroke-linecap="round" stroke-linejoin="round"/>
<path id="Vector_2" d="M46.3508 101.175C59.2906 103.317 71.5172 94.5642 73.6597 81.6244C75.8022 68.6845 67.0492 56.4579 54.1093 54.3154C41.1695 52.173 28.9429 60.926 26.8004 73.8658C24.658 86.8056 33.411 99.0323 46.3508 101.175Z" stroke="#E7E7E7" stroke-opacity="0.55" stroke-width="6" stroke-miterlimit="10" stroke-linecap="round" stroke-linejoin="round"/>
<path id="Vector_3" d="M46.3521 101.175C50.6654 101.889 55.8988 91.9786 58.0413 79.0388C60.1837 66.0989 58.4239 55.0302 54.1107 54.316C49.7974 53.6019 44.564 63.5128 42.4215 76.4526C40.279 89.3924 42.0388 100.461 46.3521 101.175Z" stroke="#E7E7E7" stroke-opacity="0.55" stroke-width="6" stroke-miterlimit="10" stroke-linecap="round" stroke-linejoin="round"/>
<path id="Vector_4" d="M26.8008 73.8661L73.6601 81.6246" stroke="#E7E7E7" stroke-opacity="0.55" stroke-width="6" stroke-miterlimit="10" stroke-linecap="round" stroke-linejoin="round"/>
<path id="Vector_5" d="M28.1465 114.209L59.386 119.381" stroke="#E7E7E7" stroke-opacity="0.55" stroke-width="6" stroke-miterlimit="10" stroke-linecap="round" stroke-linejoin="round"/>
<path id="Vector_6" d="M23.1253 25.9566L73.95 9.76488C75.0866 9.41385 76.3203 9.31454 77.5738 9.52208C81.8872 10.2363 84.8047 14.3117 84.0906 18.6251L81.4182 34.7655" stroke="#E7E7E7" stroke-opacity="0.55" stroke-width="6" stroke-miterlimit="10" stroke-linecap="round" stroke-linejoin="round"/>
</g>
</svg>
