<svg width="155" height="151" viewBox="0 0 155 151" fill="none" xmlns="http://www.w3.org/2000/svg">
<path d="M135.208 31.239C134.058 30.8792 132.833 31.5203 132.474 32.6708L101.978 130.192C101.877 130.515 101.853 130.857 101.907 131.192L104.01 144.173C104.142 144.989 104.724 145.661 105.513 145.908C106.302 146.154 107.163 145.934 107.737 145.339L116.861 135.868C117.096 135.624 117.271 135.329 117.372 135.005L147.867 37.4844C148.227 36.334 147.586 35.1095 146.435 34.7497L135.208 31.239ZM113.359 133.21L107.622 139.166L106.299 131.002L135.989 36.0569L143.049 38.2648L113.359 133.21Z" fill="#E7E7E7"/>
<path d="M146.022 50.9507L135.63 84.1845C135.27 85.335 135.911 86.5594 137.062 86.9192C138.212 87.2789 139.437 86.6378 139.797 85.4874L150.189 52.2536C150.549 51.1031 149.908 49.8786 148.757 49.5189C147.607 49.1591 146.382 49.8002 146.022 50.9507Z" fill="#E7E7E7"/>
<path d="M87.4643 81.0976L34.7219 64.6048C33.5715 64.2451 32.3469 64.8865 31.9871 66.037C31.6274 67.1874 32.2686 68.4115 33.419 68.7713L86.1614 85.2641C87.3119 85.6238 88.5362 84.9831 88.896 83.8327C89.2557 82.6822 88.6148 81.4574 87.4643 81.0976Z" fill="#E7E7E7"/>
<path d="M77.8256 111.923L25.0832 95.4306C23.9328 95.0709 22.7083 95.712 22.3486 96.8624C21.9888 98.0129 22.6299 99.2373 23.7804 99.5971L76.5227 116.09C77.6732 116.45 78.8977 115.809 79.2574 114.658C79.6172 113.508 78.9761 112.283 77.8256 111.923Z" fill="#E7E7E7"/>
<path d="M91.6479 67.7172L38.9055 51.2244C37.755 50.8647 36.5306 51.5058 36.1708 52.6562C35.8111 53.8067 36.4522 55.0312 37.6026 55.3909L90.345 71.8837C91.4955 72.2435 92.7199 71.6024 93.0797 70.4519C93.4395 69.3015 92.7984 68.077 91.6479 67.7172Z" fill="#E7E7E7"/>
<path d="M41.7882 42.0116L73.0989 51.8027C74.2493 52.1624 75.4739 51.5209 75.8337 50.3705C76.1934 49.22 75.5522 47.9959 74.4018 47.6362L43.0911 37.8452C41.9406 37.4854 40.7162 38.1261 40.3565 39.2766C39.9967 40.427 40.6377 41.6519 41.7882 42.0116Z" fill="#E7E7E7"/>
<path d="M45.9718 28.6318L77.2825 38.4228C78.4329 38.7825 79.6573 38.1418 80.017 36.9913C80.3768 35.8409 79.7358 34.616 78.5853 34.2563L47.2746 24.4653C46.1242 24.1055 44.8996 24.747 44.5398 25.8975C44.1801 27.0479 44.8213 28.272 45.9718 28.6318Z" fill="#E7E7E7"/>
<path d="M2.12917 113.396L86.456 139.765C87.6034 140.124 88.8244 139.485 89.1832 138.337L114.426 57.6131C114.427 57.6101 114.427 57.6073 114.428 57.6047C114.449 57.5376 114.466 57.4699 114.48 57.4027C114.491 57.3505 114.498 57.2982 114.505 57.2459C114.507 57.2279 114.511 57.21 114.513 57.192C114.52 57.13 114.523 57.067 114.524 57.0046C114.524 56.9963 114.525 56.9883 114.525 56.9796C114.525 56.9173 114.522 56.8544 114.517 56.7919C114.517 56.7837 114.517 56.7754 114.516 56.7674C114.511 56.7084 114.502 56.6504 114.492 56.5926C114.489 56.5807 114.489 56.5681 114.486 56.5561C114.476 56.5035 114.463 56.4514 114.449 56.3993C114.444 56.3825 114.441 56.3649 114.436 56.3484C114.422 56.3012 114.405 56.2546 114.387 56.2081C114.38 56.1879 114.374 56.1668 114.366 56.1465C114.344 56.0917 114.318 56.038 114.291 55.9846C114.286 55.9742 114.282 55.964 114.277 55.954L95.2376 19.591C95.2046 19.5279 95.1683 19.4671 95.1298 19.4081C95.1196 19.3928 95.1079 19.3784 95.0976 19.3635C95.0676 19.32 95.0372 19.2765 95.0045 19.2359C94.9949 19.2242 94.9839 19.2128 94.9739 19.201C94.9382 19.1582 94.9016 19.116 94.8629 19.0761C94.856 19.069 94.8476 19.0626 94.8407 19.0554C94.7973 19.0123 94.7531 18.9703 94.7062 18.9315C94.7009 18.927 94.6955 18.9232 94.6905 18.9191C94.6409 18.8783 94.5895 18.8393 94.5369 18.8029C94.5307 18.7989 94.5246 18.7958 94.5184 18.7917C94.4659 18.7562 94.4116 18.7226 94.3556 18.6918C94.3402 18.6837 94.3233 18.6767 94.308 18.6686C94.2603 18.6441 94.2128 18.6193 94.1636 18.5985C94.0974 18.5699 94.0292 18.5448 93.9595 18.5231L37.3334 0.815802C36.1859 0.457373 34.9649 1.09665 34.6061 2.24408L0.701268 110.668C0.34246 111.816 0.981737 113.037 2.12917 113.396ZM107.983 53.3185L87.3755 46.8769L93.819 26.2671L107.983 53.3185ZM38.1114 5.62135L90.5824 22.0293L82.5706 47.6555C82.3982 48.2067 82.4518 48.8036 82.7195 49.315C82.9874 49.826 83.4478 50.2102 83.9986 50.3824L109.622 58.3915L85.6781 134.96L5.50605 109.89L38.1114 5.62135Z" fill="#E7E7E7"/>
</svg>
