<svg width="154" height="161" viewBox="0 0 154 161" fill="none" xmlns="http://www.w3.org/2000/svg">
<path d="M29.072 44.5301L135.767 84.8902" stroke="#E7E7E7" stroke-width="5" stroke-linecap="round" stroke-linejoin="round"/>
<path d="M100.147 98.1399L100.202 98.1609" stroke="#E7E7E7" stroke-width="5" stroke-linecap="round" stroke-linejoin="round"/>
<path d="M73.5845 88.0923L73.64 88.1133" stroke="#E7E7E7" stroke-width="5" stroke-linecap="round" stroke-linejoin="round"/>
<path d="M46.9634 78.0217L47.0189 78.0427" stroke="#E7E7E7" stroke-width="5" stroke-linecap="round" stroke-linejoin="round"/>
<path d="M91.3463 121.404L91.4017 121.425" stroke="#E7E7E7" stroke-width="5" stroke-linecap="round" stroke-linejoin="round"/>
<path d="M64.7838 111.357L64.8392 111.378" stroke="#E7E7E7" stroke-width="5" stroke-linecap="round" stroke-linejoin="round"/>
<path d="M38.1627 101.286L38.2181 101.307" stroke="#E7E7E7" stroke-width="5" stroke-linecap="round" stroke-linejoin="round"/>
<path d="M123.365 29.5351L115.913 49.2338" stroke="#E7E7E7" stroke-width="5" stroke-linecap="round" stroke-linejoin="round"/>
<path d="M75.0091 11.243L67.5575 30.9417" stroke="#E7E7E7" stroke-width="5" stroke-linecap="round" stroke-linejoin="round"/>
<path fill-rule="evenodd" clip-rule="evenodd" d="M120.956 39.4298L70.2701 20.2566C52.691 13.6069 38.0066 19.2461 31.1974 37.2467L10.7056 91.4181C3.78935 109.702 10.9794 123.874 28.5585 130.524L79.1886 149.676C96.8231 156.347 111.473 150.63 118.283 132.63L138.946 78.0053C145.81 60.0258 138.59 46.1005 120.956 39.4298Z" stroke="#E7E7E7" stroke-width="5" stroke-linecap="round" stroke-linejoin="round"/>
</svg>
