<svg width="131" height="144" viewBox="0 0 131 144" fill="none" xmlns="http://www.w3.org/2000/svg">
<path d="M124.251 49.3528C124.206 48.8767 124.047 48.4184 123.788 48.0163L104.588 18.0501C104.477 17.8776 104.35 17.7162 104.208 17.5684C103.772 17.1253 103.218 16.8152 102.613 16.6741L49.3495 5.01076C47.4481 4.59681 45.4601 4.9539 43.8217 6.00371C42.1832 7.05353 41.028 8.71034 40.6094 10.6108L38.5907 19.8294L30.0481 17.9588C28.1467 17.5448 26.1587 17.9019 24.5202 18.9517C22.8818 20.0015 21.7266 21.6584 21.308 23.5588L1.56999 113.697C1.15603 115.598 1.51312 117.586 2.56294 119.225C3.61275 120.863 5.26957 122.018 7.16998 122.437L80.2431 138.438C82.1445 138.852 84.1325 138.495 85.771 137.445C87.4095 136.395 88.5647 134.738 88.9832 132.838L91.0019 123.619L100.221 125.638C102.122 126.052 104.11 125.695 105.748 124.645C107.387 123.595 108.542 121.938 108.961 120.038L124.213 50.3861C124.29 50.0471 124.303 49.6966 124.251 49.3528ZM103.388 27.838L114.395 45.0159L101.327 42.1544C101.056 42.0944 100.819 41.9293 100.669 41.6953C100.519 41.4613 100.468 41.1774 100.527 40.9058L103.388 27.838ZM82.8375 131.492C82.7775 131.764 82.6124 132 82.3784 132.15C82.1444 132.3 81.8605 132.351 81.5889 132.292L8.51575 116.291C8.24437 116.231 8.00783 116.066 7.85789 115.832C7.70795 115.598 7.65684 115.314 7.71575 115.042L27.4538 24.9045C27.5138 24.6332 27.6788 24.3966 27.9128 24.2467C28.1469 24.0967 28.4307 24.0456 28.7024 24.1045L37.245 25.9752L20.8714 100.749C20.4574 102.65 20.8145 104.638 21.8643 106.277C22.9141 107.915 24.571 109.07 26.4714 109.489L84.8561 122.274L82.8375 131.492ZM101.566 119.492L27.8172 103.343C27.5458 103.283 27.3092 103.118 27.1593 102.884C27.0094 102.65 26.9582 102.366 27.0172 102.094L46.7552 11.9565C46.8152 11.6852 46.9802 11.4486 47.2142 11.2987C47.4483 11.1487 47.7321 11.0976 48.0038 11.1565L98.1942 22.147L94.3811 39.56C93.9672 41.4614 94.3243 43.4494 95.3741 45.0879C96.4239 46.7264 98.0807 47.8816 99.9811 48.3001L117.394 52.1132L102.815 118.692C102.755 118.964 102.59 119.2 102.356 119.35C102.122 119.5 101.838 119.551 101.566 119.492Z" fill="#E7E7E7" fill-opacity="0.55"/>
<path d="M102.511 59.5882L53.3447 48.8221C52.5349 48.6571 51.6927 48.8174 51.0001 49.2683C50.3076 49.7193 49.8203 50.4246 49.6435 51.2319C49.4667 52.0392 49.6147 52.8836 50.0555 53.5827C50.4963 54.2817 51.1944 54.7793 51.999 54.9678L101.165 65.734C101.975 65.899 102.817 65.7387 103.51 65.2878C104.202 64.8369 104.689 64.1315 104.866 63.3243C105.043 62.517 104.895 61.6725 104.454 60.9734C104.014 60.2744 103.315 59.7768 102.511 59.5882Z" fill="#E7E7E7" fill-opacity="0.55"/>
<path d="M98.4737 78.0255L49.3076 67.2593C48.4978 67.0944 47.6556 67.2547 46.963 67.7056C46.2705 68.1565 45.7832 68.8618 45.6064 69.6691C45.4296 70.4764 45.5776 71.3209 46.0184 72.0199C46.4592 72.719 47.1573 73.2166 47.9619 73.4051L97.1279 84.1713C97.9377 84.3362 98.7799 84.1759 99.4724 83.725C100.165 83.2741 100.652 82.5688 100.829 81.7615C101.006 80.9542 100.858 80.1098 100.417 79.4107C99.9764 78.7116 99.2783 78.214 98.4737 78.0255Z" fill="#E7E7E7" fill-opacity="0.55"/>
<path d="M94.4366 96.4628L45.2704 85.6966C44.4607 85.5316 43.6185 85.6919 42.9259 86.1428C42.2334 86.5938 41.746 87.2991 41.5693 88.1064C41.3925 88.9137 41.5405 89.7581 41.9813 90.4572C42.422 91.1563 43.1202 91.6538 43.9248 91.8424L93.0908 102.609C93.9006 102.773 94.7428 102.613 95.4353 102.162C96.1279 101.711 96.6152 101.006 96.792 100.199C96.9688 99.3915 96.8208 98.547 96.3801 97.848C95.9393 97.1489 95.2412 96.6513 94.4366 96.4628Z" fill="#E7E7E7" fill-opacity="0.55"/>
</svg>
