<svg width="25" height="24" viewBox="0 0 25 24" fill="none" xmlns="http://www.w3.org/2000/svg">
<path fill-rule="evenodd" clip-rule="evenodd" d="M5.67535 23.1875V7.54216H0.316781V23.1874H5.67535V23.1875ZM2.99663 5.40684C4.86469 5.40684 6.02834 4.20446 6.02834 2.70314C5.99302 1.16844 4.86469 0 3.03166 0C1.19834 4.74726e-05 0 1.16849 0 2.70318C0 4.2045 1.16302 5.40689 2.96136 5.40689L2.99663 5.40684ZM8.64111 23.1875C8.64111 23.1875 8.71142 9.0101 8.64111 7.5422H14.0005V9.81111H13.9649C14.6696 8.74345 15.9392 7.17481 18.8299 7.17481C22.3566 7.17481 25 9.41091 25 14.2166V23.1875H19.6415V14.8177C19.6415 12.7146 18.8661 11.2795 16.9264 11.2795C15.4462 11.2795 14.5641 12.247 14.1767 13.1822C14.035 13.5151 14.0005 13.9827 14.0005 14.4503V23.1875H8.64111Z" fill="#D3D3D3"/>
</svg>
