<svg width="42" height="50" viewBox="0 0 42 50" fill="none" xmlns="http://www.w3.org/2000/svg">
<path d="M21 25C22.4438 25 23.6801 24.51 24.7091 23.53C25.7381 22.55 26.2518 21.3733 26.25 20C26.25 18.625 25.7355 17.4475 24.7065 16.4675C23.6775 15.4875 22.442 14.9983 21 15C19.5562 15 18.3199 15.49 17.2909 16.47C16.2619 17.45 15.7483 18.6267 15.75 20C15.75 21.375 16.2645 22.5525 17.2935 23.5325C18.3225 24.5125 19.558 25.0017 21 25ZM21 50C13.9563 44.2917 8.69575 38.99 5.2185 34.095C1.74125 29.2 0.00175 24.6683 0 20.5C0 14.25 2.11138 9.27083 6.33413 5.5625C10.5569 1.85417 15.4455 0 21 0C26.5562 0 31.4457 1.85417 35.6685 5.5625C39.8912 9.27083 42.0018 14.25 42 20.5C42 24.6667 40.2605 29.1983 36.7815 34.095C33.3025 38.9917 28.042 44.2933 21 50Z" fill="#051A3C"/>
</svg>
