<svg width="215" height="231" viewBox="0 0 215 231" fill="none" xmlns="http://www.w3.org/2000/svg">
<path d="M187.056 51.5317L131.874 25.0238L127.6 22.9707L123.127 24.5406L61.2834 46.2487L56.8105 47.8185L54.7574 52.0925L13.3845 138.219C6.00462 153.582 12.4976 172.085 27.8628 179.466L107.274 217.613C122.637 224.993 141.139 218.497 148.519 203.134L201.531 92.7774C208.912 77.4126 202.418 58.9115 187.056 51.5317ZM138.203 198.178C133.547 207.869 121.919 211.951 112.23 207.297L32.8187 169.149C23.1273 164.494 19.046 152.866 23.7015 143.175L65.0744 57.0481L92.2303 70.0931C100.302 73.9705 109.994 70.5704 113.873 62.4963L126.918 35.3403L182.1 61.8482C191.789 66.5027 195.87 78.1302 191.215 87.8216L138.203 198.178Z" fill="#E7E7E7"/>
<path d="M168.777 79.948L139.786 66.0217L125.86 95.0123L154.85 108.939L168.777 79.948Z" fill="#E7E7E7"/>
<path d="M147.053 125.173L75.1562 90.6364L71.2569 98.7536L143.153 133.291L147.053 125.173Z" fill="#E7E7E7"/>
<path d="M135.912 148.366L64.0156 113.829L60.1163 121.946L132.013 156.483L135.912 148.366Z" fill="#E7E7E7"/>
<path d="M124.77 171.558L52.874 137.021L48.9747 145.138L120.871 179.675L124.77 171.558Z" fill="#E7E7E7"/>
</svg>
