<svg width="195" height="196" viewBox="0 0 195 196" fill="none" xmlns="http://www.w3.org/2000/svg">
<path fill-rule="evenodd" clip-rule="evenodd" d="M111.303 0.726083C113.344 -0.0861534 115.631 -0.0570759 117.66 0.807051L178.872 26.8723C191.55 32.2707 197.486 46.8406 192.131 59.4154L140.423 180.848C135.068 193.423 120.451 199.241 107.773 193.842L15.955 154.745C3.27762 149.346 -2.65888 134.777 2.69585 122.202L41.4772 31.1269C42.3343 29.114 43.9625 27.5269 46.0034 26.7145L111.303 0.726083ZM172.408 42.0514L118.848 19.2443L102.689 57.1921C100.904 61.3837 96.0318 63.323 91.8058 61.5235L53.5484 45.2327L17.9988 128.718C16.2139 132.91 18.1928 137.766 22.4185 139.566L114.236 178.663C118.462 180.463 123.335 178.524 125.12 174.332L176.828 52.8991C178.613 48.7075 176.634 43.8508 172.408 42.0514ZM70.8327 34.6613L90.6179 43.0862L98.9746 23.4612L70.8327 34.6613ZM55.9243 82.1073C57.7092 77.9156 62.5818 75.9765 66.8075 77.7759L128.019 103.841C132.245 105.641 134.224 110.497 132.439 114.689C130.654 118.88 125.782 120.82 121.556 119.02L60.344 92.955C56.1182 91.1556 54.1393 86.299 55.9243 82.1073ZM42.9971 112.465C44.7821 108.274 49.6547 106.335 53.8804 108.134L115.092 134.199C119.318 135.999 121.297 140.855 119.512 145.047C117.727 149.239 112.855 151.178 108.629 149.378L47.4169 123.313C43.1911 121.514 41.2122 116.657 42.9971 112.465Z" fill="#E3E3E3" fill-opacity="0.87"/>
</svg>
