<svg width="47" height="47" viewBox="0 0 47 47" fill="none" xmlns="http://www.w3.org/2000/svg">
<path d="M23.5 0C10.5418 0 0 10.5418 0 23.5C0 36.4582 10.5418 47 23.5 47C36.4582 47 47 36.4582 47 23.5C47 10.5418 36.4554 0 23.5 0ZM2.83382 24.8824H10.9538C11.0754 27.7134 11.5371 30.4975 12.3721 33.1765H5.17553C3.84571 30.6716 3.03012 27.8599 2.83382 24.8824ZM10.9538 22.1176H2.83382C3.03012 19.1401 3.84571 16.3284 5.17553 13.8235H12.3638C11.5316 16.5025 11.0726 19.2866 10.9538 22.1176ZM15.2916 13.8235H31.5923C32.5046 16.4915 33.0355 19.2755 33.1654 22.1176H13.7185C13.8456 19.2755 14.3792 16.4915 15.2916 13.8235ZM13.7185 24.8824H33.1682C33.0327 27.7245 32.5019 30.5085 31.5868 33.1765H15.2999C14.3848 30.5085 13.8512 27.7245 13.7185 24.8824ZM35.9329 24.8824H44.1662C43.9699 27.8599 43.1543 30.6716 41.8245 33.1765H34.5146C35.3495 30.4975 35.8112 27.7134 35.9329 24.8824ZM35.9329 22.1176C35.814 19.2866 35.3551 16.5025 34.5229 13.8235H41.8245C43.1515 16.3284 43.9671 19.1401 44.1662 22.1176H35.9329ZM40.0495 11.0588H33.5414C32.4576 8.41853 31.0089 5.922 29.2561 3.59412C33.6188 4.85759 37.3788 7.52 40.0495 11.0588ZM25.0427 2.84212C27.3208 5.32206 29.1455 8.09506 30.4947 11.0588H16.3892C17.7356 8.09782 19.5575 5.32759 21.8356 2.84765C22.3858 2.80618 22.936 2.76471 23.5 2.76471C24.0198 2.76471 24.5312 2.80618 25.0427 2.84212ZM17.6029 3.63006C15.8639 5.94688 14.4207 8.43235 13.3452 11.0588H6.94771C9.588 7.55594 13.2982 4.91012 17.6029 3.63006ZM6.94771 35.9412H13.3535C14.4345 38.5704 15.8832 41.0586 17.6305 43.3755C13.3148 42.1009 9.59353 39.4524 6.94771 35.9412ZM21.8688 44.1524C19.5852 41.6724 17.7549 38.9022 16.4002 35.9412H30.4836C29.1289 38.9049 27.2987 41.6779 25.0123 44.1579C24.5119 44.1938 24.0087 44.2353 23.5 44.2353C22.9471 44.2353 22.4079 44.1938 21.8688 44.1524ZM29.2257 43.4142C30.9841 41.0863 32.4438 38.5842 33.5304 35.9412H40.0495C37.3733 39.4883 33.6022 42.1535 29.2257 43.4142Z" fill="white"/>
</svg>
