<svg width="46" height="41" viewBox="0 0 46 41" fill="none" xmlns="http://www.w3.org/2000/svg">
<path d="M28.1875 20.1622V23.8421L31.2754 21.8405L43.7739 13.7386C43.811 13.7146 43.8288 13.7144 43.8351 13.7143L43.8355 13.7143C43.8485 13.7141 43.8737 13.7177 43.9046 13.735C43.9356 13.7523 43.9593 13.7762 43.9739 13.8003C43.9853 13.8191 44 13.8511 44 13.9134V38.8036C44 38.947 43.8954 39 43.8438 39H2.15625C2.10459 39 2 38.947 2 38.8036V2.19643C2 2.05296 2.10459 2 2.15625 2H12.2188C12.2704 2 12.375 2.05296 12.375 2.19643V20.1622V23.8421L15.4629 21.8405L27.9614 13.7386C27.9614 13.7386 27.9615 13.7386 27.9615 13.7386C27.9985 13.7146 28.0163 13.7144 28.0225 13.7143L28.0229 13.7143C28.036 13.7141 28.0611 13.7177 28.0921 13.735C28.1231 13.7523 28.1468 13.7762 28.1614 13.8004C28.1728 13.8191 28.1875 13.8512 28.1875 13.9134V20.1622Z" stroke="white" stroke-width="4"/>
</svg>
