<svg width="188" height="200" viewBox="0 0 188 200" fill="none" xmlns="http://www.w3.org/2000/svg">
<path d="M143.334 65.4334C136.497 78.7816 120.134 84.0603 106.786 77.2232C93.4369 70.3862 88.1588 54.023 94.9957 40.6748C101.833 27.3266 118.196 22.0478 131.544 28.8849C144.893 35.722 150.171 52.0852 143.334 65.4334Z" stroke="#E3E3E3" stroke-opacity="0.87" stroke-width="16"/>
<path d="M11.1899 124.874C26.0034 95.9521 61.457 84.5158 90.3782 99.3291L98.4346 103.455C127.356 118.269 138.793 153.722 123.979 182.644L121.916 186.672C119.637 191.122 114.183 192.881 109.733 190.602L13.0566 141.085C8.60722 138.806 6.84762 133.351 9.12665 128.902L11.1899 124.874Z" stroke="#E3E3E3" stroke-opacity="0.87" stroke-width="16"/>
</svg>
