<svg width="29" height="27" viewBox="0 0 29 27" fill="none" xmlns="http://www.w3.org/2000/svg">
<path d="M4.37139 6.47274L11.9769 11.7495C13.4862 12.7966 15.5138 12.7966 17.0231 11.7495L24.6286 6.47274M2.5071 17.5266C1.83097 14.8824 1.83097 12.1176 2.5071 9.4734C3.39217 6.01201 6.21844 3.33571 9.80337 2.56429L10.4006 2.43578C13.1008 1.85474 15.8992 1.85474 18.5994 2.43578L19.1966 2.56429C22.7816 3.33571 25.6078 6.01202 26.4929 9.47341C27.169 12.1176 27.169 14.8824 26.4929 17.5266C25.6078 20.988 22.7816 23.6643 19.1966 24.4357L18.5994 24.5642C15.8992 25.1453 13.1008 25.1453 10.4006 24.5642L9.80336 24.4357C6.21844 23.6643 3.39217 20.988 2.5071 17.5266Z" stroke="white" stroke-width="3" stroke-linecap="round"/>
</svg>
