<svg width="23" height="23" viewBox="0 0 23 23" fill="none" xmlns="http://www.w3.org/2000/svg">
<path d="M21.735 15.8189C20.1633 15.8189 18.6428 15.5633 17.2244 15.1033C16.7772 14.95 16.2789 15.065 15.9339 15.41L13.9278 17.9272C10.3117 16.2022 6.92556 12.9439 5.12389 9.2L7.61556 7.07889C7.96056 6.72111 8.06278 6.22278 7.92222 5.77556C7.44944 4.35722 7.20667 2.83667 7.20667 1.265C7.20667 0.575 6.63167 0 5.94167 0H1.52056C0.830556 0 0 0.306667 0 1.265C0 13.1356 9.87722 23 21.735 23C22.6422 23 23 22.195 23 21.4922V17.0839C23 16.3939 22.425 15.8189 21.735 15.8189Z" fill="white"/>
</svg>
