<svg width="22" height="24" viewBox="0 0 22 24" fill="none" xmlns="http://www.w3.org/2000/svg">
<path d="M20.79 16.4341C19.2867 16.4341 17.8322 16.1786 16.4756 15.7186C16.0478 15.5652 15.5711 15.6802 15.2411 16.0252L13.3222 18.5425C9.86333 16.8175 6.62444 13.5591 4.90111 9.81523L7.28444 7.69412C7.61444 7.33635 7.71222 6.83801 7.57778 6.39079C7.12556 4.97246 6.89333 3.4519 6.89333 1.88023C6.89333 1.19023 6.34333 0.615234 5.68333 0.615234H1.45444C0.794445 0.615234 0 0.921901 0 1.88023C0 13.7508 9.44778 23.6152 20.79 23.6152C21.6578 23.6152 22 22.8102 22 22.1075V17.6991C22 17.0091 21.45 16.4341 20.79 16.4341Z" fill="#051A3C"/>
</svg>
