<svg width="26" height="26" viewBox="0 0 26 26" fill="none" xmlns="http://www.w3.org/2000/svg">
<path d="M1.42097 15.3747L2.39455 15.1464L1.42097 15.3747ZM1.42097 8.09866L2.39455 8.32703L1.42097 8.09866ZM22.0524 8.09867L23.026 7.8703L22.0524 8.09867ZM22.0524 15.3747L23.026 15.6031L22.0524 15.3747ZM15.3747 22.0524L15.1464 21.0789L15.3747 22.0524ZM8.09867 22.0524L7.8703 23.026L8.09867 22.0524ZM8.09867 1.42097L7.8703 0.447396L8.09867 1.42097ZM15.3747 1.42097L15.6031 0.447395L15.3747 1.42097ZM24.2929 25.7071C24.6834 26.0976 25.3166 26.0976 25.7071 25.7071C26.0976 25.3166 26.0976 24.6834 25.7071 24.2929L24.2929 25.7071ZM2.39455 15.1464C1.86848 12.9037 1.86848 10.5697 2.39455 8.32703L0.447397 7.87029C-0.149132 10.4134 -0.149132 13.06 0.447397 15.6031L2.39455 15.1464ZM21.0789 8.32704C21.6049 10.5697 21.6049 12.9037 21.0789 15.1464L23.026 15.6031C23.6225 13.06 23.6225 10.4134 23.026 7.8703L21.0789 8.32704ZM15.1464 21.0789C12.9037 21.6049 10.5697 21.6049 8.32704 21.0789L7.8703 23.026C10.4134 23.6225 13.06 23.6225 15.6031 23.026L15.1464 21.0789ZM8.32704 2.39454C10.5697 1.86849 12.9037 1.86848 15.1464 2.39454L15.6031 0.447395C13.06 -0.149132 10.4134 -0.149132 7.8703 0.447396L8.32704 2.39454ZM8.32704 21.0789C5.38343 20.3884 3.08502 18.09 2.39455 15.1464L0.447397 15.6031C1.31134 19.2862 4.18717 22.1621 7.8703 23.026L8.32704 21.0789ZM15.6031 23.026C19.2862 22.1621 22.1621 19.2862 23.026 15.6031L21.0789 15.1464C20.3884 18.09 18.09 20.3884 15.1464 21.0789L15.6031 23.026ZM15.1464 2.39454C18.09 3.08502 20.3884 5.38342 21.0789 8.32704L23.026 7.8703C22.1621 4.18717 19.2862 1.31134 15.6031 0.447395L15.1464 2.39454ZM7.8703 0.447396C4.18717 1.31134 1.31134 4.18716 0.447397 7.87029L2.39455 8.32703C3.08502 5.38342 5.38342 3.08502 8.32704 2.39454L7.8703 0.447396ZM19.4064 20.8206L24.2929 25.7071L25.7071 24.2929L20.8206 19.4064L19.4064 20.8206Z" fill="#153A76"/>
</svg>
