<svg width="23" height="23" viewBox="0 0 23 23" fill="none" xmlns="http://www.w3.org/2000/svg">
<path id="Vector" d="M1.36835 13.5779L2.34192 13.3495L1.36835 13.5779ZM1.36835 7.21133L2.34192 7.4397L1.36835 7.21133ZM19.4209 7.21134L20.3944 6.98297L20.3944 6.98297L19.4209 7.21134ZM19.4209 13.5779L20.3945 13.8063L19.4209 13.5779ZM13.5779 19.4209L13.3495 18.4473L13.5779 19.4209ZM7.21134 19.4209L6.98297 20.3945L7.21134 19.4209ZM7.21133 1.36835L6.98297 0.394774L7.21133 1.36835ZM13.5779 1.36835L13.8063 0.394774L13.5779 1.36835ZM21.2929 22.7071C21.6834 23.0976 22.3166 23.0976 22.7071 22.7071C23.0976 22.3166 23.0976 21.6834 22.7071 21.2929L21.2929 22.7071ZM2.34192 13.3495C1.88603 11.406 1.88603 9.38327 2.34192 7.4397L0.394775 6.98296C-0.131592 9.22694 -0.131592 11.5623 0.394775 13.8063L2.34192 13.3495ZM18.4473 7.43971C18.9032 9.38327 18.9032 11.406 18.4473 13.3495L20.3945 13.8063C20.9208 11.5623 20.9208 9.22694 20.3944 6.98297L18.4473 7.43971ZM13.3495 18.4473C11.406 18.9032 9.38327 18.9032 7.43971 18.4473L6.98297 20.3945C9.22694 20.9208 11.5623 20.9208 13.8063 20.3945L13.3495 18.4473ZM7.4397 2.34192C9.38327 1.88603 11.406 1.88603 13.3495 2.34192L13.8063 0.394774C11.5623 -0.131592 9.22694 -0.131591 6.98297 0.394774L7.4397 2.34192ZM7.43971 18.4473C4.91026 17.854 2.93525 15.879 2.34192 13.3495L0.394775 13.8063C1.16157 17.0752 3.71401 19.6277 6.98297 20.3945L7.43971 18.4473ZM13.8063 20.3945C17.0752 19.6277 19.6277 17.0752 20.3945 13.8063L18.4473 13.3495C17.854 15.879 15.879 17.854 13.3495 18.4473L13.8063 20.3945ZM13.3495 2.34192C15.879 2.93525 17.854 4.91026 18.4473 7.43971L20.3944 6.98297C19.6277 3.714 17.0752 1.16157 13.8063 0.394774L13.3495 2.34192ZM6.98297 0.394774C3.714 1.16157 1.16157 3.714 0.394775 6.98296L2.34192 7.4397C2.93525 4.91026 4.91026 2.93525 7.4397 2.34192L6.98297 0.394774ZM17.0172 18.4314L21.2929 22.7071L22.7071 21.2929L18.4314 17.0172L17.0172 18.4314Z" fill="#153A76"/>
</svg>
