<svg width="27" height="22" viewBox="0 0 27 22" fill="none" xmlns="http://www.w3.org/2000/svg">
<path id="Vector" d="M18.1 7.06258C19.6329 9.06286 19.6329 12.9374 18.1 14.9377M21.55 3.12503C26.1362 7.40909 26.1638 14.6193 21.55 18.8752M2 14.3291V7.67009C2 7.02433 2.5152 6.50008 3.15 6.50008H7.2739C7.42608 6.49955 7.57658 6.46887 7.71631 6.4099C7.85605 6.35093 7.98213 6.26488 8.08695 6.15695L11.5369 2.34539C12.2614 1.60738 13.5 2.13052 13.5 3.17341V18.8269C13.5 19.8776 12.2465 20.3963 11.5266 19.6436L8.0881 15.8534C7.98298 15.7424 7.85563 15.6538 7.71397 15.593C7.57231 15.5322 7.41938 15.5006 7.2647 15.5002H3.15C2.5152 15.5002 2 14.9759 2 14.3291Z" stroke="white" stroke-width="3" stroke-linecap="round" stroke-linejoin="round"/>
</svg>
