<svg width="22" height="21" viewBox="0 0 22 21" fill="none" xmlns="http://www.w3.org/2000/svg">
<path fill-rule="evenodd" clip-rule="evenodd" d="M21.9577 2.50468C22.2743 0.890769 20.7583 -0.450423 19.2887 0.143344L1.27397 7.42161C-0.367228 8.08468 -0.440356 10.4845 1.15713 11.2555L5.08024 13.1489L6.94652 19.9793C7.04345 20.3341 7.31269 20.6088 7.65427 20.7014C7.99585 20.7938 8.35877 20.6905 8.60828 20.4296L11.4831 17.4234L15.5101 20.5817C16.6791 21.4984 18.3627 20.8307 18.6563 19.3339L21.9577 2.50468ZM1.9918 9.36441L20.0065 2.08616L16.7052 18.9155L11.9872 15.2152C11.5907 14.9043 11.0359 14.9455 10.6855 15.312L9.45416 16.5995L9.82413 14.4719L17.0733 6.89156C17.4261 6.52265 17.4634 5.93768 17.1605 5.52308C16.8577 5.10846 16.3082 4.99217 15.875 5.25101L5.86374 11.2331L1.9918 9.36441ZM7.08441 12.9025L7.68829 15.1128L7.92014 13.7793C7.95638 13.5709 8.05253 13.379 8.19577 13.2292L10.4065 10.9175L7.08441 12.9025Z" fill="#D3D3D3"/>
</svg>
