<svg width="494" height="322" viewBox="0 0 494 322" fill="none" xmlns="http://www.w3.org/2000/svg">
<path d="M378.26 169.159L378.736 168.813V169.289L378.953 169.765L379.645 170.587L380.121 170.111V170.241L379.992 170.587L380.338 171.279L381.247 171.495L382.156 170.327L383.628 168.943L384.667 168.381L384.321 168.035L384.537 167.689L384.191 167.213L383.844 166.997L384.321 166.175L384.191 165.613L383.152 164.921L382.243 164.791L381.55 164.315H380.641L379.169 165.786L378.953 167.04L378.26 169.159ZM438.865 133.952L438.519 135.423L437.48 136.245L435.056 136.937L431.03 140.051L429.861 140.267L428.476 140.137L427.307 140.483L426.831 141.867L426.701 144.03L426.355 144.722L425.316 145.068L422.459 145.414L421.55 145.976L418.692 148.398L417.437 149.869L416.615 151.686L415.922 152.724L415.013 153.286L414.104 153.762L412.372 155.146L407.654 157.914L407.091 158.952L407.654 160.206L408.693 160.769L412.719 161.244L413.757 161.936L414.234 162.412L414.71 162.974L415.402 164.358L415.879 164.834H416.355L416.009 165.743L415.792 166.218L414.407 168.035L414.277 168.251V168.467L414.407 168.943V169.506L414.537 169.722L414.667 169.852L415.489 169.981L415.619 170.327L415.489 170.89L415.359 171.106L414.796 172.274V172.49V172.706L414.926 172.922L415.143 173.268L415.705 174.09L416.268 175.128L416.398 175.95L416.528 178.805L416.312 179.713L415.965 179.367L414.71 178.805L413.671 179.151L412.848 183.173L411.247 184.99L409.169 186.244L406.182 187.412L403.411 189.488L398.13 191.218L397.437 191.564L396.875 192.04L395.619 193.511L394.927 194.073L394.104 194.289L393.195 193.943L392.849 193.597L392.502 193.251L391.94 192.343L391.593 191.997L390.901 191.521L390.554 191.175L389.385 189.445L388.693 188.883L387.784 188.753L387.308 188.537L386.961 188.19L386.615 187.844L386.052 187.715L385.143 188.061L384.667 188.277L384.191 188.623L383.498 189.531L383.022 190.569L382.805 191.737V193.121L383.022 195.197L382.892 195.673L382.416 195.889L380.684 196.019L379.645 196.711V197.533L380.814 199.479L381.377 201.642L381.593 202.334L382.416 203.718L382.762 204.41L382.979 205.232L382.762 207.048L381.853 207.178L380.684 206.702L379.862 206.832L379.992 208L382.07 209.817V210.725L381.031 211.201H379.645L377.005 210.379L375.966 209.903L376.096 209.427L376.572 207.957V207.394L376.355 207.048L375.879 206.01L376.442 202.55L376.572 202.334L376.702 201.988L376.832 201.772L377.308 201.209L377.438 200.863V200.517L377.308 200.171L377.178 199.825L376.961 199.609L376.615 199.263L376.485 198.917L377.048 198.571L376.832 198.355L376.615 198.225H376.269H375.922L376.269 196.841L376.485 196.279L377.178 195.933V195.716L376.961 195.5L376.745 195.37L376.528 195.5L376.182 195.846L375.966 196.062L375.749 195.933V195.716L376.225 195.241L376.355 194.895L376.182 194.505L375.619 194.03L375.273 193.121H374.71L373.455 193.337L373.931 192.516L374.061 192.17L373.845 192.04L373.368 192.17L373.022 192.386L372.546 192.516L372.07 192.299L372.416 191.824L372.286 191.348L371.94 190.872L371.593 190.526L371.377 190.396H371.161H370.944L370.728 190.18V190.05V189.575V189.445L370.381 188.883L370.251 188.666L369.905 188.45L369.083 188.104L368.866 187.974L368.65 187.628L368.303 186.936L368.087 186.59L367.611 186.244L367.048 186.028L366.355 185.898L365.879 186.114L365.749 185.422L365.62 185.206H365.49L365.273 185.422L365.143 185.293L365.013 185.076V184.168L364.884 183.822L364.667 183.476L363.195 182.092L363.412 181.962L364.321 181.616L364.667 181.27L364.884 180.924L365.446 179.454L366.009 177.983L366.355 177.507L366.702 177.031L367.741 176.556L368.78 176.08L369.126 175.518L369.472 174.955L369.689 174.739L369.905 174.523L370.251 174.393L370.598 174.263L371.161 174.133L371.723 174.004L372.2 173.787L372.762 173.571L373.238 173.225L373.715 172.879L373.931 172.663L374.148 172.447L374.277 172.23L374.407 172.014L374.624 170.198L374.84 168.381V168.121V167.775V167.559V167.343V167.213V167.083H374.71H374.58L374.451 166.954L374.321 166.824V166.694V166.564L374.451 166.435L374.58 166.305L374.71 166.175L374.84 166.045L375.533 165.699L376.225 165.353L376.442 165.224L376.658 165.094L376.875 165.224L377.091 165.353L377.221 165.007L377.351 164.661L377.697 164.315L378.044 163.969L378.866 163.493L379.689 163.018H379.905H380.121L380.598 163.147L381.074 163.277H381.29H381.507L382.07 162.931L382.632 162.585L382.849 162.455L383.065 162.326L383.888 162.455L384.71 162.585L384.84 162.455L384.97 162.326V162.109V161.893L384.753 161.417L384.537 160.942V160.725V160.509L384.753 160.033L384.97 159.557L385.316 159.341L385.663 159.125L386.485 158.909L387.308 158.692L388.779 157.525L390.251 156.357L390.727 155.881L391.204 155.405L391.42 155.189L391.637 154.973L393.585 154.41L395.533 153.848L397.134 153.718L398.736 153.589L399.299 153.372L399.862 153.156L400.338 152.594L400.814 152.118L401.03 151.772L401.247 151.426L401.463 151.21L401.68 150.994L402.502 150.648L403.325 150.302L404.494 149.393L405.662 148.485L406.009 148.009L406.355 147.533L407.394 145.803L408.303 144.073L408.519 143.857L408.736 143.641L408.952 143.511L409.169 143.381L409.385 143.251L409.602 143.122L409.818 142.992L410.035 142.862L410.251 142.646L410.467 142.43L410.597 142.084L410.727 141.738L411.073 140.916L411.42 140.094L411.983 139.532L412.545 138.969L413.931 138.407L415.316 137.845H415.532H415.749L415.965 138.061L416.182 138.277L416.398 138.494L416.615 138.71L416.744 138.926L416.874 139.142L417.004 139.488L417.134 139.834L417.35 140.051L417.567 140.267L417.913 140.397L418.26 140.527H418.606H418.952L419.428 140.31L419.905 140.094L420.251 139.532L420.597 138.969L420.814 138.277L421.03 137.585L421.376 137.023L421.723 136.331L422.199 135.855L422.545 135.379L422.675 135.163L422.805 134.947L422.935 134.601L423.065 134.255L423.281 134.039L423.498 133.822H423.844H424.19L424.883 134.039L425.575 134.255L426.138 134.125L426.701 133.995L427.264 133.779L427.827 133.563L428.736 132.741L429.645 131.919L430.207 131.357L431.463 130.449L432.372 130.319L433.281 130.665L437.307 133.52L438.865 133.952Z" fill="#051A3C"/>
<path d="M381.25 171.582L380.427 171.322L380.081 170.63L380.211 170.284V170.198L379.735 170.63L379.042 169.852L378.825 169.376L378.696 168.943L378.263 169.16H378.133L378.955 167.3L379.172 166.045L380.644 164.575H381.683L382.375 165.007L383.198 165.137L384.237 165.829L384.323 166.391L383.977 167.213L384.323 167.429L384.67 167.905L384.453 168.251L384.67 168.597L383.631 169.03L382.159 170.414L381.25 171.582Z" fill="#051A3C"/>
<path d="M373.676 213.104L372.291 212.196L365.538 213.45L364.282 215.05L363.806 215.872L363.676 216.348V216.564V216.78V216.997L363.806 217.343L363.936 217.559L364.066 217.689L364.282 218.381L364.412 218.727V218.943V219.289L364.282 220.543L364.152 220.76H364.023L363.893 220.63L363.763 220.5L363.633 220.37H363.417L363.2 220.5V220.63L363.33 220.76L363.46 220.889L363.936 221.235L364.066 221.365L364.196 221.495V221.711L364.066 221.927L363.936 222.273V222.836L363.806 223.182L364.152 223.311L365.191 222.403L365.668 222.749L366.49 224.003L366.836 224.22L367.053 224.003L367.183 223.657V223.441L367.399 222.879L367.529 222.749H367.875L368.005 222.619L368.352 221.927V221.322L367.659 219.938L367.442 219.116L367.313 218.424L367.529 218.078L368.092 218.554L368.655 219.808L369.131 221.408L369.823 222.446L371.079 221.971L370.949 221.149L368.438 217.602L368.308 217.256V216.997L368.438 216.175L368.308 215.959L367.832 215.483L367.702 215.137L368.048 214.445L368.525 214.791L369.217 215.959L369.564 215.829L370.603 214.92L371.165 214.704L373.243 215.05L373.936 214.92L374.152 214.445V213.882L374.022 213.32L373.676 213.104ZM377.789 199.998L377.659 199.652L377.529 199.306L377.312 199.09L376.966 198.744L376.836 198.398L377.399 198.052L377.183 197.836L376.966 197.706H376.62H376.273L376.62 196.322L376.836 195.76L377.529 195.414V195.197L377.312 194.981L377.096 194.851L376.88 194.981L376.533 195.327L376.317 195.543L376.1 195.414V195.197L376.577 194.722L376.706 194.376L376.577 194.03L376.014 193.554L375.667 192.646H375.105L373.849 192.862L374.325 192.04L374.455 191.694L374.239 191.564L373.763 191.694L373.416 191.91L372.94 192.04L372.464 191.824L372.81 191.348L372.68 190.872L372.334 190.396L371.988 190.05L371.771 189.921H371.555H371.338L371.122 189.704V189.575V189.099V188.969L370.776 188.407L370.646 188.191L370.3 187.974L369.477 187.628L369.261 187.499L369.044 187.152L368.698 186.46L368.481 186.114L368.005 185.768L367.442 185.552L366.75 185.422L366.274 185.639L366.144 184.947L366.014 184.73H365.884L365.668 184.947L365.538 184.817L365.408 184.601V183.692L365.278 183.346L365.062 183L363.59 181.616L363.027 181.832L362.681 182.049L362.334 182.265L362.204 182.741L362.075 183.217H361.945H361.815H361.685H361.555H361.468H361.339V183.433V183.649V184.125V184.601V184.817V185.033L361.209 185.249L361.079 185.466L360.949 185.595L360.819 185.725L360.689 185.855L360.559 185.985V186.331V186.677L360.689 188.277L360.819 189.877L360.949 190.223L361.079 190.569L361.209 190.699L361.339 190.829L361.468 190.959L361.598 191.088L361.945 191.218L362.291 191.348V191.564V191.78V191.997V192.213L362.421 192.429L362.551 192.646L362.681 192.862L362.81 193.078V193.208V193.338L362.464 193.9L362.118 194.462L362.334 194.592L362.551 194.722L362.421 194.938L362.291 195.154L361.945 195.37L361.598 195.587H361.252L360.906 195.457L360.343 195.241L359.78 195.024H359.65H359.52L359.391 195.154L359.261 195.284L359.131 195.63L359.001 195.76L358.871 195.889H358.395L358.178 196.106L357.962 196.322L357.832 196.538L354.499 194.722L352.334 193.554L352.205 195.024L351.858 195.5L350.256 195.716L349.91 195.846L349.78 195.976V196.235L349.65 196.452V197.36L349.434 198.744L349.564 198.96L349.694 199.09L350.17 198.96L350.646 198.831H350.863L350.992 199.306L347.529 207.092L347.399 207.568L347.27 208.13L347.399 209.168L347.529 209.514L347.659 209.86L347.789 209.99L348.611 210.119L355.148 210.249L363.763 208.087H363.893V208.216L363.763 208.433L363.633 208.649L363.503 208.865L363.373 209.081L363.027 210.552L362.897 210.768L362.767 211.114L363.113 211.806L364.715 211.331L365.408 211.201L367.139 211.547L367.832 211.417L368.871 210.855L369.434 210.638L374.152 209.946L374.845 210.076L375.754 210.552L375.884 210.076L376.36 208.606V208.043L376.144 207.697L375.667 206.659L376.23 203.199L376.36 202.983L376.49 202.637L376.62 202.421L377.096 201.858L377.226 201.512L377.789 199.998Z" fill="#051A3C"/>
<path d="M340.384 255.88H341.033L343.241 255.059L343.674 254.929L344.02 254.842H344.497L344.973 254.929L345.189 255.059L345.665 255.534L346.098 255.621L346.575 255.405L347.007 255.059H347.267H347.484H347.7H347.96L348.393 255.621L349.432 257.827L349.908 258.605L350.254 259.081L350.6 259.773L350.471 260.552L350.254 261.157L349.908 261.719L349.432 262.065L348.955 262.411L348.263 262.498H347.83L347.484 262.757L347.354 263.536L347.484 263.882L347.613 264.228L347.7 264.574V264.92L347.613 265.136L346.791 265.742L346.575 266.174L346.661 266.866L347.007 268.25L347.137 269.072L347.007 271.105L347.137 271.927L347.354 272.359L348.046 273.527L348.176 274.09L348.263 275.257L348.393 275.69L348.609 276.295L349.778 277.333L350.817 279.28L351.25 279.842L352.765 280.621L355.059 282.697L355.752 283.865L355.882 285.205L355.406 287.411L354.713 289.358L353.544 291.088L353.241 291.78L352.981 292.472L352.895 292.904L352.635 293.38L352.419 293.596L352.202 293.726L351.856 293.942L350.471 294.072L349.562 294.418L349.085 294.851L347.83 298.657L347.007 300.257L344.843 303.242L343.328 304.712L341.856 306.572L340.601 308.735L339.778 310.897L339.692 312.411L340.254 315.266L340.384 316.78L340.254 318.164L339.908 319.288L339.345 320.456L339.215 320.888L339.085 320.326L338.739 319.764L338.306 319.504L337.614 319.288L336.575 319.418L336.228 319.288L336.012 319.158L335.319 318.726L334.973 318.596H334.627L334.15 318.812H333.804L333.588 319.072L333.458 319.418L333.241 319.764L332.895 319.85L332.462 319.418L331.856 317.904L331.293 317.558L330.601 317.818L330.168 318.164L329.215 319.072L328.653 319.504L328.09 319.85L327.397 319.98L326.705 320.11L326.012 320.196L324.886 321.018L324.28 321.105L323.588 320.802L323.242 320.326L323.025 319.634L322.809 318.942L322.246 318.51L320.947 317.904L320.384 317.558L320.038 316.996L319.605 315.525L319.259 315.179L318.653 314.92L317.527 314.141L316.965 313.882H315.579L312.939 314.487L309.129 314.703L308.913 314.833L308.35 315.266L308.004 315.395H307.181L306.835 315.266L305.017 314.487L304.324 314.357L303.501 314.487L302.939 314.574L302.246 314.141L302.376 313.449L302.809 312.757L303.285 312.281L303.761 311.503L303.631 310.897L303.155 310.465L302.592 309.902L302.246 308.864L302.376 307.61L302.939 305.188L303.069 303.674L302.809 300.949L302.939 299.435L303.978 297.749L305.579 295.543L306.618 293.467L306.402 292.818L307.181 292.212L307.657 291.304L307.744 290.828L308.004 289.358L308.09 288.795L308.35 288.536L311.9 285.205L312.116 284.903L312.246 284.427L312.462 283.951L312.592 283.519L312.809 282.826L313.285 282.005L313.501 281.788L313.718 281.572L314.887 281.442L315.103 281.313L316.835 280.404L319.951 277.766L320.384 277.42V277.204L320.601 276.382L320.947 274.436L321.077 273.873L321.293 273.398L321.423 273.181L322.592 272.273L323.025 271.711L323.371 271.105L323.588 270.673L324.757 270.327L325.19 270.067L325.449 269.851L326.012 269.418L326.228 268.943L327.96 265.612L328.09 265.482L328.306 265.266L328.523 265.05L328.999 264.92L329.345 264.79H329.822H330.254L330.601 264.92L330.817 265.05L330.947 265.136H331.077L331.64 265.742L331.77 265.828H331.986L332.116 265.742V265.612V264.92L332.202 264.704L332.332 264.358L332.679 263.882L332.808 263.666L332.895 263.32V263.103V262.974L332.808 262.498L332.679 262.411V262.152V261.936V261.849V261.59V261.373L332.808 261.157V260.898V260.681V260.552L332.679 260.335L331.986 259.081L331.856 257.827L331.64 256.875V256.659V256.313L331.856 256.097L332.116 255.88L332.202 255.751L332.462 255.621L332.808 255.534L333.112 255.405L335.189 255.275L335.752 255.059L336.098 254.713L336.705 255.275L340.384 255.88Z" fill="#051A3C"/>
<path d="M305.928 199.09L306.145 199.22L309.738 199.306L310.993 199.652L311.426 199.782L311.902 199.912H312.465L313.287 199.652H313.374L313.634 199.782L313.72 199.998L313.98 200.474L314.067 200.907L314.196 201.253L314.067 201.728L313.98 202.291L313.72 202.896L313.634 203.113V203.329V203.545V205.405L313.72 205.967L314.067 207.914L314.196 208.13L314.326 208.389L314.543 208.476L315.106 208.735L315.235 208.952L315.322 209.081V209.298L315.235 209.514V209.86L315.322 210.119L316.145 211.114V211.936L315.928 212.282V212.412L315.668 212.498L315.235 212.758L314.976 212.844V212.974V213.19L315.106 214.92L315.235 215.05L315.322 215.266H315.668L315.928 215.396L316.145 215.266H316.274L316.837 214.92H316.967H317.183H317.4L317.616 215.137L317.746 215.396V215.829L317.616 216.045V216.391L317.746 216.65L318.655 217.689L319.132 217.559H319.261L319.348 217.429L319.694 218.035L321.989 218.683H322.335H322.811L322.898 218.597H323.157L323.59 218.943L323.85 219.029H324.067L324.413 218.943L324.976 219.029L330.04 219.981L330.473 220.759L331.296 224.22L331.166 224.566L330.733 224.652H330.473L329.694 224.912L329.131 225.128L328.179 225.604L327.746 225.95L327.53 226.166V226.252L327.4 226.512V227.074V227.42V227.637L327.53 227.896V228.242V228.458V228.891V229.15L327.4 229.237L327.053 229.367L326.837 229.496H326.015L325.538 229.583L325.452 229.929L325.322 230.188V232.827L325.538 233.389L326.015 233.822L327.183 234.989L329.348 236.806L329.131 237.152L328.785 238.666L328.525 240.136V241.521L328.092 242.775L327.963 243.943L327.746 244.029L327.53 243.943L327.183 244.029L327.053 244.159L320.257 242.429L318.655 242.342V242.559L318.785 242.905V243.034L318.655 243.251V243.467L318.569 243.597L318.439 243.726L318.222 243.813H317.876L314.759 244.029L314.326 243.943L314.067 243.813L313.98 243.726L313.72 243.597L313.634 243.38V243.121V242.559L313.85 241.521L313.72 240.958L313.158 239.92L312.595 239.79L310.041 239.228L307.876 238.882H307.4L306.967 239.098L306.491 239.358L306.275 239.574L306.058 239.704L305.106 241.175L304.889 241.434L302.725 242.342H302.465L302.119 242.213L301.686 241.996L299.954 240.612L299.262 240.136H298.699L294.543 241.175H294.456L291.686 242.429L290.993 242.905L290.647 243.034H289.608L287.66 242.559L287.444 242.342L287.314 242.213V241.737L287.227 241.434V241.175L287.314 240.612V240.05L287.227 239.79L287.097 239.704L286.405 239.098L285.496 238.536L284.024 237.066L283.764 236.59L283.548 236.374V236.244L283.418 236.157L283.201 234.86L283.071 234.773V234.514L282.855 234.427H282.725L282.638 234.297H282.292L281.383 234.168L281.123 234.297L280.777 234.427V234.643V234.86V235.465V235.552L280.69 235.811V235.898L280.561 236.027L279.868 236.46L279.305 236.806L278.959 236.936L266.665 236.59L265.193 233.605L264.846 232.481V232.221L265.626 230.275L265.756 230.059V229.713L265.885 229.15L265.756 228.804L264.933 225.69L264.717 225.344L264.5 225.128L263.894 224.566L262.985 223.614L262.898 223.182V222.965L262.985 222.836L263.245 222.706H263.461L264.846 222.49L266.535 222.014L266.794 221.927L267.011 221.668L267.141 220.976L267.227 220.759L267.357 220.543L267.574 220.413H267.833L268.743 220.976L269.522 221.322L270.344 221.451H271.253L271.6 221.322L271.816 221.235L272.076 220.759L272.509 218.813L272.639 218.597L273.115 217.559L273.201 217.343V217.083L273.115 216.867L272.985 216.737L272.855 216.65H272.639H272.509L272.422 216.391V216.175L273.115 215.137L273.201 214.92L273.331 214.791V214.704V214.445L273.461 213.666V213.19V213.104L273.548 212.758L273.678 212.412L273.894 212.282L274.024 212.152H274.457L277.097 213.32L277.703 213.407L277.79 213.536H278.05L278.829 214.574L279.305 215.05L280.431 215.483L280.907 215.958L281.47 216.175L282.162 216.045L283.331 216.867L284.586 217.083L290.777 215.742L291.123 215.612L292.941 213.882L293.201 213.536L293.288 213.19L293.418 212.974L293.288 212.758L293.071 212.498L292.941 212.412L292.595 212.282H292.379L291.816 212.412H291.599H291.47V212.152V211.806L292.249 210.119L292.508 209.298L292.595 208.735L292.941 208.26L293.634 207.221L293.764 207.005V206.659L293.288 206.183V206.097L293.201 205.751V205.491L293.634 204.713L293.764 203.891V202.55L293.418 201.599V201.382L293.547 201.166L294.11 200.82L294.327 200.69L294.543 200.258V199.912L294.456 199.652L294.24 199.306L293.98 198.614V198.052L294.11 197.36L294.456 196.452L294.673 195.889L294.889 195.543L295.236 195.068L295.582 194.851L296.058 194.722H296.405L296.881 194.981L297.443 195.414L297.876 195.76L298.482 195.889L298.915 195.976L299.478 195.889L300.171 195.63L302.249 194.159L302.465 194.03L302.725 194.159L303.071 194.289L303.85 194.981L304.889 196.106L305.019 196.322V196.452V196.798L304.759 197.36V197.619L304.889 197.706V197.836L305.019 198.052L305.365 198.528L305.928 199.09Z" fill="#051A3C"/>
<path d="M421.509 182.351V181.659L421.162 180.751L420.816 180.059L420.123 179.497L419.301 179.151L418.825 179.281L419.171 180.102L419.647 180.578L420.47 181.746L420.946 182.222L421.509 182.351ZM451.378 163.753L451.508 163.407L451.638 162.931L451.768 162.715L452.114 162.845L452.244 163.407L452.461 163.537L452.677 163.32V162.499L452.893 162.369L453.11 162.499L453.326 162.715L455.967 166.737L456.443 167.905L456.573 169.16L456.443 170.76L456.573 172.36L457.396 172.706L459.69 172.36L460.383 172.923L460.859 173.485L461.335 173.701L462.157 173.139L462.72 172.576L463.413 172.101L464.105 171.971L464.798 172.447L465.144 173.139L465.274 174.177V175.215L465.491 177.161V177.983L465.274 178.675L464.928 179.583L465.837 179.367L465.707 179.929L465.014 183.13L464.798 183.346L464.668 183.476L464.452 183.606L463.976 183.736L462.244 183.865L461.768 183.995H461.292L457.482 183.087L456.66 183.217H455.967H455.404L455.058 183.346L453.889 183.909L452.98 183.433L449.993 184.255L449.647 184.817L449.3 185.033L448.391 185.941L448.261 186.158V186.374L448.608 186.85L449.084 187.758L448.261 188.58L445.837 189.402L443.326 190.786L442.764 191.261L441.855 192.646L440.036 194.376L439.344 194.505L438.868 194.376L437.612 193.684L437.049 193.208L436.703 193.078L436.14 192.948L435.794 192.819L435.578 192.689L434.755 191.867L434.539 191.737L433.37 191.607L433.24 191.478L435.058 188.969L431.855 189.185L430.946 189.056L430.729 188.926L430.513 188.796L430.037 188.58H429.431L428.045 189.834H427.699L426.876 189.704H426.53L426.054 189.921L425.708 190.267L425.491 190.613L425.145 190.959L424.452 191.434L424.582 191.088L424.799 189.834L423.63 189.142L420.989 188.58L420.513 188.018L420.383 187.325L420.599 186.85L421.162 186.72L422.201 187.628L422.764 187.845V187.152L422.547 186.806L417.266 180.838L416.357 180.016L416.227 179.886L416.097 179.756L415.535 179.194L415.751 178.286L415.621 175.431L415.491 174.609L414.929 173.571L414.366 172.749L414.149 172.403L414.019 172.187V171.971V171.755L414.582 170.587L414.712 170.371L414.842 169.808L414.712 169.462L413.89 169.333L413.76 169.203L413.63 168.987V168.424L413.5 167.948V167.732L413.63 167.516L415.015 165.699L415.232 165.224L415.578 164.315H415.794L416.833 163.969L420.383 161.893L421.422 161.763L421.985 162.109L422.461 162.801L424.063 165.57L424.279 166.391V167.213L423.803 169.506V170.198L424.149 170.76L424.625 170.63L425.188 170.414L425.881 170.284L426.444 170.5L427.006 170.846L427.483 171.322L427.829 171.884L428.392 172.36L428.954 172.49L430.21 172.274L431.595 172.49L432.288 172.836L432.85 173.312L433.413 173.658L434.452 173.788L434.928 174.134L435.621 175.388L436.097 175.734L436.314 175.042L436.184 174.22L436.054 173.528L436.184 172.966L436.746 172.62H437.439L437.785 173.096L438.132 174.566L438.348 175.128L438.694 175.474H439.041L439.387 174.782L440.08 173.874L442.028 175.604L442.72 175.042L442.85 173.658L442.634 167.127L442.85 166.651L443.197 166.781L444.582 168.035L445.837 168.597L446.876 168.381L447.699 167.559L448.608 165.483L449.084 164.229L449.214 163.407L449.084 162.715L448.261 161.677L447.915 160.985L448.478 159.514L448.824 159.039L449.517 158.822L450.08 158.952L450.426 159.428L450.556 160.12V160.942L449.993 163.104V163.58L451.378 163.753Z" fill="#051A3C"/>
<path d="M153.457 169.03L154.15 168.943L154.626 168.597L155.751 166.305L156.227 165.829L156.704 165.483L157.266 165.137L157.829 165.007H159.344L164.842 166.392L166.227 166.954L167.483 167.776L169.214 169.03L174.149 174.436L177.569 179.929L177.699 180.059L178.045 180.276L178.522 180.405L179.993 179.929L184.712 185.206L185.621 186.72L185.967 187.974L184.452 191.175L178.522 198.614V198.528L178.262 197.706L178.045 197.36L177.006 195.89L176.53 195.068L175.967 192.775L175.621 192.343L174.712 191.175L174.366 190.699L174.149 189.921L173.89 188.191L172.981 184.99L172.634 184.298L172.894 183.952L172.764 183.39L172.634 180.751L172.548 179.929L172.288 179.367L170.253 175.821L169.647 175.128L163.24 170.414L160.686 169.289L157.959 168.597L156.79 168.468L156.227 168.814L155.751 169.592L155.535 170.89L154.842 171.322L154.279 172.49L153.457 173.398L152.461 173.961H151.422L150.254 173.528L147.267 171.322H146.704L145.102 171.668L144.886 171.322L144.756 170.976L144.626 170.89L144.539 171.236L144.193 171.798L143.933 172.014L143.717 172.144L142.332 170.76L140.383 170.284L134.539 170.63L131.076 171.798H129.388L128.436 171.582L127.527 170.976L126.055 169.376L124.323 168.122L121.553 166.651L118.349 165.007L117.527 164.229L117.31 163.321L117.786 160.336L117.873 159.644L118.349 159.082L118.825 158.606L119.951 158.044L120.427 157.568L120.167 156.876L118.219 154.151L117.31 152.421L117.094 151.037L117.786 149.999L118.566 149.437H119.518L120.514 149.783L121.553 150.345L122.115 150.561H122.592L122.938 150.129L122.808 149.523L122.592 148.961L122.245 148.528L121.812 148.182L120.427 147.361L120.081 146.885L119.734 146.452L120.081 146.106L120.427 145.198L120.297 144.722L119.951 144.16V143.9V143.814V143.598L120.167 143.468L120.643 143.338H121.466L122.029 143.122L123.501 141.954L123.977 141.521L124.193 141.392H124.669L125.232 141.867L125.578 141.954L127.094 142.43L128.436 142.56L128.782 142.906L128.912 143.684V145.414L129.128 145.976L129.951 147.231L130.297 148.182L131.076 149.653L131.423 150.129L132.029 150.475L132.591 150.691H133.977L134.41 150.907L134.756 151.599L135.232 153.113L135.925 154.367L136.834 155.492L143.717 161.591L144.409 161.807L144.756 161.937L145.102 162.153L146.141 163.321L147.05 164.099L147.613 164.359L149.344 164.661L149.907 165.007L151.422 166.738L151.769 167.3L152.115 168.338L152.548 168.597L152.808 168.684L153.457 169.03Z" fill="#051A3C"/>
<path d="M289.609 243.034H290.648L290.994 242.905L291.687 242.429L294.457 241.174H294.544L298.7 240.136H299.262L299.955 240.612L301.687 241.996L302.12 242.213L302.466 242.342H302.726L304.89 241.434L305.107 241.174L306.059 239.704L306.275 239.574L306.492 239.358L306.968 239.098L307.401 238.882H307.877L310.042 239.228L312.596 239.79L313.158 239.92L313.721 240.958L313.851 241.52L313.635 242.559V243.121V243.38L313.721 243.597L313.981 243.726L314.068 243.813L314.327 243.943L314.76 244.029L317.877 243.813H318.223L318.44 243.726L318.57 243.597L318.656 243.467V243.251L318.786 243.034V242.905L318.656 242.559V242.342L320.258 242.429L327.054 244.159L326.924 244.289L326.708 244.505V244.721L326.578 245.327L326.838 246.667L327.617 247.489L331.167 248.744L333.461 248.873L334.63 249.306L334.76 249.436L334.976 249.782L335.106 249.998H335.323L335.756 249.911L336.015 249.998L336.232 250.474L336.362 250.949L336.015 253.804L336.102 254.712L335.756 255.058L335.193 255.275L333.115 255.404L332.812 255.534L332.466 255.621L332.206 255.75L332.119 255.88L331.859 256.097L331.643 256.313V256.659V256.875L331.859 257.827L331.989 259.081L332.682 260.335L332.812 260.551V260.681V260.897V261.157L332.682 261.373V261.59V261.849V261.936V262.152V262.411L332.812 262.498L332.898 262.974V263.103V263.32L332.812 263.666L332.682 263.882L332.336 264.358L332.206 264.704L332.119 264.92V265.612V265.742L331.989 265.828H331.773L331.643 265.742L331.08 265.136H330.95L330.821 265.05L330.604 264.92L330.258 264.79H329.825H329.349L329.002 264.92L328.526 265.05L328.31 265.266L328.093 265.482L327.963 265.612L326.232 268.942L326.015 269.418L325.453 269.851L325.193 270.067L324.76 270.326L323.591 270.672L323.375 271.105L323.028 271.711L322.596 272.273L321.427 273.181L321.297 273.397L321.08 273.873L320.951 274.435L320.604 276.382L320.388 277.204V277.42L319.955 277.766L316.838 280.404L315.106 281.313L314.89 281.442L313.721 281.572L313.505 281.788L313.288 282.005L312.812 282.826L312.596 283.518L312.466 283.951L312.249 284.427L312.119 284.902L311.903 285.205L308.353 288.536L308.094 288.795L308.007 289.357L307.747 290.828L307.661 291.304L307.184 292.212L306.405 292.818L306.059 291.78L305.02 291.088L303.981 290.612L302.942 290.266H300.648L299.825 290.05L296.882 288.665L295.583 286.935L294.674 286.157L293.765 285.681L291.903 285.119L290.085 283.735L289.263 283.259L287.444 283.043L284.587 281.572H283.548L282.726 281.918L281.384 282.913L280.561 283.389L278.613 283.518L276.665 282.913L271.947 279.712L269.09 277.766L265.194 275.127L262.553 272.619L258.744 269.159L256.795 267.904L252.553 266.434L248.874 264.358L242.813 259.211L241.168 257.135L241.644 256.572L244.285 253.674L245.54 252.766L249.566 251.166L251.038 250.69L255.886 248.873H255.973L256.103 248.657L256.233 248.398V248.181L256.103 247.965L255.973 247.835L255.064 246.667L254.847 246.365L254.718 246.105V245.889V245.759V245.543V245.327L254.847 244.981L255.194 244.635L257.358 242.213L257.488 242.083L257.705 241.996H258.051H258.397L258.744 241.866L259.09 241.52L261.947 238.666L263.332 237.628L266.103 236.936L266.666 236.59L278.96 236.936L279.306 236.806L279.869 236.46L280.561 236.027L280.691 235.898V235.811L280.778 235.552V235.465V234.86V234.643V234.427L281.124 234.297L281.384 234.168L282.293 234.297H282.639L282.726 234.427H282.856L283.072 234.514V234.773L283.202 234.86L283.419 236.157L283.548 236.244V236.373L283.765 236.59L284.025 237.066L285.496 238.536L286.406 239.098L287.098 239.704L287.228 239.79L287.315 240.05V240.612L287.228 241.174V241.434L287.315 241.737V242.213L287.444 242.342L287.661 242.559L289.609 243.034Z" fill="#051A3C"/>
<path d="M438.177 215.483L437.485 215.699L437.355 215.829L437.008 216.045H436.879H436.662L436.532 215.915L436.402 215.785L434.801 215.093L433.978 214.618L433.502 214.055L433.156 213.017L432.679 212.109L431.987 211.633L431.078 212.109L430.602 213.277L430.472 213.969V214.531L430.602 215.093L431.294 216.694L431.641 217.17L431.987 217.386L432.809 217.516L433.156 217.732L433.286 218.9L432.03 220.846V221.754L432.376 221.971L432.853 221.754L433.199 221.408L433.545 221.192H434.108L434.238 221.538L434.368 222.014L434.714 222.36H435.19L436.576 222.014H437.485L437.831 221.884L438.177 221.408V220.24L436.922 218.856L436.792 217.948L437.268 217.472L438.653 216.564L438.87 216.002L438.653 215.656L438.177 215.483ZM466.965 200.344V200.128L466.748 199.22L466.618 198.658L466.748 197.966L466.878 197.273V196.798V196.581V196.365L466.402 196.019L464.93 195.543H464.584L464.367 195.414L463.805 194.592L463.328 194.246L463.112 194.462L462.766 194.808H462.29L460.558 194.462L459.173 193.986H458.35L457.787 194.116L457.095 193.986L456.878 193.857L456.662 193.727L455.493 192.126L455.277 191.651L455.06 191.434L454.714 191.218L453.242 190.742H452.766H452.42L452.29 190.872H452.073L451.727 190.742L450.904 190.396H450.558L450.342 190.526V191.218L450.212 191.088L449.995 190.613L449.433 189.358L448.61 188.104L446.186 188.926L443.675 190.31L443.112 190.786L442.203 192.17L440.385 193.9L439.692 194.03L439.216 193.9L437.961 193.208L437.398 192.732L437.052 192.602L436.489 192.472L436.143 192.343L435.926 192.213L435.104 191.391L434.887 191.261L433.718 191.132L433.589 191.002L435.407 188.493L432.203 188.71L431.294 188.58L431.078 188.45L430.861 188.32L430.385 188.104H429.822L428.437 189.358H428.091L427.268 189.229H426.922L426.446 189.445L426.099 189.791L425.883 190.137L425.537 190.483L424.844 190.959L424.368 191.175L424.238 191.305V191.521L424.108 191.651L423.632 191.78L423.416 191.91L422.939 192.256L422.463 192.602L420.732 194.073L419.693 195.327L419.346 195.673L418.87 195.889L418.394 196.019L418.048 196.235L417.701 196.581L417.009 197.749L416.662 198.095L416.446 198.225L414.498 198.701L413.675 199.263L413.199 199.955V200.777V200.993V201.123L413.546 201.685L413.675 201.815L413.892 202.161L414.022 202.291L413.675 203.545L415.061 204.237L415.623 204.453H416.186L416.749 204.324L417.312 204.194L418.004 204.41L418.827 205.664L419.173 207.395L419.649 208.995L420.818 209.817L422.074 209.946L423.329 209.817L427.441 208.562L429.952 208.346L430.515 208.476L431.554 207.438L433.286 207.092L436.619 207.568L437.528 207.438L438.004 206.746L438.221 205.924L438.697 205.232L439.173 205.102L439.519 205.318L439.736 205.664L440.082 206.01L440.428 206.227H440.905L441.814 206.097H442.376L443.285 206.919L444.541 207.265L444.757 207.741L444.974 208.303L445.536 208.779L446.099 209.125L446.792 209.341L448.177 209.557L448.87 209.427L449.086 208.952L449.216 208.26L449.433 207.568L449.995 207.092L450.471 207.568L450.948 208.389L451.164 209.211V210.682L451.381 211.244L451.943 211.46L452.29 211.33L453.761 210.422L454.238 209.946L454.584 209.471L455.147 208.303L456.056 207.395L457.095 207.265L458.264 207.481L459.432 207.611L459.779 207.481H459.909H460.125L460.471 207.611L460.948 207.741L461.424 207.611L461.64 207.135L461.51 206.789L461.294 206.659L461.077 206.529L460.255 206.183L459.692 205.837L459.476 205.275L459.606 204.713L462.116 203.459L462.939 202.637L463.415 201.599L463.545 200.907L463.761 200.561L465.709 199.523L466.186 199.393L466.965 200.344ZM453.545 218.251L452.506 219.073L452.03 219.289H451.337L450.861 219.851L451.078 220.413L451.64 220.889L452.203 221.105L452.896 221.322L453.372 221.192L453.588 220.716L454.281 218.294L454.151 217.948L453.545 218.251Z" fill="#051A3C"/>
<path d="M222.94 190.267L226.36 189.099L228.438 186.028L230.17 182.438L230.733 181.789L231.209 181.313L231.901 181.097L232.334 181.184L232.897 181.659L233.503 182.568L233.719 183.822V186.374L234.066 187.152L235.321 187.628L243.113 188.537L243.719 187.974L244.628 184.514L245.191 184.298L246.1 183.822L249.91 183.736L251.165 183.476L252.074 183.044L253.027 181.789H253.33L253.676 182.698L254.282 186.46L254.498 187.499L254.975 188.666L255.884 189.445L256.923 190.05L259.78 190.699L268.524 191.305L269.866 190.959L269.174 193.251L268.957 194.289V195.197V196.235L269.087 196.928V197.36V197.836H268.741L267.226 197.49H266.879L266.663 197.62L266.446 197.706L266.1 198.268V198.744L265.278 201.166L264.715 201.858L264.152 202.291L263.459 204.367L263.243 205.059H259.78L259.217 204.843L258.524 204.367L257.962 203.891L257.356 203.675H256.793L255.754 203.891L255.321 204.151L254.975 204.497V204.843L254.845 205.189V205.491L255.061 206.183L255.754 207.005L255.321 208.389L254.975 208.606L254.845 208.735V208.952L255.191 209.427L256.1 210.336L256.576 210.898L256.663 211.114L256.576 211.244L255.754 211.374H255.537L255.321 211.46L255.191 211.72H254.845L254.498 212.066L253.113 214.791L252.68 215.396L252.204 215.829L251.641 216.305L249.91 217.083L249.693 217.559L249.434 217.775L249.347 217.905L248.395 219.159L247.962 220.197L247.486 221.106L247.962 222.014L250.126 224.912L250.819 225.474L252.204 226.253L252.334 226.512L252.421 226.728L252.55 227.074L252.897 227.291H253.459L254.715 226.728L255.191 226.858L255.408 227.291L258.871 228.891L259.304 229.842L259.65 230.621V231.183V232.005L259.91 232.827L260.472 233.173L261.165 233.389L261.598 233.605L262.074 234.081L262.55 234.773L262.637 234.989L262.897 235.336L263.243 236.374V236.59L263.329 237.628L261.944 238.666L259.087 241.521L258.741 241.867L258.395 241.996H258.048H257.702L257.485 242.083L257.356 242.213L255.191 244.635L254.845 244.981L254.715 245.327V245.543V245.759V245.889V246.105L254.845 246.365L255.061 246.668L255.97 247.835L256.1 247.965L256.23 248.181V248.398L256.1 248.657L255.97 248.873H255.884L251.035 250.69L249.563 251.166L245.538 252.766L244.282 253.674L241.641 256.572L241.165 257.135L240.256 255.967L239.564 255.534L238.784 255.621L236.49 256.789L235.797 256.875L234.888 256.789L234.066 256.313L229.477 252.982L225.451 250.128L222.248 247.835L220.516 246.019L217.399 241.65L215.581 239.92L211.555 237.066L202.161 230.275L197.443 226.945L193.547 224.22L190.214 221.798L188.482 220.067L188.136 219.981L186.188 217.343L185.841 216.305L185.279 214.228V213.32L185.408 212.498L185.625 211.806L185.755 211.114L185.625 210.336L184.802 208.476L184.716 207.697L184.586 206.659L184.456 205.967L184.24 205.275L183.547 203.805L183.331 203.113V201.512L182.984 201.166L180.56 199.782L179.305 199.306L178.612 198.874L178.525 198.614L184.456 191.175L185.971 187.974L185.625 186.72L184.716 185.206L179.997 179.929L186.534 176.858L186.404 176.253L178.266 164.921L188.482 161.115H190.906L191.815 163.191L192.508 164.445L197.313 170.198L201.252 177.075L201.902 177.421L204.456 178.113L208.222 179.497L212.724 182.005L221.339 187.412L222.031 188.537L223.027 189.575L222.94 190.267Z" fill="#051A3C"/>
<path d="M480.64 185.076L484.32 184.774L485.445 185.076L485.575 186.114L485.445 186.806H485.792L487.177 185.768L489.255 184.86L489.688 185.206L490.164 185.682L490.727 186.114L492.458 186.028L493.021 186.114L493.281 186.244L493.497 186.936L492.588 188.191L491.203 188.883L488.562 189.921L486.052 191.521L483.974 191.997L482.935 192.429L482.242 193.467L482.026 195.976L481.117 196.452L480.078 195.889H479.601L479.385 196.581L479.255 197.144L479.169 197.62L478.909 198.052L478.476 198.528H477.307L475.229 197.144L474.234 197.014L473.281 196.581L472.372 195.414L471.463 194.635L470.554 194.981L470.424 195.63L471.117 196.668V197.36L470.9 197.922V198.398L471.117 198.744L472.372 199.652L472.502 199.998L472.718 200.344V201.253L472.372 202.204L471.809 202.983L471.117 203.199L470.294 202.896L468.606 201.858L468.26 201.728H466.874L466.528 201.599L466.615 201.253H466.961L467.567 201.166L467.913 201.036L468 200.69L467.783 200.474L467.221 200.344H466.961V200.258L466.744 199.306L466.615 198.874L466.744 198.182L466.874 197.36V197.014V196.798V196.581L466.398 196.235L464.926 195.76H464.58L464.45 195.543L463.887 194.722L463.411 194.505L463.195 194.722L462.848 195.068L462.372 195.197L460.684 194.722L459.299 194.289L458.476 194.376L457.913 194.505L457.221 194.376L456.874 194.289L456.658 194.159L455.489 192.559L455.273 192.083L455.056 191.867L454.71 191.651L453.195 191.175L452.762 191.045L452.416 191.175L452.286 191.305H452.069L451.593 191.045L450.9 190.699H450.554L450.338 190.829V191.521L450.208 191.391L449.991 190.959L449.299 189.791L448.52 188.537L449.299 187.628L448.823 186.72L448.52 186.244V186.028L448.606 185.768L449.515 184.86L449.861 184.644L450.208 184.082L453.195 183.26L454.104 183.736L455.403 183.13H455.749H456.312H457.004L457.783 183.044L461.593 183.952L462.026 184.082L462.502 183.952L464.234 183.822H464.667L464.926 183.736L465.013 183.606L465.273 183.476L465.965 180.275L466.052 179.713L467.783 179.151L468.822 179.021L469.039 178.805L469.385 177.853L469.515 177.507L469.948 177.204L470.424 177.421L471.247 178.675L471.809 179.021L472.588 179.367L474.234 179.497L474.32 179.583L474.45 179.713V179.929L474.32 180.146V181.097L474.883 181.313H475.575L476.182 181.53L477.437 183.476L478.216 184.514L479.385 184.99L480.64 185.076Z" fill="#051A3C"/>
<path d="M88.527 9.602L90.3452 10.8563L95.2802 14.1867L100.691 17.8632L106.319 21.6694L112.163 25.4323L117.877 29.325L123.418 33.1312L128.7 36.5482L133.505 39.7921L137.747 42.517L141.08 44.8093L143.591 46.5394L145.453 47.7072L146.145 48.6155L146.708 49.6536L146.925 50.5619L147.054 52.638L147.401 53.676L149.002 56.3144L152.336 59.8611L153.937 61.5912L155.453 63.2781L157.487 65.5704L159.089 67.5168L160.82 69.4631L162.422 71.323L164.154 73.2693L165.755 75.0859L167.357 77.0755L168.959 78.8921L170.604 80.7087L172.768 83.2606L173.331 83.4769L173.894 83.6931L177.011 88.9699L178.526 90.2242L186.188 92.4301L186.664 92.6463V93.1221L186.534 93.5546L178.742 108.347L171.253 122.49L169.781 126.124L169.089 134.298V134.731L169.219 135.077L172.422 141.175L172.985 142.3L172.898 142.559L172.552 142.905L166.318 146.452L165.755 146.885V147.49L165.972 147.923L178.266 164.921L186.405 176.253L186.534 176.858L179.998 179.929L178.526 180.405L178.05 180.275L177.703 180.059L177.574 179.929L174.154 174.436L169.219 169.03L167.487 167.776L166.232 166.954L164.846 166.391L159.349 165.007H157.834L157.271 165.137L156.708 165.483L156.232 165.829L155.756 166.305L154.63 168.597L154.154 168.943L153.461 169.03L152.812 168.684L152.552 168.597L152.119 168.338L151.773 167.3L151.427 166.737L149.912 165.007L149.349 164.661L147.617 164.359L147.054 164.099L146.145 163.321L145.106 162.153L144.76 161.936L144.414 161.807L143.721 161.59L136.838 155.492L135.929 154.367L135.236 153.113L134.76 151.599L134.414 150.907L133.981 150.691H132.596L132.033 150.475L131.427 150.129L131.081 149.653L130.301 148.182L129.955 147.231L129.133 145.976L128.916 145.414V143.684L128.786 142.905L128.44 142.559L127.098 142.43L125.583 141.954L125.237 141.867L124.674 141.392H124.198L123.981 141.521L123.505 141.954L122.033 143.122L121.47 143.338H120.648L120.172 143.468L119.955 143.597V143.814V143.9V144.16L120.302 144.722L120.431 145.198L120.085 146.106L119.739 146.452L119.046 145.414L118.224 144.722L115.15 143.597H113.635L113.289 143.468L112.942 142.905L113.072 142.3L113.289 141.954L113.895 141.867L115.583 141.175L115.496 139.662L114.89 137.715L115.15 135.899L115.713 135.553L116.276 135.336L116.752 134.99L116.882 134.385L116.535 133.822L115.843 133.476L114.544 132.914L113.548 132.006L112.726 130.838L111.817 129.8L110.561 129.714L109.263 129.8L106.752 129.584L100.691 130.492H99.1762L98.4836 130.146L97.3581 129.021L96.6655 128.762L95.1503 128.546L94.3711 128.113L94.0248 127.421L93.6785 124.437L93.3322 123.745L92.9858 123.053L91.1677 121.106L90.4751 120.76H89.6526L88.8301 121.193L88.0508 121.452H87.2283L85.8864 121.193L83.8951 120.285L81.947 118.554L75.7566 111.245L75.064 110.769L74.5012 111.677L74.1549 115.008L73.5921 116.176L72.3368 116.522L70.9515 116.392L69.4364 116.046L66.3628 114.791H65.6702L65.1074 115.008L63.5923 115.916L62.4668 116.392L61.9906 116.738L61.6442 117.3L61.8607 118.122L62.3369 118.554L66.0165 120.285L67.0554 121.106L67.8346 122.49L68.6572 124.177L70.8216 127.767L71.9904 129.108L72.2069 129.368L72.4233 129.714L72.3368 130.06L71.9904 130.276L70.129 130.492L69.5662 130.406L69.3498 129.93V129.368L69.4364 128.675L69.5662 127.983L69.2199 126.599L68.5273 125.561L67.4883 124.869L64.6312 123.485L64.0685 123.399L63.4624 123.485L62.4668 123.961H61.9906L61.5144 123.745L60.9516 122.707L60.4754 122.231L59.9127 122.144H59.3499L58.6573 122.231L58.0945 122.49L57.8348 122.836L57.6183 123.269L56.8391 124.091L56.0166 124.437L55.5404 124.869L55.6703 125.907L56.3629 127.291V127.854L56.1465 128.762L54.9777 131.4L54.5448 131.876L53.5058 132.222L53.2461 132.784L53.5058 133.39L53.8521 133.822L53.9387 134.169L53.2461 134.644L52.6833 134.731L50.7353 134.644L50.1725 134.731L48.5708 135.553L47.3154 135.899L43.1596 135.077L40.3891 135.207L37.7484 136.591L35.4541 138.883L33.8524 141.867L32.8134 143.468L31.558 144.376L28.8308 145.63L28.0083 146.798V148.269L28.7009 151.253L28.5711 152.767L28.3546 153.892V155.146L28.8308 156.53L29.5234 157.568L29.8265 158.606L29.9563 159.731L29.8265 161.028L30.0862 162.153L30.4325 163.191L30.9953 164.099L31.558 164.791L32.0342 165.137L32.4671 165.353L33.8524 165.699L34.1121 165.829L33.9823 166.175L33.7658 166.521L33.0732 166.954L31.8178 167.646L31.2117 168.251L30.3027 169.938L29.7399 170.198L26.2767 169.506L23.5495 168.943L17.0994 168.597L16.0604 168.468L10.0865 168.251L4.80513 167.905L0.129869 167.646V158.822V149.999V141.175V132.352V123.399V114.445V105.492V96.4525V87.3696V78.3298L0 69.2469V60.0774V50.9079V41.6087V32.3094V23.0535H0.129869V22.9237L2.77053 22.1019L5.49777 21.1936L8.13843 20.4151L10.909 19.4635L13.5496 18.685L16.3201 17.7767L18.9608 16.8251L20.9954 16.2628L21.688 16.0466L24.3287 15.1383L27.0992 14.3165L29.7399 13.4082L32.3805 12.5864L35.1078 11.6781L37.7484 10.8563L40.519 9.94802L43.1596 9.03972L46.8392 8.00167L50.389 6.87711L53.9387 5.83905L57.6183 4.67124L59.22 4.23872L60.8217 3.63319L62.5533 3.20067L64.155 2.72489L65.8866 2.16261L67.7481 1.68684L69.4364 1.12456L71.1679 0.648784L73.4623 0L74.1549 0.0865045L74.9774 0.432523L77.1419 1.94635L77.7047 2.37887L79.5661 3.54668L82.2933 5.49304L85.973 7.87191L88.527 9.602Z" fill="#051A3C"/>
<path d="M346.576 178.329L346.663 178.113L346.923 177.983L347.009 177.853H347.269H347.355H347.615L347.702 178.113L347.961 178.329L348.048 177.853L348.265 177.421H348.611H348.871L348.957 177.767V178.199V178.459V178.545L349.087 178.675H349.217L349.303 178.805L348.957 179.021L348.611 179.237L348.524 179.367H348.394L348.524 179.497H348.611L348.741 179.583V179.713L348.871 179.929L348.957 180.146V180.751V181.184L348.871 181.876L348.741 182.438L348.524 183.13L348.265 183.735L348.048 184.298L347.832 184.774L347.702 184.99L347.485 185.206L347.355 185.422L347.139 185.682L346.923 185.898L346.663 186.114L346.1 186.374L345.667 186.59L345.537 186.72L345.407 186.806L345.321 186.936V187.066L345.407 187.152V187.282L345.97 187.412L346.576 187.498L347.009 187.715L347.485 187.974L348.741 189.228L350.126 190.613L351.035 191.305L352.074 192.083L353.243 192.645L353.113 194.289L352.767 194.635L351.165 194.981H350.819L350.602 195.068L350.472 195.197V195.414L350.342 196.235L350.256 197.706V197.836L350.472 198.052L350.905 197.922L351.381 197.836H351.728V198.268L348.394 206.097L348.265 206.529L348.178 207.135L348.265 208.13L348.394 208.476L348.611 208.735V208.952L349.433 209.081L355.97 209.168L364.585 207.005L364.715 207.135H364.801L364.585 207.481L364.455 207.567L364.368 207.827L364.238 208.043L363.892 209.514L363.762 209.773L363.676 210.119L364.022 210.768L362.853 211.114L362.16 211.46L362.983 212.282L364.238 213.104L365.277 213.536L365.494 213.407L364.368 215.137L363.892 215.958L363.762 216.304V216.65V216.867V217.083L363.892 217.429L364.022 217.688V217.775L364.238 218.467L364.368 218.813L364.455 219.029V219.375L364.368 220.673L364.238 220.759L364.108 220.889L364.022 220.673L363.892 220.543L363.762 220.413H363.676L363.459 220.543L363.329 220.759L363.459 220.889L363.546 220.976L364.022 221.322L364.238 221.451V221.581V221.797L364.108 222.014L364.022 222.36V222.965L363.892 223.398V223.311H363.546L363.199 224.09L362.983 230.188L362.766 230.967L362.42 231.789L361.728 232.481L360.472 233.259L360.126 233.822L360.212 234.081L360.342 234.514H360.472L359.866 234.773L358.048 235.206L356.663 235.465L355.277 235.335L352.896 234.427L348.611 234.297L338.741 231.789H337.399L336.36 232.135L333.719 233.951L331.425 234.427L330.819 234.86L331.079 236.59L330.949 236.719L330.819 236.806L330.602 236.936H330.473L329.823 236.806H329.347L327.183 234.989L326.014 233.822L325.538 233.389L325.321 232.827V230.188L325.451 229.929L325.538 229.583L326.014 229.496H326.836L327.053 229.367L327.399 229.237L327.529 229.15V228.891V228.458V228.242V227.896L327.399 227.636V227.42V227.074V226.512L327.529 226.252V226.166L327.745 225.95L328.178 225.604L329.131 225.128L329.693 224.912L330.473 224.652H330.732L331.165 224.566L331.295 224.22L330.473 220.759L330.04 219.981L324.975 219.029L324.412 218.943L324.066 219.029H323.849L323.589 218.943L323.157 218.597H322.897L322.81 218.683H322.334H321.988L319.693 218.034L319.347 217.429L319.261 217.559H319.131L318.654 217.688L317.745 216.65L317.616 216.391V216.045L317.745 215.829V215.396L317.616 215.137L317.399 214.92H317.183H316.966H316.836L316.274 215.266H316.144L315.927 215.396L315.668 215.266H315.321L315.235 215.05L315.105 214.92L314.975 213.19V212.974V212.844L315.235 212.758L315.668 212.498L315.927 212.412V212.282L316.144 211.936V211.114L315.321 210.119L315.235 209.86V209.514L315.321 209.298V209.081L315.235 208.952L315.105 208.735L314.542 208.476L314.326 208.389L314.196 208.13L314.066 207.913L313.719 205.967L313.633 205.405V203.545V203.329V203.112L313.719 202.896L313.979 202.291L314.066 201.728L314.196 201.253L314.066 200.907L313.979 200.474L313.719 199.998L313.633 199.782L313.373 199.652H313.287L312.464 199.912H311.901L311.425 199.782L310.992 199.652L309.737 199.306L306.144 199.22L305.927 199.09L310.3 190.483L311.079 188.407L310.386 187.282L310.17 186.72V186.46V185.898V185.206V184.774V184.514V184.298L310.04 184.168L309.953 184.081L307.313 183.389L306.836 183.13L306.75 183.043L306.49 182.697L306.274 182.351V182.222L306.144 182.005L305.711 176.729L306.057 176.253L306.274 175.691L309.823 174.22V174.09L310.3 174.22L311.425 174.566L314.888 174.306L317.616 174.09L321.771 173.874L324.888 173.744L328.525 173.528L330.949 173.398L334.628 173.182L338.308 172.922H338.654L339.001 173.052L339.563 173.398L340.126 173.744L340.472 173.874L340.819 173.96L341.035 173.874H341.381L342.204 173.268L343.026 172.706L343.329 172.49L343.676 172.23L343.936 172.836L344.022 173.398H344.152L344.282 173.614L344.368 173.874L344.975 174.652L345.667 175.474L345.754 175.82L345.884 176.166L345.97 176.945L346.1 177.637L346.316 177.983L346.576 178.329Z" fill="#051A3C"/>
<path d="M282.722 107.568L286.878 105.276L290.99 102.984L290.298 112.715L289.735 122.49L289.605 123.485V124.523L289.389 124.783L289.259 125.129L288.956 125.345L288.61 125.475V125.691L288.48 125.907V127.162L288.35 133.476L288.263 141.046V141.305L288.35 141.521L288.48 141.608H288.61H292.029L295.146 141.738H298.35H301.813H301.899H302.029H302.116H302.246H302.376H302.462L302.592 141.867L303.068 146.668L303.501 151.599L304.453 156.314L305.363 161.028L306.618 166.737L307.873 172.36L308.436 173.052L309.129 173.874L309.821 174.09V174.22L306.272 175.691L306.055 176.253L305.709 176.729L306.142 182.005L306.272 182.222V182.351L306.488 182.697L306.748 183.043L306.834 183.13L307.311 183.39L309.951 184.082L310.038 184.168L310.168 184.298V184.514V184.774V185.206V185.898V186.46V186.72L310.384 187.282L311.077 188.407L310.298 190.483L305.925 199.09L305.363 198.528L305.016 198.052L304.886 197.836V197.706L304.757 197.62V197.36L305.016 196.798V196.452V196.322L304.886 196.106L303.847 194.981L303.068 194.289L302.722 194.159L302.462 194.03L302.246 194.159L300.168 195.63L299.475 195.889L298.912 195.976L298.48 195.889L297.873 195.76L297.441 195.414L296.878 194.981L296.402 194.722H296.055L295.579 194.851L295.233 195.068L294.887 195.543L294.67 195.889L294.454 196.452L294.107 197.36L293.977 198.052V198.614L294.237 199.306L294.454 199.652L294.54 199.912V200.258L294.324 200.69L294.107 200.82L293.545 201.166L293.415 201.382V201.599L293.761 202.55V203.891L293.631 204.713L293.198 205.491V205.751L293.285 206.097V206.183L293.761 206.659V207.005L293.631 207.222L292.938 208.26L292.592 208.735L292.506 209.298L292.246 210.119L291.467 211.806V212.152V212.412H291.596H291.813L292.376 212.282H292.592L292.938 212.412L293.068 212.498L293.285 212.758L293.415 212.974L293.285 213.19L293.198 213.536L292.938 213.882L291.12 215.612L290.774 215.742L284.584 217.083L283.328 216.867L282.159 216.045L281.467 216.175L280.904 215.958L280.428 215.483L279.302 215.05L278.826 214.574L278.047 213.536H277.787L277.701 213.407L277.095 213.32L274.454 212.152H274.021L273.891 212.282L273.675 212.412L273.545 212.758L273.458 213.104V213.19V213.666L273.328 214.445V214.704V214.791L273.198 214.92L273.112 215.137L272.419 216.175V216.391L272.506 216.65H272.636H272.852L272.982 216.737L273.112 216.867L273.198 217.083V217.343L273.112 217.559L272.636 218.597L272.506 218.813L272.073 220.759L271.813 221.235L271.597 221.322L271.25 221.451H270.341L269.519 221.322L268.74 220.976L267.831 220.413H267.571L267.354 220.543L267.225 220.759L267.138 220.976L267.008 221.668L266.792 221.927L266.532 222.014L264.844 222.49L263.458 222.706H263.242L262.982 222.836L262.896 222.965V223.182L262.982 223.614L263.891 224.566L264.497 225.128L264.714 225.344L264.93 225.69L265.753 228.804L265.883 229.15L265.753 229.713V230.059L265.623 230.275L264.844 232.221V232.481L265.19 233.605L266.662 236.59L266.099 236.936L263.328 237.628L263.242 236.59V236.374L262.896 235.335L262.636 234.989L262.549 234.773L262.073 234.081L261.597 233.605L261.164 233.389L260.471 233.173L259.909 232.827L259.649 232.005V231.183V230.621L259.303 229.842L258.87 228.891L255.406 227.291L255.19 226.858L254.714 226.728L253.458 227.291H252.896L252.549 227.074L252.419 226.728L252.333 226.512L252.203 226.253L250.818 225.474L250.125 224.912L247.961 222.014L247.485 221.105L247.961 220.197L248.394 219.159L249.346 217.905L249.433 217.775L249.692 217.559L249.909 217.083L251.64 216.304L252.203 215.829L252.679 215.396L253.112 214.791L254.497 212.066L254.844 211.72H255.19L255.32 211.46L255.536 211.374H255.753L256.575 211.244L256.662 211.114L256.575 210.898L256.099 210.336L255.19 209.427L254.844 208.952V208.735L254.974 208.606L255.32 208.389L255.753 207.005L255.06 206.183L254.844 205.491V205.189L254.974 204.843V204.497L255.32 204.151L255.753 203.891L256.792 203.675H257.355L257.961 203.891L258.523 204.367L259.216 204.843L259.779 205.059H263.242L263.458 204.367L264.151 202.291L264.714 201.858L265.276 201.166L266.099 198.744V198.268L266.445 197.706L266.662 197.62L266.878 197.49H267.225L268.74 197.836H269.086V197.36V196.927L268.956 196.235V195.197V194.289L269.173 193.251L269.865 190.959L268.523 191.305L259.779 190.699L256.922 190.05L255.883 189.445L254.974 188.666L254.497 187.498L254.281 186.46L253.675 182.697L253.329 181.789H253.026L252.073 183.043L251.164 183.476L249.909 183.736L246.099 183.822L245.19 184.298L244.627 184.514L243.718 187.974L243.112 188.537L235.32 187.628L234.065 187.152L233.718 186.374V183.822L233.502 182.568L232.896 181.659L232.333 181.184L231.9 181.097L231.208 181.313L230.731 181.789L230.169 182.438L228.437 186.028L226.359 189.099L222.939 190.267L223.026 189.575L222.03 188.537L221.338 187.412L212.723 182.005L208.221 179.497L204.455 178.113L201.901 177.421L201.251 177.075L197.312 170.198L192.507 164.445L191.814 163.191L190.905 161.115H188.481L178.265 164.921L165.97 147.923L165.754 147.49V146.885L166.317 146.452L172.55 142.905L172.897 142.559L172.983 142.3L172.42 141.175L169.217 135.077L169.087 134.731V134.298L169.78 126.124L171.252 122.49L178.741 108.347L186.533 93.5546L186.663 93.1221V92.6463L186.187 92.43L178.524 90.2242L177.009 88.9698L173.892 83.6931L176.317 83.2605L177.356 83.001L178.394 82.9145L179.304 82.655L180.342 82.4387L181.944 82.2225L183.676 81.8765L185.277 81.6602L186.879 81.3142L189.52 80.8384L192.031 80.4924L194.671 80.0166L197.312 79.5841L199.953 79.1083L202.593 78.7623L205.234 78.3298L207.875 77.854L212.247 78.3298L216.619 78.6758L220.991 79.1083L225.32 79.4543L229.346 79.8004L233.242 80.1464L237.268 80.6222L241.294 80.9682L242.896 81.0547L243.372 80.9682L243.805 80.7087L246.705 79.1083L249.562 77.6377L252.333 76.0374L255.19 74.5236L255.666 74.3073L256.229 74.0911L256.662 74.1776H257.138L257.614 74.6533L258.047 75.0859L261.164 79.1083L264.238 83.1308L265.753 84.7311L267.138 86.2449L270.125 88.0615L273.112 89.9214L273.675 90.4837L274.108 90.9162L276.662 95.9767L278.133 99.1774L280.341 103.676L282.159 107.439H282.376L282.722 107.568Z" fill="#051A3C" stroke="#051A3C" stroke-width="0.5" stroke-linecap="round" stroke-linejoin="round"/>
</svg>
