<svg width="25" height="24" viewBox="0 0 25 24" fill="none" xmlns="http://www.w3.org/2000/svg">
<path d="M0.842097 0H3.2594L4.81648 4.27848H4.96706L6.45203 0H8.89005L6.09679 6.26245V10.705H3.69742V6.46169L0.842097 0ZM9.14394 4.61012C9.14394 3.98198 9.43296 3.48277 10.0114 3.11009C10.5891 2.73746 11.3657 2.55114 12.3415 2.55114C13.23 2.55114 13.9577 2.74802 14.5245 3.14057C15.0929 3.53312 15.3762 4.0382 15.3762 4.65699V8.84642C15.3762 9.54017 15.0974 10.0851 14.5416 10.48C13.9852 10.8749 13.2188 11.073 12.244 11.073C11.3047 11.073 10.5534 10.869 9.98938 10.4613C9.42612 10.0535 9.14394 9.50504 9.14394 8.81477V4.61012ZM11.3536 8.96708C11.3536 9.19092 11.4294 9.36202 11.5826 9.48508C11.7355 9.60695 11.9537 9.6667 12.2375 9.6667C12.5285 9.6667 12.7598 9.60578 12.9308 9.48155C13.102 9.3562 13.188 9.18505 13.188 8.96708V4.54915C13.188 4.37218 13.1001 4.22921 12.9255 4.12025C12.751 4.01124 12.5217 3.95615 12.2375 3.95615C11.976 3.95615 11.7627 4.01124 11.5994 4.12025C11.4353 4.22921 11.3536 4.37218 11.3536 4.54915V8.96708ZM23.2293 2.68124V10.7929H21.079V9.89758C20.6821 10.2281 20.27 10.4788 19.8408 10.6523C19.4124 10.8234 18.9957 10.9101 18.5928 10.9101C18.0955 10.9101 17.7201 10.7894 17.4681 10.548C17.2161 10.3065 17.0901 9.94446 17.0901 9.46164V2.68124H19.2411V8.89917C19.2411 9.09253 19.2864 9.2308 19.3762 9.3175C19.4669 9.40307 19.6125 9.44642 19.814 9.44642C19.9727 9.44642 20.1729 9.38898 20.4136 9.27532C20.6557 9.16166 20.8775 9.01635 21.0789 8.83938V2.68124H23.2293ZM21.2142 17.0378C21.1086 16.9334 20.9406 16.8796 20.7096 16.8796C20.4682 16.8796 20.295 16.9334 20.19 17.0378C20.085 17.1432 20.0325 17.3178 20.0325 17.5616V18.0667H21.3723V17.5616C21.3723 17.3178 21.3199 17.1432 21.2142 17.0378ZM14.8592 20.8405C14.9747 20.8826 15.0967 20.9026 15.2253 20.9026C15.4117 20.9026 15.5469 20.8627 15.6348 20.7807C15.7227 20.6998 15.766 20.565 15.766 20.3799V17.4596C15.766 17.2628 15.7122 17.1139 15.6046 17.012C15.4963 16.91 15.3383 16.8596 15.1335 16.8596C15.0252 16.8596 14.9183 16.8783 14.8126 16.9159C14.707 16.9545 14.6027 17.0143 14.4996 17.094V20.6354C14.623 20.7315 14.743 20.7994 14.8592 20.8405ZM24.8337 14.6577C24.8337 13.2515 23.2162 12.1112 21.2228 12.1112C18.379 12.0256 15.4689 11.9882 12.5 11.9928C9.5321 11.9881 6.62197 12.0256 3.77716 12.1112C1.78474 12.1112 0.167279 13.2514 0.167279 14.6577C0.0475156 15.7698 -0.00434487 16.883 0.000283655 17.9963C-0.00429227 19.1096 0.0475156 20.2229 0.167279 21.3361C0.167279 22.7412 1.78474 23.8814 3.77716 23.8814C6.62197 23.9658 9.5321 24.0033 12.5 23.9998C15.4689 24.0033 18.379 23.9658 21.2228 23.8814C23.2162 23.8814 24.8337 22.7412 24.8337 21.3361C24.9531 20.2229 25.0049 19.1096 24.9996 17.9963C25.0049 16.883 24.9531 15.7698 24.8337 14.6577ZM5.41261 21.744V21.8284H3.70463V21.744V15.0831H1.93758V14.9999V13.9382V13.8551H7.18002V13.9382V14.9999V15.0831H5.41261V21.744ZM11.4884 16.0077V21.744V21.8284H9.97202V21.744V21.185C9.69184 21.4228 9.40145 21.6022 9.09933 21.7264C8.79653 21.8494 8.5032 21.9115 8.21844 21.9115C7.86804 21.9115 7.6039 21.8248 7.42607 21.6525C7.24792 21.4791 7.15898 21.219 7.15898 20.8721V20.7877V16.0077V15.9245H8.67609V16.0077V20.3857C8.67609 20.5229 8.70759 20.6236 8.77087 20.6846C8.83488 20.7467 8.93786 20.7772 9.07993 20.7772C9.1918 20.7772 9.33255 20.7361 9.50317 20.6553C9.67311 20.5732 9.82927 20.469 9.97202 20.3424V16.0077V15.9245H11.4884V16.0077ZM17.3271 17.394V20.5381V20.6225C17.3271 21.0362 17.2083 21.3525 16.9708 21.5729C16.7332 21.7908 16.3894 21.901 15.9406 21.901C15.644 21.901 15.3803 21.8588 15.1479 21.7744C14.915 21.6889 14.6992 21.5576 14.4997 21.3806V21.7439V21.8283H12.9688V21.7439V13.9382V13.855H14.4997V13.9382V16.3944C14.7044 16.2163 14.9209 16.0815 15.1506 15.9901C15.3809 15.8975 15.6139 15.8507 15.8487 15.8507C16.3277 15.8507 16.6952 15.9749 16.9478 16.2233C17.2004 16.4718 17.3271 16.8339 17.3271 17.3097V17.394ZM22.9334 17.5721V18.9702V19.0546H20.0325V20.0682C20.0325 20.3741 20.0824 20.5862 20.1821 20.7045C20.2825 20.8229 20.4531 20.8827 20.6945 20.8827C20.9459 20.8827 21.1224 20.8323 21.2228 20.7315C21.3225 20.6319 21.3723 20.4104 21.3723 20.0682V19.7483V19.6639H22.9334V19.7483V20.101V20.1854C22.9334 20.7818 22.7438 21.2307 22.3633 21.533C21.9833 21.8354 21.4157 21.9854 20.6604 21.9854C19.9813 21.9854 19.4472 21.8248 19.0568 21.5049C18.667 21.185 18.4715 20.7444 18.4715 20.1854V20.101V17.5721V17.489C18.4715 16.9839 18.686 16.5725 19.1139 16.2538C19.5423 15.9362 20.0969 15.7768 20.7753 15.7768C21.4695 15.7768 22.0023 15.9245 22.3751 16.2186C22.7465 16.5128 22.9334 16.937 22.9334 17.489V17.5721H22.9334Z" fill="#D3D3D3"/>
</svg>
